<?xml version="1.0" encoding="utf-8"?>
<!-- Generator: Adobe Illustrator 24.0.1, SVG Export Plug-In . SVG Version: 6.00 Build 0)  -->
<svg version="1.1" id="Layer_1" xmlns="http://www.w3.org/2000/svg" xmlns:xlink="http://www.w3.org/1999/xlink" x="0px" y="0px"
	 viewBox="0 0 128 116" style="enable-background:new 0 0 128 116;" xml:space="preserve">
<style type="text/css">
	.st0{fill:#65D19B;}
	.st1{fill:#7DDF9B;}
	.st2{fill:#FFDB56;}
	.st3{fill:#4BBDD1;}
	.st4{fill:#FFD96A;}
	.st5{fill:#40CDE0;}
	.st6{fill:#FB6520;}
	.st7{opacity:0.2;}
	.st8{fill:#FF5642;}
</style>
<g>
	<path class="st0" d="M118.4,105.9L110,59.2c-0.1-0.5-0.4-0.9-0.8-1.1L87.9,46.2C87.6,46.1,87.3,46,87,46l3.9,50.1l-0.1,0.1
		l25.5,11.5c0.2,0.1,0.4,0.1,0.6,0.1c0.3,0,0.7-0.1,1-0.3C118.3,107.1,118.6,106.5,118.4,105.9z"/>
	<path class="st0" d="M64.5,57.6L42.7,46.2c-0.3-0.1-0.6-0.2-0.8-0.2c0.1,0,0.2,0,0.2,0l-3.9,50.1l25.7,11.5
		c0.2,0.1,0.4,0.1,0.6,0.1l0,0V57.6z"/>
</g>
<g>
	<path class="st1" d="M42.1,46c-0.3,0-0.6,0-0.9,0.2L19.9,58.1c-0.4,0.2-0.7,0.6-0.8,1.1l-8.5,46.7c-0.1,0.6,0.1,1.2,0.6,1.5
		c0.3,0.2,0.6,0.3,1,0.3c0.2,0,0.4,0,0.6-0.1l25.4-11.4L42.1,46z"/>
	<path class="st1" d="M87,46c-0.2,0-0.4,0.1-0.6,0.2L64.5,57.6v50.2c0,0,0,0,0,0c0.2,0,0.4,0,0.6-0.1l25.7-11.5L87,46z"/>
</g>
<polygon class="st2" points="16.5,73.3 14.8,82.8 40.3,69.4 40.9,61.7 41,60.5 "/>
<path class="st3" d="M40.5,66.4l-0.2,3L14.8,82.8l-4.2,23.1c-0.1,0.6,0.1,1.2,0.6,1.5c0.3,0.2,0.6,0.3,1,0.3c0.2,0,0.4,0,0.6-0.1
	l25.4-11.4L40.5,66.4L40.5,66.4z"/>
<g>
	<polygon class="st4" points="64.5,63.8 41,60.5 40.3,69.4 64.5,106.2 64.5,92.8 50.1,70 64.5,71.7 	"/>
	<polygon class="st4" points="107.5,57.2 97.3,51.5 87.6,53.7 87.7,55.3 88.2,61.5 	"/>
</g>
<polygon class="st2" points="89,72.6 88.1,60.7 88.1,60.7 87.6,53.7 64.5,63.8 64.5,71.7 79.6,65.2 "/>
<path class="st4" d="M118.4,105.9l-2.1-11.7L88.2,61.5L89,72.6l28.9,34.8C118.3,107,118.5,106.5,118.4,105.9z"/>
<path class="st2" d="M65.2,107.6l9.5-4.3L64.5,92.8v15c0,0,0,0,0,0C64.8,107.8,65,107.7,65.2,107.6z"/>
<g>
	<path class="st5" d="M110,59.2c-0.1-0.5-0.4-0.9-0.8-1.1l-1.7-0.9l-19.3,4.3l0,0l28.2,32.7L110,59.2z"/>
	<path class="st5" d="M64.5,107.8C64.5,107.8,64.5,107.8,64.5,107.8v-1.6L40.3,69.4l-2.1,26.7l25.7,11.5
		C64.1,107.7,64.3,107.8,64.5,107.8z"/>
</g>
<g>
	<path class="st6" d="M64.6,8.7c-11,0-19.9,8.9-19.9,19.9c0,0,0,0,0,0c0,5.9,5.7,17.4,11,26.8c4.6,8.2,9,14.9,9,14.9
		s4.3-6.7,8.9-14.9c5.3-9.4,10.9-20.9,10.9-26.8c0,0,0,0,0,0C84.5,17.6,75.6,8.7,64.6,8.7z M64.6,35.4c-4.9,0-8.9-4-8.9-8.9
		s4-8.9,8.9-8.9c4.9,0,8.9,4,8.9,8.9S69.5,35.4,64.6,35.4z"/>
</g>
<g class="st7">
	<path class="st8" d="M64.7,8.7v8.9c4.9,0,8.9,4,8.9,8.9c0,4.9-4,8.9-8.9,8.9v34.8c0,0,0,0,0,0s4.3-6.7,8.9-14.9
		c5.3-9.4,10.9-20.9,10.9-26.8c0,0,0,0,0,0C84.5,17.6,75.6,8.7,64.7,8.7z"/>
</g>
</svg>
