<?xml version="1.0" encoding="utf-8"?>
<!-- Generator: Adobe Illustrator 24.0.1, SVG Export Plug-In . SVG Version: 6.00 Build 0)  -->
<svg version="1.1" id="Layer_1" xmlns="http://www.w3.org/2000/svg" xmlns:xlink="http://www.w3.org/1999/xlink" x="0px" y="0px"
	 viewBox="0 0 128 116" style="enable-background:new 0 0 128 116;" xml:space="preserve">
<style type="text/css">
	.st0{fill:#365370;}
	.st1{fill:#38597A;}
	.st2{fill:#E3E1DF;}
	.st3{fill:#EEEEEE;}
	.st4{fill:#40CDE0;}
	.st5{fill:#FB6520;}
	.st6{opacity:0.2;}
	.st7{fill:#FF5642;}
	.st8{fill:#E3E3E3;}
	.st9{fill:#3F4D66;}
	.st10{fill:#FFFFFF;}
</style>
<g>
	<path class="st0" d="M125.4,106.3c0,2.3-1.9,4.2-4.2,4.2H7.3c-2.3,0-4.2-1.9-4.2-4.2V29.9c0-2.3,1.9-4.2,4.2-4.2h113.9
		c2.3,0,4.2,1.9,4.2,4.2V106.3z"/>
</g>
<g>
	<path class="st1" d="M64.2,110.5h-57c-2.3,0-4.2-1.9-4.2-4.2V29.9c0-2.3,1.9-4.2,4.2-4.2h57V110.5z"/>
</g>
<g>
	<path class="st2" d="M119.9,103c0,0.2-0.2,0.4-0.5,0.4H9c-0.3,0-0.5-0.2-0.5-0.4V32.5c0-0.2,0.2-0.4,0.5-0.4h110.5
		c0.3,0,0.5,0.2,0.5,0.4V103z"/>
</g>
<g>
	<path class="st3" d="M119.8,103.2c-0.1,0.1-0.2,0.1-0.4,0.1H9c-0.3,0-0.5-0.2-0.5-0.4V32.5c0-0.1,0.1-0.2,0.1-0.3
		C8.6,32.2,119.9,103.2,119.8,103.2z"/>
</g>
<g>
	<path d="M102.7,74.5c0,0.3,0,0.6,0,0.9c0-0.1,0-0.1,0-0.2C102.7,75.1,102.7,74.8,102.7,74.5z"/>
</g>
<g>
	<path d="M118.6,86.7v-0.1C118.6,86.6,118.6,86.6,118.6,86.7C118.6,86.7,118.6,86.7,118.6,86.7z"/>
</g>
<g>
	<g>
		<path class="st4" d="M86.1,67.6H39.3c-4,0-7.2-3.2-7.2-7.2V22.9c0-4,3.2-7.2,7.2-7.2h46.7c4,0,7.2,3.2,7.2,7.2v37.4
			C93.2,64.4,90,67.6,86.1,67.6z"/>
	</g>
	<g>
		<path class="st5" d="M75,15.8c-8.4,0-16.8,0-25.1,0c1.2-3.3,2.4-6.5,3.7-9.8c8.8,0,9,0,17.8,0C72.6,9.3,73.8,12.5,75,15.8z"/>
	</g>
	<g class="st6">
		<path class="st4" d="M88.9,15.7H75H62.5v51.8h26.4c2.4,0,4.3-1.9,4.3-4.3V20C93.2,17.6,91.3,15.7,88.9,15.7z"/>
	</g>
	<g class="st6">
		<path class="st7" d="M75,15.7c-1.2-3.3-2.4-6.5-3.7-9.8c-4.4,0-6.6,0-8.9,0v9.8H75z"/>
	</g>
	<g>
		<g>
			<g>
				<path class="st8" d="M62.7,23.3c-10.1,0-18.4,8.2-18.4,18.4c0,6.8,3.7,12.7,9.2,15.9c2.7,1.6,5.8,2.5,9.2,2.5
					c6.1,0,11.5-3,14.8-7.5c2.2-3,3.5-6.8,3.5-10.8C81,31.5,72.8,23.3,62.7,23.3z"/>
			</g>
		</g>
		<g class="st6">
			<g>
				<path class="st8" d="M62.7,23.3V60c6.1,0,11.5-3,14.8-7.5c2.2-3,3.5-6.8,3.5-10.8C81,31.5,72.8,23.3,62.7,23.3z"/>
			</g>
		</g>
	</g>
	<g>
		<g>
			<g>
				<path class="st9" d="M62.7,26.2c-8.4,0-15.3,6.8-15.3,15.3c0,5.6,3.1,10.6,7.6,13.2c2.3,1.3,4.9,2.1,7.7,2.1
					c5.1,0,9.5-2.5,12.3-6.3c1.9-2.5,2.9-5.6,2.9-9C78,33.1,71.1,26.2,62.7,26.2z"/>
			</g>
		</g>
		<g class="st6">
			<g>
				<path class="st9" d="M62.7,26.2v30.5c5.1,0,9.5-2.5,12.3-6.3c1.9-2.5,2.9-5.6,2.9-9C78,33.1,71.1,26.2,62.7,26.2z"/>
			</g>
		</g>
	</g>
	<g>
		<rect x="38.1" y="9.4" class="st5" width="6.3" height="6.3"/>
	</g>
	<g class="st6">
		<rect x="41.3" y="9.4" class="st7" width="3.2" height="6.3"/>
	</g>
	<g>
		<path class="st5" d="M87,23.6h-4.5c-1.2,0-2.3-1-2.3-2.3v0c0-1.2,1-2.3,2.3-2.3H87c1.2,0,2.3,1,2.3,2.3v0
			C89.3,22.6,88.3,23.6,87,23.6z"/>
	</g>
	<g class="st6">
		<path class="st7" d="M80.3,21.2c0-1.1,0.9-2.1,2.1-2.1h4.9c1.1,0,2.1,0.9,2.1,2.1H80.3z"/>
	</g>
	<g>
		<circle class="st10" cx="54.4" cy="36.9" r="2"/>
	</g>
</g>
</svg>
