<?xml version="1.0" encoding="utf-8"?>
<!-- Generator: Adobe Illustrator 24.0.1, SVG Export Plug-In . SVG Version: 6.00 Build 0)  -->
<svg version="1.1" id="Layer_1" xmlns="http://www.w3.org/2000/svg" xmlns:xlink="http://www.w3.org/1999/xlink" x="0px" y="0px"
	 viewBox="0 0 128 116" style="enable-background:new 0 0 128 116;" xml:space="preserve">
<style type="text/css">
	.st0{fill:#E3E3E3;}
	.st1{fill:#7DDF9B;}
	.st2{opacity:0.2;}
	.st3{fill:#FEFFFF;}
	.st4{fill:#3F4D66;}
	.st5{fill:#FB6520;}
</style>
<g>
	<g>
		<g>
			<rect x="12.4" y="8" class="st0" width="74.2" height="100.5"/>
		</g>
	</g>
	<g>
		<g>
			<rect x="12.4" y="8" class="st1" width="74" height="14.2"/>
		</g>
	</g>
	<g class="st2">
		<g>
			<rect x="48.9" y="8" class="st0" width="37.7" height="100.5"/>
		</g>
	</g>
	<g class="st2">
		<g>
			<rect x="48.9" y="8" class="st1" width="37.5" height="14.2"/>
		</g>
	</g>
	<g>
		<g>
			<g>
				<g>
					<path class="st3" d="M18.8,16.6c-0.1,0-0.2,0-0.3,0c-0.1,0-0.2,0-0.3-0.1c-0.1,0-0.2-0.1-0.3-0.1c-0.1,0-0.2-0.1-0.2-0.2
						c-0.3-0.3-0.4-0.7-0.4-1.1c0-0.4,0.2-0.8,0.4-1.1c0.1-0.1,0.2-0.1,0.2-0.2c0.1-0.1,0.2-0.1,0.3-0.1c0.1,0,0.2-0.1,0.3-0.1
						c0.5-0.1,1,0.1,1.4,0.4c0.3,0.3,0.4,0.7,0.4,1.1c0,0.4-0.2,0.8-0.4,1.1C19.6,16.5,19.2,16.6,18.8,16.6z"/>
				</g>
			</g>
		</g>
		<g>
			<g>
				<g>
					<path class="st3" d="M29.1,15.1c0-0.8,0.7-1.5,1.5-1.5l0,0c0.8,0,1.5,0.7,1.5,1.5l0,0c0,0.8-0.7,1.5-1.5,1.5l0,0
						C29.8,16.6,29.1,15.9,29.1,15.1z"/>
				</g>
			</g>
		</g>
		<g>
			<g>
				<g>
					<path class="st3" d="M42.3,16.6c-0.4,0-0.8-0.2-1.1-0.4c-0.3-0.3-0.4-0.7-0.4-1.1c0-0.4,0.2-0.8,0.4-1.1c0.6-0.6,1.6-0.6,2.1,0
						c0.3,0.3,0.4,0.7,0.4,1.1c0,0.4-0.2,0.8-0.4,1.1C43.1,16.5,42.7,16.6,42.3,16.6z"/>
				</g>
			</g>
		</g>
	</g>
</g>
<g>
	<g>
		<path class="st4" d="M40.3,86.7c-0.8,0-1.5-0.7-1.5-1.5v-7.6c0-0.8,0.7-1.5,1.5-1.5c0.8,0,1.5,0.7,1.5,1.5v7.6
			C41.8,86,41.1,86.7,40.3,86.7z"/>
	</g>
</g>
<g>
	<g>
		<path class="st4" d="M55.4,82.9c-0.8,0-1.5-0.7-1.5-1.5V70.8c0-0.8,0.7-1.5,1.5-1.5c0.8,0,1.5,0.7,1.5,1.5v10.6
			C56.9,82.2,56.3,82.9,55.4,82.9z"/>
	</g>
</g>
<g>
	<g>
		<path class="st4" d="M70.7,76.7c-0.8,0-1.5-0.7-1.5-1.5V60.2c0-0.8,0.7-1.5,1.5-1.5c0.8,0,1.5,0.7,1.5,1.5v14.9
			C72.2,76,71.6,76.7,70.7,76.7z"/>
	</g>
</g>
<g>
	<g>
		<path class="st4" d="M102.4,61.8c-0.8,0-1.5-0.7-1.5-1.5V46.9c0-0.8,0.7-1.5,1.5-1.5c0.8,0,1.5,0.7,1.5,1.5v13.4
			C103.9,61.1,103.3,61.8,102.4,61.8z"/>
	</g>
</g>
<g>
	<g>
		<path class="st4" d="M84.9,69.2c-0.8,0-1.5-0.7-1.5-1.5V53.5c0-0.8,0.7-1.5,1.5-1.5c0.8,0,1.5,0.7,1.5,1.5v14.2
			C86.4,68.5,85.7,69.2,84.9,69.2z"/>
	</g>
</g>
<g>
	<g>
		<path class="st4" d="M31.7,46.7c-0.4,0-0.8-0.1-1.1-0.4L26.3,42L22,46.3c-0.6,0.6-1.5,0.6-2.1,0c-0.6-0.6-0.6-1.5,0-2.1l5.4-5.4
			c0.6-0.6,1.5-0.6,2.1,0l5.4,5.4c0.6,0.6,0.6,1.5,0,2.1C32.5,46.6,32.1,46.7,31.7,46.7z"/>
	</g>
</g>
<g>
	<g>
		<path class="st4" d="M118.4,48.7c-0.4,0-0.8-0.1-1.1-0.4l-4.3-4.3l-4.3,4.3c-0.6,0.6-1.5,0.6-2.1,0c-0.6-0.6-0.6-1.5,0-2.1
			l5.4-5.4c0.6-0.6,1.5-0.6,2.1,0l5.4,5.4c0.6,0.6,0.6,1.5,0,2.1C119.1,48.5,118.7,48.7,118.4,48.7z"/>
	</g>
</g>
<g>
	<g>
		<g>
			<g>
				<path class="st5" d="M40.3,83.4c-2.8,0-5,2.2-5,5c0,1.8,1,3.4,2.5,4.3c0.7,0.4,1.6,0.7,2.5,0.7c1.7,0,3.1-0.8,4-2
					c0.6-0.8,1-1.8,1-2.9C45.3,85.7,43,83.4,40.3,83.4z"/>
			</g>
		</g>
	</g>
	<g class="st2">
		<g>
			<g>
				<path class="st5" d="M40.3,83.4v10c1.7,0,3.1-0.8,4-2c0.6-0.8,1-1.8,1-2.9C45.3,85.7,43,83.4,40.3,83.4z"/>
			</g>
		</g>
	</g>
</g>
<g>
	<g>
		<g>
			<g>
				<path class="st5" d="M55.4,78.4c-2.8,0-5,2.2-5,5c0,1.8,1,3.4,2.5,4.3c0.7,0.4,1.6,0.7,2.5,0.7c1.7,0,3.1-0.8,4-2
					c0.6-0.8,1-1.8,1-2.9C60.4,80.7,58.2,78.4,55.4,78.4z"/>
			</g>
		</g>
	</g>
	<g class="st2">
		<g>
			<g>
				<path class="st5" d="M55.4,78.4v10c1.7,0,3.1-0.8,4-2c0.6-0.8,1-1.8,1-2.9C60.4,80.7,58.2,78.4,55.4,78.4z"/>
			</g>
		</g>
	</g>
</g>
<g>
	<g>
		<g>
			<g>
				<path class="st5" d="M70.7,72.6c-2.8,0-5,2.2-5,5c0,1.8,1,3.4,2.5,4.3c0.7,0.4,1.6,0.7,2.5,0.7c1.7,0,3.1-0.8,4-2
					c0.6-0.8,1-1.8,1-2.9C75.7,74.8,73.5,72.6,70.7,72.6z"/>
			</g>
		</g>
	</g>
	<g class="st2">
		<g>
			<g>
				<path class="st5" d="M70.7,72.6v10c1.7,0,3.1-0.8,4-2c0.6-0.8,1-1.8,1-2.9C75.7,74.8,73.5,72.6,70.7,72.6z"/>
			</g>
		</g>
	</g>
</g>
<g>
	<g>
		<g>
			<g>
				<path class="st5" d="M84.9,65.2c-2.8,0-5,2.2-5,5c0,1.8,1,3.4,2.5,4.3c0.7,0.4,1.6,0.7,2.5,0.7c1.7,0,3.1-0.8,4-2
					c0.6-0.8,1-1.8,1-2.9C89.9,67.4,87.6,65.2,84.9,65.2z"/>
			</g>
		</g>
	</g>
	<g class="st2">
		<g>
			<g>
				<path class="st5" d="M84.9,65.2v10c1.7,0,3.1-0.8,4-2c0.6-0.8,1-1.8,1-2.9C89.9,67.4,87.6,65.2,84.9,65.2z"/>
			</g>
		</g>
	</g>
</g>
<g>
	<g>
		<g>
			<g>
				<path class="st5" d="M102.4,58.2c-2.8,0-5,2.2-5,5c0,1.8,1,3.4,2.5,4.3c0.7,0.4,1.6,0.7,2.5,0.7c1.7,0,3.1-0.8,4-2
					c0.6-0.8,1-1.8,1-2.9C107.4,60.4,105.2,58.2,102.4,58.2z"/>
			</g>
		</g>
	</g>
	<g class="st2">
		<g>
			<g>
				<path class="st5" d="M102.4,58.2v10c1.7,0,3.1-0.8,4-2c0.6-0.8,1-1.8,1-2.9C107.4,60.4,105.2,58.2,102.4,58.2z"/>
			</g>
		</g>
	</g>
</g>
<g>
	<g>
		<path class="st5" d="M40.3,78.9c-0.4,0-0.8-0.2-1.1-0.5l-14-15.3c-0.6-0.6-0.5-1.6,0.1-2.1c0.6-0.6,1.6-0.5,2.1,0.1L39,73.8
			l1.3-21c0-0.6,0.5-1.2,1.1-1.3c0.6-0.2,1.2,0,1.6,0.5l11.6,15L57,48.4c0.1-0.6,0.5-1,1-1.2c0.5-0.2,1.1-0.1,1.5,0.3l10.6,10.1
			l3.6-13.7c0.1-0.5,0.5-0.9,1-1.1c0.5-0.1,1.1,0,1.4,0.4l7.7,7.4l6-23.2c0.2-0.6,0.7-1,1.3-1.1c0.6-0.1,1.2,0.2,1.5,0.8l8.6,15.4
			l1.5-31.9c0-0.8,0.7-1.5,1.6-1.4c0.8,0,1.5,0.7,1.4,1.6L104,47.9c0,0.7-0.5,1.2-1.2,1.4c-0.7,0.2-1.3-0.1-1.7-0.7l-9.3-16.7
			l-5.7,22.1c-0.1,0.5-0.5,0.9-1,1.1c-0.5,0.1-1.1,0-1.5-0.4l-7.8-7.4l-3.6,13.7c-0.1,0.5-0.5,0.9-1,1.1c-0.5,0.1-1.1,0-1.4-0.4
			l-10.3-9.9L57.1,71c-0.1,0.6-0.5,1.1-1.1,1.3c-0.6,0.2-1.2-0.1-1.6-0.5L43.1,57l-1.3,20.5c0,0.6-0.4,1.1-1,1.3
			C40.6,78.9,40.5,78.9,40.3,78.9z"/>
	</g>
</g>
<g>
	<g>
		<path class="st5" d="M109.7,16.4c-0.4,0-0.8-0.1-1.1-0.4l-4.3-4.3L100,16c-0.6,0.6-1.5,0.6-2.1,0c-0.6-0.6-0.6-1.5,0-2.1l5.4-5.4
			c0.3-0.3,0.7-0.4,1.1-0.4l0,0c0.4,0,0.8,0.2,1.1,0.4l5.4,5.4c0.6,0.6,0.6,1.5,0,2.1C110.4,16.2,110.1,16.4,109.7,16.4z"/>
	</g>
</g>
<g>
	<g>
		<path class="st4" d="M26.3,63.7c-0.8,0-1.5-0.7-1.5-1.5V41.5c0-0.8,0.7-1.5,1.5-1.5c0.8,0,1.5,0.7,1.5,1.5v20.6
			C27.8,63,27.2,63.7,26.3,63.7z"/>
	</g>
</g>
<g>
	<g>
		<path class="st4" d="M113,99.7H26.3c-0.8,0-1.5-0.7-1.5-1.5V62.2c0-0.8,0.7-1.5,1.5-1.5c0.8,0,1.5,0.7,1.5,1.5v34.6h83.7V44.1
			c0-0.8,0.7-1.5,1.5-1.5s1.5,0.7,1.5,1.5v54.2C114.5,99.1,113.8,99.7,113,99.7z"/>
	</g>
</g>
</svg>
