<?xml version="1.0" encoding="utf-8"?>
<!-- Generator: Adobe Illustrator 24.0.1, SVG Export Plug-In . SVG Version: 6.00 Build 0)  -->
<svg version="1.1" id="Layer_1" xmlns="http://www.w3.org/2000/svg" xmlns:xlink="http://www.w3.org/1999/xlink" x="0px" y="0px"
	 viewBox="0 0 128 116" style="enable-background:new 0 0 128 116;" xml:space="preserve">
<style type="text/css">
	.st0{fill:#E3E3E3;}
	.st1{fill:#FB6520;}
	.st2{opacity:0.2;}
	.st3{fill:#40CDE0;}
	.st4{fill:#FEFFFF;}
	.st5{fill:#3F4D66;}
	.st6{fill:#7DDF9B;}
</style>
<g>
	<g>
		<rect x="14.4" y="7.4" class="st0" width="101.7" height="101.7"/>
	</g>
	<g>
		<rect x="14.4" y="7.4" class="st1" width="101.4" height="14.1"/>
	</g>
	<g class="st2">
		<rect x="64.4" y="7.4" class="st0" width="51.7" height="101.7"/>
	</g>
	<g class="st2">
		<rect x="64.4" y="7.4" class="st3" width="51.4" height="14.1"/>
	</g>
	<g>
		<g>
			<g>
				<path class="st4" d="M23.2,17c-0.1,0-0.2,0-0.3,0c-0.1,0-0.2,0-0.3-0.1c-0.1,0-0.2-0.1-0.3-0.1c-0.1,0-0.2-0.1-0.2-0.2
					c-0.3-0.3-0.4-0.7-0.4-1.1c0-0.4,0.2-0.8,0.4-1.1c0.1-0.1,0.1-0.1,0.2-0.2c0.1-0.1,0.2-0.1,0.3-0.1c0.1,0,0.2-0.1,0.3-0.1
					c0.5-0.1,1,0.1,1.4,0.4c0.3,0.3,0.4,0.7,0.4,1.1c0,0.4-0.2,0.8-0.4,1.1C24,16.8,23.6,17,23.2,17z"/>
			</g>
		</g>
		<g>
			<g>
				<path class="st4" d="M33.5,15.5c0-0.8,0.7-1.5,1.5-1.5l0,0c0.8,0,1.5,0.7,1.5,1.5l0,0c0,0.8-0.7,1.5-1.5,1.5l0,0
					C34.2,17,33.5,16.3,33.5,15.5z"/>
			</g>
		</g>
		<g>
			<g>
				<path class="st4" d="M46.7,17c-0.4,0-0.8-0.2-1.1-0.4c-0.3-0.3-0.4-0.7-0.4-1.1c0-0.4,0.2-0.8,0.4-1.1c0.6-0.6,1.6-0.6,2.1,0
					c0.3,0.3,0.4,0.7,0.4,1.1c0,0.4-0.2,0.8-0.4,1.1C47.5,16.8,47.1,17,46.7,17z"/>
			</g>
		</g>
	</g>
</g>
<g>
	<rect x="77.3" y="33.5" class="st5" width="25.5" height="25.5"/>
</g>
<g>
	<rect x="77.3" y="70.2" class="st5" width="25.5" height="25.5"/>
</g>
<g class="st2">
	<polygon class="st5" points="102.8,59 77.3,33.5 102.8,33.5 	"/>
</g>
<g class="st2">
	<polygon class="st5" points="102.8,95.7 77.3,70.2 102.8,70.2 	"/>
</g>
<g>
	<g>
		<path class="st6" d="M89.3,55.1c-0.6,0-1.1-0.3-1.4-0.9l-4.5-9.7c-0.3-0.8,0-1.6,0.7-2c0.8-0.3,1.6,0,2,0.7l3.1,6.7L94,38.6
			c0.3-0.8,1.2-1.1,2-0.8c0.8,0.3,1.1,1.2,0.8,2l-6.2,14.4C90.4,54.7,89.9,55.1,89.3,55.1C89.3,55.1,89.3,55.1,89.3,55.1z"/>
	</g>
</g>
<g>
	<g>
		<path class="st6" d="M89.3,91.8c-0.6,0-1.1-0.3-1.4-0.9l-4.5-9.7c-0.3-0.8,0-1.6,0.7-2c0.8-0.3,1.6,0,2,0.7l3.1,6.7L94,75.3
			c0.3-0.8,1.2-1.1,2-0.8c0.8,0.3,1.1,1.2,0.8,2l-6.2,14.4C90.4,91.5,89.9,91.8,89.3,91.8C89.3,91.8,89.3,91.8,89.3,91.8z"/>
	</g>
</g>
<g>
	<g>
		<path class="st4" d="M64.2,43.6H24.7c-0.8,0-1.5-0.7-1.5-1.5c0-0.8,0.7-1.5,1.5-1.5h39.5c0.8,0,1.5,0.7,1.5,1.5
			C65.7,42.9,65.1,43.6,64.2,43.6z"/>
	</g>
</g>
<g>
	<g>
		<path class="st4" d="M64.2,53.1H24.7c-0.8,0-1.5-0.7-1.5-1.5c0-0.8,0.7-1.5,1.5-1.5h39.5c0.8,0,1.5,0.7,1.5,1.5
			C65.7,52.4,65.1,53.1,64.2,53.1z"/>
	</g>
</g>
<g>
	<g>
		<path class="st4" d="M64.2,79.9H24.7c-0.8,0-1.5-0.7-1.5-1.5c0-0.8,0.7-1.5,1.5-1.5h39.5c0.8,0,1.5,0.7,1.5,1.5
			C65.7,79.3,65.1,79.9,64.2,79.9z"/>
	</g>
</g>
<g>
	<g>
		<path class="st4" d="M64.2,89.5H24.7c-0.8,0-1.5-0.7-1.5-1.5c0-0.8,0.7-1.5,1.5-1.5h39.5c0.8,0,1.5,0.7,1.5,1.5
			C65.7,88.8,65.1,89.5,64.2,89.5z"/>
	</g>
</g>
</svg>
