<svg id="Layer_1" data-name="Layer 1" xmlns="http://www.w3.org/2000/svg" viewBox="0 0 111.95 102.51"><defs><style>.cls-1{fill:#365471;}.cls-2{fill:#404d66;}.cls-3{fill:#e3e2df;}.cls-4{fill:#eeedee;}.cls-5{fill:#fff;}.cls-6{fill:#e1754d;}.cls-7{fill:#f47f57;}.cls-8{fill:#f26527;}</style></defs><title>layout-screen designer</title><path class="cls-1" d="M116.6,7.68H12.33a4,4,0,0,0-3.84,4V85.3a4,4,0,0,0,3.84,4H116.6a4,4,0,0,0,3.84-4V11.72A4,4,0,0,0,116.6,7.68Z" transform="translate(-8.49 -7.68)"/><path class="cls-2" d="M64.46,7.68H12.33a4,4,0,0,0-3.84,4V85.3a4,4,0,0,0,3.84,4H64.47Z" transform="translate(-8.49 -7.68)"/><path class="cls-3" d="M115.47,77.13c0,.19-.2.34-.45.34H13.91c-.25,0-.45-.15-.45-.34V14.19a.41.41,0,0,1,.45-.34H115a.41.41,0,0,1,.45.34Z" transform="translate(-8.49 -7.68)"/><path class="cls-4" d="M115.34,77.37a.53.53,0,0,1-.32.1H13.91c-.25,0-.45-.15-.45-.34V14.19a.31.31,0,0,1,.13-.24C13.67,13.89,115.42,77.31,115.34,77.37Z" transform="translate(-8.49 -7.68)"/><rect class="cls-1" x="42.97" y="81.65" width="24.99" height="13.67"/><rect class="cls-2" x="42.97" y="81.65" width="13.01" height="13.67"/><path class="cls-1" d="M88.39,103H39.52a.12.12,0,0,0-.13.11v7a.12.12,0,0,0,.13.11H88.39a.12.12,0,0,0,.13-.11v-7A.12.12,0,0,0,88.39,103Z" transform="translate(-8.49 -7.68)"/><path class="cls-2" d="M64.47,103H39.52a.12.12,0,0,0-.13.11v7a.12.12,0,0,0,.13.11H64.47Z" transform="translate(-8.49 -7.68)"/><path class="cls-5" d="M112.45,82.67a2.12,2.12,0,1,1-2.12-2.12A2.12,2.12,0,0,1,112.45,82.67Z" transform="translate(-8.49 -7.68)"/><path class="cls-6" d="M111.88,82.67a1.55,1.55,0,1,1-1.55-1.56A1.55,1.55,0,0,1,111.88,82.67Z" transform="translate(-8.49 -7.68)"/><path class="cls-7" d="M110.33,84.22a1.56,1.56,0,0,1,0-3.11Z" transform="translate(-8.49 -7.68)"/><rect class="cls-8" x="18.48" y="13.65" width="62.41" height="40.24"/><rect class="cls-8" x="18.48" y="56.39" width="62.41" height="6.17"/><rect class="cls-8" x="83.24" y="13.65" width="9.99" height="48.8"/></svg>