<svg xmlns="http://www.w3.org/2000/svg" viewBox="0 0 103.37 103.37"><defs><style>.cls-1{isolation:isolate;}.cls-2{fill:#e3e3e3;}.cls-3{fill:#f26527;}.cls-4{opacity:0.2;mix-blend-mode:multiply;}.cls-5{fill:#f15947;}.cls-6{fill:#fff;}.cls-7{fill:#404d66;}.cls-8{fill:#fae480;}.cls-9{fill:#4fc6da;}.cls-10{fill:none;}</style></defs><title>popular content formats</title><g class="cls-1"><g id="Layer_1" data-name="Layer 1"><rect class="cls-2" width="103.37" height="103.37"/><rect class="cls-3" width="103.1" height="17.82"/><g class="cls-4"><rect class="cls-2" x="50.85" width="52.52" height="103.37"/></g><g class="cls-4"><rect class="cls-5" x="50.85" width="52.23" height="17.82"/></g><path class="cls-6" d="M21.54,18.52l-.29,0-.29-.1a1.3,1.3,0,0,1-.26-.14,1.37,1.37,0,0,1-.24-.18,1.56,1.56,0,0,1,0-2.17l.24-.18a1.3,1.3,0,0,1,.26-.14,1.4,1.4,0,0,1,.29-.09,1.59,1.59,0,0,1,1.38.41A1.61,1.61,0,0,1,23.07,17a1.63,1.63,0,0,1-.44,1.09A1.58,1.58,0,0,1,21.54,18.52Z" transform="translate(-12.52 -7.24)"/><path class="cls-6" d="M32,17a1.53,1.53,0,0,1,1.53-1.52h0A1.52,1.52,0,0,1,35,17h0a1.53,1.53,0,0,1-1.52,1.52h0A1.53,1.53,0,0,1,32,17Z" transform="translate(-12.52 -7.24)"/><path class="cls-6" d="M45.43,18.52A1.54,1.54,0,0,1,43.91,17a1.53,1.53,0,0,1,.45-1.08,1.58,1.58,0,0,1,2.15,0,1.54,1.54,0,0,1-1.08,2.62Z" transform="translate(-12.52 -7.24)"/><rect class="cls-7" x="13.26" y="28.55" width="33.74" height="28.25"/><rect class="cls-7" x="54.99" y="28.59" width="33.74" height="28.25"/><rect class="cls-7" x="33.06" y="62.99" width="36.54" height="28.65"/><g class="cls-4"><polygon class="cls-7" points="47.01 56.8 13.26 28.55 47.01 28.55 47.01 56.8"/></g><g class="cls-4"><polygon class="cls-7" points="88.73 56.84 54.99 28.59 88.73 28.59 88.73 56.84"/></g><g class="cls-4"><polygon class="cls-7" points="69.61 91.64 33.06 62.98 69.61 62.98 69.61 91.64"/></g><polygon class="cls-8" points="38.57 42.68 31.56 38.63 24.55 34.58 24.55 42.68 24.55 50.77 31.56 46.73 38.57 42.68"/><g class="cls-4"><polygon class="cls-8" points="38.57 42.68 24.55 42.68 24.55 50.77 31.56 46.73 38.57 42.68"/></g><path class="cls-6" d="M94.71,49.17c-.1,0-2.53-1-2.29-3.05a5.71,5.71,0,0,0-4.8-6.68,1.21,1.21,0,0,0-.38,0l-.13,0A1.53,1.53,0,0,0,85.58,41V52.69a9,9,0,0,0-3.13-.53c-3.52,0-6.18,1.77-6.18,4.12s2.66,4.13,6.18,4.13,6.18-1.78,6.18-4.13V43.14a2.84,2.84,0,0,1,.76,2.62C89,49.3,92,51.4,93.63,52a1.71,1.71,0,0,0,.54.1,1.53,1.53,0,0,0,.54-2.95ZM82.45,57.36c-2,0-3.07-.83-3.13-1.07s1.11-1.08,3.13-1.08,3.06.8,3.13,1.07S84.46,57.36,82.45,57.36Z" transform="translate(-12.52 -7.24)"/><path class="cls-9" d="M62.18,73a11.18,11.18,0,1,0,11.2,11.19A11.19,11.19,0,0,0,62.18,73Z" transform="translate(-12.52 -7.24)"/><g class="cls-4"><path class="cls-9" d="M62.21,73V95.41a11.19,11.19,0,1,0,0-22.38Z" transform="translate(-12.52 -7.24)"/></g><path class="cls-7" d="M62.21,72.58H62A11.65,11.65,0,0,0,50.57,84.06a.44.44,0,0,0,0,.32A11.65,11.65,0,0,0,62,95.86h.23a11.64,11.64,0,0,0,0-23.28ZM72.94,83.77H68.18c-.08-4.39-1.36-8.09-3.23-9.93A10.75,10.75,0,0,1,72.94,83.77ZM61.76,73.51V83.77H57C57.15,78.39,59.23,73.88,61.76,73.51Zm0,11.16V94.94c-2.53-.38-4.61-4.88-4.72-10.27Zm.9,10.25V84.67h4.62C67.17,90,65.14,94.43,62.66,94.92Zm0-11.15V73.53c2.48.48,4.51,4.94,4.62,10.24Zm-3.34-9.89c-1.85,1.86-3.1,5.53-3.19,9.89H51.48A10.77,10.77,0,0,1,59.32,73.88Zm-4.93,17.7a10.71,10.71,0,0,1-2.91-6.91h4.65c.09,4.37,1.35,8,3.2,9.9A10.62,10.62,0,0,1,54.39,91.58Zm15.64,0a10.62,10.62,0,0,1-5.09,3c1.88-1.84,3.16-5.55,3.24-10h4.76A10.66,10.66,0,0,1,70,91.58Z" transform="translate(-12.52 -7.24)"/><path class="cls-10" d="M72.93,83.77a10.74,10.74,0,0,0-8-9.93c1.88,1.84,3.15,5.54,3.23,9.93Z" transform="translate(-12.52 -7.24)"/><path class="cls-10" d="M61.75,94.94V84.67H57C57.13,90.06,59.22,94.56,61.75,94.94Z" transform="translate(-12.52 -7.24)"/><path class="cls-10" d="M57,83.77h4.73V73.51C59.22,73.88,57.13,78.39,57,83.77Z" transform="translate(-12.52 -7.24)"/><path class="cls-10" d="M59.31,73.88a10.75,10.75,0,0,0-7.84,9.89h4.65C56.2,79.41,57.46,75.74,59.31,73.88Z" transform="translate(-12.52 -7.24)"/><path class="cls-10" d="M51.47,84.67a10.76,10.76,0,0,0,7.84,9.9c-1.85-1.85-3.11-5.53-3.19-9.9Z" transform="translate(-12.52 -7.24)"/><path class="cls-10" d="M62.65,84.67V94.92c2.48-.49,4.5-4.94,4.61-10.25Z" transform="translate(-12.52 -7.24)"/><path class="cls-10" d="M68.16,84.67c-.08,4.4-1.36,8.11-3.23,10a10.78,10.78,0,0,0,8-10Z" transform="translate(-12.52 -7.24)"/><path class="cls-10" d="M62.65,73.53V83.77h4.61C67.15,78.47,65.13,74,62.65,73.53Z" transform="translate(-12.52 -7.24)"/><g class="cls-4"><path class="cls-7" d="M62.2,72.58h0V95.86h0A11.65,11.65,0,0,0,73.84,84.22,11.65,11.65,0,0,0,62.2,72.58ZM72.93,83.77H68.16c-.08-4.39-1.35-8.09-3.23-9.93A10.74,10.74,0,0,1,72.93,83.77ZM62.65,73.53c2.48.48,4.5,4.94,4.61,10.24H62.65Zm0,21.39V84.67h4.61C67.15,90,65.13,94.43,62.65,94.92ZM70,91.58a10.67,10.67,0,0,1-5.09,3c1.87-1.84,3.15-5.55,3.23-10h4.77A10.71,10.71,0,0,1,70,91.58Z" transform="translate(-12.52 -7.24)"/></g></g></g></svg>