<?xml version="1.0" encoding="utf-8"?>
<!-- Generator: Adobe Illustrator 24.0.1, SVG Export Plug-In . SVG Version: 6.00 Build 0)  -->
<svg version="1.1" id="Layer_1" xmlns="http://www.w3.org/2000/svg" xmlns:xlink="http://www.w3.org/1999/xlink" x="0px" y="0px"
	 viewBox="0 0 143.6 128.5" style="enable-background:new 0 0 143.6 128.5;" xml:space="preserve">
<style type="text/css">
	.st0{fill:#365471;}
	.st1{fill:#404D66;}
	.st2{fill:#E3E2DF;}
	.st3{fill:#EEEDEE;}
	.st4{fill:#FFFFFF;}
	.st5{fill:#E1754D;}
	.st6{fill:#F47F57;}
	.st7{fill:#33AFBD;}
	.st8{opacity:0.2;}
	.st9{fill:#88CB96;}
	.st10{fill:#F26527;}
	.st11{fill:#B4B4B4;}
</style>
<g>
	<g>
		<path class="st0" d="M123.2,14.6H18.9c-2.1,0-3.8,1.8-3.8,4v73.6c0,2.2,1.7,4,3.8,4H58h25h40.2c2.1,0,3.8-1.8,3.8-4V18.6
			C127,16.4,125.3,14.6,123.2,14.6z"/>
	</g>
	<g>
		<path class="st1" d="M71,14.6H18.9c-2.1,0-3.8,1.8-3.8,4v73.6c0,2.2,1.7,4,3.8,4H58h13L71,14.6z"/>
	</g>
	<g>
		<path class="st2" d="M122,84.1c0,0.2-0.2,0.3-0.5,0.3H20.5c-0.2,0-0.4-0.2-0.4-0.3V21.1c0-0.2,0.2-0.3,0.4-0.3h101.1
			c0.2,0,0.5,0.2,0.5,0.3V84.1z"/>
	</g>
	<g>
		<path class="st3" d="M121.9,84.3c-0.1,0.1-0.2,0.1-0.3,0.1H20.5c-0.2,0-0.4-0.2-0.4-0.3V21.1c0-0.1,0.1-0.2,0.1-0.2
			C20.2,20.8,122,84.2,121.9,84.3z"/>
	</g>
	<g>
		<rect x="58" y="96.3" class="st0" width="25" height="13.7"/>
	</g>
	<g>
		<rect x="58" y="96.3" class="st1" width="13" height="13.7"/>
	</g>
	<g>
		<path class="st0" d="M95,109.9H83H58H46.1c-0.1,0-0.1,0-0.1,0.1v7c0,0.1,0.1,0.1,0.1,0.1H95c0.1,0,0.1,0,0.1-0.1v-7
			C95.1,110,95,109.9,95,109.9z"/>
	</g>
	<g>
		<path class="st1" d="M71,109.9H58H46.1c-0.1,0-0.1,0-0.1,0.1v7c0,0.1,0.1,0.1,0.1,0.1H71L71,109.9z"/>
	</g>
	<g>
		<path class="st4" d="M119,89.6c0,1.2-0.9,2.1-2.1,2.1c-1.2,0-2.1-0.9-2.1-2.1c0-1.2,0.9-2.1,2.1-2.1C118.1,87.5,119,88.4,119,89.6
			z"/>
	</g>
	<g>
		<path class="st5" d="M118.5,89.6c0,0.9-0.7,1.6-1.6,1.6c-0.9,0-1.6-0.7-1.6-1.6s0.7-1.6,1.6-1.6C117.8,88,118.5,88.7,118.5,89.6z"
			/>
	</g>
	<g>
		<path class="st6" d="M116.9,91.1c-0.9,0-1.6-0.7-1.6-1.6s0.7-1.6,1.6-1.6V91.1z"/>
	</g>
</g>
<g>
	<polygon class="st7" points="36.9,23.6 36.9,31.3 36.9,36.3 36.9,83.3 73.9,83.3 73.9,36.3 73.9,31.3 73.9,23.6 	"/>
</g>
<g class="st8">
	<polygon class="st1" points="55.4,23.5 55.4,31.2 55.4,36.1 55.4,82.7 73.9,82.7 73.9,36.1 73.9,31.2 73.9,23.5 	"/>
</g>
<g>
	<polygon class="st9" points="110.7,40.1 103.5,40.1 99,40.1 55.5,40.1 55.5,77.1 99,77.1 103.5,77.1 110.7,77.1 	"/>
</g>
<g class="st8">
	<polygon class="st1" points="110.7,58.6 103.5,58.6 99,58.6 55.5,58.6 55.5,77.1 99,77.1 103.5,77.1 110.7,77.1 	"/>
</g>
<g>
	<g>
		<g>
			<path class="st10" d="M110.3,12.8c-9.3,0-16.8,7.5-16.8,16.8c0,6.2,3.4,11.6,8.4,14.5c2.5,1.4,5.3,2.3,8.4,2.3
				c5.6,0,10.5-2.7,13.5-6.9c2-2.8,3.2-6.2,3.2-9.9C127.1,20.3,119.6,12.8,110.3,12.8z"/>
		</g>
	</g>
	<g class="st8">
		<g>
			<path class="st10" d="M110.3,12.8v33.5c5.6,0,10.5-2.7,13.5-6.9c2-2.8,3.2-6.2,3.2-9.9C127.1,20.3,119.6,12.8,110.3,12.8z"/>
		</g>
	</g>
</g>
<g>
	<polygon class="st4" points="120.5,29.4 111.5,24.2 102.4,18.9 102.4,29.4 102.4,39.8 111.5,34.6 	"/>
</g>
<g class="st8">
	<polygon class="st11" points="120.7,29.4 102.6,29.4 102.6,39.9 111.6,34.7 	"/>
</g>
</svg>
