<?xml version="1.0" encoding="utf-8"?>
<!-- Generator: Adobe Illustrator 24.0.1, SVG Export Plug-In . SVG Version: 6.00 Build 0)  -->
<svg version="1.1" id="Layer_1" xmlns="http://www.w3.org/2000/svg" xmlns:xlink="http://www.w3.org/1999/xlink" x="0px" y="0px"
	 viewBox="0 0 143.6 128.5" style="enable-background:new 0 0 143.6 128.5;" xml:space="preserve">
<style type="text/css">
	.st0{fill:#4FC6DA;}
	.st1{opacity:0.2;}
	.st2{fill:#F26527;}
	.st3{fill:#F15947;}
	.st4{fill:#FFFFFF;}
	.st5{fill:none;}
	.st6{font-family:'MyriadPro-Regular';}
	.st7{font-size:49px;}
</style>
<g>
	<g>
		<path class="st0" d="M112.6,13.9V90v11H50.7l0,5.1c0,6.3-5.9,11.3-13.2,11.3h0c-0.4,0-0.9,0-1.3-0.1c-6.7-0.6-11.9-5.4-11.9-11.3
			v0.1V22.6l0,0h0v-8.7"/>
	</g>
	<g class="st1">
		<rect x="68.4" y="13.9" class="st0" width="44.1" height="87"/>
	</g>
	<g>
		<path class="st2" d="M122.7,100.9h-36h-36v5.1c0,6.3-5.9,11.3-13.2,11.3h72h0h0c7.3,0,13.2-5.1,13.2-11.3v0L122.7,100.9
			L122.7,100.9z"/>
	</g>
	<g>
		<rect x="24.3" y="13.9" class="st2" width="88.3" height="11"/>
	</g>
	<g class="st1">
		<rect x="68.3" y="13.9" class="st3" width="44.2" height="11"/>
	</g>
	<g>
		<g>
			<g>
				<path class="st4" d="M32.8,21c-0.1,0-0.2,0-0.3,0c-0.1,0-0.2-0.1-0.3-0.1c-0.1,0-0.2-0.1-0.3-0.1c-0.1-0.1-0.2-0.1-0.2-0.2
					c-0.3-0.3-0.5-0.7-0.5-1.1c0-0.4,0.2-0.8,0.5-1.1c0.1-0.1,0.1-0.1,0.2-0.2c0.1-0.1,0.2-0.1,0.3-0.1c0.1,0,0.2-0.1,0.3-0.1
					c0.2,0,0.4,0,0.6,0c0.1,0,0.2,0.1,0.3,0.1c0.1,0,0.2,0.1,0.3,0.1c0.1,0.1,0.2,0.1,0.2,0.2c0.3,0.3,0.5,0.7,0.5,1.1
					c0,0.4-0.2,0.8-0.5,1.1C33.6,20.8,33.2,21,32.8,21z"/>
			</g>
		</g>
		<g>
			<g>
				<path class="st4" d="M44,19.4c0-0.9,0.7-1.6,1.6-1.6l0,0c0.9,0,1.6,0.7,1.6,1.6l0,0c0,0.9-0.7,1.6-1.6,1.6l0,0
					C44.7,21,44,20.3,44,19.4z"/>
			</g>
		</g>
		<g>
			<g>
				<path class="st4" d="M58.4,21c-0.1,0-0.2,0-0.3,0c-0.1,0-0.2-0.1-0.3-0.1c-0.1,0-0.2-0.1-0.3-0.1c-0.1-0.1-0.2-0.1-0.2-0.2
					c-0.3-0.3-0.5-0.7-0.5-1.1c0-0.1,0-0.2,0-0.3c0-0.1,0.1-0.2,0.1-0.3c0-0.1,0.1-0.2,0.1-0.3c0.1-0.1,0.1-0.2,0.2-0.2
					c0.1-0.1,0.2-0.1,0.2-0.2c0.1-0.1,0.2-0.1,0.3-0.1c0.1,0,0.2-0.1,0.3-0.1c0.2,0,0.4,0,0.6,0c0.1,0,0.2,0.1,0.3,0.1
					c0.1,0,0.2,0.1,0.3,0.1c0.1,0.1,0.2,0.1,0.2,0.2c0.1,0.1,0.1,0.2,0.2,0.2c0.1,0.1,0.1,0.2,0.1,0.3c0,0.1,0.1,0.2,0.1,0.3
					c0,0.1,0,0.2,0,0.3c0,0.4-0.2,0.8-0.5,1.1C59.3,20.8,58.9,21,58.4,21z"/>
			</g>
		</g>
	</g>
</g>
<rect x="37.9" y="43.6" class="st5" width="55" height="52"/>
<text transform="matrix(1 0 0 1 37.947 78.3975)" class="st4 st6 st7">Aa</text>
</svg>
