<?xml version="1.0" encoding="utf-8"?>
<!-- Generator: Adobe Illustrator 24.0.1, SVG Export Plug-In . SVG Version: 6.00 Build 0)  -->
<svg version="1.1" id="Layer_1" xmlns="http://www.w3.org/2000/svg" xmlns:xlink="http://www.w3.org/1999/xlink" x="0px" y="0px"
	 viewBox="0 0 114.2 114.2" style="enable-background:new 0 0 114.2 114.2;" xml:space="preserve">
<style type="text/css">
	.st0{fill:#010101;}
	.st1{fill:#F26527;}
	.st2{fill:#FFFFFF;}
	.st3{fill:#414042;}
	.st4{fill:#808285;}
	.st5{opacity:0.2;}
</style>
<title>video wall</title>
<g>
	<g id="Layer_1_1_">
		<path class="st0" d="M110.7,68.6L110.7,68.6z"/>
		<circle class="st1" cx="57.1" cy="57.1" r="57.1"/>
		<circle class="st2" cx="56.9" cy="57.2" r="53.6"/>
		<path class="st3" d="M16.9,29.6h39.7c0.7-0.1,1.3,0.5,1.4,1.2c0,0,0,0,0,0v25.4c-0.1,0.7-0.7,1.2-1.4,1.2H16.9
			c-0.7,0.1-1.3-0.5-1.4-1.2V30.8C15.5,30,16.1,29.5,16.9,29.6C16.9,29.5,16.9,29.5,16.9,29.6z"/>
		<rect x="18.3" y="31.9" class="st4" width="36.9" height="23.1"/>
		<g class="st5">
			<polygon class="st4" points="18.3,31.9 18.3,55 55.2,55 			"/>
		</g>
		<path class="st3" d="M56.8,29.6h39.7c0.7,0,1.3,0.5,1.4,1.2v25.4c-0.1,0.7-0.7,1.2-1.4,1.2H56.8c-0.7,0.1-1.3-0.5-1.4-1.2
			c0,0,0,0,0,0V30.8C55.4,30,56,29.5,56.8,29.6z"/>
		<rect x="58.2" y="31.9" class="st4" width="36.9" height="23.1"/>
		<g class="st5">
			<polygon class="st4" points="58.2,31.9 58.2,55 95,55 			"/>
		</g>
		<path class="st0" d="M111.7,95.2V95C111.7,95,111.7,95,111.7,95.2C111.7,95.1,111.7,95.1,111.7,95.2z"/>
		<path class="st3" d="M16.9,55.1h39.7c0.7-0.1,1.3,0.5,1.4,1.2v25.4c-0.1,0.7-0.7,1.2-1.4,1.2H16.9c-0.7,0.1-1.4-0.5-1.4-1.2V56.3
			C15.5,55.6,16.2,55.1,16.9,55.1C16.9,55.1,16.9,55.1,16.9,55.1z"/>
		<rect x="18.3" y="57.5" class="st4" width="36.9" height="23.1"/>
		<g class="st5">
			<polygon class="st4" points="18.3,57.5 18.3,80.6 55.2,80.6 			"/>
		</g>
		<path class="st3" d="M56.8,55.2h39.7c0.7-0.1,1.3,0.5,1.4,1.2v25.4c-0.1,0.7-0.7,1.2-1.4,1.2H56.8c-0.7,0.1-1.3-0.5-1.4-1.2V56.3
			C55.4,55.6,56.1,55.1,56.8,55.2z"/>
		<rect x="58.2" y="57.5" class="st4" width="36.9" height="23.1"/>
		<g class="st5">
			<polygon class="st4" points="58.2,57.5 58.2,80.6 95,80.6 			"/>
		</g>
	</g>
</g>
</svg>
