<?xml version="1.0" encoding="utf-8"?>
<!-- Generator: Adobe Illustrator 24.0.1, SVG Export Plug-In . SVG Version: 6.00 Build 0)  -->
<svg version="1.1" id="Capa_1" xmlns="http://www.w3.org/2000/svg" xmlns:xlink="http://www.w3.org/1999/xlink" x="0px" y="0px"
	 viewBox="0 0 161.2 161.2" style="enable-background:new 0 0 161.2 161.2;" xml:space="preserve">
<style type="text/css">
	.st0{fill:#FB6520;}
	.st1{opacity:0.2;}
	.st2{fill:#40CDE0;}
	.st3{fill:#FF5642;}
	.st4{fill:#3F4D66;}
	.st5{fill:#365370;}
	.st6{fill:#38597A;}
	.st7{fill:#E3E1DF;}
	.st8{fill:#EEEEEE;}
	.st9{fill:#FFD96A;}
</style>
<g>
	<g>
		<g>
			<g>
				<g>
					<path class="st0" d="M80.7,56.3c-13.2,0-23.8,10.7-23.8,23.8c0,8.8,4.8,16.5,11.9,20.6c3.5,2,7.6,3.2,12,3.2
						c7.9,0,14.9-3.8,19.2-9.8c2.9-3.9,4.6-8.8,4.6-14.1C104.6,66.9,93.9,56.3,80.7,56.3z"/>
				</g>
			</g>
		</g>
		<g class="st1">
			<g>
				<g>
					<path class="st0" d="M80.7,56.3V104c7.9,0,14.9-3.8,19.2-9.8c2.9-3.9,4.6-8.8,4.6-14.1C104.6,66.9,93.9,56.3,80.7,56.3z"/>
				</g>
			</g>
		</g>
	</g>
</g>
<g>
	<g>
		<polygon class="st2" points="113.8,109.4 119.1,104.1 115.8,102.7 107.9,99.5 105.2,98.4 98.7,95.8 91.4,92.8 94.2,99.8 
			94.6,100.7 97,106.6 97.6,107.9 102.7,120.5 108,115.1 122.5,129.7 128.3,123.9 		"/>
	</g>
</g>
<g>
	<g class="st1">
		<polygon class="st2" points="113.8,109.4 119.1,104.1 115.8,102.7 107.9,99.5 105.2,98.4 98.7,95.8 91.4,92.8 125.5,126.6 
			128.3,123.9 		"/>
	</g>
</g>
<g>
	<g>
		<path class="st2" d="M80.9,51.9c-0.8,0-1.5-0.7-1.5-1.5V38c0-0.8,0.7-1.5,1.5-1.5c0.8,0,1.5,0.7,1.5,1.5v12.4
			C82.4,51.2,81.8,51.9,80.9,51.9z"/>
	</g>
</g>
<g>
	<g>
		<path class="st2" d="M81,124.1c-0.8,0-1.5-0.7-1.5-1.5v-12.4c0-0.8,0.7-1.5,1.5-1.5s1.5,0.7,1.5,1.5v12.4
			C82.5,123.5,81.8,124.1,81,124.1z"/>
	</g>
</g>
<g>
	<g>
		<path class="st2" d="M59.8,60.7c-0.4,0-0.8-0.1-1.1-0.4l-8.8-8.8c-0.6-0.6-0.6-1.5,0-2.1c0.6-0.6,1.5-0.6,2.1,0l8.8,8.8
			c0.6,0.6,0.6,1.5,0,2.1C60.5,60.5,60.1,60.7,59.8,60.7z"/>
	</g>
</g>
<g>
	<g>
		<path class="st2" d="M51,81.8H38.6c-0.8,0-1.5-0.7-1.5-1.5s0.7-1.5,1.5-1.5H51c0.8,0,1.5,0.7,1.5,1.5S51.8,81.8,51,81.8z"/>
	</g>
</g>
<g>
	<g>
		<path class="st2" d="M123.3,81.8h-12.4c-0.8,0-1.5-0.7-1.5-1.5s0.7-1.5,1.5-1.5h12.4c0.8,0,1.5,0.7,1.5,1.5S124.1,81.8,123.3,81.8
			z"/>
	</g>
</g>
<g>
	<g>
		<path class="st2" d="M51,111.8c-0.4,0-0.8-0.1-1.1-0.4c-0.6-0.6-0.6-1.5,0-2.1l8.8-8.8c0.6-0.6,1.5-0.6,2.1,0
			c0.6,0.6,0.6,1.5,0,2.1l-8.8,8.8C51.8,111.6,51.4,111.8,51,111.8z"/>
	</g>
</g>
<g>
	<g>
		<path class="st2" d="M102.1,60.6c-0.4,0-0.8-0.1-1.1-0.4c-0.6-0.6-0.6-1.5,0-2.1l8.8-8.8c0.6-0.6,1.5-0.6,2.1,0
			c0.6,0.6,0.6,1.5,0,2.1l-8.8,8.8C102.9,60.5,102.5,60.6,102.1,60.6z"/>
	</g>
</g>
<g>
	<path class="st3" d="M81,31.1c-1.5,0-2.6,1.2-2.6,2.6c0,1.5,1.2,2.6,2.6,2.6c1.5,0,2.6-1.2,2.6-2.6C83.6,32.3,82.4,31.1,81,31.1z"
		/>
</g>
<g>
	<path class="st3" d="M80.9,124.5c-1.5,0-2.6,1.2-2.6,2.6c0,1.5,1.2,2.6,2.6,2.6c1.5,0,2.6-1.2,2.6-2.6
		C83.6,125.6,82.4,124.5,80.9,124.5z"/>
</g>
<g>
	<path class="st3" d="M47.9,44.7c-0.7,0-1.4,0.3-1.9,0.8c-1,1-1,2.7,0,3.7c1,1,2.7,1,3.7,0c1-1,1-2.7,0-3.7
		C49.3,45,48.6,44.7,47.9,44.7z"/>
</g>
<g>
	<path class="st3" d="M34.3,77.7c-1.5,0-2.6,1.2-2.6,2.6c0,1.5,1.2,2.6,2.6,2.6c1.5,0,2.6-1.2,2.6-2.6
		C36.9,78.9,35.7,77.7,34.3,77.7z"/>
</g>
<g>
	<path class="st3" d="M127.6,77.8c-1.5,0-2.6,1.2-2.6,2.6c0,1.5,1.2,2.6,2.6,2.6s2.6-1.2,2.6-2.6C130.3,79,129.1,77.8,127.6,77.8z"
		/>
</g>
<g>
	<path class="st3" d="M47.9,110.8c-0.7,0-1.4,0.3-1.9,0.8c0,0,0,0,0,0c-0.5,0.5-0.8,1.2-0.8,1.9c0,0.7,0.3,1.4,0.8,1.9
		c1,1,2.7,1,3.7,0c1-1,1-2.7,0-3.7C49.3,111,48.6,110.8,47.9,110.8z"/>
</g>
<g>
	<path class="st4" d="M45,110.5L45,110.5L45,110.5z"/>
</g>
<g>
	<path class="st3" d="M114,44.8c-0.7,0-1.4,0.3-1.9,0.8v0c-0.5,0.5-0.8,1.2-0.8,1.9c0,0.7,0.3,1.4,0.8,1.9c1,1,2.7,1,3.7,0
		c0.5-0.5,0.8-1.2,0.8-1.9c0-0.7-0.3-1.4-0.8-1.9C115.3,45,114.7,44.8,114,44.8z"/>
</g>
<g>
	<path class="st4" d="M111.1,44.5L111.1,44.5L111.1,44.5z"/>
</g>
<g>
	<path class="st5" d="M89,39c0,0.3-0.2,0.6-0.6,0.6H73.4c-0.3,0-0.6-0.2-0.6-0.6V28.8c0-0.3,0.2-0.6,0.6-0.6h15.1
		c0.3,0,0.6,0.2,0.6,0.6V39z"/>
</g>
<g>
	<path class="st6" d="M80.9,39.5h-7.6c-0.3,0-0.6-0.2-0.6-0.6V28.8c0-0.3,0.2-0.6,0.6-0.6h7.6V39.5z"/>
</g>
<g>
	<path class="st7" d="M88.3,38.5C88.3,38.5,88.3,38.6,88.3,38.5l-14.7,0.1c0,0-0.1,0-0.1-0.1v-9.3c0,0,0-0.1,0.1-0.1h14.6
		c0,0,0.1,0,0.1,0.1V38.5z"/>
</g>
<g>
	<path class="st8" d="M88.3,38.6C88.3,38.6,88.2,38.6,88.3,38.6l-14.7,0c0,0-0.1,0-0.1-0.1v-9.3c0,0,0,0,0,0
		C73.5,29.1,88.3,38.5,88.3,38.6z"/>
</g>
<g>
	<path d="M88.1,36.4L88.1,36.4C88.1,36.4,88.1,36.4,88.1,36.4C88.1,36.4,88.1,36.4,88.1,36.4z"/>
</g>
<g>
	<path d="M86.2,128.1c0,0,0,0.1,0,0.1C86.2,128.2,86.2,128.2,86.2,128.1C86.2,128.2,86.2,128.1,86.2,128.1z"/>
</g>
<g>
	<path d="M88.3,129.7L88.3,129.7C88.3,129.7,88.3,129.7,88.3,129.7C88.3,129.7,88.3,129.7,88.3,129.7z"/>
</g>
<g>
	<path class="st5" d="M116,56.6c-0.2,0.2-0.6,0.2-0.8,0l-10.4-10.9c-0.2-0.2-0.2-0.6,0-0.8l7.3-7c0.2-0.2,0.6-0.2,0.8,0l10.4,10.9
		c0.2,0.2,0.2,0.6,0,0.8L116,56.6z"/>
</g>
<g>
	<path class="st6" d="M110,51.1l-5.2-5.5c-0.2-0.2-0.2-0.6,0-0.8l7.3-7c0.2-0.2,0.6-0.2,0.8,0l5.2,5.5L110,51.1z"/>
</g>
<g>
	<path class="st7" d="M115.8,55.8C115.8,55.8,115.8,55.8,115.8,55.8l-10.2-10.6c0,0,0-0.1,0-0.1l6.8-6.4c0,0,0.1,0,0.1,0l10.1,10.6
		c0,0,0,0.1,0,0.1L115.8,55.8z"/>
</g>
<g>
	<path class="st8" d="M115.8,55.8C115.8,55.8,115.7,55.8,115.8,55.8l-10.1-10.6c0,0,0-0.1,0-0.1l6.8-6.4c0,0,0,0,0,0
		C112.4,38.6,115.8,55.8,115.8,55.8z"/>
</g>
<g>
	<path class="st5" d="M122.7,88.5c-0.3,0-0.6-0.2-0.6-0.6V72.8c0-0.3,0.2-0.6,0.6-0.6h10.1c0.3,0,0.6,0.2,0.6,0.6v15.1
		c0,0.3-0.2,0.6-0.6,0.6H122.7z"/>
</g>
<g>
	<path class="st6" d="M122.1,80.3v-7.6c0-0.3,0.2-0.6,0.6-0.6h10.1c0.3,0,0.6,0.2,0.6,0.6v7.6H122.1z"/>
</g>
<g>
	<path class="st7" d="M123.1,87.7C123.1,87.7,123,87.7,123.1,87.7L123,73c0,0,0-0.1,0.1-0.1h9.3c0,0,0.1,0,0.1,0.1v14.6
		c0,0,0,0.1-0.1,0.1H123.1z"/>
</g>
<g>
	<path class="st8" d="M123.1,87.7C123.1,87.7,123,87.7,123.1,87.7l0-14.7c0,0,0-0.1,0.1-0.1h9.3c0,0,0,0,0,0
		C132.5,73,123.1,87.7,123.1,87.7z"/>
</g>
<g>
	<path d="M125.2,87.6L125.2,87.6C125.3,87.6,125.3,87.6,125.2,87.6C125.3,87.6,125.3,87.6,125.2,87.6z"/>
</g>
<g>
	<path class="st5" d="M72.8,122c0-0.3,0.2-0.6,0.6-0.6h15.1c0.3,0,0.6,0.2,0.6,0.6v10.1c0,0.3-0.2,0.6-0.6,0.6H73.3
		c-0.3,0-0.6-0.2-0.6-0.6V122z"/>
</g>
<g>
	<path class="st6" d="M80.9,121.5h7.6c0.3,0,0.6,0.2,0.6,0.6v10.1c0,0.3-0.2,0.6-0.6,0.6h-7.6V121.5z"/>
</g>
<g>
	<path class="st7" d="M73.5,122.5C73.5,122.5,73.5,122.4,73.5,122.5l14.7-0.1c0,0,0.1,0,0.1,0.1v9.3c0,0,0,0.1-0.1,0.1H73.5
		c0,0-0.1,0-0.1-0.1V122.5z"/>
</g>
<g>
	<path class="st8" d="M73.5,122.4C73.5,122.4,73.5,122.4,73.5,122.4l14.7,0c0,0,0.1,0,0.1,0.1v9.3c0,0,0,0,0,0
		C88.2,131.9,73.5,122.5,73.5,122.4z"/>
</g>
<g>
	<path d="M73.7,124.6L73.7,124.6C73.7,124.6,73.7,124.6,73.7,124.6C73.7,124.6,73.7,124.6,73.7,124.6z"/>
</g>
<g>
	<path class="st5" d="M46.3,103.7c0.2-0.2,0.6-0.2,0.8,0.1l9.8,11.5c0.2,0.2,0.2,0.6-0.1,0.8l-7.7,6.6c-0.2,0.2-0.6,0.2-0.8-0.1
		L38.5,111c-0.2-0.2-0.2-0.6,0.1-0.8L46.3,103.7z"/>
</g>
<g>
	<path class="st6" d="M52,109.5l4.9,5.8c0.2,0.2,0.2,0.6-0.1,0.8l-7.7,6.6c-0.2,0.2-0.6,0.2-0.8-0.1l-4.9-5.8L52,109.5z"/>
</g>
<g>
	<path class="st7" d="M46.4,104.5C46.5,104.5,46.5,104.5,46.4,104.5l9.6,11.2c0,0,0,0.1,0,0.1l-7.1,6.1c0,0-0.1,0-0.1,0l-9.5-11.2
		c0,0,0-0.1,0-0.1L46.4,104.5z"/>
</g>
<g>
	<path class="st8" d="M46.5,104.5C46.5,104.5,46.5,104.5,46.5,104.5l9.5,11.2c0,0,0,0.1,0,0.1l-7.1,6.1c0,0,0,0,0,0
		C48.8,121.8,46.5,104.5,46.5,104.5z"/>
</g>
<g>
	<polygon points="44.9,106 44.9,106 44.9,106 	"/>
</g>
<g>
	<path class="st5" d="M57.6,45.4c0.2,0.2,0.2,0.6,0,0.8L46.4,56.4c-0.2,0.2-0.6,0.2-0.8,0l-6.8-7.5c-0.2-0.2-0.2-0.6,0-0.8L50,37.9
		c0.2-0.2,0.6-0.2,0.8,0L57.6,45.4z"/>
</g>
<g>
	<path class="st6" d="M52,51.3l-5.6,5.1c-0.2,0.2-0.6,0.2-0.8,0l-6.8-7.5c-0.2-0.2-0.2-0.6,0-0.8l5.6-5.1L52,51.3z"/>
</g>
<g>
	<path class="st7" d="M56.8,45.6C56.8,45.6,56.8,45.6,56.8,45.6l-10.8,9.9c0,0-0.1,0-0.1,0l-6.3-6.9c0,0,0-0.1,0-0.1l10.8-9.9
		c0,0,0.1,0,0.1,0L56.8,45.6z"/>
</g>
<g>
	<path class="st8" d="M56.8,45.6C56.8,45.6,56.8,45.7,56.8,45.6l-10.9,9.9c0,0-0.1,0-0.1,0l-6.3-6.9c0,0,0,0,0,0
		C39.5,48.6,56.8,45.6,56.8,45.6z"/>
</g>
<g>
	<polygon points="55.2,44.1 55.2,44.1 55.2,44.1 	"/>
</g>
<g>
	<path class="st5" d="M39.3,72.3c0.3,0,0.6,0.2,0.6,0.6V88c0,0.3-0.2,0.6-0.6,0.6H29.2c-0.3,0-0.6-0.2-0.6-0.6V72.9
		c0-0.3,0.2-0.6,0.6-0.6H39.3z"/>
</g>
<g>
	<path class="st6" d="M39.9,80.4V88c0,0.3-0.2,0.6-0.6,0.6H29.2c-0.3,0-0.6-0.2-0.6-0.6v-7.6H39.9z"/>
</g>
<g>
	<path class="st7" d="M38.9,73.1C38.9,73.1,39,73.1,38.9,73.1L39,87.8c0,0,0,0.1-0.1,0.1h-9.3c0,0-0.1,0-0.1-0.1V73.1
		c0,0,0-0.1,0.1-0.1H38.9z"/>
</g>
<g>
	<path class="st8" d="M38.9,73.1C38.9,73.1,39,73.1,38.9,73.1l0,14.7c0,0,0,0.1-0.1,0.1h-9.3c0,0,0,0,0,0
		C29.5,87.8,38.9,73.1,38.9,73.1z"/>
</g>
<g>
	<path d="M36.8,73.2L36.8,73.2C36.7,73.2,36.7,73.2,36.8,73.2C36.7,73.2,36.7,73.2,36.8,73.2z"/>
</g>
<g>
	<g>
		<path class="st9" d="M74.4,94.1l-2.2-2.2l1.7-1.8l2.2,2.2l3.3-3.4l-3-2.9l8.7-9.1c2.9,1.5,6.5,1,8.9-1.5c2.9-3,2.8-7.8-0.2-10.7
			c-3-2.9-7.8-2.8-10.7,0.2c-2.4,2.5-2.7,6.1-1.1,9L65.5,91.1l3.1,3l3,2.9L74.4,94.1z M89.5,69.2c-0.6-0.6-0.6-1.5,0-2.1
			c0.6-0.6,1.5-0.6,2.1,0c0.6,0.6,0.6,1.5,0,2.1C91,69.8,90.1,69.8,89.5,69.2z"/>
	</g>
	<g class="st1">
		<path class="st9" d="M91.6,69.2c-0.6,0.6-1.5,0.6-2,0.1L67,92.6l1.5,1.5l3,2.9l2.8-2.9l-2.2-2.2l1.7-1.8l2.2,2.2l3.3-3.4l-3-2.9
			l8.7-9.1c2.9,1.5,6.5,1,8.9-1.5c2.9-3,2.8-7.8-0.2-10.7l-2.3,2.4C92.1,67.7,92.1,68.6,91.6,69.2z"/>
	</g>
</g>
</svg>
