<?xml version="1.0" encoding="utf-8"?>
<!-- Generator: Adobe Illustrator 24.0.1, SVG Export Plug-In . SVG Version: 6.00 Build 0)  -->
<svg version="1.1" id="Capa_1" xmlns="http://www.w3.org/2000/svg" xmlns:xlink="http://www.w3.org/1999/xlink" x="0px" y="0px"
	 viewBox="0 0 161.2 161.2" style="enable-background:new 0 0 161.2 161.2;" xml:space="preserve">
<style type="text/css">
	.st0{fill:#365370;}
	.st1{fill:#3F4D66;}
	.st2{fill:#E3E1DF;}
	.st3{fill:#EEEEEE;}
	.st4{fill:#FFFFFF;}
	.st5{fill:#E1744D;}
	.st6{fill:#FE8054;}
	.st7{fill:#FB6520;}
	.st8{fill:#FEFFFF;}
	.st9{fill:#7DDF9B;}
	.st10{opacity:0.2;}
</style>
<g>
	<g>
		<path class="st0" d="M134.1,45.5H29.9c-2.1,0-3.8,1.8-3.8,4v73.6c0,2.2,1.7,4,3.8,4H69h25h40.2c2.1,0,3.8-1.8,3.8-4V49.5
			C138,47.3,136.3,45.5,134.1,45.5z"/>
	</g>
	<g>
		<path class="st1" d="M82,45.5H29.9c-2.1,0-3.8,1.8-3.8,4v73.6c0,2.2,1.7,4,3.8,4H69h13L82,45.5z"/>
	</g>
	<g>
		<path class="st2" d="M133,114.9c0,0.2-0.2,0.3-0.5,0.3H31.4c-0.2,0-0.4-0.2-0.4-0.3V52c0-0.2,0.2-0.3,0.4-0.3h101.1
			c0.2,0,0.5,0.2,0.5,0.3V114.9z"/>
	</g>
	<g>
		<path class="st3" d="M132.9,115.2c-0.1,0.1-0.2,0.1-0.3,0.1H31.4c-0.2,0-0.4-0.2-0.4-0.3V52c0-0.1,0.1-0.2,0.1-0.2
			C31.2,51.7,133,115.1,132.9,115.2z"/>
	</g>
	<g>
		<path class="st4" d="M130,120.5c0,1.2-0.9,2.1-2.1,2.1c-1.2,0-2.1-0.9-2.1-2.1c0-1.2,0.9-2.1,2.1-2.1
			C129,118.3,130,119.3,130,120.5z"/>
	</g>
	<g>
		<path class="st5" d="M129.4,120.5c0,0.9-0.7,1.6-1.6,1.6c-0.9,0-1.6-0.7-1.6-1.6s0.7-1.6,1.6-1.6
			C128.7,118.9,129.4,119.6,129.4,120.5z"/>
	</g>
	<g>
		<path class="st6" d="M127.9,122c-0.9,0-1.6-0.7-1.6-1.6s0.7-1.6,1.6-1.6V122z"/>
	</g>
</g>
<rect x="44.5" y="59.1" class="st7" width="62.4" height="40.2"/>
<rect x="44.5" y="101.9" class="st7" width="62.4" height="6.2"/>
<rect x="109.3" y="59.1" class="st7" width="10" height="48.8"/>
<g>
	
		<rect x="72" y="71" transform="matrix(-1.836970e-16 1 -1 -1.836970e-16 160.819 -1.0536)" class="st8" width="17.8" height="17.8"/>
</g>
<g>
	<g>
		<path class="st1" d="M80.5,84.2C80.5,84.2,80.5,84.2,80.5,84.2c-0.5,0-1-0.3-1.3-0.7L76.6,79c-0.4-0.7-0.2-1.6,0.5-2.1
			c0.7-0.4,1.6-0.2,2.1,0.5l1.3,2.3l2.8-4.7c0.4-0.7,1.3-0.9,2.1-0.5c0.7,0.4,0.9,1.3,0.5,2.1l-4.1,6.8
			C81.6,83.9,81.1,84.2,80.5,84.2z"/>
	</g>
</g>
<g>
	<g>
		<g>
			<path class="st9" d="M118.8,25.9c-10.5,0-19,8.5-19,19c0,7,3.8,13.2,9.5,16.4c2.8,1.6,6.1,2.6,9.5,2.6c6.3,0,11.9-3.1,15.3-7.8
				c2.3-3.1,3.7-7,3.7-11.2C137.8,34.4,129.3,25.9,118.8,25.9z"/>
		</g>
	</g>
	<g class="st10">
		<g>
			<path class="st9" d="M118.8,25.9v38c6.3,0,11.9-3.1,15.3-7.8c2.3-3.1,3.7-7,3.7-11.2C137.8,34.4,129.3,25.9,118.8,25.9z"/>
		</g>
	</g>
</g>
<g>
	<path class="st8" d="M126.2,53.4c0-0.7,0.6-1.3,1.3-1.3l0,0c0.7,0,1.3,0.6,1.3,1.3l0,0c0,0.7-0.6,1.3-1.3,1.3l0,0
		C126.8,54.7,126.2,54.1,126.2,53.4z"/>
</g>
<g>
	<path class="st8" d="M106.7,55.6c-0.7,0-1.3-0.6-1.3-1.3c0-12.7,10.4-23.1,23.1-23.1c0.7,0,1.3,0.6,1.3,1.3c0,0.7-0.6,1.3-1.3,1.3
		c-11.4,0-20.6,9.2-20.6,20.6C108,55,107.4,55.6,106.7,55.6z"/>
</g>
<g>
	<path class="st8" d="M113.9,55.6c-0.7,0-1.3-0.6-1.3-1.3c0-8.8,7.1-15.9,15.9-15.9c0.7,0,1.3,0.6,1.3,1.3c0,0.7-0.6,1.3-1.3,1.3
		c-7.4,0-13.4,6-13.4,13.4C115.2,55,114.6,55.6,113.9,55.6z"/>
</g>
<g>
	<path class="st8" d="M121.1,55.6c-0.7,0-1.3-0.6-1.3-1.3c0-4.8,3.9-8.7,8.7-8.7c0.7,0,1.3,0.6,1.3,1.3c0,0.7-0.6,1.3-1.3,1.3
		c-3.4,0-6.2,2.8-6.2,6.2C122.4,55,121.8,55.6,121.1,55.6z"/>
</g>
</svg>
