<?xml version="1.0" encoding="utf-8"?>
<!-- Generator: Adobe Illustrator 24.0.1, SVG Export Plug-In . SVG Version: 6.00 Build 0)  -->
<svg version="1.1" id="Layer_1" xmlns="http://www.w3.org/2000/svg" xmlns:xlink="http://www.w3.org/1999/xlink" x="0px" y="0px"
	 viewBox="0 0 149 124" style="enable-background:new 0 0 149 124;" xml:space="preserve">
<style type="text/css">
	.st0{fill:#312C29;}
	.st1{fill:#FB6520;}
	.st2{fill:#FFFFFF;}
</style>
<g>
	<g>
		<g>
			<path class="st0" d="M120.3,91.7H25.4c-2.4,0-4.4-2.1-4.4-4.6V15.8c0-2.6,2-4.6,4.4-4.6h94.9c2.4,0,4.4,2.1,4.4,4.6v71.3
				C124.7,89.7,122.7,91.7,120.3,91.7z M25.4,14.1c-0.8,0-1.4,0.7-1.4,1.6v71.3c0,0.9,0.6,1.6,1.4,1.6h94.9c0.8,0,1.4-0.7,1.4-1.6
				V15.8c0-0.9-0.6-1.6-1.4-1.6H25.4z M117.4,85.5H28.3c-0.8,0-1.5-0.7-1.5-1.5v-65c0-0.8,0.7-1.5,1.5-1.5h89.1
				c0.8,0,1.5,0.7,1.5,0.5v65C118.9,84.8,118.2,85.5,117.4,85.5z M29.8,82.5h86.1v-62H29.8V82.5z"/>
		</g>
	</g>
</g>
<g>
	<path class="st0" d="M93.9,113.5h-43c-0.8,0-1.5-0.7-1.5-1.5V106c0-0.8,0.7-1.5,1.5-1.5c4.6,0,8.3-3.7,8.3-8.3v-6
		c0-0.8,0.7-1.5,1.5-1.5h22.6c0.8,0,1.5,0.7,1.5,1.5v5.1c0,5.1,4.1,9.2,9.2,9.2c0.8,0,1.5,0.7,1.5,1.5v6.1
		C95.4,112.9,94.7,113.5,93.9,113.5z"/>
	<g id="XMLID_48_">
		<g>
			<path class="st1" d="M92.4,107.4v3.2h-40v-3.2c5.5-0.7,9.8-5.5,9.8-11.2v-4.5h19.6v3.6C81.7,101.5,86.4,106.7,92.4,107.4z"/>
		</g>
		<g>
		</g>
	</g>
</g>
<g id="XMLID_49_">
	<g>
		<rect x="29.8" y="20.4" class="st2" width="86.1" height="62"/>
	</g>
	<g>
	</g>
</g>
<g>
	<g>
		<path class="st0" d="M52.6,69.9c-0.6-0.6-0.8-1.3-0.5-1.7l16.9-16.9c0.3-0.3,1.1-0.1,1.7,0.5s0.8,1.3,0.5,1.7L54.3,70.4
			C54,70.7,53.2,70.5,52.6,69.9z"/>
	</g>
</g>
<g>
	<g>
		<path class="st0" d="M51.7,70.9c-0.3-0.3-0.4-0.6-0.4-1.1l0-7.5c0-0.8,0.7-1.5,1.5-1.5c0.8,0,1.5,0.7,1.5,1.5v6l6,0
			c0.8,0,1.5,0.7,1.5,1.5c0,0.8-0.7,1.5-1.5,1.5l-7.5,0C52.3,71.3,51.9,71.1,51.7,70.9z"/>
	</g>
</g>
<g>
	<g>
		<path class="st0" d="M92.1,30.4c0.6,0.6,0.8,1.3,0.5,1.7L75.7,49c-0.3,0.3-1.1,0.1-1.7-0.5s-0.8-1.3-0.5-1.7L90.5,30
			C90.8,29.6,91.5,29.8,92.1,30.4z"/>
	</g>
</g>
<g>
	<g>
		<path class="st0" d="M93.1,29.4c0.3,0.3,0.4,0.6,0.4,1.1l0,7.5c0,0.8-0.7,1.5-1.5,1.5c-0.8,0-1.5-0.7-1.5-1.5v-6l-6,0
			c-0.8,0-1.5-0.7-1.5-1.5c0-0.8,0.7-1.5,1.5-1.5l7.5,0C92.5,29,92.8,29.2,93.1,29.4z"/>
	</g>
</g>
<g>
	<g>
		<path class="st0" d="M52.6,30.4c0.6-0.6,1.3-0.8,1.7-0.5l16.9,16.9c0.3,0.3,0.1,1.1-0.5,1.7c-0.6,0.6-1.3,0.8-1.7,0.5L52.2,32.1
			C51.9,31.7,52.1,31,52.6,30.4z"/>
	</g>
</g>
<g>
	<g>
		<path class="st0" d="M51.7,29.4c0.3-0.3,0.6-0.4,1.1-0.4l7.5,0c0.8,0,1.5,0.7,1.5,1.5c0,0.8-0.7,1.5-1.5,1.5h-6l0,6
			c0,0.8-0.7,1.5-1.5,1.5c-0.8,0-1.5-0.7-1.5-1.5l0-7.5C51.2,30.1,51.4,29.7,51.7,29.4z"/>
	</g>
</g>
<g>
	<g>
		<path class="st0" d="M92.1,69.9c-0.6,0.6-1.3,0.8-1.7,0.5L73.6,53.5c-0.3-0.3-0.1-1.1,0.5-1.7s1.3-0.8,1.7-0.5l16.9,16.9
			C92.9,68.6,92.7,69.3,92.1,69.9z"/>
	</g>
</g>
<g>
	<g>
		<path class="st0" d="M93.1,70.9c-0.3,0.3-0.6,0.4-1.1,0.4l-7.5,0c-0.8,0-1.5-0.7-1.5-1.5c0-0.8,0.7-1.5,1.5-1.5h6l0-6
			c0-0.8,0.7-1.5,1.5-1.5c0.8,0,1.5,0.7,1.5,1.5l0,7.5C93.5,70.2,93.4,70.6,93.1,70.9z"/>
	</g>
</g>
</svg>
