<?xml version="1.0" encoding="utf-8"?>
<!-- Generator: Adobe Illustrator 24.0.1, SVG Export Plug-In . SVG Version: 6.00 Build 0)  -->
<svg version="1.1" id="Layer_1" xmlns="http://www.w3.org/2000/svg" xmlns:xlink="http://www.w3.org/1999/xlink" x="0px" y="0px"
	 viewBox="0 0 149 124" style="enable-background:new 0 0 149 124;" xml:space="preserve">
<style type="text/css">
	.st0{fill:#312C29;}
	.st1{fill:#FB6520;}
</style>
<g>
	<path class="st0" d="M122.7,28.9H23.3c-0.8,0-1.5-0.7-1.5-1.5v-15c0-0.8,0.7-1.5,1.5-1.5h99.4c0.8,0,1.5,0.7,1.5,1.5v15
		C124.2,28.2,123.5,28.9,122.7,28.9z M24.8,25.9h96.4v-12H24.8V25.9z"/>
</g>
<g>
	<path class="st0" d="M122.7,112.5H23.3c-0.8,0-1.5-0.7-1.5-1.5V27.4c0-0.8,0.7-1.5,1.5-1.5h99.4c0.8,0,1.5,0.7,1.5,1.5V111
		C124.2,111.8,123.5,112.5,122.7,112.5z M24.8,109.5h96.4V28.9H24.8V109.5z"/>
</g>
<g>
	<g>
		<path class="st0" d="M30.3,22.1c-0.1,0-0.2,0-0.3,0c-0.1,0-0.2-0.1-0.3-0.1c-0.1,0-0.2-0.1-0.3-0.1c-0.1-0.1-0.2-0.1-0.2-0.2
			c-0.3-0.3-0.4-0.7-0.4-1.1c0-0.1,0-0.2,0-0.3c0-0.1,0-0.2,0.1-0.3c0-0.1,0.1-0.2,0.1-0.3c0-0.1,0.1-0.1,0.2-0.2
			c0.6-0.6,1.6-0.6,2.1,0c0.1,0.1,0.1,0.1,0.2,0.2c0.1,0.1,0.1,0.2,0.1,0.3c0,0.1,0.1,0.2,0.1,0.3c0,0.1,0,0.2,0,0.3
			c0,0.4-0.2,0.8-0.4,1.1C31.1,22,30.7,22.1,30.3,22.1z"/>
	</g>
	<g>
		<path class="st0" d="M40.9,20.6c0-0.8,0.7-1.5,1.5-1.5l0,0c0.8,0,1.5,0.7,1.5,1.5l0,0c0,0.8-0.7,1.5-1.5,1.5l0,0
			C41.6,22.1,40.9,21.4,40.9,20.6z"/>
	</g>
	<g>
		<path class="st0" d="M54.5,22.1c-0.1,0-0.2,0-0.3,0c-0.1,0-0.2-0.1-0.3-0.1c-0.1,0-0.2-0.1-0.3-0.1c-0.1-0.1-0.2-0.1-0.2-0.2
			C53.2,21.4,53,21,53,20.6c0-0.1,0-0.2,0-0.3c0-0.1,0-0.2,0.1-0.3c0-0.1,0.1-0.2,0.1-0.3c0.1-0.1,0.1-0.1,0.2-0.2
			c0.1-0.1,0.1-0.1,0.2-0.2s0.2-0.1,0.3-0.1c0.1,0,0.2-0.1,0.3-0.1c0.5-0.1,1,0.1,1.4,0.4c0.1,0.1,0.1,0.1,0.2,0.2
			c0,0.1,0.1,0.2,0.1,0.3c0,0.1,0.1,0.2,0.1,0.3c0,0.1,0,0.2,0,0.3c0,0.4-0.2,0.8-0.4,1.1C55.3,22,54.9,22.1,54.5,22.1z"/>
	</g>
</g>
<g>
	<path class="st0" d="M49.2,64h-8c-3.7,0-6.7-3-6.7-6.7v-8c0-3.7,3-6.7,6.7-6.7h8c3.7,0,6.7,3,6.7,6.7v8C55.9,60.9,52.9,64,49.2,64z
		"/>
	<g id="XMLID_11_">
		<g>
			<path class="st1" d="M52.9,49.3v8c0,2-1.7,3.7-3.7,3.7h-8c-2,0-3.7-1.7-3.7-3.7v-8c0-2,1.7-3.7,3.7-3.7h8
				C51.2,45.5,52.9,47.2,52.9,49.3z"/>
		</g>
		<g>
		</g>
	</g>
</g>
<g>
	<path class="st0" d="M82.4,64H64c-0.8,0-1.5-0.7-1.5-1.5V44c0-0.8,0.7-1.5,1.5-1.5h18.4c0.8,0,1.5,0.7,1.5,1.5v18.4
		C83.9,63.3,83.2,64,82.4,64z"/>
	<g id="XMLID_14_">
		<g>
			<rect x="65.5" y="45.5" class="st1" width="15.4" height="15.4"/>
		</g>
		<g>
		</g>
	</g>
</g>
<g>
	<g id="XMLID_13_">
		<g>
			<path class="st1" d="M108.8,49.3v8c0,2-1.7,3.7-3.7,3.7h-8c-2.1,0-3.7-1.7-3.7-3.7v-8c0-2,1.7-3.7,3.7-3.7h8
				C107.2,45.5,108.8,47.2,108.8,49.3z"/>
			<path class="st0" d="M93.4,57.3c0,2,1.7,3.7,3.7,3.7h8c2,0,3.7-1.7,3.7-3.7v-8c0-2-1.7-3.7-3.7-3.7h-8c-2.1,0-3.7,1.7-3.7,3.7
				V57.3z M97.1,64c-3.7,0-6.7-3-6.7-6.7v-8c0-3.7,3-6.7,6.7-6.7h8c3.7,0,6.7,3,6.7,6.7v8c0,3.7-3,6.7-6.7,6.7H97.1z"/>
		</g>
		<g>
		</g>
	</g>
</g>
<g>
	<path class="st0" d="M54.3,95.5H35.9c-0.8,0-1.5-0.7-1.5-1.5V75.5c0-0.8,0.7-1.5,1.5-1.5h18.4c0.8,0,1.5,0.7,1.5,1.5V94
		C55.8,94.8,55.1,95.5,54.3,95.5z"/>
	<g id="XMLID_16_">
		<g>
			<rect x="37.4" y="77" class="st1" width="15.4" height="15.4"/>
		</g>
		<g>
		</g>
	</g>
</g>
<g>
	<path class="st0" d="M77,95.5h-8c-3.7,0-6.7-3-6.7-6.7v-8c0-3.7,3-6.7,6.7-6.7h8c3.7,0,6.7,3,6.7,6.7v8
		C83.8,92.4,80.7,95.5,77,95.5z"/>
	<g id="XMLID_12_">
		<g>
			<path class="st1" d="M80.8,80.8v8c0,2-1.7,3.7-3.7,3.7h-8c-2,0-3.7-1.7-3.7-3.7v-8c0-2,1.7-3.7,3.7-3.7h8
				C79.1,77,80.8,78.7,80.8,80.8z"/>
		</g>
		<g>
		</g>
	</g>
</g>
<g>
	<path class="st0" d="M110.2,95.5H91.8c-0.8,0-1.5-0.7-1.5-1.5V75.5c0-0.8,0.7-1.5,1.5-1.5h18.4c0.8,0,1.5,0.7,1.5,1.5V94
		C111.7,94.8,111.1,95.5,110.2,95.5z"/>
	<g id="XMLID_15_">
		<g>
			<rect x="93.3" y="77" class="st1" width="15.4" height="15.4"/>
		</g>
		<g>
		</g>
	</g>
</g>
</svg>
