<?xml version="1.0" encoding="utf-8"?>
<!-- Generator: Adobe Illustrator 24.0.1, SVG Export Plug-In . SVG Version: 6.00 Build 0)  -->
<svg version="1.1" id="Layer_1" xmlns="http://www.w3.org/2000/svg" xmlns:xlink="http://www.w3.org/1999/xlink" x="0px" y="0px"
	 viewBox="0 0 149 124" style="enable-background:new 0 0 149 124;" xml:space="preserve">
<style type="text/css">
	.st0{fill:#312C29;}
	.st1{fill:#FB6520;}
</style>
<g>
	<g>
		<path class="st0" d="M119.5,44.4H81.8c0.5,1.1,0.5,2.4,0,3.5h35.8v56.8H29.4V47.8h36.1c-0.6-1-0.6-2.4-0.1-3.5H27.5
			c-1,0-1.9,0.8-1.9,1.7v60.2c0,1,0.8,1.7,1.9,1.7h92c1,0,1.9-0.8,1.9-1.7V46.1C121.4,45.2,120.5,44.4,119.5,44.4z"/>
		<path class="st0" d="M125.7,38.6H81.9c0.5,1.1,0.4,2.4-0.2,3.5h42.2v68.3H23.1V42.1h42.3c-0.5-1.1-0.5-2.4,0-3.5H21.3
			c-1,0-1.9,0.8-1.9,1.7v71.8c0,1,0.8,1.7,1.9,1.7h104.5c1,0,1.9-0.8,1.9-1.7V40.3C127.6,39.4,126.8,38.6,125.7,38.6z"/>
	</g>
</g>
<g>
	<path class="st0" d="M97.8,76.1c0-0.3-0.1-0.6-0.4-0.9L93.8,72l2.1-4.4c0.1-0.3,0.2-0.6,0-0.9c-0.1-0.3-0.4-0.5-0.7-0.7l-4.6-1.6
		l0.3-4.9c0-0.3-0.1-0.7-0.3-0.9c-0.2-0.2-0.5-0.4-0.9-0.3l-0.3,0c-0.3,0.8-0.8,1.5-1.6,1.8c-0.3,1.5-1.4,2.8-3.3,2.8
		c0,0-0.1,0-0.1,0c-0.3,0.4-0.7,0.7-1.1,0.9c-0.4,1.2-1.4,2.1-2.9,2.2c0.1,1.8-1,3.8-3.4,3.8c0,0-0.1,0-0.1,0c0.3,1.9-0.9,4-3.3,4
		c-1.8,0-2.9-1.2-3.3-2.6c-0.6-0.4-1-1.1-1.2-1.7c-1.8-0.3-2.7-1.9-2.7-3.4c-1.7-0.3-2.7-1.7-2.7-3.2c-0.3,0.1-0.7,0.2-1.1,0.2
		c-2.7,0-3.8-2.6-3.2-4.6l-3.1-0.2c-0.3,0-0.7,0.1-0.9,0.3c-0.2,0.2-0.4,0.6-0.3,0.9l0.3,4.9l-4.6,1.6c-0.3,0.1-0.6,0.3-0.7,0.7
		c-0.1,0.3-0.1,0.7,0,0.9l2.1,4.4l-3.7,3.3c-0.2,0.2-0.4,0.5-0.4,0.9s0.1,0.6,0.4,0.9l3.7,3.3L50,84.7c-0.1,0.3-0.2,0.6,0,0.9
		c0.1,0.3,0.4,0.5,0.7,0.7l4.6,1.6L55,92.8c0,0.3,0.1,0.7,0.3,0.9c0.2,0.2,0.5,0.3,0.9,0.3l4.9-0.3l1.6,4.6c0.1,0.3,0.3,0.6,0.7,0.7
		c0.3,0.1,0.7,0.1,0.9,0l4.4-2.1l3.3,3.7c0.2,0.2,0.5,0.4,0.9,0.4s0.6-0.1,0.9-0.4l3.3-3.7l4.4,2.1c0.3,0.1,0.6,0.2,0.9,0
		c0.3-0.1,0.5-0.4,0.7-0.7l1.6-4.6l4.9,0.3c0.3,0,0.7-0.1,0.9-0.3c0.2-0.2,0.4-0.6,0.3-0.9l-0.3-4.9l4.6-1.6
		c0.3-0.1,0.6-0.3,0.7-0.7c0.1-0.3,0.1-0.7,0-0.9l-2.1-4.4l3.7-3.3C97.7,76.7,97.8,76.4,97.8,76.1z"/>
	<g id="XMLID_58_">
		<g>
			<path class="st1" d="M94.9,76.1l-3.3,3c-0.4,0.3-0.5,0.9-0.3,1.4l1.9,4L89,86c-0.5,0.2-0.8,0.6-0.8,1.2l0.2,4.5L84,91.4
				c-0.5,0-1,0.3-1.2,0.8l-1.5,4.2l-4-1.9c-0.5-0.2-1-0.1-1.4,0.3l-3,3.3l-3-3.3c-0.2-0.2-0.5-0.4-0.9-0.4c-0.2,0-0.3,0-0.5,0.1
				l-4,1.9L63,92.2c-0.2-0.5-0.7-0.8-1.2-0.8l-4.5,0.2l0.2-4.5c0-0.5-0.3-1-0.8-1.2l-4.2-1.5l1.9-4c0.2-0.5,0.1-1-0.3-1.4l-3.3-3
				l3.3-3c0.4-0.3,0.5-0.9,0.3-1.4l-1.9-4l4.2-1.5c0.5-0.2,0.8-0.6,0.8-1.2l-0.2-4.5l2,0.1c0.4,1.2,1.5,2.2,3.2,2.2
				c0.4,0,0.8-0.1,1.1-0.2c0.1,1.5,1,2.9,2.7,3.2c0,1.6,0.9,3.1,2.7,3.4c0.2,0.7,0.6,1.3,1.2,1.7c0.3,1.4,1.4,2.6,3.3,2.6
				c2.5,0,3.6-2.1,3.3-4c0,0,0.1,0,0.1,0c2.4,0,3.5-2,3.4-3.8c1.5-0.1,2.5-1.1,2.9-2.2c0.5-0.2,0.8-0.5,1.1-0.9c0,0,0,0,0.1,0
				c1.7,0,2.7-1,3.2-2.2l0.9,0L88.2,65c0,0.5,0.3,1,0.8,1.2l4.2,1.5l-1.9,4c-0.2,0.5-0.1,1,0.3,1.4L94.9,76.1z"/>
		</g>
		<g>
		</g>
	</g>
</g>
<g>
	<path class="st0" d="M73.5,76.3c-0.4,0-0.8-0.2-1.1-0.5L55.6,58c-0.4-0.4-0.5-1.1-0.3-1.6c0.2-0.5,0.8-0.9,1.4-0.9h6.9V14
		c0-0.8,0.7-1.5,1.5-1.5h16.7c0.8,0,1.5,0.7,1.5,1.5v41.5h6.9c0.6,0,1.1,0.4,1.4,0.9c0.2,0.5,0.1,1.2-0.3,1.6L74.6,75.8
		C74.3,76.1,73.9,76.3,73.5,76.3z M60.2,58.5l13.3,14.1l13.3-14.1h-4.9c-0.8,0-1.5-0.7-1.5-1.5V15.5H66.7V57c0,0.8-0.7,1.5-1.5,1.5
		H60.2z"/>
</g>
</svg>
