<?xml version="1.0" encoding="utf-8"?>
<!-- Generator: Adobe Illustrator 24.0.1, SVG Export Plug-In . SVG Version: 6.00 Build 0)  -->
<svg version="1.1" id="Layer_1" xmlns="http://www.w3.org/2000/svg" xmlns:xlink="http://www.w3.org/1999/xlink" x="0px" y="0px"
	 viewBox="0 0 149 124" style="enable-background:new 0 0 149 124;" xml:space="preserve">
<style type="text/css">
	.st0{fill:#FFFFFF;stroke:#312C29;stroke-width:3;stroke-miterlimit:10;}
	.st1{fill:#312C29;}
	.st2{fill:#FB6520;}
</style>
<circle class="st0" cx="90.2" cy="47.9" r="36.5"/>
<circle class="st0" cx="56.8" cy="76.5" r="36.5"/>
<g>
	<path class="st1" d="M56.4,87.2l-11-12.6c-0.5-0.6-0.4-1.7,0.4-2.3l37.7-32.9L79,34.2c-0.4-0.5-0.4-1.1-0.1-1.8
		c0.3-0.6,1-1,1.7-1.1l27.2-1.5c0.9-0.1,1.6,0.7,1.4,1.6L104,58.3c-0.1,0.7-0.6,1.2-1.3,1.5c-0.7,0.3-1.3,0.1-1.7-0.3l-4.5-5.2
		L58.7,87.1C58,87.8,56.9,87.8,56.4,87.2z"/>
	<g id="XMLID_83_">
		<g>
			<path class="st2" d="M105.6,33.3l-4.1,21.2l-3.3-3.7c-0.5-0.6-1.6-0.6-2.3,0.1L58.1,83.7l-9-10.3l37.7-32.9
				c0.8-0.7,0.9-1.7,0.4-2.3L84,34.4L105.6,33.3z"/>
		</g>
		<g>
		</g>
	</g>
</g>
</svg>
