<?xml version="1.0" encoding="utf-8"?>
<!-- Generator: Adobe Illustrator 24.0.1, SVG Export Plug-In . SVG Version: 6.00 Build 0)  -->
<svg version="1.1" id="Layer_1" xmlns="http://www.w3.org/2000/svg" xmlns:xlink="http://www.w3.org/1999/xlink" x="0px" y="0px"
	 viewBox="0 0 149 124" style="enable-background:new 0 0 149 124;" xml:space="preserve">
<style type="text/css">
	.st0{fill:#312C29;}
	.st1{fill:#FB6520;}
</style>
<g>
	<g>
		<path class="st0" d="M125.7,97.3H21.3c-1,0-1.9-0.8-1.9-1.7V23.7c0-1,0.8-1.7,1.9-1.7h104.5c1,0,1.9,0.8,1.9,1.7v71.8
			C127.6,96.5,126.8,97.3,125.7,97.3z M23.1,93.8h100.7V25.5H23.1V93.8z M119.5,91.5h-92c-1,0-1.9-0.8-1.9-1.7V29.5
			c0-1,0.8-1.7,1.9-1.7h92c1,0,1.9,0.8,1.9,1.7v60.2C121.4,90.7,120.5,91.5,119.5,91.5z M29.4,88h88.2V31.2H29.4V88z"/>
	</g>
</g>
<path class="st0" d="M62.1,104.3v-8.2c0-1,0.8-1.7,1.9-1.7H83c1,0,1.9,0.8,1.9,1.7v8.2"/>
<rect x="29.4" y="44.8" class="st1" width="70.2" height="11.8"/>
<rect x="73.1" y="60.5" transform="matrix(-1.836970e-16 1 -1 -1.836970e-16 161.1328 -28.2688)" class="st1" width="43.2" height="11.8"/>
</svg>
