<?xml version="1.0" encoding="utf-8"?>
<!-- Generator: Adobe Illustrator 24.0.1, SVG Export Plug-In . SVG Version: 6.00 Build 0)  -->
<svg version="1.1" id="Layer_1" xmlns="http://www.w3.org/2000/svg" xmlns:xlink="http://www.w3.org/1999/xlink" x="0px" y="0px"
	 viewBox="0 0 149 124" style="enable-background:new 0 0 149 124;" xml:space="preserve">
<style type="text/css">
	.st0{fill:#312C29;}
	.st1{fill:#FB6520;}
</style>
<g>
	<g>
		<path class="st0" d="M27.9,20.2c-0.4,0-0.8-0.2-1.1-0.4c-0.3-0.3-0.4-0.7-0.4-1.1c0-0.4,0.2-0.8,0.4-1.1c0.5-0.6,1.6-0.6,2.1,0
			c0.3,0.3,0.4,0.7,0.4,1.1c0,0.4-0.2,0.8-0.4,1.1C28.7,20.1,28.3,20.2,27.9,20.2z"/>
	</g>
	<g>
		<path class="st0" d="M35.4,18.7c0-0.8,0.7-1.5,1.5-1.5l0,0c0.8,0,1.5,0.7,1.5,1.5l0,0c0,0.8-0.7,1.5-1.5,1.5l0,0
			C36.1,20.2,35.4,19.6,35.4,18.7z"/>
	</g>
	<g>
		<path class="st0" d="M46,20.2c-0.4,0-0.8-0.2-1.1-0.4c-0.3-0.3-0.4-0.7-0.4-1.1c0-0.4,0.2-0.8,0.4-1.1c0.6-0.6,1.6-0.6,2.1,0
			c0.3,0.3,0.4,0.7,0.4,1.1c0,0.4-0.2,0.8-0.4,1.1C46.7,20.1,46.4,20.2,46,20.2z"/>
	</g>
</g>
<g>
	<path class="st0" d="M96,114.5h-75c-0.8,0-1.5-0.7-1.5-1.5V11.4c0-0.8,0.7-1.5,1.5-1.5h75c0.8,0,1.5,0.7,1.5,1.5v35.4
		c0,0.8-0.7,1.5-1.5,1.5c-0.8,0-1.5-0.7-1.5-1.5V12.9h-72v98.6h72v-9c0-0.8,0.7-1.5,1.5-1.5c0.8,0,1.5,0.7,1.5,1.5V113
		C97.5,113.8,96.9,114.5,96,114.5z"/>
</g>
<g>
	<path class="st0" d="M96,27.6H21c-0.8,0-1.5-0.7-1.5-1.5V11.4c0-0.8,0.7-1.5,1.5-1.5h75c0.8,0,1.5,0.7,1.5,1.5v14.7
		C97.5,26.9,96.9,27.6,96,27.6z"/>
	<g id="XMLID_59_">
		<g>
			<rect x="22.5" y="12.9" class="st1" width="72" height="11.7"/>
		</g>
		<g>
		</g>
	</g>
</g>
<g>
	<path class="st0" d="M121.9,103.9H35.4c-0.8,0-1.5-0.7-1.5-1.5v-36c0-0.8,0.7-1.5,1.5-1.5s1.5,0.7,1.5,1.5v34.5h83.5V48.3
		c0-0.8,0.7-1.5,1.5-1.5c0.8,0,1.5,0.7,1.5,1.5v54.1C123.4,103.2,122.7,103.9,121.9,103.9z"/>
</g>
<g>
	<path class="st0" d="M49.3,83.2c-0.4,0-0.8-0.2-1.1-0.5L34.3,67.4c-0.6-0.6-0.5-1.6,0.1-2.1c0.6-0.6,1.6-0.5,2.1,0.1L48.1,78
		l1.3-21c0-0.6,0.5-1.2,1.1-1.3c0.6-0.2,1.2,0,1.6,0.5l11.5,15L66,52.7c0.1-0.6,0.5-1,1-1.2c0.5-0.2,1.1-0.1,1.5,0.3l10.5,10.1
		l3.6-13.7c0.1-0.5,0.5-0.9,1-1.1c0.5-0.1,1.1,0,1.4,0.4l7.7,7.4l6-23.2c0.2-0.6,0.7-1,1.3-1.1c0.6-0.1,1.2,0.2,1.5,0.8l8.6,15.4
		l1.5-31.8c0-0.8,0.7-1.5,1.6-1.4c0.8,0,1.5,0.7,1.4,1.6L113,52.1c0,0.7-0.5,1.2-1.2,1.4c-0.7,0.2-1.3-0.1-1.7-0.7l-9.3-16.7
		l-5.7,22.1c-0.1,0.5-0.5,0.9-1,1.1c-0.5,0.1-1.1,0-1.4-0.4l-7.7-7.4l-3.6,13.7c-0.1,0.5-0.5,0.9-1,1.1c-0.5,0.1-1.1,0-1.4-0.4
		L68.6,56l-2.5,19.2c-0.1,0.6-0.5,1.1-1.1,1.3c-0.6,0.2-1.2-0.1-1.6-0.5L52.1,61.3l-1.3,20.5c0,0.6-0.4,1.1-1,1.3
		C49.7,83.1,49.5,83.2,49.3,83.2z"/>
</g>
<g>
	<path class="st0" d="M49.3,90.9c-0.8,0-1.5-0.7-1.5-1.5v-7.6c0-0.8,0.7-1.5,1.5-1.5c0.8,0,1.5,0.7,1.5,1.5v7.6
		C50.8,90.3,50.2,90.9,49.3,90.9z"/>
</g>
<g>
	<path class="st0" d="M64.5,87.1c-0.8,0-1.5-0.7-1.5-1.5V75c0-0.8,0.7-1.5,1.5-1.5c0.8,0,1.5,0.7,1.5,1.5v10.6
		C66,86.5,65.3,87.1,64.5,87.1z"/>
</g>
<g>
	<path class="st0" d="M79.7,80.9c-0.8,0-1.5-0.7-1.5-1.5V64.5c0-0.8,0.7-1.5,1.5-1.5c0.8,0,1.5,0.7,1.5,1.5v14.9
		C81.2,80.2,80.6,80.9,79.7,80.9z"/>
</g>
<g>
	<path class="st0" d="M111.4,66c-0.8,0-1.5-0.7-1.5-1.5V51.1c0-0.8,0.7-1.5,1.5-1.5c0.8,0,1.5,0.7,1.5,1.5v13.4
		C112.9,65.4,112.2,66,111.4,66z"/>
</g>
<g>
	<path class="st0" d="M110.9,74.2c-3,0-5.5-2.5-5.5-5.5s2.5-5.5,5.5-5.5c3,0,5.5,2.5,5.5,5.5S114,74.2,110.9,74.2z M110.9,66.2
		c-1.4,0-2.5,1.1-2.5,2.5s1.1,2.5,2.5,2.5s2.5-1.1,2.5-2.5S112.3,66.2,110.9,66.2z"/>
</g>
<g>
	<path class="st0" d="M121.9,49.7c-3,0-5.5-2.5-5.5-5.5s2.5-5.5,5.5-5.5c3,0,5.5,2.5,5.5,5.5S125,49.7,121.9,49.7z M121.9,41.6
		c-1.4,0-2.5,1.1-2.5,2.5c0,1.4,1.1,2.5,2.5,2.5c1.4,0,2.5-1.1,2.5-2.5C124.4,42.7,123.3,41.6,121.9,41.6z"/>
</g>
<g>
	<path class="st0" d="M93.9,81.5c-3,0-5.5-2.5-5.5-5.5c0-3,2.5-5.5,5.5-5.5c3,0,5.5,2.5,5.5,5.5C99.4,79,96.9,81.5,93.9,81.5z
		 M93.9,73.4c-1.4,0-2.5,1.1-2.5,2.5s1.1,2.5,2.5,2.5c1.4,0,2.5-1.1,2.5-2.5S95.3,73.4,93.9,73.4z"/>
</g>
<g>
	<path class="st0" d="M79.7,89.3c-3,0-5.5-2.5-5.5-5.5c0-3,2.5-5.5,5.5-5.5c3,0,5.5,2.5,5.5,5.5C85.3,86.8,82.8,89.3,79.7,89.3z
		 M79.7,81.2c-1.4,0-2.5,1.1-2.5,2.5s1.1,2.5,2.5,2.5s2.5-1.1,2.5-2.5S81.1,81.2,79.7,81.2z"/>
</g>
<g>
	<path class="st0" d="M64.9,95.5c-3,0-5.5-2.5-5.5-5.5c0-3,2.5-5.5,5.5-5.5c3,0,5.5,2.5,5.5,5.5C70.4,93,67.9,95.5,64.9,95.5z
		 M64.9,87.4c-1.4,0-2.5,1.1-2.5,2.5c0,1.4,1.1,2.5,2.5,2.5s2.5-1.1,2.5-2.5C67.4,88.5,66.3,87.4,64.9,87.4z"/>
</g>
<g>
	<path class="st0" d="M49.3,99c-3,0-5.5-2.5-5.5-5.5c0-3,2.5-5.5,5.5-5.5s5.5,2.5,5.5,5.5C54.9,96.5,52.4,99,49.3,99z M49.3,90.9
		c-1.4,0-2.5,1.1-2.5,2.5s1.1,2.5,2.5,2.5s2.5-1.1,2.5-2.5S50.7,90.9,49.3,90.9z"/>
</g>
<g>
	<path class="st0" d="M93.9,73.4c-0.8,0-1.5-0.7-1.5-1.5V57.8c0-0.8,0.7-1.5,1.5-1.5c0.8,0,1.5,0.7,1.5,1.5v14.2
		C95.4,72.8,94.7,73.4,93.9,73.4z"/>
</g>
<g>
	<path class="st0" d="M35.4,67.9c-0.8,0-1.5-0.7-1.5-1.5V45.8c0-0.8,0.7-1.5,1.5-1.5s1.5,0.7,1.5,1.5v20.6
		C36.9,67.2,36.2,67.9,35.4,67.9z"/>
</g>
<g>
	<path class="st0" d="M40.8,51c-0.4,0-0.8-0.1-1.1-0.4l-4.3-4.3l-4.3,4.3c-0.6,0.6-1.5,0.6-2.1,0c-0.6-0.6-0.6-1.5,0-2.1l5.4-5.4
		c0.6-0.6,1.5-0.6,2.1,0l5.4,5.4c0.6,0.6,0.6,1.5,0,2.1C41.5,50.9,41.2,51,40.8,51z"/>
</g>
<g>
	<path class="st0" d="M118.6,20.7c-0.4,0-0.8-0.1-1.1-0.4l-4.3-4.3l-4.3,4.3c-0.6,0.6-1.5,0.6-2.1,0c-0.6-0.6-0.6-1.5,0-2.1l5.4-5.4
		c0.3-0.3,0.7-0.4,1.1-0.4l0,0c0.4,0,0.8,0.2,1.1,0.4l5.4,5.4c0.6,0.6,0.6,1.5,0,2.1C119.4,20.6,119,20.7,118.6,20.7z"/>
</g>
</svg>
