<?xml version="1.0" encoding="utf-8"?>
<!-- Generator: Adobe Illustrator 24.0.1, SVG Export Plug-In . SVG Version: 6.00 Build 0)  -->
<svg version="1.1" id="Layer_1" xmlns="http://www.w3.org/2000/svg" xmlns:xlink="http://www.w3.org/1999/xlink" x="0px" y="0px"
	 viewBox="0 0 149 124" style="enable-background:new 0 0 149 124;" xml:space="preserve">
<style type="text/css">
	.st0{fill:#312C29;}
	.st1{fill:#FB6520;}
</style>
<g>
	<path class="st0" d="M110.1,64c-0.8,0-1.5-0.7-1.5-1.5V13.9H55.9v17.4c0,0.8-0.7,1.5-1.5,1.5H37.2v28.9c0,0.8-0.7,1.5-1.5,1.5
		c-0.8,0-1.5-0.7-1.5-1.5V31.3c0-0.8,0.7-1.5,1.5-1.5h17.3V12.4c0-0.8,0.7-1.5,1.5-1.5h55.7c0.8,0,1.5,0.7,1.5,1.5v50.1
		C111.6,63.3,110.9,64,110.1,64z"/>
</g>
<g>
	<path class="st0" d="M54.4,32.8H35.7c-0.6,0-1.2-0.4-1.4-0.9c-0.2-0.6-0.1-1.2,0.3-1.6l18.8-18.9c0.4-0.4,1.1-0.6,1.6-0.3
		c0.6,0.2,0.9,0.8,0.9,1.4v18.9C55.9,32.1,55.3,32.8,54.4,32.8z M39.3,29.8h13.7V16.1L39.3,29.8z"/>
</g>
<g>
	<path class="st0" d="M123.8,113.5H23.2c-0.8,0-1.5-0.7-1.5-1.5V54.9c0-0.5,0.3-1,0.7-1.3L34.9,46c0.7-0.4,1.6-0.2,2.1,0.5
		c0.4,0.7,0.2,1.6-0.5,2.1l-11.7,7.2v54.8h97.6V55.8l-12.9-7.9c-0.7-0.4-0.9-1.4-0.5-2.1c0.4-0.7,1.4-0.9,2.1-0.5l13.6,8.3
		c0.4,0.3,0.7,0.8,0.7,1.3V112C125.3,112.8,124.6,113.5,123.8,113.5z"/>
</g>
<g>
	<path class="st0" d="M123.8,113.5c-0.3,0-0.5-0.1-0.7-0.2L22.5,56.2c-0.7-0.4-1-1.3-0.6-2c0.4-0.7,1.3-1,2-0.6l100.6,57.1
		c0.7,0.4,1,1.3,0.6,2C124.8,113.2,124.3,113.5,123.8,113.5z"/>
</g>
<g>
	<path class="st0" d="M23.2,113.5c-0.5,0-1-0.3-1.3-0.8c-0.4-0.7-0.2-1.6,0.6-2L123,53.6c0.7-0.4,1.6-0.2,2,0.6
		c0.4,0.7,0.2,1.6-0.6,2L24,113.3C23.7,113.5,23.5,113.5,23.2,113.5z"/>
</g>
<g>
	<path class="st0" d="M89.8,48.8h-34c-0.8,0-1.5-0.7-1.5-1.5v-7.1c0-0.8,0.7-1.5,1.5-1.5h34c0.8,0,1.5,0.7,1.5,1.5v7.1
		C91.3,48.2,90.6,48.8,89.8,48.8z"/>
	<g id="XMLID_75_">
		<g>
			<rect x="57.4" y="41.7" class="st1" width="31" height="4.1"/>
		</g>
		<g>
		</g>
	</g>
</g>
<g>
	<path class="st0" d="M89.8,61.4h-34c-0.8,0-1.5-0.7-1.5-1.5v-7.1c0-0.8,0.7-1.5,1.5-1.5h34c0.8,0,1.5,0.7,1.5,1.5v7.1
		C91.3,60.7,90.6,61.4,89.8,61.4z"/>
	<g id="XMLID_76_">
		<g>
			<rect x="57.3" y="54.3" class="st1" width="31" height="4.1"/>
		</g>
		<g>
		</g>
	</g>
</g>
</svg>
