<?xml version="1.0" encoding="utf-8"?>
<!-- Generator: Adobe Illustrator 24.0.1, SVG Export Plug-In . SVG Version: 6.00 Build 0)  -->
<svg version="1.1" id="Layer_1" xmlns="http://www.w3.org/2000/svg" xmlns:xlink="http://www.w3.org/1999/xlink" x="0px" y="0px"
	 viewBox="0 0 149 124" style="enable-background:new 0 0 149 124;" xml:space="preserve">
<style type="text/css">
	.st0{fill:#312C29;}
	.st1{fill:#FB6520;}
</style>
<g>
	<path class="st0" d="M124.3,115.5H22.6c-0.8,0-1.5-0.7-1.5-1.5V29c0-0.8,0.7-1.5,1.5-1.5h101.7c0.8,0,1.5,0.7,1.5,1.5v85
		C125.8,114.8,125.2,115.5,124.3,115.5z M24.1,112.5h98.7v-82H24.1V112.5z"/>
</g>
<g>
	<path class="st0" d="M124.3,30.5H22.6c-0.8,0-1.5-0.7-1.5-1.5V12.3c0-0.8,0.7-1.5,1.5-1.5h101.7c0.8,0,1.5,0.7,1.5,1.5V29
		C125.8,29.8,125.2,30.5,124.3,30.5z M24.1,27.5h98.7V13.8H24.1V27.5z"/>
</g>
<g>
	<path class="st0" d="M50.2,104c-0.4,0-0.8-0.2-1.1-0.5L32.4,85.7c-0.4-0.4-0.5-1.1-0.3-1.6c0.2-0.5,0.8-0.9,1.4-0.9h6.9V41.7
		c0-0.8,0.7-1.5,1.5-1.5h16.7c0.8,0,1.5,0.7,1.5,1.5v41.5H67c0.6,0,1.1,0.4,1.4,0.9s0.1,1.2-0.3,1.6l-16.8,17.8
		C51,103.8,50.6,104,50.2,104z"/>
	<g id="XMLID_32_">
		<g>
			<path class="st1" d="M63.5,86.2l-13.3,14.1L36.9,86.2h5c0.8,0,1.5-0.7,1.5-1.5V43.2h13.7v41.5c0,0.8,0.7,1.5,1.5,1.5H63.5z"/>
		</g>
		<g>
		</g>
	</g>
</g>
<g>
	<g>
		<path class="st0" d="M30.5,22.2c-0.4,0-0.8-0.2-1.1-0.4C29.1,21.4,29,21,29,20.7c0-0.4,0.2-0.8,0.4-1.1c0.6-0.6,1.6-0.6,2.1,0
			c0.3,0.3,0.4,0.7,0.4,1.1s-0.2,0.8-0.4,1.1C31.3,22,30.9,22.2,30.5,22.2z"/>
	</g>
	<g>
		<path class="st0" d="M41.3,20.7c0-0.8,0.7-1.5,1.5-1.5l0,0c0.8,0,1.5,0.7,1.5,1.5l0,0c0,0.8-0.7,1.5-1.5,1.5l0,0
			C41.9,22.2,41.3,21.5,41.3,20.7z"/>
	</g>
	<g>
		<path class="st0" d="M55.1,22.2c-0.4,0-0.8-0.2-1.1-0.4c-0.3-0.3-0.4-0.7-0.4-1.1s0.2-0.8,0.4-1.1c0.6-0.6,1.6-0.6,2.1,0
			c0.3,0.3,0.4,0.7,0.4,1.1c0,0.1,0,0.2,0,0.3c0,0.1,0,0.2-0.1,0.3c0,0.1-0.1,0.2-0.1,0.3c-0.1,0.1-0.1,0.2-0.2,0.2
			C55.8,22,55.5,22.2,55.1,22.2z"/>
	</g>
</g>
<path d="M114.2,58.6l-7.7-7.7c-0.2-0.2-0.4-0.3-0.7-0.3H76c-2.1,0-3.8,1.7-3.8,3.8V89c0,2.1,1.7,3.8,3.8,3.8h34.6
	c2.1,0,3.8-1.7,3.8-3.8V59.2C114.5,59,114.4,58.7,114.2,58.6z M81.8,52.5h21.2V64c0,1.1-0.9,1.9-1.9,1.9H83.7
	c-1.1,0-1.9-0.9-1.9-1.9V52.5z M106.8,91H79.8V73.7h26.9V91z"/>
<g id="XMLID_33_">
	<g>
		<path class="st1" d="M112.5,59.6v29.4c0,1.1-0.9,1.9-1.9,1.9h-1.9V72.7c0-0.5-0.4-1-1-1H78.9c-0.5,0-1,0.4-1,1V91H76
			c-1.1,0-1.9-0.9-1.9-1.9V54.4c0-1.1,0.9-1.9,1.9-1.9h3.8v11.5c0,2.1,1.7,3.8,3.8,3.8H101c2.1,0,3.8-1.7,3.8-3.8V52.5h0.6
			L112.5,59.6z"/>
	</g>
	<g>
	</g>
</g>
<path d="M96.5,65h3.8c0.5,0,1-0.4,1-1v-7.7c0-0.5-0.4-1-1-1h-3.8c-0.5,0-1,0.4-1,1v7.7C95.5,64.6,96,65,96.5,65z M97.4,57.3h1.9v5.8
	h-1.9V57.3z"/>
</svg>
