<?xml version="1.0" encoding="utf-8"?>
<!-- Generator: Adobe Illustrator 24.0.1, SVG Export Plug-In . SVG Version: 6.00 Build 0)  -->
<svg version="1.1" id="Layer_1" xmlns="http://www.w3.org/2000/svg" xmlns:xlink="http://www.w3.org/1999/xlink" x="0px" y="0px"
	 viewBox="0 0 149 124" style="enable-background:new 0 0 149 124;" xml:space="preserve">
<style type="text/css">
	.st0{fill:#312C29;}
	.st1{fill:#312C29;stroke:#312C29;stroke-width:0.5;stroke-miterlimit:10;}
	.st2{fill:#FB6520;}
	.st3{fill:none;stroke:#312C29;stroke-width:0.5;stroke-miterlimit:10;}
</style>
<path class="st0" d="M47.8,109.7v-5.5c0-0.6,0.6-1.2,1.2-1.2h12.7c0.7,0,1.2,0.5,1.2,1.2v5.5"/>
<g>
	<path class="st1" d="M125.1,14.9H56.8c-0.3,0-1.1,0.6-1.1,1.3v23.5c0.2,0,0.5-0.1,0.7-0.1c0.6,0,1.1,0.1,1.5,0.3V16.7h67.4v39.8
		H108c0.2,0.5,0.2,1,0.2,1.6h17.6c1,0,1.8-0.6,1.8-1.3V16.2C127.6,15.5,126.8,14.9,125.1,14.9z"/>
</g>
<g>
	<path class="st1" d="M106.9,38.1H38.6c-0.3,0-1.1,0.6-1.1,1.3v22.9c0.5-0.1,1-0.1,1.5,0c0.4-0.1,0.8-0.2,1.3-0.2
		c14.8,0.3,29.6-0.3,44.3-0.3c0.3,0,0.6,0,0.8,0.1c0.2,0,0.5-0.1,0.7-0.1c3.9,0,4.9,4.6,2.9,6.9c0.4,0.8,0.5,1.7,0.3,2.6
		c0.3,0.3,0.5,0.7,0.7,1.2c1.3,3.4,1.3,6.6-0.2,8.8h17.6c1,0,1.8-0.6,1.8-1.3V39.5C109.4,38.7,108.6,38.1,106.9,38.1z"/>
	<g id="XMLID_71_">
		<g>
			<path class="st2" d="M107.3,39.9v39.8H90.8c0.7-2.1,0.4-4.6-0.6-7.3c-0.2-0.4-0.4-0.8-0.7-1.2c0.1-0.9,0.1-1.8-0.3-2.6
				c1.9-2.3,1-6.9-2.9-6.9c-0.3,0-0.5,0-0.8,0.1c-0.2,0-0.5-0.1-0.8-0.1c-14.8,0-29.5,0.6-44.3,0.3c-0.2,0-0.4,0-0.6,0V39.9H107.3z"
				/>
		</g>
		<g>
			<polyline class="st3" points="90.8,79.7 107.3,79.7 107.3,39.9 39.8,39.9 39.8,62.1 			"/>
			<path class="st3" d="M90.8,79.7c0.7-2.1,0.4-4.6-0.6-7.3c-0.2-0.4-0.4-0.8-0.7-1.2"/>
			<path class="st3" d="M85.5,61.9c-0.2,0-0.5-0.1-0.8-0.1c-14.8,0-29.5,0.6-44.3,0.3c-0.2,0-0.4,0-0.6,0"/>
			<path class="st3" d="M89.2,68.7c1.9-2.3,1-6.9-2.9-6.9c-0.3,0-0.5,0-0.8,0.1"/>
			<path class="st3" d="M89.5,71.3c0.1-0.9,0.1-1.8-0.3-2.6"/>
		</g>
	</g>
</g>
<g>
	<path class="st1" d="M89.5,104.2H21.2c-1,0-1.8-0.6-1.8-1.3V62.4c0-0.7,0.8-1.3,1.1-1.3h68.3c1.7,0,2.5,0.6,2.5,1.3v40.5
		C91.3,103.6,90.5,104.2,89.5,104.2z M21.7,102.6h67.4V62.8H21.7V102.6z"/>
</g>
</svg>
