<?xml version="1.0" encoding="utf-8"?>
<!-- Generator: Adobe Illustrator 24.0.1, SVG Export Plug-In . SVG Version: 6.00 Build 0)  -->
<svg version="1.1" id="Layer_1" xmlns="http://www.w3.org/2000/svg" xmlns:xlink="http://www.w3.org/1999/xlink" x="0px" y="0px"
	 viewBox="0 0 149 124" style="enable-background:new 0 0 149 124;" xml:space="preserve">
<style type="text/css">
	.st0{fill:#312C29;}
	.st1{fill:#FFFFFF;}
	.st2{fill:#FB6520;}
</style>
<g>
	<g>
		<g>
			<path class="st0" d="M122.9,93.4H23.1c-3.1,0-5.6-2.1-5.6-4.6V26.5c0-2.5,2.5-4.6,5.6-4.6h99.7c3.1,0,5.6,2.1,5.6,4.6v62.2
				C128.4,91.3,125.9,93.4,122.9,93.4z M23.1,24.6c-1.3,0-2.3,0.9-2.3,1.9v62.2c0,1.1,1,1.9,2.3,1.9h99.7c1.3,0,2.3-0.9,2.3-1.9
				V26.5c0-1.1-1-1.9-2.3-1.9H23.1z M118.9,86.9H27.1c-0.9,0-1.6-0.6-1.6-1.3V29.8c0-0.7,0.7-1.3,1.6-1.3h91.9
				c0.9,0,1.6,0.6,1.6,1.3v55.7C120.5,86.3,119.8,86.9,118.9,86.9z"/>
		</g>
	</g>
</g>
<g>
	<g>
		<path class="st0" d="M83,106.7H63c-0.8,0-1.5-0.6-1.5-1.3V92c0-0.7,0.7-1.3,1.5-1.3h20c0.8,0,1.5,0.6,1.5,1.3v13.3
			C84.4,106.1,83.8,106.7,83,106.7z M64.5,104h17V93.4h-17V104z"/>
	</g>
</g>
<g>
	<g>
		<path class="st0" d="M94.3,114H51.7c-0.8,0-1.5-0.6-1.5-1.3c0-4.7,4.2-8.6,9.3-8.6h26.9c5.1,0,9.3,3.8,9.3,8.6
			C95.8,113.4,95.1,114,94.3,114z M53.3,111.3h39.4c-0.7-2.6-3.2-4.6-6.2-4.6H59.5C56.5,106.7,54,108.7,53.3,111.3z"/>
	</g>
</g>
<path class="st0" d="M80.3,15.4"/>
<g>
	<g>
		<path class="st0" d="M70,24.2c1.4-0.2,2.7-0.2,4.1-0.1L60.6,11.7c-0.3-0.3-1,0-1.6,0.5s-0.8,1.2-0.6,1.5L70,24.2
			C70,24.2,70,24.2,70,24.2z"/>
	</g>
</g>
<g>
	<g>
		<path class="st0" d="M87.8,12.2c-0.6-0.5-1.3-0.8-1.6-0.5L72.9,23.9h4.3l11.2-10.3C88.6,13.4,88.4,12.7,87.8,12.2z"/>
	</g>
</g>
<rect x="23" y="27.5" class="st1" width="100.1" height="60.4"/>
<g>
	<path class="st0" d="M100,82.5H85.3c-0.5,0-1-0.3-1.3-0.7l-7.7-12.3c-0.3-0.4-0.3-1,0-1.4l6.8-9.6c0.5-0.8,1.9-0.8,2.4,0l7.8,11v0
		l7.8,11c0.3,0.4,0.3,0.9,0.1,1.4C101,82.2,100.5,82.5,100,82.5z"/>
	<g id="XMLID_9_">
		<g>
			<polygon class="st2" points="91,70.9 97.3,79.8 86.2,79.8 79.3,68.9 84.5,61.7 			"/>
		</g>
		<g>
		</g>
	</g>
</g>
<g>
	<path class="st0" d="M85.3,82.5H43.9c-0.5,0-1-0.3-1.3-0.7c-0.3-0.4-0.3-0.9,0-1.3l20.7-33c0.3-0.4,0.7-0.7,1.3-0.7s1,0.3,1.3,0.7
		l20.7,33c0.3,0.4,0.3,0.9,0,1.3C86.3,82.2,85.9,82.5,85.3,82.5z"/>
	<g id="XMLID_8_">
		<g>
			<polygon class="st2" points="76.4,69.5 82.8,79.8 46.5,79.8 64.6,50.8 			"/>
		</g>
		<g>
		</g>
	</g>
</g>
<g>
	<path class="st0" d="M78,46.9c-4.1,0-7.5-3.1-7.5-6.9c0-3.8,3.4-6.9,7.5-6.9c4.1,0,7.5,3.1,7.5,6.9C85.5,43.8,82.1,46.9,78,46.9z"
		/>
	<g id="XMLID_10_">
		<g>
			<ellipse class="st2" cx="78" cy="40" rx="4.6" ry="4.2"/>
		</g>
		<g>
		</g>
	</g>
</g>
</svg>
