<?xml version="1.0" encoding="utf-8"?>
<!-- Generator: Adobe Illustrator 24.0.1, SVG Export Plug-In . SVG Version: 6.00 Build 0)  -->
<svg version="1.1" id="Layer_1" xmlns="http://www.w3.org/2000/svg" xmlns:xlink="http://www.w3.org/1999/xlink" x="0px" y="0px"
	 viewBox="0 0 149 124" style="enable-background:new 0 0 149 124;" xml:space="preserve">
<style type="text/css">
	.st0{fill:#312C29;}
	.st1{fill:#FB6520;}
</style>
<g>
	<path class="st0" d="M34.1,77.7c-0.2,0-0.3,0-0.5-0.1c-0.6-0.2-1-0.8-1-1.4V63.2h-8.7c-0.8,0-1.5-0.7-1.5-1.5v-50
		c0-0.8,0.7-1.5,1.5-1.5h66.4c0.8,0,1.5,0.7,1.5,1.5v40.4c0,0.8-0.7,1.5-1.5,1.5H63.7v8.1c0,0.8-0.7,1.5-1.5,1.5H47L35.2,77.2
		C34.9,77.5,34.5,77.7,34.1,77.7z"/>
	<g id="XMLID_62_">
		<g>
			<path class="st1" d="M88.7,13.3v37.4H62.2c-0.8,0-1.5,0.7-1.5,1.5v8.1H46.3c-0.4,0-0.9,0.2-1.1,0.5l-9.6,11.3V61.8
				c0-0.8-0.7-1.5-1.5-1.5h-8.7v-47H88.7z"/>
		</g>
		<g>
		</g>
	</g>
</g>
<g>
	<path class="st0" d="M92.6,114c-0.5,0-1-0.3-1.3-0.8l-8-13.8H62.2c-0.8,0-1.5-0.7-1.5-1.5V52.2c0-0.8,0.7-1.5,1.5-1.5h60.9
		c0.8,0,1.5,0.7,1.5,1.5V98c0,0.8-0.7,1.5-1.5,1.5h-21.2l-8,13.8C93.7,113.8,93.2,114,92.6,114z M63.7,96.5h20.6
		c0.5,0,1,0.3,1.3,0.8l7.1,12.3l7.1-12.3c0.3-0.5,0.8-0.8,1.3-0.8h20.6V53.7H63.7V96.5z"/>
</g>
<path class="st0" d="M103.1,64.6c-2.8-2.8-6.5-4.3-10.4-4.3c-3.9,0-7.6,1.5-10.4,4.3c-2.8,2.8-4.4,6.5-4.4,10.4v0v0
	c0,2.4,0.6,4.8,1.8,6.9l-1.8,8L86,88c2.1,1,4.3,1.6,6.6,1.6h0c3.9,0,7.6-1.5,10.4-4.3c2.8-2.8,4.4-6.5,4.4-10.4
	C107.5,71.1,105.9,67.4,103.1,64.6z M92.7,87.3L92.7,87.3c-2.1,0-4.1-0.5-5.9-1.5l-0.4-0.2L81,86.8l1.2-5.3l-0.2-0.4
	c-1.1-1.9-1.7-4.1-1.7-6.2c0-6.8,5.6-12.4,12.5-12.4c3.3,0,6.4,1.3,8.8,3.6c2.4,2.4,3.7,5.5,3.7,8.7C105.2,81.8,99.6,87.3,92.7,87.3
	z"/>
<path class="st0" d="M88.7,68.5H88c-0.2,0-0.6,0.1-0.9,0.4c-0.3,0.3-1.2,1.2-1.2,2.8c0,1.7,1.2,3.3,1.4,3.5c0.2,0.2,2.3,3.7,5.8,5.1
	c2.9,1.1,3.4,0.9,4.1,0.8c0.6-0.1,2-0.8,2.3-1.6c0.3-0.8,0.3-1.5,0.2-1.6c-0.1-0.1-0.3-0.2-0.6-0.4c-0.3-0.2-2-1-2.3-1.1
	c-0.3-0.1-0.5-0.2-0.8,0.2c-0.2,0.3-0.9,1.1-1.1,1.3c-0.2,0.2-0.4,0.3-0.7,0.1c-0.3-0.2-1.4-0.5-2.7-1.7c-1-0.9-1.7-2-1.9-2.4
	c-0.2-0.3,0-0.5,0.1-0.7c0.2-0.2,0.4-0.4,0.5-0.6c0.2-0.2,0.2-0.3,0.3-0.6c0.1-0.2,0.1-0.4,0-0.6c-0.1-0.2-0.7-1.8-1-2.5h0
	C89.2,68.5,88.9,68.5,88.7,68.5z"/>
<circle class="st0" cx="40.3" cy="35.6" r="4.9"/>
<circle class="st0" cx="56" cy="35.6" r="4.9"/>
<circle class="st0" cx="71.8" cy="35.6" r="4.9"/>
</svg>
