<?xml version="1.0" encoding="utf-8"?>
<!-- Generator: Adobe Illustrator 24.0.1, SVG Export Plug-In . SVG Version: 6.00 Build 0)  -->
<svg version="1.1" id="Layer_1" xmlns="http://www.w3.org/2000/svg" xmlns:xlink="http://www.w3.org/1999/xlink" x="0px" y="0px"
	 viewBox="0 0 149 124" style="enable-background:new 0 0 149 124;" xml:space="preserve">
<style type="text/css">
	.st0{fill:#312C29;}
	.st1{fill:#FFFFFF;}
	.st2{fill:#FB6520;stroke:#312C29;stroke-width:2;stroke-miterlimit:10;}
</style>
<g>
	<g>
		<g>
			<path class="st0" d="M122,93.3H25c-2.5,0-4.5-2.1-4.5-4.8v-73c0-2.6,2-4.8,4.5-4.8h97c2.5,0,4.5,2.1,4.5,4.8v73
				C126.5,91.1,124.5,93.3,122,93.3z M25,13.8c-0.8,0-1.4,0.8-1.4,1.7v73c0,0.9,0.6,1.7,1.4,1.7h97c0.8,0,1.4-0.8,1.4-1.7v-73
				c0-0.9-0.6-1.7-1.4-1.7H25z M119,86.8H28c-0.8,0-1.5-0.7-1.5-1.5V18.7c0-0.8,0.7-1.5,1.5-1.5h91c0.8,0,1.5,0.7,1.5,0.5v66.6
				C120.5,86.2,119.8,86.8,119,86.8z M29.5,83.8h88V20.2h-88V83.8z"/>
		</g>
	</g>
</g>
<g>
	<g>
		<path class="st0" d="M95,115.6h-44c-0.8,0-1.5-0.7-1.5-1.5v-6.2c0-0.8,0.7-1.5,1.5-1.5c4.7,0,8.4-3.8,8.4-8.5v-6.1
			c0-0.8,0.7-1.5,1.5-1.5h23.1c0.8,0,1.5,0.7,1.5,1.5v5.2c0,5.2,4.2,9.4,9.4,9.4c0.8,0,1.5,0.7,1.5,1.5v6.2
			C96.6,114.9,95.9,115.6,95,115.6z M52.6,112.5h40.9v-3.2c-6.1-0.8-10.9-6-10.9-12.4v-3.6h-20v4.6c0,5.8-4.4,10.7-10,11.4V112.5z"
			/>
	</g>
</g>
<g>
	<path class="st0" d="M69.5,54.7H35.6c-0.8,0-1.5-0.7-1.5-1.5V24.7c0-0.8,0.7-1.5,1.5-1.5h33.9c0.8,0,1.5,0.7,1.5,1.5v28.4
		C71,54,70.3,54.7,69.5,54.7z"/>
	<g id="XMLID_41_">
		<g>
			<rect x="37.1" y="26.3" class="st1" width="30.9" height="25.4"/>
		</g>
		<g>
		</g>
	</g>
</g>
<g>
	<path class="st0" d="M111.4,54.7H77.5c-0.8,0-1.5-0.7-1.5-1.5V24.8c0-0.8,0.7-1.5,1.5-1.5h33.9c0.8,0,1.5,0.7,1.5,1.5v28.4
		C113,54,112.3,54.7,111.4,54.7z"/>
	<g id="XMLID_42_">
		<g>
			<rect x="79" y="26.3" class="st1" width="30.9" height="25.4"/>
		</g>
		<g>
		</g>
	</g>
</g>
<g>
	<path class="st0" d="M109.9,81H37.1c-1.7,0-3-0.5-3-1.1V58.6c0-0.6,1.4-1.1,3-1.1h72.8c1.7,0,3,0.5,3,1.1v21.3
		C113,80.5,111.6,81,109.9,81z"/>
	<g id="XMLID_43_">
		<g>
			<rect x="37.1" y="59.7" class="st1" width="72.8" height="19"/>
		</g>
		<g>
		</g>
	</g>
</g>
<g id="XMLID_46_">
	<g>
	</g>
	<g>
	</g>
</g>
<circle class="st2" cx="73.5" cy="52" r="19.3"/>
<g>
	<g id="XMLID_44_">
		<g>
			<path class="st0" d="M82,50.6c0.4,0.2,0.6,0.6,0.6,1s-0.2,0.8-0.6,1l-15.1,8.7c-0.2,0.1-0.4,0.2-0.6,0.2c-0.2,0-0.4-0.1-0.6-0.2
				c-0.4-0.2-0.6-0.6-0.6-1V42.9c0-0.4,0.2-0.8,0.6-1c0.4-0.2,0.8-0.2,1.2,0L82,50.6z M67.5,58.3L79,51.6l-11.6-6.7V58.3z"/>
			<polygon class="st0" points="79,51.6 67.5,58.3 67.5,44.9 			"/>
		</g>
		<g>
		</g>
	</g>
</g>
</svg>
