<?xml version="1.0" encoding="utf-8"?>
<!-- Generator: Adobe Illustrator 24.0.1, SVG Export Plug-In . SVG Version: 6.00 Build 0)  -->
<svg version="1.1" id="Layer_1" xmlns="http://www.w3.org/2000/svg" xmlns:xlink="http://www.w3.org/1999/xlink" x="0px" y="0px"
	 viewBox="0 0 149 124" style="enable-background:new 0 0 149 124;" xml:space="preserve">
<style type="text/css">
	.st0{fill:#312C29;}
	.st1{fill:#FB6520;}
</style>
<g>
	<g>
		<path class="st0" d="M31.6,20.8c-0.4,0-0.8-0.2-1.1-0.4c-0.3-0.3-0.4-0.7-0.4-1.1c0-0.1,0-0.2,0-0.3c0-0.1,0-0.2,0.1-0.3
			c0-0.1,0.1-0.2,0.1-0.3c0-0.1,0.1-0.2,0.2-0.2c0.5-0.6,1.6-0.6,2.1,0c0.1,0.1,0.1,0.1,0.2,0.2c0.1,0.1,0.1,0.2,0.1,0.3
			c0,0.1,0.1,0.2,0.1,0.3c0,0.1,0,0.2,0,0.3c0,0.4-0.2,0.8-0.4,1.1c-0.1,0.1-0.3,0.3-0.5,0.3C32,20.7,31.8,20.8,31.6,20.8z"/>
	</g>
	<g>
		<path class="st0" d="M42.1,19.3c0-0.8,0.7-1.5,1.5-1.5l0,0c0.8,0,1.5,0.7,1.5,1.5l0,0c0,0.8-0.7,1.5-1.5,1.5l0,0
			C42.8,20.8,42.1,20.1,42.1,19.3z"/>
	</g>
	<g>
		<path class="st0" d="M55.7,20.8c-0.4,0-0.8-0.2-1.1-0.4c-0.3-0.3-0.4-0.7-0.4-1.1c0-0.1,0-0.2,0-0.3c0-0.1,0-0.2,0.1-0.3
			c0-0.1,0.1-0.2,0.1-0.3c0-0.1,0.1-0.2,0.2-0.2c0.4-0.4,0.9-0.5,1.4-0.4c0.1,0,0.2,0.1,0.3,0.1c0.1,0,0.2,0.1,0.3,0.1
			c0.1,0,0.2,0.1,0.2,0.2c0.1,0.1,0.1,0.1,0.2,0.2c0.1,0.1,0.1,0.2,0.1,0.3s0.1,0.2,0.1,0.3c0,0.1,0,0.2,0,0.3
			c0,0.4-0.1,0.8-0.4,1.1c-0.2,0.1-0.3,0.3-0.5,0.3C56.1,20.7,55.9,20.8,55.7,20.8z"/>
	</g>
</g>
<g>
	<path class="st0" d="M24.1,102.7c-0.8,0-1.5-0.7-1.5-1.5V12.6c0-0.8,0.7-1.5,1.5-1.5h89.3c0.8,0,1.5,0.7,1.5,1.5v83.7
		c0,0.8-0.7,1.5-1.5,1.5c-0.8,0-1.5-0.7-1.5-1.5V14.1H25.6v87.1C25.6,102,24.9,102.7,24.1,102.7z"/>
</g>
<g>
	<path class="st0" d="M36.4,113.3c-0.4,0-0.9,0-1.3-0.1c-7.1-0.6-12.5-5.8-12.5-12.1c0-0.8,0.7-1.5,1.5-1.5c0.8,0,1.5,0.7,1.5,1.5
		c0,4.7,4.2,8.6,9.7,9.1c0.4,0,0.7,0,1.1,0c6,0,10.8-4.1,10.8-9.1v-4.8c0-0.8,0.7-1.5,1.5-1.5c0.8,0,1.5,0.7,1.5,1.5v4.8
		C50.2,107.8,44,113.3,36.4,113.3z"/>
</g>
<g>
	<path class="st0" d="M110.6,113.3H36.4c-0.8,0-1.5-0.7-1.5-1.5c0-0.8,0.7-1.5,1.5-1.5c6,0,10.8-4.1,10.8-9.1v-4.8
		c0-0.8,0.7-1.5,1.5-1.5h74.2c0.8,0,1.5,0.7,1.5,1.5v4.8C124.4,107.8,118.2,113.3,110.6,113.3z"/>
	<g id="XMLID_72_">
		<g>
			<path class="st1" d="M121.4,97.8v3.3c0,5-4.8,9.1-10.8,9.1H45.5c2.9-2.2,4.7-5.5,4.7-9.1v-3.3H121.4z"/>
		</g>
		<g>
		</g>
	</g>
</g>
<g>
	<path class="st0" d="M113.1,27.4h-89c-0.8,0-1.5-0.7-1.5-1.5c0-0.8,0.7-1.5,1.5-1.5h89c0.8,0,1.5,0.7,1.5,1.5
		C114.6,26.8,113.9,27.4,113.1,27.4z"/>
</g>
<g>
	<path class="st0" d="M98.6,85.2h-58c-0.8,0-1.5-0.7-1.5-1.5V38.5c0-0.8,0.7-1.5,1.5-1.5h58c0.8,0,1.5,0.7,1.5,1.5v45.2
		C100.1,84.5,99.4,85.2,98.6,85.2z M42.1,82.2h55V40h-55V82.2z"/>
</g>
<g>
	<g>
		<path class="st0" d="M92.9,46.5c-0.2,0-0.4,0-0.6-0.1c-0.2-0.1-0.3-0.2-0.5-0.3c-0.3-0.3-0.4-0.7-0.4-1.1c0-0.1,0-0.2,0-0.3
			c0-0.1,0.1-0.2,0.1-0.3c0-0.1,0.1-0.2,0.1-0.3c0.1-0.1,0.1-0.2,0.2-0.2c0.1-0.1,0.1-0.1,0.2-0.2c0.1-0.1,0.2-0.1,0.3-0.1
			c0.1,0,0.2-0.1,0.3-0.1c0.5-0.1,1,0.1,1.4,0.4c0.3,0.3,0.4,0.7,0.4,1c0,0.4-0.2,0.8-0.4,1.1c-0.1,0.1-0.3,0.3-0.5,0.3
			C93.3,46.5,93.1,46.5,92.9,46.5z"/>
	</g>
	<g>
		<path class="st0" d="M91.4,65.5c0-0.8,0.7-1.5,1.5-1.5l0,0c0.8,0,1.5,0.7,1.5,1.5l0,0c0,0.8-0.7,1.5-1.5,1.5l0,0
			C92.1,67,91.4,66.3,91.4,65.5z M91.4,55.3c0-0.8,0.7-1.5,1.5-1.5l0,0c0.8,0,1.5,0.7,1.5,1.5l0,0c0,0.8-0.7,1.5-1.5,1.5l0,0
			C92.1,56.8,91.4,56.1,91.4,55.3z"/>
	</g>
	<g>
		<path class="st0" d="M92.9,77.2c-0.4,0-0.8-0.2-1.1-0.4c-0.3-0.3-0.4-0.7-0.4-1.1c0-0.1,0-0.2,0-0.3c0-0.1,0.1-0.2,0.1-0.3
			c0-0.1,0.1-0.2,0.1-0.3c0.1-0.1,0.1-0.2,0.2-0.2c0.6-0.6,1.6-0.6,2.1,0c0.1,0.1,0.1,0.1,0.2,0.2c0.1,0.1,0.1,0.2,0.1,0.3
			c0,0.1,0.1,0.2,0.1,0.3c0,0.1,0,0.2,0,0.3c0,0.4-0.1,0.8-0.4,1.1C93.7,77.1,93.3,77.2,92.9,77.2z"/>
	</g>
</g>
<g>
	<g>
		<path class="st0" d="M46.2,46.5c-0.2,0-0.4,0-0.6-0.1c-0.2-0.1-0.3-0.2-0.5-0.3c-0.3-0.3-0.4-0.7-0.4-1.1c0-0.4,0.2-0.8,0.4-1
			c0.1-0.1,0.1-0.1,0.2-0.2c0.1-0.1,0.2-0.1,0.3-0.1c0.1,0,0.2-0.1,0.3-0.1c0.2,0,0.4,0,0.6,0c0.1,0,0.2,0,0.3,0.1
			c0.1,0,0.2,0.1,0.3,0.1c0.1,0,0.2,0.1,0.2,0.2c0.1,0.1,0.1,0.1,0.2,0.2c0.1,0.1,0.1,0.2,0.1,0.3c0,0.1,0.1,0.2,0.1,0.3
			c0,0.1,0,0.2,0,0.3c0,0.4-0.2,0.8-0.4,1.1c-0.1,0.1-0.3,0.3-0.5,0.3C46.6,46.5,46.4,46.5,46.2,46.5z"/>
	</g>
	<g>
		<path class="st0" d="M44.7,65.5c0-0.8,0.7-1.5,1.5-1.5l0,0c0.8,0,1.5,0.7,1.5,1.5l0,0c0,0.8-0.7,1.5-1.5,1.5l0,0
			C45.4,67,44.7,66.3,44.7,65.5z M44.7,55.3c0-0.8,0.7-1.5,1.5-1.5l0,0c0.8,0,1.5,0.7,1.5,1.5l0,0c0,0.8-0.7,1.5-1.5,1.5l0,0
			C45.4,56.8,44.7,56.1,44.7,55.3z"/>
	</g>
	<g>
		<path class="st0" d="M46.2,77.2c-0.2,0-0.4,0-0.6-0.1c-0.2-0.1-0.3-0.2-0.5-0.3c-0.3-0.3-0.4-0.7-0.4-1.1c0-0.1,0-0.2,0-0.3
			c0-0.1,0-0.2,0.1-0.3c0-0.1,0.1-0.2,0.1-0.3c0-0.1,0.1-0.2,0.2-0.2c0.1-0.1,0.1-0.1,0.2-0.2c0.1,0,0.2-0.1,0.3-0.1
			c0.1,0,0.2-0.1,0.3-0.1c0.5-0.1,1,0.1,1.4,0.4c0.1,0.1,0.1,0.1,0.2,0.2c0.1,0.1,0.1,0.2,0.1,0.3c0,0.1,0.1,0.2,0.1,0.3
			c0,0.1,0,0.2,0,0.3c0,0.4-0.2,0.8-0.4,1.1C47,77.1,46.6,77.2,46.2,77.2z"/>
	</g>
</g>
<g>
	<path class="st0" d="M63.7,77.2c-5.3,0-9.3-2.7-9.3-6.2c0-3.6,4-6.2,9.3-6.2S73,67.4,73,71C73,74.6,69,77.2,63.7,77.2z M68.4,71
		L68.4,71L68.4,71z"/>
	<g id="XMLID_70_">
		<g>
			<path class="st0" d="M63.7,69.4c3,0,4.6,1.2,4.7,1.6c-0.1,0.4-1.7,1.6-4.7,1.6c-3.1,0-4.6-1.2-4.7-1.6
				C59,70.6,60.6,69.4,63.7,69.4z"/>
		</g>
		<g>
		</g>
	</g>
</g>
<g>
	<path class="st0" d="M81.4,64.7c-0.3,0-0.5,0-0.8-0.1c-2.5-0.9-7-4.1-6.4-9.4c0.5-4.1-2.4-4.8-3.3-5c-1.2-0.2-2.1-1.4-1.9-2.6
		c0.2-1.2,1.3-2.1,2.6-1.9c3.3,0.5,8,3.5,7.3,10.1c-0.4,3.1,3.3,4.5,3.5,4.6c1.2,0.5,1.8,1.8,1.3,3C83.2,64.1,82.3,64.7,81.4,64.7z"
		/>
</g>
<g>
	<path class="st0" d="M70.7,73.3c-1.3,0-2.3-1-2.3-2.3V47.8c0-1.3,1-2.3,2.3-2.3c1.3,0,2.3,1,2.3,2.3V71C73,72.3,72,73.3,70.7,73.3z
		"/>
</g>
</svg>
