<?xml version="1.0" encoding="utf-8"?>
<!-- Generator: Adobe Illustrator 24.0.1, SVG Export Plug-In . SVG Version: 6.00 Build 0)  -->
<svg version="1.1" id="Layer_1" xmlns="http://www.w3.org/2000/svg" xmlns:xlink="http://www.w3.org/1999/xlink" x="0px" y="0px"
	 viewBox="0 0 149 124" style="enable-background:new 0 0 149 124;" xml:space="preserve">
<style type="text/css">
	.st0{fill:#312C29;stroke:#312C29;stroke-width:0.5;stroke-miterlimit:10;}
	.st1{fill:#312C29;}
	.st2{fill:#FB6520;stroke:#312C29;stroke-width:2;stroke-miterlimit:10;}
</style>
<g>
	<path class="st0" d="M123.8,89.2H23.2c-1.4,0-2.6-0.9-2.6-2V27.6c0-1.1,1.2-2,1.6-2h100.6c2.5,0,3.6,0.9,3.6,2v59.6
		C126.4,88.3,125.2,89.2,123.8,89.2z M24,86.9h99.3V28.3H24V86.9z"/>
</g>
<g>
	<g>
		<path class="st1" d="M84.1,104.2h-20c-0.8,0-1.5-0.6-1.5-1.3V89.5c0-0.7,0.7-1.3,1.5-1.3h20c0.8,0,1.5,0.6,1.5,1.3v13.3
			C85.6,103.6,85,104.2,84.1,104.2z M65.6,101.5h17V90.9h-17V101.5z"/>
	</g>
</g>
<g>
	<g>
		<path class="st1" d="M95.5,111.5H52.8c-0.8,0-1.5-0.6-1.5-1.3c0-4.7,4.2-8.6,9.3-8.6h26.9c5.1,0,9.3,3.8,9.3,8.6
			C96.9,110.9,96.3,111.5,95.5,111.5z M54.5,108.8h39.4c-0.7-2.6-3.2-4.6-6.2-4.6H60.7C57.7,104.2,55.1,106.2,54.5,108.8z"/>
	</g>
</g>
<g>
	<g>
		<path class="st1" d="M70,25.6c1.4-0.2,2.7-0.2,4.1-0.1L60.7,13.1c-0.3-0.3-1,0-1.6,0.5s-0.8,1.2-0.6,1.5L70,25.6
			C70,25.7,70,25.6,70,25.6z"/>
	</g>
</g>
<g>
	<g>
		<path class="st1" d="M87.8,13.6c-0.6-0.5-1.3-0.8-1.6-0.5L73,25.4h4.3l11.2-10.3C88.7,14.8,88.4,14.2,87.8,13.6z"/>
	</g>
</g>
<rect x="23.1" y="70.1" class="st2" width="101.1" height="16.3"/>
</svg>
