<?xml version="1.0" encoding="utf-8"?>
<!-- Generator: Adobe Illustrator 24.0.1, SVG Export Plug-In . SVG Version: 6.00 Build 0)  -->
<svg version="1.1" id="Layer_1" xmlns="http://www.w3.org/2000/svg" xmlns:xlink="http://www.w3.org/1999/xlink" x="0px" y="0px"
	 viewBox="0 0 149 124" style="enable-background:new 0 0 149 124;" xml:space="preserve">
<style type="text/css">
	.st0{fill:#312C29;stroke:#312C29;stroke-width:0.5;stroke-miterlimit:10;}
	.st1{fill:#FFFFFF;}
	.st2{fill:none;stroke:#312C29;stroke-width:0.5;stroke-miterlimit:10;}
	.st3{fill:#FB6520;stroke:#312C29;stroke-width:2;stroke-miterlimit:10;}
	.st4{fill:#312C29;}
</style>
<g>
	<path class="st0" d="M86,13.4V111c0,1.4-0.9,2.5-2,2.5H24.4c-1.1,0-2-1.1-2-1.5V14.4c0-2.4,0.9-3.5,2-3.5H84
		C85.1,10.8,86,12,86,13.4z M83.7,110.2V13.9H25.1v96.4H83.7z"/>
</g>
<g>
	<path class="st0" d="M122.3,92.8H35.2c-1.2,0-2.3-0.8-2.3-1.8V36.6c0-1,1-1.8,1.4-1.8h87.1c2.1,0,3.2,0.8,3.2,1.8V91
		C124.5,92,123.5,92.8,122.3,92.8z"/>
	<g id="XMLID_80_">
		<g>
			<rect x="35.9" y="37.3" class="st1" width="86" height="53.4"/>
		</g>
		<g>
			<rect x="35.9" y="37.3" class="st2" width="86" height="53.4"/>
		</g>
	</g>
</g>
<circle class="st3" cx="78.7" cy="64" r="18.9"/>
<g>
	<g id="XMLID_82_">
		<g>
			<path class="st4" d="M86.9,62.7c0.4,0.2,0.6,0.6,0.6,1c0,0.4-0.2,0.8-0.6,1l-14.7,8.5c-0.2,0.1-0.4,0.2-0.6,0.2s-0.4-0.1-0.6-0.2
				c-0.4-0.2-0.6-0.6-0.6-1v-17c0-0.4,0.2-0.8,0.6-1c0.4-0.2,0.8-0.2,1.1,0L86.9,62.7z M72.7,70.2L84,63.6l-11.3-6.5V70.2z"/>
			<polygon class="st4" points="84,63.6 72.7,70.2 72.7,57.1 			"/>
		</g>
		<g>
		</g>
	</g>
</g>
</svg>
