<?xml version="1.0" encoding="utf-8"?>
<!-- Generator: Adobe Illustrator 24.0.1, SVG Export Plug-In . SVG Version: 6.00 Build 0)  -->
<svg version="1.1" id="Layer_1" xmlns="http://www.w3.org/2000/svg" xmlns:xlink="http://www.w3.org/1999/xlink" x="0px" y="0px"
	 viewBox="0 0 149 124" style="enable-background:new 0 0 149 124;" xml:space="preserve">
<style type="text/css">
	.st0{fill:#312C29;}
	.st1{fill:#FFFFFF;}
	.st2{fill:#FFFFFF;stroke:#312C29;stroke-width:4;stroke-miterlimit:10;}
	.st3{fill:#FB6520;}
</style>
<g>
	<path class="st0" d="M72.4,64.8c-0.4,0-0.8-0.1-1.1-0.4l-6-6c-0.3-0.3-0.4-0.7-0.4-1.1c0-0.4,0.2-0.8,0.4-1.1l6-6
		c0.6-0.6,1.5-0.6,2.1,0c0.6,0.6,0.6,1.5,0,2.1l-5,5l5,5c0.6,0.6,0.6,1.5,0,2.1C73.2,64.6,72.8,64.8,72.4,64.8z"/>
</g>
<g>
	<path class="st0" d="M85.4,64.8c-0.4,0-0.8-0.1-1.1-0.4c-0.6-0.6-0.6-1.5,0-2.1l5-5l-5-5c-0.6-0.6-0.6-1.5,0-2.1
		c0.6-0.6,1.5-0.6,2.1,0l6,6c0.3,0.3,0.4,0.7,0.4,1.1c0,0.4-0.2,0.8-0.4,1.1l-6,6C86.2,64.6,85.8,64.8,85.4,64.8z"/>
</g>
<g>
	<path class="st0" d="M76.2,67.6c-0.1,0-0.3,0-0.4-0.1c-0.8-0.2-1.3-1.1-1-1.9L79.9,48c0.2-0.8,1.1-1.2,1.9-1c0.8,0.2,1.3,1.1,1,1.9
		l-5.2,17.7C77.4,67.2,76.8,67.6,76.2,67.6z"/>
</g>
<g>
	<path class="st0" d="M116.8,113.6H30.2c-7,0-12.7-5.3-12.7-11.8c0-0.8,0.7-1.5,1.6-1.5h108.7c0.9,0,1.6,0.7,1.6,1.5
		C129.4,108.3,123.8,113.6,116.8,113.6z"/>
	<g id="XMLID_81_">
		<g>
			<path class="st1" d="M20.9,103.3h105.2c-0.8,4.2-4.6,7.3-9.3,7.3H30.2C25.5,110.6,21.6,107.4,20.9,103.3z"/>
		</g>
		<g>
		</g>
	</g>
</g>
<rect x="27.2" y="35.3" class="st2" width="93.2" height="65.2"/>
<g>
	<path class="st0" d="M50.9,27.6H36c-0.8,0-1.5-0.6-1.5-1.4v-6.9c0-4.7,4-8.5,9-8.5c4.9,0,9,3.8,9,8.5l0,6.9
		C52.4,27,51.8,27.6,50.9,27.6z M37.5,24.8h11.9l0-5.5c0-3.2-2.7-5.8-6-5.8c-3.3,0-6,2.6-6,5.8V24.8z"/>
</g>
<g>
	<path class="st0" d="M98.9,92.3H50.8c-0.4,0-0.8-0.1-1.1-0.4c-0.3-0.3-0.4-0.6-0.4-1l0-27.3l0.1-37.3c0-0.1,0-0.1,0-0.2v-6.7
		c0-3.2-2.6-5.7-5.9-5.8h-0.1c-0.8,0-1.5-0.6-1.5-1.4c0-0.8,0.7-1.4,1.6-1.4L88.3,11c6.7,0,12.1,5.3,12.1,11.6v68.2
		C100.4,91.6,99.8,92.3,98.9,92.3z"/>
	<g id="XMLID_78_">
		<g>
			<path class="st3" d="M97.4,22.6v66.8H52.3l0.1-63.1c0-0.1,0-0.1,0-0.2v-6.9c0-2.2-0.9-4.2-2.3-5.7l38.2,0.2
				C93.3,13.8,97.4,17.8,97.4,22.6z"/>
		</g>
		<g>
		</g>
	</g>
</g>
<g>
	<path class="st0" d="M91.3,70.2H58.1c-0.8,0-1.5-0.7-1.5-1.5V40.9c0-0.8,0.7-1.5,1.5-1.5h33.2c0.8,0,1.5,0.7,1.5,1.5v27.8
		C92.8,69.5,92.1,70.2,91.3,70.2z"/>
	<g id="XMLID_79_">
		<g>
			<rect x="59.6" y="42.4" class="st1" width="30.2" height="24.8"/>
		</g>
		<g>
		</g>
	</g>
</g>
</svg>
