<?xml version="1.0" encoding="utf-8"?>
<!-- Generator: Adobe Illustrator 24.0.1, SVG Export Plug-In . SVG Version: 6.00 Build 0)  -->
<svg version="1.1" id="Layer_1" xmlns="http://www.w3.org/2000/svg" xmlns:xlink="http://www.w3.org/1999/xlink" x="0px" y="0px"
	 viewBox="0 0 149 124" style="enable-background:new 0 0 149 124;" xml:space="preserve">
<style type="text/css">
	.st0{fill:#312C29;}
	.st1{fill:#FB6520;}
</style>
<g>
	<g>
		<path class="st0" d="M120.4,95.8H26.6c-2.6,0-4.6-2.1-4.6-4.6V17c0-2.6,2.1-4.6,4.6-4.6h93.8c2.6,0,4.6,2.1,4.6,4.6v74.2
			C125,93.7,122.9,95.8,120.4,95.8z M26.6,15.4c-0.9,0-1.6,0.7-1.6,1.6v74.2c0,0.9,0.7,1.6,1.6,1.6h93.8c0.9,0,1.6-0.7,1.6-1.6V17
			c0-0.9-0.7-1.6-1.6-1.6H26.6z M117.2,89.5H29.7c-0.8,0-1.5-0.7-1.5-1.5V20.1c0-0.8,0.7-1.5,1.5-1.5h87.5c0.8,0,1.5,0.7,1.5,1.5V88
			C118.7,88.9,118.1,89.5,117.2,89.5z M31.2,86.5h84.5V21.6H31.2V86.5z"/>
	</g>
</g>
<g>
	<path class="st0" d="M94.3,114H51c-0.8,0-1.5-0.7-1.5-1.5v-5.9c0-0.8,0.7-1.5,1.5-1.5h43.3c0.8,0,1.5,0.7,1.5,1.5v5.9
		C95.8,113.3,95.2,114,94.3,114z M52.5,111h40.3V108H52.5V111z"/>
</g>
<g>
	<path class="st0" d="M88.2,108H57.9c-0.5,0-1-0.3-1.3-0.7c-0.3-0.4-0.3-1-0.1-1.4l5.7-12.3c0.2-0.5,0.8-0.9,1.4-0.9h19
		c0.6,0,1.1,0.3,1.4,0.9l5.7,12.3c0.2,0.5,0.2,1-0.1,1.4C89.2,107.8,88.7,108,88.2,108z M60.2,105h25.6l-4.3-9.3H64.5L60.2,105z"/>
</g>
<g>
	<g>
		<path class="st0" d="M73.5,73.1c-14.8,0-27.7-7.8-34.1-12.5c-2.4-1.8-4.1-3.2-4.9-4c-0.1-0.1-0.1-0.1-0.2-0.2
			c-0.2-0.3-0.3-0.5-0.4-0.6c-0.3-0.5-0.3-1.2,0.2-1.6c0.5-0.5,2.4-2.2,5.4-4.3c6.4-4.7,19.3-12.5,34.1-12.5
			c14.8,0,27.7,7.8,34.1,12.5c3,2.2,4.8,3.9,5.3,4.3c0.5,0.4,0.5,1.1,0.2,1.6c-0.1,0.1-0.2,0.3-0.4,0.6c-0.1,0.1-0.1,0.2-0.2,0.2
			c-0.8,0.7-2.5,2.2-4.9,3.9C101.2,65.2,88.3,73.1,73.5,73.1z M36.7,55.2c0.9,0.8,2.3,1.9,4.2,3.3c6.1,4.5,18.5,12,32.6,12
			c14.1,0,26.5-7.5,32.6-12c1.9-1.4,3.3-2.6,4.2-3.3c-0.9-0.8-2.3-1.9-4.2-3.3l0,0c-6.1-4.5-18.5-12-32.6-12
			c-14.1,0-26.4,7.5-32.6,12C39,53.3,37.6,54.5,36.7,55.2z"/>
	</g>
</g>
<g>
	<path class="st0" d="M73.4,72.5c-9.7,0-17.6-7.9-17.6-17.6c0-9.7,7.9-17.6,17.6-17.6c9.7,0,17.6,7.9,17.6,17.6
		C91,64.6,83.1,72.5,73.4,72.5z"/>
	<g id="XMLID_31_">
		<g>
			<path class="st1" d="M73.4,39.8c8.3,0,15.1,6.8,15.1,15.1S81.7,70,73.4,70s-15.1-6.8-15.1-15.1S65.1,39.8,73.4,39.8z"/>
		</g>
		<g>
		</g>
	</g>
</g>
<g>
	<g id="XMLID_30_">
		<g>
			<path class="st0" d="M73.8,49.1c3.2,0,5.9,2.6,5.9,5.8c0,3.2-2.6,5.9-5.9,5.9c-3.2,0-5.8-2.6-5.8-5.9
				C67.9,51.7,70.6,49.1,73.8,49.1z"/>
			<path class="st0" d="M73.8,46.5c4.6,0,8.4,3.8,8.4,8.4s-3.8,8.4-8.4,8.4c-4.6,0-8.4-3.8-8.4-8.4S69.2,46.5,73.8,46.5z M73.8,60.8
				c3.2,0,5.9-2.6,5.9-5.9c0-3.2-2.6-5.8-5.9-5.8c-3.2,0-5.8,2.6-5.8,5.8C67.9,58.1,70.6,60.8,73.8,60.8z"/>
		</g>
		<g>
		</g>
	</g>
</g>
</svg>
