<?xml version="1.0" encoding="utf-8"?>
<!-- Generator: Adobe Illustrator 24.0.1, SVG Export Plug-In . SVG Version: 6.00 Build 0)  -->
<svg version="1.1" id="Layer_1" xmlns="http://www.w3.org/2000/svg" xmlns:xlink="http://www.w3.org/1999/xlink" x="0px" y="0px"
	 viewBox="0 0 149 124" style="enable-background:new 0 0 149 124;" xml:space="preserve">
<style type="text/css">
	.st0{fill:#312C29;}
	.st1{fill:#FB6520;}
	.st2{fill:#FFFFFF;}
</style>
<g>
	<g>
		<path class="st0" d="M75.9,100.1H48.8c-2.2,0-4-1.7-4-3.7V85.9h-8.2c-2.3,0-5.1-0.2-7-2.2c-2-2-2.1-5.3-2-8.3
			c0.1-3.8,0.1-4.9-0.1-7.5c0-0.4-0.1-0.8-0.1-1.3l-3.4-0.1c-1.8-0.1-3.3-0.9-4.2-2.3c-0.8-1.4-0.8-3.2,0-4.7
			c3.9-7.4,5.6-10.5,6.5-12.2c0.7-1.4,1-2.9,0.9-4.4c-0.1-0.7-0.1-1.4-0.1-2.1C27,32.3,29.6,25,34.8,19.8c5.5-5.6,13.7-8.7,23.2-8.7
			c25.2,0,34.2,16,34.2,31.1c0,6.3-1.9,12.3-5.4,17.5c-4.4,6.5-6.8,14.2-6.8,22.3v10.3c0,0.1,0,0.2,0,0.3v3.7
			C80,98.4,78.2,100.1,75.9,100.1z M58,14.7c-8.5,0-15.9,2.7-20.7,7.6c-4.5,4.6-6.7,10.8-6.6,18.5c0,0.6,0,1.2,0.1,1.8
			c0.2,2.2-0.2,4.4-1.3,6.4c-0.9,1.8-2.6,4.9-6.5,12.3c-0.2,0.4-0.2,0.9,0,1.2c0.3,0.4,0.8,0.5,1.2,0.6l5,0.1c0.9,0,1.7,0.8,1.8,1.7
			c0.1,1.2,0.1,2.1,0.2,2.9c0.2,2.6,0.2,3.9,0.1,7.8c-0.1,3,0.2,4.8,1,5.7c0.7,0.7,2.1,1.1,4.4,1.1h10c1,0,1.8,0.8,1.8,1.8v12.2
			c0,0,0.2,0.1,0.5,0.1h27.2c0.3,0,0.4-0.1,0.5-0.2l0-3.6c0,0,0-0.1,0-0.1c0,0,0-0.1,0-0.1V82c0-8.8,2.6-17.3,7.4-24.4
			c3.1-4.6,4.8-9.9,4.8-15.5C88.6,25.3,76.9,14.7,58,14.7z"/>
	</g>
</g>
<g>
	<g>
		<path class="st0" d="M83.4,112.5H41.8c-3.7,0-6.8-3-6.8-6.8v-2.4c0-3.7,3-6.8,6.8-6.8h41.7c3.7,0,6.8,3,6.8,6.8v2.4
			C90.2,109.4,87.2,112.5,83.4,112.5z M41.8,100.1c-1.8,0-3.2,1.4-3.2,3.2v2.4c0,1.8,1.4,3.2,3.2,3.2h41.7c1.8,0,3.2-1.4,3.2-3.2
			v-2.4c0-1.8-1.4-3.2-3.2-3.2H41.8z"/>
	</g>
</g>
<g>
	<path class="st0" d="M93.4,100.1H66.2c-2.2,0-4-1.7-4-3.7V85.9H54c-2.3,0-5.1-0.2-7-2.2c-2-2-2.1-5.3-2-8.3
		c0.1-3.8,0.1-4.9-0.1-7.5c0-0.4-0.1-0.8-0.1-1.3l-3.4-0.1c-1.8-0.1-3.3-0.9-4.2-2.3c-0.8-1.4-0.8-3.2,0-4.7
		c3.9-7.4,5.6-10.5,6.5-12.2c0.7-1.4,1-2.9,0.9-4.4c-0.1-0.7-0.1-1.4-0.1-2.1c-0.2-8.6,2.5-15.9,7.6-21.1c5.5-5.6,13.7-8.7,23.2-8.7
		c25.2,0,34.2,16,34.2,31.1c0,6.3-1.9,12.3-5.4,17.5c-4.4,6.5-6.8,14.2-6.8,22.3v10.3c0,0.1,0,0.2,0,0.3v3.7
		C97.4,98.4,95.6,100.1,93.4,100.1z"/>
	<g id="XMLID_26_">
		<g>
			<path class="st1" d="M106.1,42.2c0,5.6-1.7,10.9-4.8,15.5c-4.9,7.1-7.4,15.5-7.4,24.3v10.4c0,0,0,0.1,0,0.1s0,0.1,0,0.1l0,3.6
				c0,0-0.2,0.2-0.5,0.2H66.2c-0.3,0-0.4-0.1-0.5-0.1V84.2c0-1-0.8-1.8-1.8-1.8H54c-2.3,0-3.7-0.3-4.4-1.1c-0.8-0.8-1.1-2.6-1-5.7
				c0.2-4,0.1-5.3-0.1-7.8c-0.1-0.8-0.1-1.8-0.2-2.9c0-0.9-0.8-1.7-1.8-1.7l-5-0.1c-0.4,0-0.9-0.1-1.2-0.6c-0.2-0.3-0.2-0.8,0-1.2
				c3.9-7.4,5.6-10.5,6.5-12.3c1.1-2,1.5-4.2,1.3-6.4c0-0.6-0.1-1.2-0.1-1.8c-0.1-7.7,2.1-13.9,6.6-18.5c4.8-4.9,12.2-7.6,20.7-7.6
				C94.3,14.7,106.1,25.3,106.1,42.2z"/>
		</g>
		<g>
		</g>
	</g>
</g>
<g>
	<path class="st0" d="M100.9,112.5H59.2c-3.7,0-6.8-3-6.8-6.8v-2.4c0-3.7,3-6.8,6.8-6.8h41.7c3.7,0,6.8,3,6.8,6.8v2.4
		C107.7,109.4,104.6,112.5,100.9,112.5z"/>
	<g id="XMLID_27_">
		<g>
			<path class="st1" d="M104.1,103.3v2.4c0,1.8-1.4,3.2-3.2,3.2H59.2c-1.8,0-3.2-1.4-3.2-3.2v-2.4c0-1.8,1.4-3.2,3.2-3.2h41.7
				C102.7,100.1,104.1,101.5,104.1,103.3z"/>
		</g>
		<g>
		</g>
	</g>
</g>
<g>
	<g id="XMLID_28_">
		<g>
			<path class="st0" d="M126.7,42.2c0,6.3-1.9,12.3-5.4,17.5c-4.4,6.5-6.8,14.2-6.8,22.3v10.3c0,0.1,0,0.2,0,0.3v3.7
				c0,2.1-1.8,3.7-4,3.7H83.3c-2.2,0-4-1.7-4-3.7V85.9h-8.2c-2.3,0-5.2-0.3-7-2.1c-2-2-2.1-5.3-2-8.3c0.2-3.8,0.1-4.9-0.1-7.5
				c0-0.4,0-0.8-0.1-1.3l-3.4-0.1c-1.8-0.1-3.3-0.9-4.2-2.3c-0.8-1.4-0.8-3.2,0-4.7c3.9-7.4,5.6-10.5,6.5-12.2
				c0.7-1.4,1-2.9,0.9-4.4c-0.1-0.7-0.1-1.4-0.1-2c-0.2-8.6,2.5-15.9,7.6-21.1c5.5-5.6,13.7-8.7,23.2-8.7
				C117.7,11.1,126.7,27.2,126.7,42.2z M118.3,57.7c3.1-4.6,4.8-9.9,4.8-15.5c0-17-11.7-27.5-30.6-27.5c-8.5,0-15.9,2.7-20.7,7.6
				c-4.5,4.6-6.7,10.8-6.6,18.5c0,0.6,0,1.2,0.1,1.8c0.2,2.2-0.3,4.4-1.3,6.4c-0.9,1.8-2.6,4.9-6.5,12.3c-0.2,0.4-0.2,0.9,0,1.2
				c0.3,0.4,0.8,0.6,1.2,0.6l5,0.1c0.9,0,1.7,0.8,1.8,1.7c0.1,1.2,0.1,2.1,0.2,2.9c0.2,2.6,0.2,3.9,0.1,7.8c-0.1,3,0.2,4.8,1,5.7
				c0.7,0.7,2.1,1.1,4.4,1.1h10c1,0,1.8,0.8,1.8,1.8v12.2c0,0,0.2,0.1,0.4,0.1h27.2c0.3,0,0.4-0.1,0.5-0.2v-3.6c0,0,0-0.1,0-0.1
				c0,0,0-0.1,0-0.1V82C110.9,73.2,113.4,64.8,118.3,57.7z"/>
			<path class="st2" d="M123.1,42.2c0,5.6-1.7,10.9-4.8,15.5c-4.9,7.1-7.4,15.5-7.4,24.3v10.4c0,0,0,0.1,0,0.1c0,0,0,0.1,0,0.1v3.6
				c0,0-0.2,0.2-0.5,0.2H83.3c-0.3,0-0.4-0.1-0.4-0.1V84.2c0-1-0.8-1.8-1.8-1.8h-10c-2.3,0-3.7-0.3-4.4-1.1c-0.8-0.8-1.1-2.6-1-5.7
				c0.2-4,0.1-5.3-0.1-7.8c0-0.8-0.1-1.8-0.2-2.9c0-0.9-0.8-1.7-1.8-1.7l-5-0.1c-0.4,0-0.9-0.1-1.2-0.6c-0.2-0.3-0.2-0.8,0-1.2
				c3.9-7.4,5.6-10.5,6.5-12.3c1-2,1.5-4.2,1.3-6.4c-0.1-0.6-0.1-1.2-0.1-1.8c-0.1-7.7,2.1-13.9,6.6-18.5c4.8-4.9,12.2-7.6,20.7-7.6
				C111.4,14.7,123.1,25.3,123.1,42.2z"/>
		</g>
		<g>
		</g>
	</g>
</g>
<g>
	<path class="st0" d="M118,112.5H76.3c-3.7,0-6.8-3-6.8-6.8v-2.4c0-3.7,3-6.8,6.8-6.8H118c3.7,0,6.8,3,6.8,6.8v2.4
		C124.7,109.4,121.7,112.5,118,112.5z"/>
	<g id="XMLID_29_">
		<g>
			<path class="st2" d="M121.2,103.3v2.4c0,1.8-1.4,3.2-3.2,3.2H76.3c-1.8,0-3.2-1.4-3.2-3.2v-2.4c0-1.8,1.4-3.2,3.2-3.2h41.7
				C119.7,100.1,121.2,101.5,121.2,103.3z"/>
		</g>
		<g>
		</g>
	</g>
</g>
</svg>
