<?xml version="1.0" encoding="utf-8"?>
<!-- Generator: Adobe Illustrator 24.0.1, SVG Export Plug-In . SVG Version: 6.00 Build 0)  -->
<svg version="1.1" id="Layer_1" xmlns="http://www.w3.org/2000/svg" xmlns:xlink="http://www.w3.org/1999/xlink" x="0px" y="0px"
	 viewBox="0 0 149 124" style="enable-background:new 0 0 149 124;" xml:space="preserve">
<style type="text/css">
	.st0{fill:#312C29;}
	.st1{fill:#FB6520;}
	.st2{fill:#FFFFFF;stroke:#312C29;stroke-width:3;stroke-miterlimit:10;}
</style>
<g>
	<path class="st0" d="M73.5,113.2c-13.1,0-26.3-5-36.2-15c-18.8-18.8-20-49.4-2.7-69.6c1-1.1,1.8-2,2.7-2.9c1.1-1.1,2.2-2.1,3.4-3.1
		l0,0c20.2-16.8,50.5-15.4,69,3.1c20,20,20,52.5,0,72.5C99.8,108.2,86.6,113.2,73.5,113.2z M42.8,25.2c-1.2,1-2.2,1.9-3.2,2.9
		c-0.8,0.8-1.6,1.7-2.5,2.7C20.9,49.7,22,78.3,39.6,95.9c18.7,18.7,49.1,18.7,67.8,0c18.7-18.7,18.7-49.1,0-67.8
		C90,10.7,61.7,9.4,42.8,25.2L42.8,25.2z M73.5,104.2C73.5,104.2,73.5,104.2,73.5,104.2c-11.3,0-21.9-4.4-29.9-12.4
		c-16.5-16.5-16.5-43.3,0-59.8s43.3-16.5,59.8,0c8,8,12.4,18.6,12.4,29.9c0,11.3-4.4,21.9-12.4,29.9
		C95.4,99.8,84.8,104.2,73.5,104.2z M73.5,23.1c-10,0-19.9,3.8-27.5,11.4C38.6,41.8,34.6,51.6,34.6,62c0,10.4,4,20.2,11.4,27.5
		c7.3,7.3,17.1,11.4,27.5,11.4c10.4,0,20.2-4,27.5-11.4c7.3-7.3,11.4-17.1,11.4-27.5c0-10.4-4-20.2-11.4-27.5
		C93.4,26.9,83.5,23.1,73.5,23.1z"/>
</g>
<circle class="st1" cx="73.5" cy="62" r="48.6"/>
<circle class="st2" cx="73.5" cy="62" r="40.8"/>
<g>
	<path class="st0" d="M52.6,42.2c-0.4,0-0.9-0.2-1.2-0.5L47,37.3c-0.7-0.7-0.7-1.7,0-2.4c0.7-0.7,1.7-0.7,2.4,0l4.4,4.4
		c0.7,0.7,0.7,1.7,0,2.4C53.4,42.1,53,42.2,52.6,42.2z"/>
</g>
<g>
	<path class="st0" d="M99.8,89.5c-0.4,0-0.9-0.2-1.2-0.5l-4.4-4.4c-0.7-0.7-0.7-1.7,0-2.4c0.7-0.7,1.7-0.7,2.4,0l4.4,4.4
		c0.7,0.7,0.7,1.7,0,2.4C100.7,89.3,100.3,89.5,99.8,89.5z"/>
</g>
<g>
	<path class="st0" d="M95.4,42.2c-0.4,0-0.9-0.2-1.2-0.5c-0.7-0.7-0.7-1.7,0-2.4l4.4-4.4c0.7-0.7,1.7-0.7,2.4,0
		c0.7,0.7,0.7,1.7,0,2.4l-4.4,4.4C96.3,42.1,95.9,42.2,95.4,42.2z"/>
</g>
<g>
	<path class="st0" d="M48.2,89.5c-0.4,0-0.9-0.2-1.2-0.5c-0.7-0.7-0.7-1.7,0-2.4l4.4-4.4c0.7-0.7,1.7-0.7,2.4,0
		c0.7,0.7,0.7,1.7,0,2.4L49.3,89C49,89.3,48.6,89.5,48.2,89.5z"/>
</g>
<g>
	<path class="st0" d="M74,33.4c-0.9,0-1.7-0.7-1.7-1.7v-6.2c0-0.9,0.7-1.7,1.7-1.7c0.9,0,1.7,0.7,1.7,1.7v6.2
		C75.7,32.6,74.9,33.4,74,33.4z"/>
</g>
<g>
	<path class="st0" d="M74,100.2c-0.9,0-1.7-0.7-1.7-1.7v-6.2c0-0.9,0.7-1.7,1.7-1.7c0.9,0,1.7,0.7,1.7,1.7v6.2
		C75.7,99.5,74.9,100.2,74,100.2z"/>
</g>
<g>
	<path class="st0" d="M110.5,63.7h-6.2c-0.9,0-1.7-0.7-1.7-1.7c0-0.9,0.7-1.7,1.7-1.7h6.2c0.9,0,1.7,0.7,1.7,1.7
		C112.2,62.9,111.5,63.7,110.5,63.7z"/>
</g>
<g>
	<g id="XMLID_34_">
		<g>
			<path class="st0" d="M76.7,58.8c1.6,1.6,1.6,4.2,0,5.8c-1.6,1.6-4.2,1.6-5.8,0c-1.6-1.6-1.6-4.2,0-5.8c0.8-0.8,1.8-1.2,2.9-1.2
				C74.9,57.6,75.9,58,76.7,58.8z"/>
		</g>
		<g>
		</g>
	</g>
</g>
<g>
	<path class="st0" d="M43.7,63.7h-6.2c-0.9,0-1.7-0.7-1.7-1.7c0-0.9,0.7-1.7,1.7-1.7h6.2c0.9,0,1.7,0.7,1.7,1.7
		C45.4,62.9,44.6,63.7,43.7,63.7z"/>
</g>
<g>
	<path class="st0" d="M73.6,63.7H57c-0.7,0-1.3-0.7-1.3-1.7c0-0.9,0.6-1.7,1.3-1.7h16.6c0.7,0,1.3,0.7,1.3,1.7
		C75,63,74.4,63.7,73.6,63.7z"/>
</g>
<g>
	<path class="st0" d="M72.3,61.5V39c0-1,0.7-1.8,1.7-1.8c0.9,0,1.7,0.8,1.7,1.8v22.5c0,1-0.7,1.8-1.7,1.8
		C73.1,63.3,72.3,62.5,72.3,61.5z"/>
</g>
</svg>
