<?xml version="1.0" encoding="utf-8"?>
<!-- Generator: Adobe Illustrator 24.0.1, SVG Export Plug-In . SVG Version: 6.00 Build 0)  -->
<svg version="1.1" id="Layer_1" xmlns="http://www.w3.org/2000/svg" xmlns:xlink="http://www.w3.org/1999/xlink" x="0px" y="0px"
	 viewBox="0 0 149 124" style="enable-background:new 0 0 149 124;" xml:space="preserve">
<style type="text/css">
	.st0{fill:#312C29;}
	.st1{fill:#FFFFFF;}
	.st2{fill:#FB6520;}
</style>
<g>
	<path class="st0" d="M26.8,74.9V16.4c0-3.2,4.8-5.8,10.8-5.8h70.8c5.9,0,10.8,2.6,10.8,5.8v58.5c0,3.2-4.8,5.8-10.8,5.8H37.6
		C31.7,80.6,26.8,78,26.8,74.9z M116.3,16.4c0-1.5-2.5-2.8-5.5-2.8H35.5c-3,0-5.5,1.2-5.5,2.8v58.5c0,1.5,2.5,2.8,5.5,2.8h75.2
		c3,0,5.5-1.2,5.5-2.8V16.4z"/>
</g>
<g>
	<path class="st0" d="M27.6,20.3c0-0.8,1.2-1.5,2.8-1.5h86c1.5,0,2.8,0.7,2.8,1.5s-1.2,1.5-2.8,1.5h-86
		C28.9,21.8,27.6,21.2,27.6,20.3z"/>
</g>
<g>
	<path class="st0" d="M26.8,70.9c0-0.8,1.2-1.5,2.8-1.5h86c1.5,0,2.8,0.7,2.8,1.5s-1.2,1.5-2.8,1.5h-86C28,72.4,26.8,71.7,26.8,70.9
		z"/>
</g>
<g>
	<path class="st0" d="M68.9,16.2c0-0.8,0.7-1.5,1.6-1.5h5.8c0.9,0,1.6,0.7,1.6,1.5s-0.7,1.5-1.6,1.5h-5.8
		C69.6,17.7,68.9,17.1,68.9,16.2z"/>
</g>
<g>
	<g id="XMLID_7_">
		<g>
			<polygon class="st1" points="111,89.2 113.6,95.8 87.9,109.3 85.4,102.6 			"/>
			<path class="st0" d="M85.4,102.6l2.5,6.7l25.7-13.5l-2.5-6.7L85.4,102.6z M86.2,111.7l-3.5-9.2c-0.1-0.3-0.1-0.7,0-1.1
				c0.1-0.3,0.3-0.6,0.6-0.8l27.8-14.6c0.6-0.3,1.3,0,1.6,0.7l3.5,9.2c0.1,0.3,0.1,0.7,0,1c-0.1,0.4-0.3,0.6-0.6,0.8l-27.8,14.6
				c-0.2,0.1-0.3,0.1-0.5,0.1C86.9,112.5,86.4,112.2,86.2,111.7z"/>
		</g>
		<g>
		</g>
	</g>
</g>
<g>
	<g id="XMLID_6_">
		<g>
			<path class="st0" d="M98.5,65c0.1,0.2,0.1,0.4,0.1,0.6C98.6,65.4,98.6,65.2,98.5,65L98.5,65z"/>
			<path class="st0" d="M94.5,54.3l4,10.6l-3.9-10.1C94.6,54.7,94.5,54.5,94.5,54.3z"/>
			<path class="st0" d="M97.1,66.9c0,0,0.1,0,0.1,0C97.2,66.9,97.1,66.9,97.1,66.9z"/>
			<path class="st0" d="M96.5,66.3c0.1,0.1,0.1,0.2,0.2,0.3C96.6,66.5,96.5,66.4,96.5,66.3z"/>
			<path class="st2" d="M94.5,54.3c-0.1-1,0.4-2,1.3-2.5c0.2-0.1,0.5-0.2,0.7-0.2c0.9-0.1,1.7,0.4,2,1.2l7.5,19.6
				c0.6,1.5,0.5,4.4-0.1,7.9c-0.4,1.9-0.2,3.8,0.5,5.5l0.9,2.3L87.3,98.6c-0.9-1.8-2.3-3.2-4-4.2c-3.3-1.8-9.1-5.9-10.5-12.6
				c-0.6-2.8-6.1-9.5-7.4-11.1c-0.1-0.3-0.1-0.6-0.1-0.8c0.1-0.4,0.3-0.7,0.6-1c1-0.8,2.3-0.6,5.2,2.6c0.1,0.1,2.8,2.7,5.1,4.2
				c0.7,0.5,1.6,0.3,2.3-0.3c0.6-0.7,0.8-1.6,0.5-2.5L68.8,43.4c-0.4-1.1,0.1-2.5,1.2-3c0.5-0.3,1.1-0.3,1.6-0.1
				c0.5,0.2,0.9,0.6,1.1,1.1l5.1,13.3l0.1,0.2c0,0.1,0.1,0.2,0.1,0.3l6.5,17l0.1,0.3c0.3,0.7,1,1,1.6,0.7c0.6-0.3,0.9-1.1,0.6-1.8
				l-1-2.5l-5.7-14.9l0-0.1c-0.3-1,0.3-2.3,1.2-2.8c0.5-0.3,1.1-0.3,1.6-0.1c0.5,0.2,0.9,0.6,1.1,1.1l1.4,3.7c0,0,0,0.1,0,0.1
				l5,13.2l0.1,0.3c0.3,0.7,1,1,1.6,0.7c0.6-0.3,0.9-1.1,0.6-1.8l-0.1-0.3v0L92,66.6l-4.6-12.1c-0.4-1.1,0.2-2.4,1.2-2.9
				c0.5-0.3,1.1-0.3,1.6-0.1c0.5,0.2,0.9,0.6,1.1,1.1l1,2.6c0.1,0.3,0.1,0.6,0.2,0.8l3.9,10.1v0c0,0.1,0,0.1,0.1,0.2
				c0.1,0.1,0.1,0.2,0.2,0.3c0.1,0.1,0.3,0.2,0.4,0.3c0,0,0.1,0,0.1,0c0.2,0.1,0.5,0,0.7-0.1c0.4-0.2,0.7-0.7,0.7-1.3
				c0-0.2,0-0.4-0.1-0.6l0,0L94.5,54.3z"/>
			<path class="st0" d="M92.3,55.2l4.1,10.9L92.5,56C92.4,55.7,92.3,55.5,92.3,55.2z"/>
			<path class="st0" d="M98.5,65c0.1,0.2,0.1,0.4,0.1,0.6c0,0.5-0.3,1-0.7,1.3c-0.2,0.1-0.5,0.2-0.7,0.1c0,0-0.1,0-0.1,0
				c-0.2,0-0.3-0.1-0.4-0.3c-0.1-0.1-0.2-0.2-0.2-0.3c0-0.1-0.1-0.1-0.1-0.2v0l-4.1-10.9c-0.3-1.5,0-3.1,0.9-4.3
				c0.1,0.2,0.2,0.4,0.3,0.6l1.1,2.9c0,0.2,0.1,0.4,0.1,0.5L98.5,65z"/>
			<path class="st0" d="M87.4,54.5L92,66.6l-4.6-12C87.4,54.6,87.4,54.6,87.4,54.5z"/>
			<path class="st0" d="M91.9,69.7c0.6-0.3,0.9-1.1,0.6-1.8l0.1,0.3c0.3,0.7,0,1.5-0.6,1.8c-0.6,0.3-1.3,0-1.6-0.7l-0.1-0.3
				c0.2,0.5,0.6,0.8,1.1,0.8C91.6,69.8,91.7,69.7,91.9,69.7z"/>
			<path class="st0" d="M93.1,50.9c-0.8,1.2-1.2,2.8-0.9,4.3l-1-2.6c-0.2-0.5-0.6-0.9-1.1-1.1c-0.5-0.2-1.1-0.2-1.6,0.1
				c-1,0.5-1.6,1.8-1.2,2.9L86,50.9c0-0.1-0.1-0.1-0.1-0.2c0.4-0.6,1-1.2,1.7-1.6c1.1-0.6,2.3-0.6,3.4-0.2
				C91.9,49.3,92.6,49.9,93.1,50.9z"/>
			<path class="st0" d="M92.5,67.8c0.3,0.7,0,1.5-0.6,1.8c-0.2,0.1-0.3,0.1-0.5,0.1c-0.4,0-0.9-0.3-1.1-0.8l-5-13.2c0,0,0-0.1,0-0.1
				c-0.6-1.7-0.3-3.6,0.7-5c0,0.1,0.1,0.1,0.1,0.2l1.4,3.7c0,0,0,0.1,0,0.1l4.6,12L92.5,67.8L92.5,67.8z"/>
			<path class="st0" d="M85.6,68.7L80,54c0-0.1-0.1-0.1-0.1-0.2L85.6,68.7z"/>
			<path class="st0" d="M77.7,54.9l6.6,17.3l-6.5-17C77.8,55,77.8,55,77.7,54.9z"/>
			<path class="st0" d="M83.5,48.3c1.1,0.4,1.9,1.3,2.4,2.4c-1,1.4-1.3,3.3-0.7,5L83.8,52c-0.2-0.5-0.6-0.9-1.1-1.1
				c-0.5-0.2-1.1-0.2-1.6,0.1c-1,0.5-1.5,1.7-1.2,2.8L78.5,50c0.4-0.7,1-1.2,1.7-1.5C81.3,47.9,82.4,47.8,83.5,48.3z"/>
			<path class="st0" d="M85.6,68.7l1,2.5c0.3,0.7,0,1.5-0.6,1.8c-0.6,0.3-1.3,0-1.6-0.7l-0.1-0.3l-6.6-17.3l-0.1-0.2
				c-0.4-1.6-0.1-3.3,0.8-4.6l1.4,3.7l0,0.1c0,0.1,0,0.1,0.1,0.2L85.6,68.7z"/>
			<path class="st0" d="M109.8,88.3c0.1,0.3,0.1,0.7,0,1c-0.1,0.3-0.3,0.6-0.6,0.8l-21.9,11.5c-0.2,0.1-0.3,0.1-0.5,0.1
				c-0.4,0-0.9-0.3-1.1-0.8l0-0.1c-0.7-1.7-1.8-3.1-3.3-3.9c-3.7-2.1-10.1-6.7-11.7-14.5c-0.3-1.4-3.7-6.1-6.9-9.9
				c0-0.1-0.1-0.1-0.1-0.2c-0.5-0.9-0.7-1.9-0.5-3c0.2-1.1,0.8-2.1,1.6-2.7c2.8-2.1,5.5,0.2,8,2.9c0,0,0.5,0.5,1.2,1.1
				c0.7,0.6,1.6,1.4,2.5,2.1l-9.9-28.2c-0.9-2.5,0.1-5.4,2.4-6.6c1.1-0.6,2.3-0.6,3.3-0.2c1.1,0.4,2,1.4,2.5,2.6l3.7,9.8
				c-0.9,1.3-1.2,3-0.8,4.6l-5.1-13.3c-0.2-0.5-0.6-0.9-1.1-1.1c-0.5-0.2-1.1-0.2-1.6,0.1c-1.1,0.6-1.6,1.9-1.2,3l10.3,29.5
				c0.3,0.9,0.1,1.9-0.5,2.5c-0.6,0.7-1.5,0.8-2.3,0.3c-2.3-1.5-5-4.1-5.1-4.2c-2.9-3.3-4.2-3.4-5.2-2.6c-0.3,0.2-0.5,0.6-0.6,1
				c0,0.2,0,0.5,0.1,0.8c1.3,1.6,6.8,8.3,7.4,11.1c1.4,6.7,7.1,10.8,10.5,12.6c1.7,0.9,3,2.4,4,4.2l19.8-10.4l-0.9-2.3
				c-0.7-1.7-0.8-3.6-0.5-5.5c0.7-3.6,0.7-6.4,0.1-7.9l-7.5-19.6c-0.3-0.8-1.1-1.3-2-1.2c-0.2,0-0.5,0.1-0.7,0.2
				c-0.9,0.5-1.4,1.5-1.3,2.5l-1.1-2.9c-0.1-0.2-0.2-0.4-0.3-0.6c0.4-0.6,1-1.2,1.7-1.5c0.4-0.2,0.9-0.4,1.4-0.5
				c1.9-0.3,3.7,0.9,4.4,2.8l7.4,19.6c1,2.6,0.6,6.7,0,9.7c-0.2,1.3-0.1,2.6,0.3,3.8L109.8,88.3z"/>
		</g>
		<g>
		</g>
	</g>
</g>
</svg>
