<?xml version="1.0" encoding="utf-8"?>
<!-- Generator: Adobe Illustrator 24.0.1, SVG Export Plug-In . SVG Version: 6.00 Build 0)  -->
<svg version="1.1" id="Layer_1" xmlns="http://www.w3.org/2000/svg" xmlns:xlink="http://www.w3.org/1999/xlink" x="0px" y="0px"
	 viewBox="0 0 149 124" style="enable-background:new 0 0 149 124;" xml:space="preserve">
<style type="text/css">
	.st0{fill:#312C29;}
	.st1{fill:#FB6520;}
</style>
<g>
	<path class="st0" d="M123.6,29.7H23.4c-0.8,0-1.5-0.7-1.5-1.5V12.9c0-0.8,0.7-1.5,1.5-1.5h100.2c0.8,0,1.5,0.7,1.5,1.5v15.3
		C125.1,29,124.4,29.7,123.6,29.7z"/>
	<g id="XMLID_50_">
		<g>
			<rect x="24.9" y="14.4" class="st1" width="97.2" height="12.3"/>
		</g>
		<g>
		</g>
	</g>
</g>
<g>
	<path class="st0" d="M123.6,114.9H23.4c-0.8,0-1.5-0.7-1.5-1.5V28.2c0-0.8,0.7-1.5,1.5-1.5h100.2c0.8,0,1.5,0.7,1.5,1.5v85.2
		C125.1,114.3,124.4,114.9,123.6,114.9z M24.9,111.9h97.2V29.7H24.9V111.9z"/>
</g>
<g>
	<g>
		<path class="st0" d="M30.5,22.8c-0.4,0-0.8-0.2-1.1-0.4c-0.3-0.3-0.4-0.7-0.4-1.1c0-0.4,0.2-0.8,0.4-1.1c0.4-0.3,0.9-0.5,1.4-0.4
			c0.1,0,0.2,0,0.3,0.1c0.1,0,0.2,0.1,0.3,0.1c0.1,0.1,0.2,0.1,0.2,0.2c0.3,0.3,0.4,0.7,0.4,1.1c0,0.2,0,0.4-0.1,0.6
			c-0.1,0.2-0.2,0.3-0.3,0.5C31.3,22.7,30.9,22.8,30.5,22.8z"/>
	</g>
	<g>
		<path class="st0" d="M41.2,21.3c0-0.8,0.7-1.5,1.5-1.5l0,0c0.8,0,1.5,0.7,1.5,1.5l0,0c0,0.8-0.7,1.5-1.5,1.5l0,0
			C41.8,22.8,41.2,22.1,41.2,21.3z"/>
	</g>
	<g>
		<path class="st0" d="M54.8,22.8c-0.4,0-0.8-0.2-1.1-0.4c-0.3-0.3-0.4-0.7-0.4-1.1c0-0.4,0.2-0.8,0.4-1.1c0.4-0.3,0.9-0.5,1.4-0.4
			c0.1,0,0.2,0,0.3,0.1c0.1,0,0.2,0.1,0.3,0.1c0.1,0.1,0.2,0.1,0.2,0.2c0.3,0.3,0.4,0.7,0.4,1.1c0,0.4-0.2,0.8-0.4,1.1
			c-0.1,0.1-0.3,0.3-0.5,0.3C55.2,22.8,55,22.8,54.8,22.8z"/>
	</g>
</g>
<g>
	<path class="st0" d="M110.7,67H85.2c-0.8,0-1.5-0.7-1.5-1.5V40c0-0.8,0.7-1.5,1.5-1.5h25.5c0.8,0,1.5,0.7,1.5,1.5v25.5
		C112.2,66.3,111.5,67,110.7,67z M86.7,64h22.5V41.5H86.7V64z"/>
</g>
<g>
	<path class="st0" d="M97.9,99c-0.6,0-1.1-0.3-1.4-0.9L92,88.4c-0.3-0.8,0-1.6,0.7-2c0.8-0.3,1.6,0,2,0.7l3.1,6.7l4.8-11.3
		c0.3-0.8,1.2-1.1,2-0.8c0.8,0.3,1.1,1.2,0.8,2l-6.2,14.4C99.1,98.6,98.5,99,97.9,99C97.9,99,97.9,99,97.9,99z"/>
</g>
<g>
	<path class="st0" d="M110.7,103.7H85.2c-0.8,0-1.5-0.7-1.5-1.5V76.7c0-0.8,0.7-1.5,1.5-1.5h25.5c0.8,0,1.5,0.7,1.5,1.5v25.5
		C112.2,103.1,111.5,103.7,110.7,103.7z M86.7,100.7h22.5V78.2H86.7V100.7z"/>
</g>
<g>
	<path class="st0" d="M75.3,48.8H35.8c-0.8,0-1.5-0.7-1.5-1.5c0-0.8,0.7-1.5,1.5-1.5h39.5c0.8,0,1.5,0.7,1.5,1.5
		C76.8,48.2,76.2,48.8,75.3,48.8z"/>
</g>
<g>
	<path class="st0" d="M75.3,58.4H35.8c-0.8,0-1.5-0.7-1.5-1.5c0-0.8,0.7-1.5,1.5-1.5h39.5c0.8,0,1.5,0.7,1.5,1.5
		C76.8,57.7,76.2,58.4,75.3,58.4z"/>
</g>
<g>
	<path class="st0" d="M75.3,85.2H35.8c-0.8,0-1.5-0.7-1.5-1.5s0.7-1.5,1.5-1.5h39.5c0.8,0,1.5,0.7,1.5,1.5S76.2,85.2,75.3,85.2z"/>
</g>
<g>
	<path class="st0" d="M75.3,94.8H35.8c-0.8,0-1.5-0.7-1.5-1.5c0-0.8,0.7-1.5,1.5-1.5h39.5c0.8,0,1.5,0.7,1.5,1.5
		C76.8,94.1,76.2,94.8,75.3,94.8z"/>
</g>
<g>
	<g id="XMLID_53_">
		<g>
			<path class="st0" d="M98.5,53.9v2.3h-1.6V54c0-0.3-0.1-0.5-0.4-0.7c-1.2-0.7-2-2.4-2-4.3c0-0.2,0-0.3,0-0.5
				c0-0.5,0.2-1.1,0.3-1.6c0.5-1.6,1.7-2.6,2.8-2.6c1.2,0,2.3,1,2.8,2.6c0.1,0.4,0.2,0.8,0.3,1.2c0,0.3,0.1,0.6,0.1,0.8
				c0,1.9-0.8,3.5-2,4.3C98.7,53.4,98.5,53.6,98.5,53.9z"/>
			<path class="st0" d="M90.7,58c0-0.6,0.5-1.1,1.1-1.1h4.5c0.4,0,0.8-0.4,0.8-0.8h1.6c0,0.4,0.3,0.8,0.8,0.8h4.4
				c0.6,0,1.1,0.5,1.1,1.1c0,0,0,0,0,0.1l0.3,2.5H90.4L90.7,58C90.7,58.1,90.7,58,90.7,58z"/>
			<path class="st0" d="M92.9,49c0-0.2,0-0.4,0-0.6c0.1-0.7,0.2-1.4,0.4-2c0.8-2.2,2.5-3.6,4.3-3.6c1.9,0,3.6,1.4,4.3,3.6
				c0.2,0.5,0.3,1,0.4,1.5c0.1,0.4,0.1,0.7,0.1,1c0,2.2-0.9,4.3-2.4,5.4v1h3.7c1.4,0,2.6,1.2,2.7,2.6l0.4,3.3c0,0.2-0.1,0.5-0.2,0.6
				c-0.1,0.2-0.4,0.3-0.6,0.3H89.5c-0.2,0-0.4-0.1-0.6-0.3c-0.2-0.2-0.2-0.4-0.2-0.6l0.4-3.3c0-1.4,1.2-2.6,2.6-2.6h3.7v-1
				C93.9,53.3,92.9,51.2,92.9,49z M90.7,58C90.7,58,90.7,58.1,90.7,58l-0.3,2.6h14.7l-0.3-2.5c0,0,0-0.1,0-0.1
				c0-0.6-0.5-1.1-1.1-1.1h-4.4c-0.4,0-0.8-0.4-0.8-0.8v-2.3c0-0.3,0.1-0.5,0.4-0.7c1.2-0.7,2-2.4,2-4.3c0-0.3,0-0.5-0.1-0.8
				c0-0.4-0.1-0.8-0.3-1.2c-0.5-1.6-1.7-2.6-2.8-2.6c-1.2,0-2.3,1-2.8,2.6c-0.2,0.5-0.3,1-0.3,1.6c0,0.2,0,0.3,0,0.5
				c0,1.9,0.8,3.6,2,4.3c0.3,0.1,0.4,0.4,0.4,0.7v2.2c0,0.4-0.3,0.8-0.8,0.8h-4.5C91.1,57,90.7,57.4,90.7,58z"/>
		</g>
		<g>
		</g>
	</g>
</g>
</svg>
