<?xml version="1.0" encoding="utf-8"?>
<!-- Generator: Adobe Illustrator 24.0.1, SVG Export Plug-In . SVG Version: 6.00 Build 0)  -->
<svg version="1.1" id="Layer_1" xmlns="http://www.w3.org/2000/svg" xmlns:xlink="http://www.w3.org/1999/xlink" x="0px" y="0px"
	 viewBox="0 0 114.2 114.2" style="enable-background:new 0 0 114.2 114.2;" xml:space="preserve">
<style type="text/css">
	.st0{fill:#F26527;}
	.st1{fill:#FFFFFF;}
	.st2{fill:#010101;}
	.st3{fill:#808285;}
	.st4{fill:#6D6E71;}
	.st5{opacity:0.2;}
	.st6{fill:#BCBEC0;}
	.st7{fill:#F1F2F2;}
	.st8{fill:#E3E3E3;}
	.st9{fill:#414042;}
	.st10{fill:#404D66;}
</style>
<title>projector</title>
<g>
	<g id="Layer_1_1_">
		<circle class="st0" cx="57.1" cy="57.1" r="57.1"/>
		<circle class="st1" cx="57.5" cy="57.5" r="53.6"/>
		<path class="st2" d="M111.7,95.2V95C111.7,95,111.7,95,111.7,95.2C111.7,95.1,111.7,95.1,111.7,95.2z"/>
		<path class="st3" d="M23.7,33.5h67.6c5.6,0,10.2,4.6,10.2,10.2v18.6c0,5.6-4.6,10.2-10.2,10.2H23.7c-5.6,0-10.2-4.6-10.2-10.2
			V43.7C13.5,38.1,18.1,33.5,23.7,33.5z"/>
		<path class="st3" d="M32.9,87.8L32.9,87.8c-3.2,0-5.7-2.6-5.7-5.7c0,0,0,0,0,0v-9.5h11.5V82C38.6,85.2,36.1,87.8,32.9,87.8z"/>
		<path class="st3" d="M77.3,72.5h11.5l0,0V82c0,3.2-2.6,5.8-5.8,5.8l0,0c-3.2,0-5.8-2.6-5.8-5.8V72.5L77.3,72.5z"/>
		<rect x="68.8" y="42.7" class="st4" width="23.9" height="20.7"/>
		<g class="st5">
			<polygon class="st6" points="92.7,63.4 68.8,42.7 92.7,42.7 			"/>
		</g>
		<path class="st7" d="M73.8,50.2c-0.2,0-0.3,0-0.5-0.1c-0.3-0.1-0.6-0.4-0.7-0.7c-0.1-0.2-0.1-0.3-0.1-0.5c0-0.3,0.1-0.7,0.4-0.9
			c0.5-0.5,1.3-0.5,1.9,0l0.2,0.2c0,0.1,0.1,0.2,0.1,0.2c0,0.1,0.1,0.2,0.1,0.2c0,0.1,0,0.2,0,0.3c0,0.2,0,0.3-0.1,0.5
			c-0.1,0.3-0.4,0.6-0.7,0.7C74.2,50.1,74,50.2,73.8,50.2z"/>
		<path class="st7" d="M79.4,48.8c0-0.7,0.6-1.3,1.3-1.3l0,0c0.7,0,1.3,0.6,1.3,1.3l0,0c0,0.7-0.6,1.3-1.3,1.3l0,0
			C80,50.2,79.4,49.6,79.4,48.8z"/>
		<path class="st7" d="M87.6,50.2c-0.2,0-0.3,0-0.5-0.1c-0.2-0.1-0.3-0.2-0.4-0.3c-0.1-0.1-0.2-0.3-0.3-0.4
			c-0.1-0.2-0.1-0.3-0.1-0.5c0-0.1,0-0.2,0-0.3c0-0.1,0-0.2,0.1-0.2c0-0.1,0.1-0.2,0.1-0.2c0.1-0.1,0.1-0.1,0.2-0.2
			c0.5-0.5,1.3-0.5,1.8,0c0.1,0.1,0.1,0.1,0.2,0.2c0,0.1,0.1,0.2,0.1,0.2c0,0.1,0.1,0.2,0.1,0.2c0,0.1,0,0.2,0,0.3
			c0,0.2,0,0.3-0.1,0.5c-0.1,0.1-0.1,0.3-0.3,0.4C88.3,49.9,88.2,50,88,50C87.9,50.1,87.7,50.2,87.6,50.2z"/>
		<path class="st7" d="M73.8,58.2c-0.2,0-0.3,0-0.5-0.1c-0.2-0.1-0.3-0.2-0.4-0.3c-0.2-0.2-0.4-0.6-0.4-0.9c0-0.1,0-0.2,0-0.3
			c0-0.1,0-0.2,0.1-0.2c0-0.1,0.1-0.2,0.1-0.2c0-0.1,0.1-0.1,0.2-0.2c0.5-0.5,1.3-0.5,1.9,0c0.1,0.1,0.1,0.1,0.2,0.2
			c0,0.1,0.1,0.1,0.1,0.2c0,0.1,0.1,0.2,0.1,0.2c0,0.1,0,0.2,0,0.3c0,0.3-0.1,0.7-0.4,0.9C74.5,58.1,74.2,58.2,73.8,58.2z"/>
		<path class="st7" d="M79.4,56.9c0-0.7,0.6-1.3,1.3-1.3l0,0c0.7,0,1.3,0.6,1.3,1.3c0,0,0,0,0,0l0,0c0,0.7-0.6,1.3-1.3,1.3l0,0
			C80,58.2,79.4,57.6,79.4,56.9z"/>
		<path class="st7" d="M87.6,58.2c-0.2,0-0.3,0-0.5-0.1c-0.2-0.1-0.3-0.2-0.4-0.3c-0.1-0.1-0.2-0.3-0.3-0.4
			c-0.1-0.2-0.1-0.3-0.1-0.5c0-0.1,0-0.2,0-0.3c0-0.1,0-0.2,0.1-0.2c0-0.1,0.1-0.2,0.1-0.2c0-0.1,0.1-0.1,0.2-0.2
			c0.3-0.3,0.8-0.4,1.2-0.4l0.2,0.1c0.1,0,0.2,0.1,0.2,0.1c0.1,0,0.1,0.1,0.2,0.2c0.1,0.1,0.1,0.1,0.2,0.2c0,0.1,0.1,0.2,0.1,0.2
			c0,0.1,0,0.2,0.1,0.2c0,0.1,0,0.2,0,0.3c0,0.2,0,0.3-0.1,0.5c-0.1,0.2-0.2,0.3-0.3,0.4C88.2,58.1,87.9,58.2,87.6,58.2z"/>
		<path class="st8" d="M40.7,24.6c-11.2,0-20.3,9.1-20.3,20.3c0,11.2,9.1,20.3,20.3,20.3C52,65.2,61,56.1,61,44.9
			C61,33.7,52,24.6,40.7,24.6L40.7,24.6z"/>
		<g class="st5">
			<path class="st8" d="M40.7,24.6v40.6C52,65.2,61,56.1,61,44.9S52,24.6,40.7,24.6L40.7,24.6z"/>
		</g>
		<path class="st9" d="M40.7,28.9c-8.7,0-15.8,7.1-15.8,15.8S32,60.5,40.7,60.5s15.8-7.1,15.8-15.8c0,0,0,0,0,0
			C56.5,36,49.5,28.9,40.7,28.9z"/>
		<g class="st5">
			<path class="st10" d="M40.7,28.9v31.6c8.7,0,15.8-7.1,15.8-15.8C56.5,36,49.5,28.9,40.7,28.9z"/>
		</g>
		<path class="st1" d="M34.3,39.9c0,1.1-0.9,2.1-2.1,2.1c-1.1,0-2.1-0.9-2.1-2.1c0-1.1,0.9-2.1,2.1-2.1
			C33.3,37.8,34.3,38.8,34.3,39.9C34.3,39.9,34.3,39.9,34.3,39.9z"/>
		<g class="st5">
			<path class="st4" d="M83.1,72.5v15.2l0,0c3.2,0,5.7-2.6,5.7-5.7c0,0,0,0,0,0v-9.5H83.1z"/>
		</g>
		<g class="st5">
			<path class="st4" d="M32.9,72.5v15.2l0,0c3.2,0,5.7-2.6,5.8-5.7c0,0,0,0,0,0v-9.5H32.9z"/>
		</g>
	</g>
</g>
</svg>
