<?xml version="1.0" encoding="utf-8"?>
<!-- Generator: Adobe Illustrator 24.0.1, SVG Export Plug-In . SVG Version: 6.00 Build 0)  -->
<svg version="1.1" id="Layer_1" xmlns="http://www.w3.org/2000/svg" xmlns:xlink="http://www.w3.org/1999/xlink" x="0px" y="0px"
	 viewBox="0 0 114.7 114.2" style="enable-background:new 0 0 114.7 114.2;" xml:space="preserve">
<style type="text/css">
	.st0{fill:#F26527;}
	.st1{fill:#FFFFFF;}
	.st2{fill:#010101;}
	.st3{fill:#414042;}
	.st4{fill:#58595B;}
	.st5{fill:#E3E2DF;}
	.st6{fill:#EEEDEE;}
	.st7{fill:#939598;}
	.st8{fill:#808285;}
</style>
<title>touchscreen</title>
<circle class="st0" cx="57.6" cy="57.1" r="57.1"/>
<circle class="st1" cx="57.5" cy="56.9" r="53.6"/>
<path class="st2" d="M108.3,96.4v-0.1C108.3,96.3,108.3,96.3,108.3,96.4C108.3,96.3,108.3,96.4,108.3,96.4z"/>
<path class="st3" d="M22.1,28.5h71.6c1.5,0,2.6,1.2,2.6,2.6v48.1c0,1.5-1.2,2.6-2.6,2.6H22.1c-1.5,0-2.6-1.2-2.6-2.6V31.2
	C19.5,29.7,20.7,28.5,22.1,28.5z"/>
<path class="st4" d="M58,81.9H22.2c-1.5,0-2.6-1.2-2.6-2.6v-48c0-1.5,1.2-2.6,2.6-2.6h0H58V81.9z"/>
<path class="st5" d="M93,73.9c0,0.1-0.1,0.2-0.3,0.2H23.2c-0.2,0-0.3-0.1-0.3-0.2V32.8c0-0.1,0.1-0.2,0.3-0.2h69.4
	c0.2,0,0.3,0.1,0.3,0.2L93,73.9z"/>
<path class="st6" d="M92.9,74c-0.1,0.1-0.1,0.1-0.2,0.1H23.2c-0.2,0-0.3-0.1-0.3-0.2V32.8c0-0.1,0-0.1,0.1-0.2
	C23,32.6,93,74,92.9,74z"/>
<polygon class="st5" points="62,29.7 54.4,29.7 53.8,29.8 53.8,31 53.9,31.5 61.5,31.5 62.1,31.5 62.1,30.2 "/>
<path class="st5" d="M59.9,77.6c0,1.1-0.9,2-2,2c-1.1,0-2-0.9-2-2c0-1.1,0.9-2,2-2h0C59,75.6,59.9,76.5,59.9,77.6z"/>
<path class="st6" d="M57.9,79.5c-1.1,0-2-0.9-2-2c0-1.1,0.9-2,2-2l0,0V79.5z"/>
<path class="st2" d="M82.2,61.1v0.6c0,0,0-0.1,0-0.1C82.2,61.5,82.2,61.3,82.2,61.1z"/>
<path class="st2" d="M-8.5,33.4L-8.5,33.4z"/>
<path class="st7" d="M90.9,62.1c0.1-1.2-0.8-2.2-2-2.3c-1.2-0.1-2.2,0.8-2.3,2c0,0.1,0,0.2,0,0.3v0.7c0,0-1.4,0.2-1.4-0.5
	c0-0.2,0-1.5,0-2.9c0.1-1.2-0.8-2.2-2-2.3c-1.2-0.1-2.2,0.8-2.3,2c0,0.1,0,0.2,0,0.3c0,0,0,1,0,2.3c0,0.2,0,0.4,0,0.4
	c0,0,0,0.1,0,0.1c0,0-1.5,0.1-1.5-0.1l0,0c0-0.2,0-2.9,0-5.5c0-1.2-1-2.1-2.1-2.1c-1.2,0-2.1,1-2.1,2.1v5.6l-1.4,0.4v-14
	c-1.5-2-4.2-1-4.6,0v18.7c-0.5-1.2-1.3-2.3-2.3-3.2c-0.4-0.6-0.7-1.3-1.2-1.8c-0.9-1.1-3.8-2.9-5.8-1.4c-0.4,0.3,0.4,2.5,1.6,4.8
	c1.5,3,3.5,6.2,3.5,6.2c0.2,0.7,2,10.8,8.8,13v4.6h12.9v-4.8c2.6-1.2,4.3-3.8,4.3-6.6V62.1z"/>
<path class="st8" d="M74.4,87.5h11c1.2,0,2.1,0.9,2.1,2.1v0c0,1.2-0.9,2.1-2.1,2.1h-11c-1.2,0-2.1-0.9-2.1-2.1v0
	C72.3,88.4,73.3,87.5,74.4,87.5z"/>
</svg>
