<?xml version="1.0" encoding="utf-8"?>
<!-- Generator: Adobe Illustrator 24.0.1, SVG Export Plug-In . SVG Version: 6.00 Build 0)  -->
<svg version="1.1" id="Layer_1" xmlns="http://www.w3.org/2000/svg" xmlns:xlink="http://www.w3.org/1999/xlink" x="0px" y="0px"
	 viewBox="0 0 118 116" style="enable-background:new 0 0 118 116;" xml:space="preserve">
<style type="text/css">
	.st0{fill:#33AFBD;}
	.st1{fill:#4BB4C6;}
	.st2{fill:#E3E1DF;}
	.st3{fill:#EEEEEE;}
	.st4{fill:#FFFFFF;}
	.st5{fill:#E1744D;}
	.st6{fill:#FE8054;}
	.st7{fill:#365370;}
	.st8{fill:#38597A;}
	.st9{fill:#FB6520;}
	.st10{opacity:0.2;}
</style>
<g>
	<g>
		<path class="st0" d="M111.4,7H7.1C5,7,3.2,8.8,3.2,11v73.6c0,2.2,1.7,4,3.8,4h39.1h25h40.2c2.1,0,3.8-1.8,3.8-4V11
			C115.2,8.8,113.5,7,111.4,7z"/>
	</g>
	<g>
		<path class="st1" d="M59.2,7H7.1C5,7,3.2,8.8,3.2,11v73.6c0,2.2,1.7,4,3.8,4h39.1h13L59.2,7z"/>
	</g>
	<g>
		<path class="st2" d="M110.2,76.4c0,0.2-0.2,0.3-0.5,0.3H8.7c-0.2,0-0.4-0.2-0.4-0.3V13.5c0-0.2,0.2-0.3,0.4-0.3h101.1
			c0.2,0,0.5,0.2,0.5,0.3V76.4z"/>
	</g>
	<g>
		<path class="st3" d="M110.1,76.6c-0.1,0.1-0.2,0.1-0.3,0.1H8.7c-0.2,0-0.4-0.2-0.4-0.3V13.5c0-0.1,0.1-0.2,0.1-0.2
			C8.4,13.2,110.2,76.6,110.1,76.6z"/>
	</g>
	<g>
		<rect x="46.2" y="88.6" class="st0" width="25" height="13.7"/>
	</g>
	<g>
		<rect x="46.2" y="88.6" class="st1" width="13" height="13.7"/>
	</g>
	<g>
		<path class="st0" d="M83.1,102.3H71.2h-25H34.3c-0.1,0-0.1,0-0.1,0.1v7c0,0.1,0.1,0.1,0.1,0.1h48.9c0.1,0,0.1,0,0.1-0.1v-7
			C83.3,102.3,83.2,102.3,83.1,102.3z"/>
	</g>
	<g>
		<path class="st1" d="M59.2,102.3h-13H34.3c-0.1,0-0.1,0-0.1,0.1v7c0,0.1,0.1,0.1,0.1,0.1h24.9L59.2,102.3z"/>
	</g>
	<g>
		<path class="st4" d="M107.2,81.9c0,1.2-0.9,2.1-2.1,2.1c-1.2,0-2.1-0.9-2.1-2.1c0-1.2,0.9-2.1,2.1-2.1
			C106.3,79.8,107.2,80.8,107.2,81.9z"/>
	</g>
	<g>
		<path class="st5" d="M106.6,81.9c0,0.9-0.7,1.6-1.6,1.6c-0.9,0-1.6-0.7-1.6-1.6c0-0.9,0.7-1.6,1.6-1.6
			C105.9,80.4,106.6,81.1,106.6,81.9z"/>
	</g>
	<g>
		<path class="st6" d="M105.1,83.5c-0.9,0-1.6-0.7-1.6-1.6c0-0.9,0.7-1.6,1.6-1.6V83.5z"/>
	</g>
	<g>
		<path class="st7" d="M83.7,59c0,0.1,0,0.1,0.1,0.1h8.4c0.1,0,0.1,0,0.1-0.1V42.4c0-0.1,0-0.1-0.1-0.1h-8.4c-0.1,0-0.1,0-0.1,0.1
			V59z"/>
	</g>
	<g>
		<path class="st8" d="M69.4,59c0,0.1,0,0.1,0.1,0.1h8.4c0.1,0,0.1-0.1,0.1-0.1V38c0-0.1,0-0.1-0.1-0.1h-8.4c-0.1,0-0.1,0.1-0.1,0.1
			V59z"/>
	</g>
	<g>
		<path class="st7" d="M54.9,58.9c0,0.1,0,0.2,0.1,0.2h8.4c0.1,0,0.1-0.1,0.1-0.2V29.7c0-0.1,0-0.2-0.1-0.2H55
			c-0.1,0-0.1,0.1-0.1,0.2V58.9z"/>
	</g>
	<g>
		<path class="st8" d="M40.7,58.9c0,0.1,0,0.2,0.1,0.2h8.4c0.1,0,0.1-0.1,0.1-0.2V24.8c0-0.1,0-0.2-0.1-0.2h-8.4
			c-0.1,0-0.1,0.1-0.1,0.2V58.9z"/>
	</g>
	<g>
		<path class="st7" d="M26.1,58.9c0,0.1,0,0.2,0.1,0.2h8.4c0.1,0,0.1-0.1,0.1-0.2V22.5c0-0.1,0-0.2-0.1-0.2h-8.4
			c-0.1,0-0.1,0.1-0.1,0.2V58.9z"/>
	</g>
</g>
<g>
	<g>
		<g>
			<path class="st9" d="M59.2,39.1c-10.1,0-18.3,8.2-18.3,18.3c0,6.8,3.7,12.7,9.1,15.9c2.7,1.6,5.8,2.5,9.2,2.5
				c6.1,0,11.5-3,14.8-7.5c2.2-3,3.5-6.8,3.5-10.8C77.6,47.3,69.4,39.1,59.2,39.1z"/>
		</g>
	</g>
	<g class="st10">
		<g>
			<path class="st9" d="M59.2,39.1v36.7c6.1,0,11.5-3,14.8-7.5c2.2-3,3.5-6.8,3.5-10.8C77.6,47.3,69.4,39.1,59.2,39.1z"/>
		</g>
	</g>
</g>
<g>
	<path class="st4" d="M71.8,56.3c-0.4-3.5-2.3-6.8-5.3-8.9l-2.1,3c2,1.4,3.3,3.5,3.7,5.9c0.1,0.5,0.1,1,0.1,1.5c0,5-4,9-9,9
		c-5,0-9-4-9-9c0-0.5,0-1,0.1-1.5c0.4-2.4,1.7-4.5,3.7-5.9l-2.1-3c-2.9,2.1-4.8,5.3-5.3,8.9c-0.1,0.5-0.1,1-0.1,1.5
		c0,7,5.7,12.7,12.7,12.7c7,0,12.7-5.7,12.7-12.7C71.9,57.3,71.9,56.8,71.8,56.3z"/>
</g>
<g>
	<polygon class="st4" points="57.4,44.3 57.4,54.1 57.4,57.9 61.7,57.9 61.7,54.1 61.7,44.3 	"/>
</g>
</svg>
