<svg xmlns="http://www.w3.org/2000/svg" viewBox="0 0 97.76 103.25"><defs><style>.cls-1{isolation:isolate;}.cls-2{fill:#fae480;}.cls-3{fill:#fbb03b;}.cls-4{fill:#f15947;}.cls-5{fill:#e3e3e3;}.cls-6{opacity:0.2;mix-blend-mode:multiply;}.cls-7{fill:#f26527;}.cls-8{fill:#fff;}</style></defs><title>email alert</title><g class="cls-1"><g id="Layer_1" data-name="Layer 1"><polyline class="cls-2" points="97.75 103.25 97.75 53.08 97.75 35.73 0.35 35.73 0.35 53.08 0.35 103.25"/><polyline class="cls-3" points="49.04 0 24.68 17.86 0.34 35.73 0.35 35.73 24.7 53.59 49.05 71.46 73.41 53.59 97.75 35.73 97.74 35.73 73.39 17.86 49.04 0"/><polyline class="cls-2" points="0 103.25 24.35 87.35 48.7 71.46 73.05 87.35 97.4 103.25"/><polyline class="cls-4" points="49.03 0 49.03 71.44 49.05 71.46 73.41 53.59 97.75 35.73 97.74 35.73 73.39 17.86 49.04 0"/><polygon class="cls-5" points="77.48 50.77 77.48 21.67 20.6 21.67 20.6 50.73 49.05 85.46 77.48 50.77"/><g class="cls-6"><polygon class="cls-5" points="77.47 51.52 77.47 21.96 49.05 21.96 49.05 86.78 77.47 51.52"/></g><polygon class="cls-7" points="29.7 60.52 68.67 60.52 49.18 27.76 29.7 60.52"/><g class="cls-6"><polygon class="cls-2" points="49.48 60.52 68.67 60.52 49.18 27.76 49.48 60.52"/></g><path class="cls-8" d="M64.66,60.24A1.2,1.2,0,0,1,63.47,59V46.1a1.2,1.2,0,0,1,2.39,0V59A1.2,1.2,0,0,1,64.66,60.24Z" transform="translate(-15.19 -7.06)"/><path class="cls-8" d="M63.48,62.69a1.19,1.19,0,0,1,1.19-1.19h0a1.19,1.19,0,0,1,1.19,1.19h0a1.2,1.2,0,0,1-1.19,1.19h0A1.19,1.19,0,0,1,63.48,62.69Z" transform="translate(-15.19 -7.06)"/></g></g></svg>