<svg xmlns="http://www.w3.org/2000/svg" viewBox="0 0 116.5 102.98"><defs><style>.cls-1{isolation:isolate;}.cls-2{fill:#010101;}.cls-3{fill:#e3e3e3;}.cls-4{fill:#f26527;}.cls-5{opacity:0.2;}.cls-5,.cls-9{mix-blend-mode:multiply;}.cls-6{fill:#f15947;}.cls-7{fill:#fff;}.cls-8{fill:#88cb96;}.cls-9{opacity:0.12;}.cls-10{fill:#4fc6da;}.cls-11{fill:#cac8b9;}.cls-12{fill:#5f616c;}.cls-12,.cls-13{fill-rule:evenodd;}.cls-13{fill:#25344f;}.cls-14{fill:#eef1d4;}</style></defs><title>import export save layout</title><g class="cls-1"><g id="Layer_1" data-name="Layer 1"><path class="cls-2" d="M118.26,70.79v0Z" transform="translate(-6.09 -6.93)"/><rect class="cls-3" y="0.21" width="102.77" height="102.77"/><rect class="cls-4" y="0.21" width="102.5" height="17.72"/><g class="cls-5"><rect class="cls-3" x="50.56" y="0.21" width="52.21" height="102.77"/></g><g class="cls-5"><rect class="cls-6" x="50.56" y="0.21" width="51.92" height="17.72"/></g><path class="cls-7" d="M15.05,18.35l-.29,0a1.61,1.61,0,0,1-.29-.09,1.35,1.35,0,0,1-.26-.15A1.3,1.3,0,0,1,14,17.9a1.51,1.51,0,0,1,0-2.15,2,2,0,0,1,.23-.18,1.3,1.3,0,0,1,.26-.14,1.61,1.61,0,0,1,.29-.09,1.56,1.56,0,0,1,1.37.41,1.53,1.53,0,0,1,0,2.15A1.51,1.51,0,0,1,15.05,18.35Z" transform="translate(-6.09 -6.93)"/><path class="cls-7" d="M25.41,16.83a1.53,1.53,0,0,1,1.52-1.52h0a1.52,1.52,0,0,1,1.51,1.52h0a1.52,1.52,0,0,1-1.51,1.51h0A1.52,1.52,0,0,1,25.41,16.83Z" transform="translate(-6.09 -6.93)"/><path class="cls-7" d="M38.8,18.35a1.51,1.51,0,0,1-1.07-.45,1.53,1.53,0,0,1,0-2.15,1.56,1.56,0,0,1,2.14,0,1.51,1.51,0,0,1,0,2.15A1.46,1.46,0,0,1,38.8,18.35Z" transform="translate(-6.09 -6.93)"/><polygon class="cls-8" points="73.7 71.66 73.7 48.13 73.7 29.62 57.62 29.62 57.62 48.13 57.62 71.66 49.58 71.66 57.62 80.26 65.66 88.86 73.7 80.26 81.74 71.66 73.7 71.66"/><g class="cls-9"><polygon class="cls-6" points="73.7 71.66 73.7 48.13 73.7 29.62 65.66 29.62 65.66 88.86 65.66 88.86 73.7 80.26 81.74 71.66 73.7 71.66"/></g><polygon class="cls-10" points="44.23 46.82 44.23 70.35 44.23 88.86 28.15 88.86 28.15 70.35 28.15 46.82 20.11 46.82 28.15 38.22 36.19 29.62 44.23 38.22 52.27 46.82 44.23 46.82"/><g class="cls-5"><polygon class="cls-10" points="44.23 46.82 44.23 70.35 44.23 88.86 36.19 88.86 36.19 29.62 36.19 29.62 44.23 38.22 52.27 46.82 44.23 46.82"/></g><rect class="cls-11" x="88.9" width="17.6" height="12.32"/><path class="cls-12" d="M105.76,8.54v8.81a.61.61,0,0,0,.62.62h3.51a.65.65,0,0,0,.44-.18.63.63,0,0,0,.18-.44V8.54a.63.63,0,0,0-.18-.44.65.65,0,0,0-.44-.18h-3.51a.61.61,0,0,0-.62.62Z" transform="translate(-6.09 -6.93)"/><path class="cls-13" d="M86.56,44.53H121A1.58,1.58,0,0,0,122.59,43V11.64l-4.72-4.71h-5.29V19.24H95V6.93H86.56A1.57,1.57,0,0,0,85,8.5V43a1.58,1.58,0,0,0,1.58,1.57Zm7.62-16.92H113.4a1.45,1.45,0,0,1,1.44,1.44V40.1a1.44,1.44,0,0,1-1.44,1.44H94.18a1.43,1.43,0,0,1-1.44-1.44v-11A1.44,1.44,0,0,1,94.18,27.61Z" transform="translate(-6.09 -6.93)"/><rect class="cls-14" x="86.65" y="20.68" width="22.1" height="13.94" rx="1.44"/></g></g></svg>