<svg id="Layer_1" data-name="Layer 1" xmlns="http://www.w3.org/2000/svg" viewBox="0 0 127.42 103.84"><defs><style>.cls-1{fill:#365471;}.cls-2{fill:#e3e2df;}.cls-3{fill:#eeedee;}.cls-4{fill:#39597b;}.cls-5{fill:#836f51;}.cls-6{fill:#f26527;}</style></defs><title>library and folder</title><path class="cls-1" d="M15.25,16.51c-.22-3,.48-3,2.5-3h93.38c1.82,0,2.51.3,2.51,3V93.75H119v-84a3.1,3.1,0,0,0-2.78-3.33H12.63A3.1,3.1,0,0,0,9.85,9.73v84h5.4Z" transform="translate(-0.73 -6.4)"/><path class="cls-2" d="M111.13,13.51H17.75c-2,0-2.72,0-2.5,3V93.75h98.39V16.51C113.64,13.81,113,13.51,111.13,13.51Z" transform="translate(-0.73 -6.4)"/><path class="cls-3" d="M15.25,14.91V93.75h96.39S13,11.91,15.25,14.91Z" transform="translate(-0.73 -6.4)"/><path class="cls-4" d="M125.89,93.75H3A2.51,2.51,0,0,0,.73,96.46s1.79,10.38,8.58,13.78H119.54c6.61-1.09,8.61-13.78,8.61-13.78A2.51,2.51,0,0,0,125.89,93.75Z" transform="translate(-0.73 -6.4)"/><path class="cls-5" d="M65.35,78.77H62.28" transform="translate(-0.73 -6.4)"/><polygon class="cls-3" points="43.69 32.69 43.11 63.93 52.19 36.86 80.47 36.72 80.31 32.56 43.69 32.69"/><path class="cls-6" d="M58.45,35.19v0a5,5,0,0,1-4.87-4.66v-2H40.44v50l.46.23H41l1.56-4.65,1.27-3.8.58-31.23L81,39l.16,4.16h3.52V35.19Z" transform="translate(-0.73 -6.4)"/><polygon class="cls-6" points="83.99 36.7 82.06 36.71 80.47 36.72 52.19 36.86 43.11 63.93 41.84 67.72 40.28 72.37 43.11 72.36 82.06 72.27 86.31 72.25 87.79 67.72 97.99 36.63 83.99 36.7"/></svg>