<svg xmlns="http://www.w3.org/2000/svg" viewBox="0 0 99.01 102.47"><defs><style>.cls-1{isolation:isolate;}.cls-2{fill:#404d66;}.cls-3{opacity:0.2;mix-blend-mode:multiply;}.cls-4{fill:#f26527;}.cls-5{fill:#4fc6da;}.cls-6{fill:#e3e3e3;}.cls-7{fill:#fff;}</style></defs><title>live tv webcam</title><g class="cls-1"><g id="Layer_1" data-name="Layer 1"><path class="cls-2" d="M58.28,19.12a1.51,1.51,0,0,1-1.23-.62l-6.61-9a1.52,1.52,0,0,1,2.45-1.81l6.61,9a1.52,1.52,0,0,1-1.22,2.42Z" transform="translate(-15.02 -7.1)"/><path class="cls-2" d="M69.91,19.12a1.54,1.54,0,0,1-.9-.3,1.52,1.52,0,0,1-.32-2.12l6.61-9a1.52,1.52,0,0,1,2.45,1.81l-6.61,9A1.51,1.51,0,0,1,69.91,19.12Z" transform="translate(-15.02 -7.1)"/><path class="cls-2" d="M110.33,89.23H18.72A3.56,3.56,0,0,1,15,85.82V18.64a3.56,3.56,0,0,1,3.7-3.41h91.61a3.57,3.57,0,0,1,3.7,3.41V85.82A3.57,3.57,0,0,1,110.33,89.23ZM22.42,82.41h84.21V22.05H22.42Z" transform="translate(-15.02 -7.1)"/><rect class="cls-2" x="42.93" y="82.13" width="12.29" height="14.41"/><g class="cls-3"><rect class="cls-2" x="42.93" y="82.13" width="12.29" height="14.41"/></g><path class="cls-2" d="M33.28,96.53H64.87a5.58,5.58,0,0,1,5.58,5.58v.36a0,0,0,0,1,0,0H27.7a0,0,0,0,1,0,0v-.36A5.58,5.58,0,0,1,33.28,96.53Z"/><rect class="cls-4" x="7.4" y="14.95" width="84.21" height="60.36"/><path class="cls-5" d="M84.85,75.66q-4.38-9.18-8.75-18.38a17.23,17.23,0,0,1-24.29.06L43.08,75.66Z" transform="translate(-15.02 -7.1)"/><g class="cls-3"><path class="cls-5" d="M76.1,57.28a17.18,17.18,0,0,1-12.17,5h0V75.66H84.85Q80.47,66.48,76.1,57.28Z" transform="translate(-15.02 -7.1)"/></g><path class="cls-6" d="M63.93,26.59a18.49,18.49,0,1,0,18.49,18.5A18.5,18.5,0,0,0,63.93,26.59Z" transform="translate(-15.02 -7.1)"/><g class="cls-3"><path class="cls-6" d="M63.93,26.59v37a18.5,18.5,0,0,0,0-37Z" transform="translate(-15.02 -7.1)"/></g><path class="cls-2" d="M63.93,30.54A14.38,14.38,0,1,0,78.3,44.92,14.37,14.37,0,0,0,63.93,30.54Z" transform="translate(-15.02 -7.1)"/><g class="cls-3"><path class="cls-2" d="M63.93,30.54V59.29a14.38,14.38,0,0,0,0-28.75Z" transform="translate(-15.02 -7.1)"/></g><path class="cls-7" d="M58,40.56a1.88,1.88,0,1,1-1.88-1.87A1.88,1.88,0,0,1,58,40.56Z" transform="translate(-15.02 -7.1)"/></g></g></svg>