<svg xmlns="http://www.w3.org/2000/svg" viewBox="0 0 112.01 104.3"><defs><style>.cls-1{isolation:isolate;}.cls-2{fill:#365471;}.cls-3{fill:#404d66;}.cls-4{fill:#e3e2df;}.cls-5{fill:#eeedee;}.cls-6{fill:#fff;}.cls-7{fill:#e1754d;}.cls-8{fill:#f47f57;}.cls-9{fill:#33afbd;}.cls-10{opacity:0.2;mix-blend-mode:multiply;}.cls-11{fill:#88cb96;}.cls-12{fill:#f26527;}.cls-13{fill:#b4b4b4;}</style></defs><title>potrsit-landscape playback</title><g class="cls-1"><g id="Layer_1" data-name="Layer 1"><path class="cls-2" d="M116.57,8.58H12.3a4,4,0,0,0-3.84,4V86.19a4,4,0,0,0,3.84,4H116.57a4,4,0,0,0,3.84-4V12.62A4,4,0,0,0,116.57,8.58Z" transform="translate(-8.46 -6.79)"/><path class="cls-3" d="M64.43,8.58H12.3a4,4,0,0,0-3.84,4V86.19a4,4,0,0,0,3.84,4H64.44Z" transform="translate(-8.46 -6.79)"/><path class="cls-4" d="M115.44,78c0,.18-.2.33-.45.33H13.88c-.25,0-.45-.15-.45-.33V15.09c0-.19.2-.34.45-.34H115c.25,0,.45.15.45.34Z" transform="translate(-8.46 -6.79)"/><path class="cls-5" d="M115.31,78.26a.53.53,0,0,1-.32.1H13.88c-.25,0-.45-.15-.45-.33V15.09a.29.29,0,0,1,.13-.24C13.64,14.79,115.39,78.2,115.31,78.26Z" transform="translate(-8.46 -6.79)"/><rect class="cls-2" x="42.97" y="83.45" width="24.99" height="13.67"/><rect class="cls-3" x="42.97" y="83.45" width="13.01" height="13.67"/><path class="cls-2" d="M88.35,103.9H39.49a.12.12,0,0,0-.13.11v7a.12.12,0,0,0,.13.11H88.35a.13.13,0,0,0,.14-.11v-7A.13.13,0,0,0,88.35,103.9Z" transform="translate(-8.46 -6.79)"/><path class="cls-3" d="M64.44,103.9H39.49a.12.12,0,0,0-.13.11v7a.12.12,0,0,0,.13.11H64.43Z" transform="translate(-8.46 -6.79)"/><path class="cls-6" d="M112.42,83.56a2.12,2.12,0,1,1-2.12-2.12A2.12,2.12,0,0,1,112.42,83.56Z" transform="translate(-8.46 -6.79)"/><path class="cls-7" d="M111.85,83.56A1.55,1.55,0,1,1,110.3,82,1.54,1.54,0,0,1,111.85,83.56Z" transform="translate(-8.46 -6.79)"/><path class="cls-8" d="M110.3,85.11a1.55,1.55,0,0,1,0-3.1Z" transform="translate(-8.46 -6.79)"/><polygon class="cls-9" points="21.82 10.76 21.82 18.52 21.82 23.47 21.82 70.47 58.83 70.47 58.83 23.47 58.83 18.52 58.83 10.76 21.82 10.76"/><g class="cls-10"><polygon class="cls-3" points="40.32 10.71 40.32 18.39 40.32 23.3 40.32 69.87 58.83 69.87 58.83 23.3 58.83 18.39 58.83 10.71 40.32 10.71"/></g><polygon class="cls-11" points="95.66 27.26 88.49 27.26 83.9 27.26 40.42 27.26 40.42 64.27 83.9 64.27 88.49 64.27 95.66 64.27 95.66 27.26"/><g class="cls-10"><polygon class="cls-3" points="95.66 45.77 88.49 45.77 83.9 45.77 40.42 45.77 40.42 64.27 83.9 64.27 88.49 64.27 95.66 64.27 95.66 45.77"/></g><path class="cls-12" d="M103.71,6.79a16.77,16.77,0,1,0,16.76,16.76A16.76,16.76,0,0,0,103.71,6.79Z" transform="translate(-8.46 -6.79)"/><g class="cls-10"><path class="cls-12" d="M103.71,6.79V40.31a16.76,16.76,0,1,0,0-33.52Z" transform="translate(-8.46 -6.79)"/></g><polygon class="cls-6" points="105.45 16.55 96.42 11.34 87.39 6.13 87.39 16.55 87.39 26.98 96.42 21.77 105.45 16.55"/><g class="cls-10"><polygon class="cls-13" points="105.6 16.63 87.54 16.63 87.54 27.05 96.57 21.84 105.6 16.63"/></g></g></g></svg>