<svg xmlns="http://www.w3.org/2000/svg" viewBox="0 0 107.99 103.95"><defs><style>.cls-1{isolation:isolate;}.cls-2,.cls-8{mix-blend-mode:multiply;}.cls-3{fill:#f4773b;}.cls-4{fill:#f26527;}.cls-5{fill:#404d66;}.cls-6{fill:none;}.cls-7{fill:#4fc6da;}.cls-10,.cls-8{opacity:0.2;}.cls-9{fill:#f15947;}.cls-10{mix-blend-mode:screen;}.cls-11{fill:#fae480;}</style></defs><title>pre-defined templates</title><g class="cls-1"><g id="Layer_1" data-name="Layer 1"><g class="cls-2"><polygon class="cls-3" points="96.69 89.14 12.48 28.77 96.69 28.77 96.69 89.14"/></g><rect class="cls-4" x="12.12" y="28.25" width="83.76" height="67.92"/><path class="cls-5" d="M24.48,15.27V23H40.74l0-7.73a8.14,8.14,0,0,0-16.28,0Z" transform="translate(-10.54 -7.24)"/><rect class="cls-6" x="12.12" y="28.25" width="83.76" height="67.92"/><path class="cls-5" d="M19.38,29.27a3.2,3.2,0,0,0-3.27,3.11v71h6.54V35.5H40.71l0-6.23Z" transform="translate(-10.54 -7.24)"/><path class="cls-5" d="M109.69,29.27H93.1V35.5h13.32v67.91H113v-71A3.2,3.2,0,0,0,109.69,29.27Z" transform="translate(-10.54 -7.24)"/><path class="cls-7" d="M81.49,7.51,46.85,7.32,32.62,7.24a8.09,8.09,0,0,1,8.14,8V23h0v6.27l0,6.23-.07,29.37,0,30.68H93.1V19A11.59,11.59,0,0,0,81.49,7.51Z" transform="translate(-10.54 -7.24)"/><g class="cls-8"><path class="cls-9" d="M81.49,7.43,46.85,7.24l11.38.19a11.59,11.59,0,0,1,11.6,11.51V95.47H93.1V18.94A11.6,11.6,0,0,0,81.49,7.43Z" transform="translate(-10.54 -7.24)"/></g><path class="cls-5" d="M113,103.41H10.54v3.13a4.78,4.78,0,0,0,4.9,4.65h98.19a4.78,4.78,0,0,0,4.9-4.65v-3.13Z" transform="translate(-10.54 -7.24)"/><g class="cls-10"><path class="cls-5" d="M113,103.41H10.54v3.13a4.78,4.78,0,0,0,4.9,4.65h98.19a4.78,4.78,0,0,0,4.9-4.65v-3.13Z" transform="translate(-10.54 -7.24)"/></g><rect class="cls-11" x="46.81" y="39.97" width="31.85" height="23.39"/><g class="cls-8"><polygon class="cls-11" points="78.66 63.36 46.81 39.97 78.66 39.97 78.66 63.36"/></g><rect class="cls-11" x="46.56" y="66.39" width="32.31" height="6.31"/><g class="cls-8"><polygon class="cls-11" points="78.87 72.69 46.56 67.2 78.87 67.2 78.87 72.69"/></g><rect class="cls-11" x="32.8" y="58.01" width="32.54" height="10.98" transform="translate(102.04 7.19) rotate(90)"/><g class="cls-8"><polygon class="cls-11" points="33.04 72.53 44.03 39.99 44.03 72.53 33.04 72.53"/></g></g></g></svg>