<svg xmlns="http://www.w3.org/2000/svg" viewBox="0 0 100.31 105.76"><defs><style>.cls-1{isolation:isolate;}.cls-2{fill:#ccc;}.cls-3{opacity:0.2;mix-blend-mode:multiply;}.cls-4{fill:#989898;}.cls-5{fill:#4fc6da;}.cls-6{fill:#f15947;}.cls-7{fill:#fff;}.cls-8{fill:#404d66;}.cls-9{fill:#f26527;}.cls-10{fill:#b4b4b4;}</style></defs><title>start and end date</title><g class="cls-1"><g id="Layer_1" data-name="Layer 1"><path class="cls-2" d="M104.23,6.41V95.08h-63v5.22c0,6.37-6,11.54-13.47,11.54h0c-.44,0-.88,0-1.31-.06-6.83-.56-12.16-5.49-12.16-11.48v-85h0V6.41" transform="translate(-14.27 -6.08)"/><g class="cls-3"><rect class="cls-4" x="44.98" y="0.33" width="44.98" height="88.68"/></g><path class="cls-5" d="M114.57,95.08H41.21v5.22c0,6.37-6,11.54-13.47,11.54H101.1c7.44,0,13.47-5.17,13.47-11.54h0V95.08Z" transform="translate(-14.27 -6.08)"/><rect class="cls-5" y="0.33" width="89.96" height="11.22"/><g class="cls-3"><rect class="cls-6" x="44.91" y="0.33" width="45.05" height="11.22"/></g><path class="cls-7" d="M23,13.65a1.12,1.12,0,0,1-.32,0,1.81,1.81,0,0,1-.31-.09,2,2,0,0,1-.28-.16,1.41,1.41,0,0,1-.24-.2A1.64,1.64,0,0,1,21.33,12a1.69,1.69,0,0,1,.48-1.16,1.43,1.43,0,0,1,.24-.19,1.28,1.28,0,0,1,.28-.15,1.24,1.24,0,0,1,.31-.1,1.72,1.72,0,0,1,.64,0,1.32,1.32,0,0,1,.3.1,1.08,1.08,0,0,1,.28.15,1.5,1.5,0,0,1,.25.19A1.69,1.69,0,0,1,24.59,12a1.64,1.64,0,0,1-.48,1.14A1.71,1.71,0,0,1,23,13.65Z" transform="translate(-14.27 -6.08)"/><path class="cls-7" d="M34.39,12A1.63,1.63,0,0,1,36,10.39h0A1.62,1.62,0,0,1,37.64,12h0A1.62,1.62,0,0,1,36,13.64h0A1.63,1.63,0,0,1,34.39,12Z" transform="translate(-14.27 -6.08)"/><path class="cls-7" d="M49.08,13.65a1.22,1.22,0,0,1-.32,0,1.49,1.49,0,0,1-.3-.09,1.28,1.28,0,0,1-.28-.16,1.18,1.18,0,0,1-.25-.19A1.68,1.68,0,0,1,47.45,12a1.73,1.73,0,0,1,0-.32c0-.1.06-.21.1-.31a1.28,1.28,0,0,1,.15-.28,2.19,2.19,0,0,1,.2-.25,1.18,1.18,0,0,1,.25-.19.94.94,0,0,1,.28-.15,1.06,1.06,0,0,1,.3-.1,2.29,2.29,0,0,1,.64,0,1.06,1.06,0,0,1,.3.1.89.89,0,0,1,.27.15,1,1,0,0,1,.25.19c.08.08.14.17.21.25s.11.19.15.28a1.81,1.81,0,0,1,.09.31,1.73,1.73,0,0,1,0,.32,1.62,1.62,0,0,1-.48,1.15A1.66,1.66,0,0,1,49.08,13.65Z" transform="translate(-14.27 -6.08)"/><rect class="cls-8" x="9.64" y="24.02" width="71.23" height="55.54"/><g class="cls-3"><polygon class="cls-8" points="81.07 79.56 9.85 24.02 81.07 24.02 81.07 79.56"/></g><path class="cls-7" d="M91.22,44.74a1.51,1.51,0,0,1-.59-.11,1.55,1.55,0,0,1-.5-.33,1.58,1.58,0,0,1-.45-1.09,1.5,1.5,0,0,1,0-.29c0-.09.06-.2.1-.29a1.3,1.3,0,0,1,.14-.26,1.41,1.41,0,0,1,.18-.23,1.43,1.43,0,0,1,.24-.19,1.3,1.3,0,0,1,.26-.14l.29-.1a1.59,1.59,0,0,1,1.38.43,1.51,1.51,0,0,1,.45,1.07,1.54,1.54,0,0,1-.45,1.09,1.36,1.36,0,0,1-.5.33A1.43,1.43,0,0,1,91.22,44.74Z" transform="translate(-14.27 -6.08)"/><path class="cls-7" d="M89.69,64.05a1.53,1.53,0,0,1,1.52-1.53h0a1.54,1.54,0,0,1,1.54,1.53h0a1.53,1.53,0,0,1-1.54,1.53h0A1.53,1.53,0,0,1,89.69,64.05Zm0-10.41a1.53,1.53,0,0,1,1.52-1.53h0a1.53,1.53,0,0,1,1.54,1.53h0a1.54,1.54,0,0,1-1.54,1.53h0A1.53,1.53,0,0,1,89.69,53.64Z" transform="translate(-14.27 -6.08)"/><path class="cls-7" d="M91.21,76a1.61,1.61,0,0,1-1.08-.45,1.66,1.66,0,0,1-.42-1.39c0-.09.06-.19.1-.28a1.38,1.38,0,0,1,.14-.27,1.92,1.92,0,0,1,.18-.22,1.59,1.59,0,0,1,2.17,0,2,2,0,0,1,.19.22,1.38,1.38,0,0,1,.14.27,1,1,0,0,1,.08.28,1.55,1.55,0,0,1,0,.31,1.52,1.52,0,0,1-.44,1.08A1.56,1.56,0,0,1,91.21,76Z" transform="translate(-14.27 -6.08)"/><path class="cls-7" d="M27.63,44.74a1.51,1.51,0,0,1-.59-.11,1.41,1.41,0,0,1-.49-.33,1.51,1.51,0,0,1-.44-1.09,1.54,1.54,0,0,1,.44-1.07,1.37,1.37,0,0,1,.23-.19,1.65,1.65,0,0,1,.26-.14l.29-.1a2,2,0,0,1,.6,0l.28.1a1.15,1.15,0,0,1,.27.14,1.37,1.37,0,0,1,.23.19.83.83,0,0,1,.19.23,1.3,1.3,0,0,1,.14.26,1.61,1.61,0,0,1,.09.29,1.52,1.52,0,0,1-.42,1.38,1.29,1.29,0,0,1-.5.33A1.4,1.4,0,0,1,27.63,44.74Z" transform="translate(-14.27 -6.08)"/><path class="cls-7" d="M26.11,64.05a1.53,1.53,0,0,1,1.52-1.53h0a1.54,1.54,0,0,1,1.53,1.53h0a1.53,1.53,0,0,1-1.53,1.53h0A1.52,1.52,0,0,1,26.11,64.05Zm0-10.41a1.52,1.52,0,0,1,1.52-1.53h0a1.53,1.53,0,0,1,1.53,1.53h0a1.54,1.54,0,0,1-1.53,1.53h0A1.53,1.53,0,0,1,26.11,53.64Z" transform="translate(-14.27 -6.08)"/><path class="cls-7" d="M27.63,76a1.37,1.37,0,0,1-.59-.13,1.54,1.54,0,0,1-.49-.32,1.52,1.52,0,0,1-.44-1.08,1.55,1.55,0,0,1,0-.31,1.47,1.47,0,0,1,.08-.28,2.29,2.29,0,0,1,.14-.27,1.3,1.3,0,0,1,.19-.22l.23-.2.26-.14a1.57,1.57,0,0,1,.29-.08,1.52,1.52,0,0,1,1.38.42,1,1,0,0,1,.19.22,1.38,1.38,0,0,1,.14.27,1.52,1.52,0,0,1,.09.28,1.55,1.55,0,0,1,0,.31,1.53,1.53,0,0,1-.45,1.08A1.57,1.57,0,0,1,27.63,76Z" transform="translate(-14.27 -6.08)"/><path class="cls-8" d="M41.49,61.06c7.72,0,7.73-12,0-12s-7.73,12,0,12Z" transform="translate(-14.27 -6.08)"/><path class="cls-9" d="M95.75,6.08a18.34,18.34,0,1,0,18.33,18.33A18.34,18.34,0,0,0,95.75,6.08Z" transform="translate(-14.27 -6.08)"/><g class="cls-3"><path class="cls-9" d="M95.75,6.08V42.75a18.34,18.34,0,0,0,0-36.67Z" transform="translate(-14.27 -6.08)"/></g><polygon class="cls-7" points="92.64 18.11 82.76 12.41 72.88 6.7 72.88 18.11 72.88 29.52 82.76 23.81 92.64 18.11"/><g class="cls-3"><polygon class="cls-10" points="92.8 18.19 73.05 18.19 73.05 29.6 82.92 23.89 92.8 18.19"/></g><path class="cls-8" d="M60.81,59.07a2,2,0,1,1-2.79,0A2,2,0,0,1,60.81,59.07Z" transform="translate(-14.27 -6.08)"/><path class="cls-8" d="M58.45,59.57a.65.65,0,0,1-.93,0l-1-1a.66.66,0,0,1,.93-.93l1,1A.65.65,0,0,1,58.45,59.57Z" transform="translate(-14.27 -6.08)"/><path class="cls-8" d="M69.45,69.62l-1,1a.66.66,0,0,1-.93-.94l1-1a.67.67,0,0,1,.93,0A.65.65,0,0,1,69.45,69.62Z" transform="translate(-14.27 -6.08)"/><path class="cls-8" d="M51.39,70.73a.65.65,0,0,1-.93,0l-1-1a.66.66,0,1,1,.93-.93l1,1A.65.65,0,0,1,51.39,70.73Z" transform="translate(-14.27 -6.08)"/><path class="cls-9" d="M78.09,61.62a11.94,11.94,0,0,1,.73-3.84H41.12l4.6-4.6H40.18L33.66,59.7l6.52,6.52h5.54l-4.6-4.6Z" transform="translate(-14.27 -6.08)"/><path class="cls-9" d="M40.86,57.72a12.28,12.28,0,0,1-.73,3.85h37.7l-4.6,4.59h5.53l6.52-6.52-6.52-6.52H73.23l4.6,4.6Z" transform="translate(-14.27 -6.08)"/></g></g></svg>