<svg xmlns="http://www.w3.org/2000/svg" viewBox="0 0 103.63 103.63"><defs><style>.cls-1{isolation:isolate;}.cls-2{fill:#e3e3e3;}.cls-3{fill:#f26527;}.cls-4,.cls-9{opacity:0.2;}.cls-4{mix-blend-mode:multiply;}.cls-5{fill:#f15947;}.cls-6{fill:#fff;}.cls-7{fill:#4fc6da;}.cls-8{fill:#fae480;}.cls-9{mix-blend-mode:screen;}</style></defs><title>user accounts and permissions</title><g class="cls-1"><g id="Layer_1" data-name="Layer 1"><rect class="cls-2" width="103.63" height="103.63"/><rect class="cls-3" width="103.36" height="17.87"/><g class="cls-4"><rect class="cls-2" x="50.98" width="52.65" height="103.63"/></g><g class="cls-4"><rect class="cls-5" x="50.98" width="52.36" height="17.87"/></g><path class="cls-6" d="M21.89,18l-.29,0-.29-.09a2.2,2.2,0,0,1-.26-.15,1.88,1.88,0,0,1-.24-.18,1.57,1.57,0,0,1-.44-1.09,1.55,1.55,0,0,1,.44-1.08l.24-.18a1,1,0,0,1,.26-.15l.29-.09a1.61,1.61,0,0,1,1.39.42,1.58,1.58,0,0,1,.43,1.08A1.62,1.62,0,0,1,23,17.51,1.6,1.6,0,0,1,21.89,18Z" transform="translate(-12.86 -6.65)"/><path class="cls-6" d="M32.34,16.43a1.53,1.53,0,0,1,1.53-1.53h0a1.52,1.52,0,0,1,1.53,1.53h0A1.53,1.53,0,0,1,33.87,18h0A1.53,1.53,0,0,1,32.34,16.43Z" transform="translate(-12.86 -6.65)"/><path class="cls-6" d="M45.85,18a1.56,1.56,0,0,1-1.08-.45,1.54,1.54,0,0,1-.45-1.09,1.51,1.51,0,0,1,.45-1.08,1.59,1.59,0,0,1,2.16,0,1.55,1.55,0,0,1,.44,1.08A1.52,1.52,0,0,1,45.85,18Z" transform="translate(-12.86 -6.65)"/><path class="cls-6" d="M57.55,102.26a1.53,1.53,0,0,1-1.24-1.77h0a1.53,1.53,0,0,1,1.76-1.24h0A1.51,1.51,0,0,1,59.31,101h0a1.52,1.52,0,0,1-1.49,1.28h0A1.12,1.12,0,0,1,57.55,102.26ZM68.42,101a1.5,1.5,0,0,1,1.24-1.76h0a1.51,1.51,0,0,1,1.76,1.23h0a1.52,1.52,0,0,1-1.23,1.78h0a1.23,1.23,0,0,1-.27,0h0A1.52,1.52,0,0,1,68.42,101ZM45.66,97.94a1.5,1.5,0,0,1-.55-2.07h0a1.53,1.53,0,0,1,2.09-.57h0a1.54,1.54,0,0,1,.55,2.09h0a1.54,1.54,0,0,1-1.33.77h0A1.45,1.45,0,0,1,45.66,97.94ZM80,97.36a1.54,1.54,0,0,1,.55-2.09h0a1.53,1.53,0,0,1,2.09.55h0a1.52,1.52,0,0,1-.55,2.09h0a1.43,1.43,0,0,1-.76.21h0A1.54,1.54,0,0,1,80,97.36ZM36,89.83a1.52,1.52,0,0,1,.19-2.15h0a1.52,1.52,0,0,1,2.15.18h0A1.53,1.53,0,0,1,38.13,90h0a1.54,1.54,0,0,1-1,.36h0A1.52,1.52,0,0,1,36,89.83ZM89.59,90a1.53,1.53,0,0,1-.2-2.16h0a1.54,1.54,0,0,1,2.16-.18h0a1.53,1.53,0,0,1,.19,2.15h0a1.52,1.52,0,0,1-1.18.55h0A1.5,1.5,0,0,1,89.59,90Zm-60-11.06a1.52,1.52,0,0,1,.91-2h0a1.51,1.51,0,0,1,2,.91h0a1.51,1.51,0,0,1-.91,2h0a1.6,1.6,0,0,1-.53.09h0A1.51,1.51,0,0,1,29.63,78.91Zm66.47.84a1.52,1.52,0,0,1-.91-2h0a1.53,1.53,0,0,1,2-.91h0a1.54,1.54,0,0,1,.92,2h0a1.53,1.53,0,0,1-1.44,1h0A1.6,1.6,0,0,1,96.1,79.75ZM27.42,66.46a1.53,1.53,0,0,1,1.52-1.53h0a1.53,1.53,0,0,1,1.54,1.52h0A1.53,1.53,0,0,1,29,68h0A1.53,1.53,0,0,1,27.42,66.46Zm69.77-.07v0h0v-.08h0a1.53,1.53,0,0,1,1.52-1.54h0a1.53,1.53,0,0,1,1.54,1.52h0v.08h0v.07h0a1.53,1.53,0,0,1-1.53,1.53h0A1.52,1.52,0,0,1,97.19,66.39ZM30.5,56a1.52,1.52,0,0,1-.92-2h0a1.52,1.52,0,0,1,2-.92h0a1.53,1.53,0,0,1,.92,2h0a1.55,1.55,0,0,1-1.44,1h0A1.55,1.55,0,0,1,30.5,56Zm64.64-1.11a1.51,1.51,0,0,1,.91-2h0a1.52,1.52,0,0,1,2,.9h0a1.53,1.53,0,0,1-.9,2h0a1.46,1.46,0,0,1-.53.1h0A1.55,1.55,0,0,1,95.14,54.85ZM36.08,45.2a1.52,1.52,0,0,1-.2-2.15h0A1.52,1.52,0,0,1,38,42.86h0a1.52,1.52,0,0,1,.2,2.15h0a1.55,1.55,0,0,1-1.17.55h0A1.5,1.5,0,0,1,36.08,45.2Zm53.23-.35a1.53,1.53,0,0,1,.18-2.15h0a1.51,1.51,0,0,1,2.15.19h0A1.51,1.51,0,0,1,91.46,45h0a1.5,1.5,0,0,1-1,.36h0A1.53,1.53,0,0,1,89.31,44.85ZM45,37a1.53,1.53,0,0,1,.57-2.09h0a1.53,1.53,0,0,1,2.1.55h0a1.53,1.53,0,0,1-.55,2.09h0a1.54,1.54,0,0,1-.77.21h0A1.56,1.56,0,0,1,45,37Zm35.43.45a1.54,1.54,0,0,1-.56-2.09h0a1.55,1.55,0,0,1,2.09-.57h0a1.53,1.53,0,0,1,.56,2.09h0a1.5,1.5,0,0,1-1.32.78h0A1.57,1.57,0,0,1,80.41,37.44ZM56.17,32.32a1.53,1.53,0,0,1,1.24-1.78h0a1.52,1.52,0,0,1,1.77,1.24h0A1.53,1.53,0,0,1,58,33.55h0a1.27,1.27,0,0,1-.28,0h0A1.54,1.54,0,0,1,56.17,32.32Zm13.36,1.2a1.54,1.54,0,0,1-1.26-1.77h0a1.55,1.55,0,0,1,1.78-1.25h0a1.54,1.54,0,0,1,1.24,1.77h0a1.53,1.53,0,0,1-1.5,1.27h0Z" transform="translate(-12.86 -6.65)"/><path class="cls-7" d="M80,72.08c-.59-2.41-2.83-4.37-5-4.37H67.9v.58a4.07,4.07,0,0,1-8.13,0v-.58H52.69c-2.17,0-4.41,2-5,4.37q-1.56,6.65-3.1,13.27H83.08Q81.54,78.72,80,72.08Z" transform="translate(-12.86 -6.65)"/><path class="cls-8" d="M59.77,61.58v6.71a4.07,4.07,0,0,0,8.13,0V61.58a8.32,8.32,0,0,1-8.13,0Z" transform="translate(-12.86 -6.65)"/><path class="cls-8" d="M63.83,37.75c-5.56,0-10.08,5.57-10.08,12.45,0,5.08,2.48,9.45,6,11.38a8.32,8.32,0,0,0,8.13,0c3.54-1.93,6-6.3,6-11.38C73.92,43.32,69.4,37.75,63.83,37.75Z" transform="translate(-12.86 -6.65)"/><g class="cls-9"><path class="cls-8" d="M63.83,37.75c-5.56,0-10.08,5.57-10.08,12.45,0,5.08,2.48,9.45,6,11.38a8.32,8.32,0,0,0,8.13,0c3.54-1.93,6-6.3,6-11.38C73.92,43.32,69.4,37.75,63.83,37.75Z" transform="translate(-12.86 -6.65)"/></g><g class="cls-4"><path class="cls-7" d="M80,72.08c-.59-2.41-2.83-4.37-5-4.37H67.9v.58a4,4,0,0,1-4.07,3.93V85.35H83.08Q81.54,78.72,80,72.08Z" transform="translate(-12.86 -6.65)"/></g></g></g></svg>