<svg xmlns="http://www.w3.org/2000/svg" viewBox="0 0 103.69 102.76"><defs><style>.cls-1{isolation:isolate;}.cls-2{fill:#e6e6e5;}.cls-3,.cls-6{opacity:0.2;}.cls-3{mix-blend-mode:multiply;}.cls-4{fill:#ccc;}.cls-5{fill:#404d66;}.cls-6{mix-blend-mode:screen;}.cls-7{fill:none;}.cls-8{fill:#fae480;}.cls-9{fill:#f26527;}.cls-10{fill:#f47f57;}</style></defs><title>view and export reports</title><g class="cls-1"><g id="Layer_1" data-name="Layer 1"><rect class="cls-2" x="10.66" y="26.51" width="82.32" height="65.72"/><g class="cls-3"><polygon class="cls-4" points="92.98 92.22 10.66 26.51 92.98 26.51 92.98 92.22"/></g><path class="cls-5" d="M111.72,98.78h-99a10.54,10.54,0,0,0,10.54,10.54h82.56a10.54,10.54,0,0,0,10.54-10.54Z" transform="translate(-12.62 -6.56)"/><g class="cls-6"><path class="cls-5" d="M111.67,98.78h-99a10.54,10.54,0,0,0,10.54,10.54h82.56a10.54,10.54,0,0,0,10.54-10.54Z" transform="translate(-12.62 -6.56)"/></g><polygon class="cls-7" points="82.79 26.51 82.79 86.65 21.07 86.65 21.07 26.51 10.66 26.51 10.66 92.22 92.98 92.22 92.98 26.51 82.79 26.51"/><path class="cls-5" d="M33.69,33.06V26.94H20.22A3.06,3.06,0,0,0,17.16,30V98.78h6.12V33.06Z" transform="translate(-12.62 -6.56)"/><path class="cls-5" d="M108.66,26.94H95.41v6.12H105.6V98.78h6.12V30A3.06,3.06,0,0,0,108.66,26.94Z" transform="translate(-12.62 -6.56)"/><polygon class="cls-5" points="21.07 10.8 21.07 20.39 21.07 26.51 21.07 84.6 82.79 84.6 82.79 26.51 82.79 20.39 82.79 10.8 21.07 10.8"/><g class="cls-3"><polygon class="cls-5" points="51.93 10.8 51.93 20.39 51.93 26.51 51.93 84.6 82.79 84.6 82.79 26.51 82.79 20.39 82.79 10.8 51.93 10.8"/></g><rect class="cls-8" x="28.59" y="19.4" width="29.11" height="7.04"/><rect class="cls-8" x="63.72" y="19.4" width="11.55" height="7.04"/><rect class="cls-8" x="28.59" y="32.94" width="11.55" height="7.03"/><rect class="cls-8" x="46.15" y="32.94" width="11.55" height="7.03"/><rect class="cls-8" x="63.72" y="32.94" width="11.55" height="7.03"/><rect class="cls-8" x="28.59" y="46.48" width="7.04" height="7.04"/><rect class="cls-8" x="40.14" y="46.48" width="20.45" height="7.04"/><rect class="cls-8" x="66.37" y="46.48" width="8.89" height="7.04"/><rect class="cls-8" x="28.59" y="60.01" width="11.55" height="7.04"/><rect class="cls-8" x="46.15" y="60.01" width="11.55" height="7.04"/><rect class="cls-8" x="63.72" y="60.01" width="11.55" height="7.04"/><g class="cls-3"><polygon class="cls-8" points="57.7 26.43 28.59 19.4 57.7 19.4 57.7 26.43"/></g><g class="cls-3"><polygon class="cls-8" points="75.27 26.43 63.72 19.4 75.27 19.4 75.27 26.43"/></g><g class="cls-3"><polygon class="cls-8" points="40.14 39.97 28.59 32.94 40.14 32.94 40.14 39.97"/></g><g class="cls-3"><polygon class="cls-8" points="57.7 39.97 46.16 32.94 57.7 32.94 57.7 39.97"/></g><g class="cls-3"><polygon class="cls-8" points="75.27 39.97 63.72 32.94 75.27 32.94 75.27 39.97"/></g><g class="cls-3"><polygon class="cls-8" points="35.63 53.51 28.59 46.48 35.63 46.48 35.63 53.51"/></g><g class="cls-3"><polygon class="cls-8" points="60.59 53.51 40.14 46.48 60.59 46.48 60.59 53.51"/></g><g class="cls-3"><polygon class="cls-8" points="75.27 53.51 66.37 46.48 75.27 46.48 75.27 53.51"/></g><g class="cls-3"><polygon class="cls-8" points="40.14 67.05 28.59 60.02 40.14 60.02 40.14 67.05"/></g><g class="cls-3"><polygon class="cls-8" points="57.7 67.05 46.16 60.02 57.7 60.02 57.7 67.05"/></g><g class="cls-3"><polygon class="cls-8" points="75.27 67.05 63.72 60.02 75.27 60.02 75.27 67.05"/></g><path class="cls-9" d="M73.3,52.19V6.78a.2.2,0,0,0-.19-.22H56.48a.21.21,0,0,0-.19.22V52.24a55,55,0,0,0-6.83.31c-.28.42,14.61,26.51,15.33,26.56S80.41,53.17,80.13,52.55C80.05,52.36,77.21,52.24,73.3,52.19Z" transform="translate(-12.62 -6.56)"/><path class="cls-10" d="M64.68,6.56H56.42a.21.21,0,0,0-.19.22V52.24a55,55,0,0,0-6.83.31C49.12,53,64,79.06,64.74,79.11Z" transform="translate(-12.62 -6.56)"/></g></g></svg>