<?xml version="1.0" encoding="utf-8"?>
<!-- Generator: Adobe Illustrator 24.0.1, SVG Export Plug-In . SVG Version: 6.00 Build 0)  -->
<svg version="1.1" id="Capa_1" xmlns="http://www.w3.org/2000/svg" xmlns:xlink="http://www.w3.org/1999/xlink" x="0px" y="0px"
	 viewBox="0 0 161.2 161.2" style="enable-background:new 0 0 161.2 161.2;" xml:space="preserve">
<style type="text/css">
	.st0{fill:#E3E3E3;}
	.st1{fill:#FB6520;}
	.st2{opacity:0.2;}
	.st3{opacity:6.000000e-02;}
	.st4{fill:#40CDE0;}
	.st5{fill:#FEFFFF;}
	.st6{fill:#3F4D66;}
	.st7{fill:none;}
	.st8{fill:#FFFFFF;}
	.st9{font-family:'Lato-Regular';}
	.st10{font-size:17px;}
</style>
<g>
	<g>
		<rect x="29.2" y="30.7" class="st0" width="101.7" height="101.7"/>
	</g>
	<g>
		<rect x="29.2" y="30.7" class="st1" width="101.4" height="14.1"/>
	</g>
	<g class="st2">
		<rect x="79.2" y="30.7" class="st0" width="51.7" height="101.7"/>
	</g>
	<g class="st3">
		<rect x="79.2" y="30.7" class="st4" width="51.4" height="14.1"/>
	</g>
	<g>
		<g>
			<g>
				<path class="st5" d="M38,40.3c-0.1,0-0.2,0-0.3,0c-0.1,0-0.2,0-0.3-0.1c-0.1,0-0.2-0.1-0.3-0.1c-0.1,0-0.2-0.1-0.2-0.2
					c-0.3-0.3-0.4-0.7-0.4-1.1c0-0.4,0.2-0.8,0.4-1.1c0.1-0.1,0.1-0.1,0.2-0.2c0.1-0.1,0.2-0.1,0.3-0.1c0.1,0,0.2-0.1,0.3-0.1
					c0.5-0.1,1,0.1,1.4,0.4c0.3,0.3,0.4,0.7,0.4,1.1c0,0.4-0.2,0.8-0.4,1.1C38.8,40.1,38.4,40.3,38,40.3z"/>
			</g>
		</g>
		<g>
			<g>
				<path class="st5" d="M48.3,38.8c0-0.8,0.7-1.5,1.5-1.5l0,0c0.8,0,1.5,0.7,1.5,1.5l0,0c0,0.8-0.7,1.5-1.5,1.5l0,0
					C49,40.2,48.3,39.6,48.3,38.8z"/>
			</g>
		</g>
		<g>
			<g>
				<path class="st5" d="M61.5,40.3c-0.4,0-0.8-0.2-1.1-0.4c-0.3-0.3-0.4-0.7-0.4-1.1c0-0.4,0.2-0.8,0.4-1.1c0.6-0.6,1.6-0.6,2.1,0
					c0.3,0.3,0.4,0.7,0.4,1.1c0,0.4-0.2,0.8-0.4,1.1C62.3,40.1,61.9,40.3,61.5,40.3z"/>
			</g>
		</g>
	</g>
</g>
<g>
	<rect x="92.1" y="56.7" class="st6" width="25.5" height="25.5"/>
</g>
<g>
	<rect x="92.1" y="93.5" class="st6" width="25.5" height="25.5"/>
</g>
<g class="st2">
	<polygon class="st6" points="117.6,82.2 92.1,56.7 117.6,56.7 	"/>
</g>
<g class="st2">
	<polygon class="st6" points="117.6,119 92.1,93.5 117.6,93.5 	"/>
</g>
<g>
	<g>
		<path class="st1" d="M104,115.1c-0.6,0-1.1-0.3-1.4-0.9l-4.5-9.7c-0.3-0.8,0-1.6,0.7-2c0.8-0.3,1.6,0,2,0.7l3.1,6.7l4.8-11.3
			c0.3-0.8,1.2-1.1,2-0.8c0.8,0.3,1.1,1.2,0.8,2l-6.2,14.4C105.2,114.7,104.7,115.1,104,115.1C104.1,115.1,104.1,115.1,104,115.1z"
			/>
	</g>
</g>
<g>
	<g>
		<path class="st5" d="M79,66.8H39.5c-0.8,0-1.5-0.7-1.5-1.5c0-0.8,0.7-1.5,1.5-1.5H79c0.8,0,1.5,0.7,1.5,1.5
			C80.5,66.2,79.9,66.8,79,66.8z"/>
	</g>
</g>
<g>
	<g>
		<path class="st5" d="M79,76.4H39.5c-0.8,0-1.5-0.7-1.5-1.5s0.7-1.5,1.5-1.5H79c0.8,0,1.5,0.7,1.5,1.5S79.9,76.4,79,76.4z"/>
	</g>
</g>
<g>
	<g>
		<path class="st5" d="M79,103.2H39.5c-0.8,0-1.5-0.7-1.5-1.5c0-0.8,0.7-1.5,1.5-1.5H79c0.8,0,1.5,0.7,1.5,1.5
			C80.5,102.6,79.9,103.2,79,103.2z"/>
	</g>
</g>
<g>
	<g>
		<path class="st5" d="M79,112.8H39.5c-0.8,0-1.5-0.7-1.5-1.5c0-0.8,0.7-1.5,1.5-1.5H79c0.8,0,1.5,0.7,1.5,1.5
			C80.5,112.1,79.9,112.8,79,112.8z"/>
	</g>
</g>
<g>
	<g>
		<path class="st4" d="M114.3,75.4c0-1-1-1.9-2.2-1.9h-5.4v-2.3l0,0c1.7-0.9,2.9-2.8,2.9-5.1c0-0.3,0-0.6-0.1-1
			c-0.1-0.5-0.2-1-0.4-1.4c-0.8-1.9-2.4-3.2-4.3-3.2c-1.9,0-3.6,1.3-4.3,3.2c-0.2,0.6-0.4,1.2-0.4,1.8c0,0.2,0,0.4,0,0.5
			c0,2.3,1.2,4.3,3,5.1v0v2.2h-5.4c-1.2,0-2.2,0.9-2.2,1.9l-0.4,3.5h19.9L114.3,75.4z"/>
	</g>
	<g class="st2">
		<path class="st4" d="M114.3,75.3c0-1-1-1.9-2.2-1.9h-5.4v-2.3h0c1.7-0.9,2.9-2.8,2.9-5.1c0-0.3,0-0.6-0.1-1
			c-0.1-0.5-0.2-1-0.4-1.4c-0.8-1.9-2.4-3.2-4.3-3.2v18.2h10L114.3,75.3z"/>
	</g>
</g>
<path class="st1" d="M117.3,119.4H39.5c-1.6,0-2.8-1.3-2.8-2.8V93.8c0-1.6,1.3-2.8,2.8-2.8h77.8c1.6,0,2.8,1.3,2.8,2.8v22.8
	C120.2,118.1,118.9,119.4,117.3,119.4z"/>
<rect x="43.7" y="98.9" class="st7" width="69.9" height="27"/>
<text transform="matrix(1 0 0 1 45.4338 111.4828)" class="st8 st9 st10">SIGN UP</text>
</svg>
