<?xml version="1.0" encoding="utf-8"?>
<!-- Generator: Adobe Illustrator 24.0.1, SVG Export Plug-In . SVG Version: 6.00 Build 0)  -->
<svg version="1.1" id="Capa_1" xmlns="http://www.w3.org/2000/svg" xmlns:xlink="http://www.w3.org/1999/xlink" x="0px" y="0px"
	 viewBox="0 0 161.2 161.2" style="enable-background:new 0 0 161.2 161.2;" xml:space="preserve">
<style type="text/css">
	.st0{fill:#365370;}
	.st1{fill:#3F4D66;}
	.st2{fill:#4BBDD1;}
	.st3{fill:#40CDE0;}
	.st4{fill:#FF5642;}
	.st5{opacity:0.2;}
	.st6{fill:#FEFFFF;}
	.st7{fill:#FB6520;}
	.st8{fill:#FFFFFF;}
</style>
<g>
	<path class="st0" d="M132.7,61.4H29.1c-2.1,0-3.8,1.5-3.8,3.3v59.8c0,1.8,1.7,3.3,3.8,3.3H68h24.8h39.9c2.1,0,3.8-1.5,3.8-3.3V64.6
		C136.6,62.8,134.9,61.4,132.7,61.4z"/>
</g>
<g>
	<path class="st1" d="M80.9,61.4H29.1c-2.1,0-3.8,1.5-3.8,3.3v59.8c0,1.8,1.7,3.3,3.8,3.3H68h12.9L80.9,61.4z"/>
</g>
<g>
	<path class="st2" d="M131.6,117.8c0,0.2-0.2,0.3-0.4,0.3H30.7c-0.2,0-0.4-0.1-0.4-0.3V66.7c0-0.2,0.2-0.3,0.4-0.3h100.5
		c0.2,0,0.4,0.1,0.4,0.3V117.8z"/>
</g>
<g>
	<path class="st3" d="M131.5,118c-0.1,0.1-0.2,0.1-0.3,0.1H30.7c-0.2,0-0.4-0.1-0.4-0.3V66.7c0-0.1,0.1-0.1,0.1-0.2
		C30.4,66.4,131.6,117.9,131.5,118z"/>
</g>
<polyline class="st1" points="136.7,56.5 136.7,29.3 25.3,29.3 25.3,56.5 "/>
<polyline class="st1" points="136.7,56.5 136.7,29.3 81,29.3 81,56.5 "/>
<g>
	<g>
		<g>
			<path class="st4" d="M44,36.7c-3.3,0-6,2.5-6,5.5c0,2,1.2,3.8,3,4.8c0.9,0.5,1.9,0.7,3,0.7c2,0,3.7-0.9,4.8-2.3
				c0.7-0.9,1.2-2,1.2-3.2C50,39.2,47.3,36.7,44,36.7z"/>
		</g>
	</g>
	<g class="st5">
		<g>
			<path class="st4" d="M44,36.7v11c2,0,3.7-0.9,4.8-2.3c0.7-0.9,1.2-2,1.2-3.2C50,39.2,47.3,36.7,44,36.7z"/>
		</g>
	</g>
</g>
<g>
	<g>
		<path class="st6" d="M99.8,47.5c-0.9,0-1.7-0.7-1.7-1.5v-9.4c0-0.8,0.8-1.5,1.7-1.5s1.7,0.7,1.7,1.5v9.4
			C101.5,46.8,100.7,47.5,99.8,47.5z"/>
	</g>
</g>
<g>
	<g>
		<path class="st6" d="M111.6,47.5c-0.9,0-1.7-0.7-1.7-1.5v-9.4c0-0.8,0.8-1.5,1.7-1.5c0.9,0,1.7,0.7,1.7,1.5v9.4
			C113.3,46.8,112.5,47.5,111.6,47.5z"/>
	</g>
</g>
<g>
	<g>
		<path class="st6" d="M123.4,47.5c-0.9,0-1.7-0.7-1.7-1.5v-9.4c0-0.8,0.8-1.5,1.7-1.5c0.9,0,1.7,0.7,1.7,1.5v9.4
			C125.1,46.8,124.3,47.5,123.4,47.5z"/>
	</g>
</g>
<polyline class="st7" points="72.9,25.3 72.9,53.8 72.9,90 64.8,90 72.9,103.2 80.9,116.5 89,103.2 97,90 89,90 89,53.8 89,25.3 "/>
<polyline class="st4" points="80.9,25.3 80.9,116.5 80.9,116.5 89,103.2 97,90 89,90 89,53.8 89,25.3 "/>
<path class="st8" d="M55.2,76.2l2.2-3.4c0.1-0.2,0.1-0.5-0.1-0.7c-0.2-0.1-0.5-0.1-0.7,0.1l-2.3,3.6c-1.7-0.7-3.7-1.1-5.7-1.1
	c-2.1,0-4,0.4-5.7,1.1l-2.3-3.6c-0.1-0.2-0.4-0.3-0.7-0.1c-0.2,0.1-0.3,0.4-0.1,0.7l2.2,3.4c-4,2-6.7,5.7-6.7,10c0,0.3,0,0.5,0,0.8
	h26.6c0-0.3,0-0.5,0-0.8C62,81.9,59.2,78.1,55.2,76.2z M42.5,82.3c-0.7,0-1.3-0.6-1.3-1.3s0.6-1.3,1.3-1.3c0.7,0,1.3,0.6,1.3,1.3
	S43.2,82.3,42.5,82.3z M54.8,82.3c-0.7,0-1.3-0.6-1.3-1.3s0.6-1.3,1.3-1.3c0.7,0,1.3,0.6,1.3,1.3C56.1,81.8,55.5,82.3,54.8,82.3z"/>
<path class="st8" d="M58.4,111.4c0,0-0.1-0.1-0.2-0.1c-0.1-0.1-0.2-0.1-0.3-0.2c-0.1,0-0.2-0.1-0.3-0.2c-0.1-0.1-0.2-0.2-0.3-0.4
	c-0.1-0.1-0.1-0.3-0.2-0.5c-0.1-0.2-0.1-0.5-0.1-0.7c-0.1,0.1-0.2,0.3-0.2,0.6c0,0.3,0.1,0.6,0.2,0.9c0.1,0.3,0.4,0.5,0.6,0.6
	c0.3,0.1,0.5,0.2,0.7,0.3c0.2,0.1,0.3,0.2,0.3,0.4c0,0.1,0,0.3-0.2,0.4c-0.2,0.2-0.5,0.3-1,0.5c-0.6,0.2-1.1,0.4-1.3,0.6
	c-0.3,0.2-0.6,0.4-1.2,0.9c-0.3,0.3-0.7,0.4-1.1,0.5c-0.4,0-0.7-0.1-0.9-0.4c-0.2-0.3-0.3-0.7-0.2-1.3c0.2-1.1,0.2-1.9,0-2.5
	c-0.1-0.5-0.2-0.9-0.1-1.3c0.1-0.4,0.2-0.6,0.4-0.6c0.2-0.1,0.3,0.1,0.5,0.4c0,0,0.1,0.1,0.1,0.3c0.1,0.1,0.1,0.2,0.1,0.3
	c0,0.1,0.1,0.1,0.2,0.2c0.1,0.1,0.2,0.1,0.3,0.2c0.1,0,0.3,0.1,0.4,0.1c0.3,0,0.6-0.1,0.8-0.2c0.2-0.1,0.4-0.3,0.5-0.4
	c0.1-0.2,0.2-0.3,0.3-0.5c0.1-0.1,0.2-0.2,0.3-0.2c0.1,0,0.2-0.1,0.3-0.3c0.1-0.2,0.1-0.4,0.2-0.7c0-0.3,0-0.7-0.1-1.1
	c-0.1-0.8-0.4-1.6-0.8-2.5c-0.4-0.9-0.8-1.6-1.3-2.1c-0.9-0.9-1.4-1.8-1.7-2.8c-0.3-1-0.4-2-0.4-2.8c0-0.6-0.1-1.2-0.4-1.9
	s-0.7-1.2-1.2-1.6c-0.3-0.2-0.7-0.4-1.2-0.5c-0.5-0.1-0.9-0.2-1.4-0.2c-0.6,0-1,0.1-1.3,0.3c-0.7,0.4-1.1,0.8-1.4,1.4
	c-0.2,0.5-0.3,1.2-0.3,2c0,1.7,0.1,3,0.2,4c-0.1,0.4-0.7,1.3-1.6,2.5c-0.2,0.2-0.3,0.4-0.5,0.7c-0.2,0.3-0.3,0.6-0.4,0.8
	c-0.1,0.2-0.2,0.6-0.4,1c-0.2,0.4-0.3,0.8-0.3,0.9c-0.1,0.2-0.2,0.3-0.3,0.5c-0.1,0.2-0.2,0.4-0.3,0.6c-0.1,0.2-0.1,0.4-0.1,0.7
	c0,0.2,0,0.4,0,0.5c0,0.2,0.1,0.3,0.2,0.2c0.4-0.3,0.9-0.1,1.5,0.5c0.4,0.4,1.1,1.5,2.2,3.1c0.1,0.1,0.2,0.3,0.3,0.5
	c0.1,0.2,0.2,0.4,0.2,0.7c0.1,0.3,0.1,0.5,0.1,0.8c0,0.2-0.1,0.4-0.3,0.6c-0.2,0.2-0.5,0.3-0.8,0.4c-0.2,0-0.4,0-0.7-0.1
	c-0.3-0.1-0.6-0.2-1.1-0.3c-0.4-0.1-0.8-0.2-1-0.3c-0.3-0.1-0.7-0.2-1.3-0.3c-0.6-0.1-0.9-0.2-1.1-0.2c-0.3-0.1-0.5-0.2-0.5-0.3
	c0-0.1,0-0.3,0.2-0.6c0.1-0.3,0.2-0.5,0.2-0.6c0-0.1,0-0.2,0-0.3c0-0.1,0-0.2-0.1-0.2c0-0.1-0.1-0.1-0.1-0.2
	c-0.1-0.1-0.1-0.2-0.1-0.2c-0.2-0.4-0.2-0.6-0.1-0.7c0.1-0.1,0.3-0.2,0.6-0.1c0.4,0,0.8,0,1.1-0.2c0.5-0.3,0.6-0.7,0.4-1.4
	c0,0.3-0.1,0.5-0.2,0.7c-0.1,0.1-0.3,0.3-0.5,0.5c-0.1,0.1-0.4,0.1-0.8,0.2c-0.4,0-0.6,0.1-0.7,0.2c-0.1,0.1-0.1,0.2-0.1,0.3
	c0,0.2,0,0.3,0.1,0.5c0,0.2,0.1,0.3,0.1,0.6c0,0.2,0.1,0.4,0.1,0.5c0,0.1-0.1,0.3-0.2,0.7c-0.1,0.4-0.2,0.7-0.1,0.9
	c0,0.1,0.1,0.2,0.2,0.3c0.1,0.1,0.2,0.1,0.4,0.2c0.2,0.1,0.4,0.1,0.5,0.1c0.2,0,0.4,0.1,0.6,0.1c0.3,0,0.5,0.1,0.7,0.1
	c0.6,0.1,1.2,0.3,1.9,0.6c0.7,0.3,1.2,0.4,1.4,0.4c0.2,0,0.5,0,0.7-0.1c0.2-0.1,0.4-0.2,0.6-0.4c0.2-0.1,0.4-0.3,0.7-0.4
	c0.3-0.1,0.6-0.2,1-0.2c0.2,0,0.4,0,0.8,0s0.6,0,0.7,0c0.7,0,1.3,0,1.7,0c0.3,0,0.5,0,0.6,0.1c0.1,0.1,0.2,0.2,0.3,0.3
	c0,0.1,0.1,0.2,0.2,0.3c0.1,0.1,0.2,0.2,0.4,0.3c0.3,0.2,0.7,0.2,1.2,0.2c0.4,0,0.7-0.1,0.9-0.3c0.2-0.2,0.6-0.5,1-0.8
	c0.4-0.3,0.8-0.6,1.1-0.7c0.1,0,0.2-0.1,0.3-0.2c0.2-0.1,0.3-0.1,0.4-0.2c0.1-0.1,0.2-0.1,0.4-0.2c0.2-0.1,0.3-0.2,0.4-0.2
	c0.1-0.1,0.2-0.2,0.3-0.3c0.1-0.1,0.2-0.2,0.2-0.3c0-0.1,0-0.2,0-0.3c0-0.1-0.1-0.2-0.2-0.3C58.7,111.6,58.6,111.5,58.4,111.4z
	 M51.8,99.2C51.9,99.1,51.9,99.1,51.8,99.2c0.1,0,0.1,0,0.1,0c0,0,0,0.1,0.1,0.1c0,0,0.1,0.1,0.1,0.1c0,0,0.1,0.1,0.1,0.1
	c0.1,0,0.1,0.1,0.2,0.1c0.1,0,0.1,0,0.2,0.1c0,0,0.1,0.1,0.1,0.1c0,0.1,0,0.2,0,0.3c0,0.1-0.1,0.1-0.2,0.1c-0.2,0-0.3-0.2-0.5-0.4
	C51.8,99.5,51.7,99.3,51.8,99.2z M50.2,94.1c0-0.1,0.1-0.1,0.1-0.1c0-0.1,0-0.1,0-0.2c0-0.1,0-0.1,0-0.2c0-0.1,0.1-0.1,0.1-0.1
	c0.1,0,0.2,0.1,0.3,0.2c0,0,0.1,0,0.1,0.1c0.1,0,0.1,0.1,0.1,0.1c0,0,0,0,0,0.1c0,0-0.1,0.1-0.1,0.1c-0.1,0-0.1,0-0.2,0
	c-0.1,0-0.1,0-0.1,0c-0.1,0-0.1,0.1-0.2,0.1c-0.1,0.1-0.1,0.1-0.1,0.1c0,0-0.1,0-0.1,0c0-0.1,0-0.1,0-0.1
	C50.2,94.2,50.2,94.2,50.2,94.1z M44,103.8c0.1-0.1,0.1-0.1,0.1-0.2c0,0,0-0.1,0.1-0.2c0-0.1,0-0.1,0.1-0.2c0,0,0,0,0.1,0
	c0,0,0,0,0,0c0,0,0,0,0,0c0,0,0,0,0,0c0,0,0,0,0,0.1c0,0,0,0,0,0.1c0,0,0,0,0,0.1c0,0,0,0.1,0,0.1c0,0.1-0.1,0.2-0.2,0.2
	C44,104,44,104,44,104C43.9,104,43.9,103.9,44,103.8z M52.4,110.9c0.1,0.5,0.1,0.8,0.1,1c0,0.3-0.1,0.7-0.2,1.2
	c-0.1,0.5-0.2,0.8-0.2,1c-0.2,0-0.3-0.1-0.3-0.2c0-0.1,0-0.3,0.1-0.5c0.2-0.6,0.3-1,0.3-1.2c0-0.4,0-0.6-0.1-0.7
	c-0.1-0.1-0.2,0.1-0.4,0.4c-0.4,0.6-1.1,1-2.3,1.1c-1,0.1-1.8,0-2.1-0.5c-0.1-0.1-0.2-0.1-0.3,0c-0.1,0-0.1,0.1-0.2,0.1
	c0,0,0,0,0,0.1c0,0,0.1,0.1,0.1,0.2c0.1,0.1,0.1,0.1,0.1,0.2c0.3,0.6,0.3,1-0.1,1.2c0-0.4,0-0.7-0.1-0.9c-0.1-0.2-0.2-0.4-0.4-0.7
	c-0.2-0.3-0.3-0.4-0.4-0.6c0.3,0,0.5-0.1,0.6-0.3c0.1-0.2,0.2-0.4,0.2-0.6c0-0.2-0.1-0.4-0.2-0.5c-0.1-0.1-0.5-0.4-1.2-1
	c-0.7-0.6-1.2-1-1.3-1.2c0,0-0.1-0.1-0.3-0.3c-0.2-0.1-0.3-0.3-0.3-0.4c-0.4-0.9-0.4-1.6-0.1-2.1l0.1-0.1c0,0,0,0.1,0,0.2
	c-0.1,0.2-0.1,0.5-0.1,0.7c0,0.5,0.2,0.9,0.5,1.2c0.2,0.2,0.3,0.2,0.4,0c0.1-0.1,0.1-0.3,0.1-0.8c0-0.4,0-0.7,0-0.9
	c0.1-0.5,0.3-1.1,0.6-1.8c0.3-0.7,0.6-1.1,0.8-1.2c-0.2-0.2-0.2-0.5-0.1-0.8c0.1-0.3,0.1-0.5,0.3-0.8c0.1-0.2,0.3-0.4,0.4-0.7
	c0.1-0.3,0.2-0.5,0.2-0.7c0-0.1,0-0.1,0-0.1c0-0.1,0.1,0,0.3,0.3c0.4,0.5,0.6,0.9,0.8,0.9c0.2,0.1,0.4,0.1,0.6,0
	c0.2-0.1,0.5-0.3,0.9-0.6c0.3-0.3,0.6-0.4,0.9-0.6c0,0,0.1,0,0.1-0.1c0.1,0,0.1-0.1,0.1-0.1c0,0,0.1,0,0.1-0.1c0,0,0.1,0,0.1-0.1
	c0,0,0.1,0,0.1-0.1c0,0,0,0,0.1-0.1c0,0,0,0,0-0.1c0-0.1-0.1-0.1-0.1-0.1c-0.1,0-0.1,0-0.2,0c-0.1,0-0.2,0.1-0.3,0.2
	c-0.1,0.1-0.2,0.1-0.4,0.2c-0.1,0.1-0.3,0.2-0.4,0.2c-0.1,0.1-0.3,0.1-0.5,0.2c-0.2,0.1-0.3,0.1-0.5,0.1c-0.4,0-0.7-0.1-0.9-0.3
	c-0.1-0.1-0.2-0.2-0.2-0.2c0,0,0,0,0.1,0c0.5,0.1,0.8,0.1,1,0c0.2,0,0.5-0.1,0.9-0.3c0.1,0,0.3-0.1,0.6-0.3c0.3-0.1,0.6-0.2,0.7-0.3
	c0.1,0,0.2-0.1,0.2-0.1c0-0.1,0.1-0.1,0-0.2c0,0,0-0.1-0.1-0.1c-0.1-0.1-0.2,0-0.3,0.1c0,0.1-0.1,0.2-0.3,0.2
	c-0.1,0.1-0.3,0.1-0.4,0.2c-0.1,0-0.3,0.1-0.4,0.1c-0.2,0.1-0.3,0.1-0.3,0.1c-0.5,0.1-0.9,0.2-1.3,0.2c-0.2,0-0.3,0-0.5-0.1
	c-0.1,0-0.2-0.1-0.2-0.2c0-0.1-0.1-0.1-0.2-0.2c-0.1-0.1-0.2-0.2-0.3-0.3c-0.1,0-0.1-0.1-0.1-0.2c0-0.1,0.1-0.2,0.2-0.3
	c0,0,0.1-0.1,0.3-0.2c0.2-0.1,0.3-0.2,0.4-0.3c0.1-0.1,0.2-0.2,0.4-0.4c0,0,0-0.1,0-0.3c0-0.2,0-0.3-0.1-0.5
	c-0.1-0.2-0.2-0.3-0.3-0.3c-0.2,0-0.4,0.1-0.4,0.2c-0.1,0.1-0.1,0.3-0.1,0.5c0,0.2,0,0.3,0.1,0.4c0.1,0.1,0.1,0.2,0.2,0.2
	c0.1,0,0.1,0,0.1,0.1c-0.1,0.1-0.1,0.2-0.2,0.2c-0.1,0-0.1,0-0.2-0.2c-0.1-0.1-0.1-0.3-0.2-0.5c0-0.2-0.1-0.4,0-0.5
	c0-0.3,0.1-0.5,0.2-0.8c0.1-0.2,0.3-0.4,0.5-0.4c0.2,0,0.4,0.2,0.6,0.4c0.1,0.3,0.2,0.7,0.2,1.2c0,0.1,0.1,0.1,0.2,0.1
	c0.1,0,0.3,0,0.4,0c0.2,0,0.3,0.1,0.4,0.1c0,0,0-0.1,0-0.2c-0.2-1.1,0.2-1.7,1.2-1.7c0.1,0,0.3,0.1,0.3,0.1c0.1,0,0.2,0.1,0.3,0.2
	c0.1,0.1,0.2,0.2,0.3,0.4c0.1,0.2,0.1,0.4,0.2,0.6c0,0,0,0.2,0,0.5c0,0.3-0.1,0.4-0.2,0.5c-0.2,0.1-0.3,0.1-0.4,0
	c-0.1-0.1-0.1-0.2,0-0.3c0.1-0.2,0.1-0.5-0.1-0.8c-0.1-0.3-0.3-0.4-0.7-0.4c-0.2,0-0.4,0.1-0.5,0.3c-0.1,0.2-0.1,0.4-0.1,0.7
	c0,0.2,0.1,0.3,0.1,0.3c0.1,0,0.2,0.1,0.5,0.2c0.3,0.1,0.4,0.2,0.6,0.2c0.3,0.1,0.5,0.2,0.6,0.3c0,0.1,0,0.4-0.1,0.6
	c-0.1,0.3-0.1,0.5-0.1,0.7c0,0.2,0.1,0.4,0.2,0.5c0.1,0.2,0.2,0.3,0.3,0.4c0.1,0.1,0.2,0.4,0.4,0.7c0.1,0.4,0.3,0.8,0.4,1.3
	c0,0,0,0,0.1,0.1c0.1,0.1,0.1,0.1,0.2,0.2c0.1,0.1,0.1,0.2,0.2,0.3c0.1,0.1,0.2,0.3,0.3,0.6c0.1,0.3,0.2,0.6,0.3,0.9
	c0.1,0.4,0.1,0.9,0.1,1.4c0,0.5,0,0.9,0.1,1.1s0.2,0.3,0.5,0.2c0.3,0,0.6-0.2,0.6-0.5c0.3-1,0.1-2.2-0.7-3.6
	c-0.3-0.5-0.5-0.9-0.7-1.1c0.3,0.2,0.6,0.5,0.9,1c0.3,0.5,0.5,0.9,0.6,1.3c0,0,0,0.2,0.1,0.3c0,0.2,0.1,0.3,0.1,0.3
	c0,0,0,0.1,0.1,0.3c0,0.1,0,0.2,0,0.3c0,0,0,0.1,0,0.3c0,0.1,0,0.2,0,0.3c0,0.1,0,0.2,0,0.3c0,0.1,0,0.2-0.1,0.3
	c0,0.1-0.1,0.2-0.1,0.4c0.5,0.2,0.7,0.4,0.7,0.5c-0.2-0.1-0.4-0.2-0.8-0.3c-0.3,0-0.6,0-0.9,0.1c-0.3,0.1-0.4,0.4-0.4,0.7
	c-0.3,0-0.5,0.1-0.7,0.2c-0.2,0.2-0.3,0.5-0.3,0.9C52.3,110,52.3,110.4,52.4,110.9z M47,96.8C47,96.8,47,96.8,47,96.8
	c-0.1-0.2,0-0.2,0.1-0.2c0.1,0,0.1,0.1,0.1,0.2c0,0.1,0.1,0.2,0,0.4c0,0,0,0,0,0c-0.1,0-0.1-0.1-0.1-0.3
	C47.1,96.9,47.1,96.8,47,96.8z M50.4,97L50.4,97c-0.1,0.1-0.1,0.1-0.1,0.1c0-0.2-0.1-0.4-0.2-0.4c0,0,0,0-0.1,0
	c-0.1-0.1,0-0.1,0.1-0.1c0,0,0.1,0,0.1,0c0.1,0,0.1,0.1,0.1,0.2C50.3,96.8,50.4,96.9,50.4,97z"/>
<g>
	<g>
		<polygon class="st8" points="99.2,96 99.2,103 108.9,103 108.9,94.8 		"/>
	</g>
</g>
<g>
	<g>
		<polygon class="st8" points="110.3,94.6 110.3,103 121.4,103 121.4,93.3 		"/>
	</g>
</g>
<g>
	<g>
		<polygon class="st8" points="110.3,104.4 110.3,112.7 121.4,114.1 121.4,104.4 		"/>
	</g>
</g>
<g>
	<g>
		<polygon class="st8" points="99.2,104.4 99.2,111.3 108.9,112.5 108.9,104.4 		"/>
	</g>
</g>
<path class="st8" d="M109.8,68.9c-5.8,0-10.6,4.7-10.6,10.6c0,5.8,4.7,10.6,10.6,10.6c5.8,0,10.6-4.7,10.6-10.6
	C120.4,73.6,115.6,68.9,109.8,68.9z"/>
<g>
	<path class="st2" d="M110,74.7h-0.5c-0.2,0-0.3,0.1-0.3,0.3v8.9c0,0.2,0.1,0.3,0.3,0.3h2.5c0.2,0,0.3-0.1,0.3-0.3v-0.4
		c0-0.2-0.1-0.3-0.3-0.3h-1.8V75C110.3,74.9,110.2,74.7,110,74.7z"/>
	<path class="st2" d="M118.3,79h-5.8c-0.2,0-0.3,0.1-0.3,0.3v0.4c0,0.2,0.1,0.3,0.3,0.3h5.2c-0.5,6.8-8.7,9.9-13.5,5.1
		c-4.9-4.8-1.7-13.6,5.9-13.5c0.2,0,0.3-0.1,0.3-0.3v-0.5c0-0.2-0.1-0.3-0.3-0.3c-5.4-0.1-9.2,4.2-9.2,8.9c0,4.9,4,8.9,8.9,8.9
		c5,0,9-4,9-8.9C118.7,79.1,118.5,79,118.3,79z"/>
	<path class="st2" d="M107.7,76.1c0,0.7-0.6,1.3-1.3,1.3c-0.7,0-1.3-0.6-1.3-1.3c0-0.7,0.6-1.3,1.3-1.3
		C107.1,74.8,107.7,75.4,107.7,76.1z"/>
</g>
</svg>
