<svg xmlns="http://www.w3.org/2000/svg" viewBox="0 0 104.74 102.97"><defs><style>.cls-1{isolation:isolate;}.cls-2{fill:#fff;}.cls-3{fill:#404d66;}.cls-4{fill:#4fc6da;}.cls-5{opacity:0.2;mix-blend-mode:multiply;}.cls-6{fill:#88cb96;}.cls-7{fill:#f15947;}.cls-8{fill:#f26527;}.cls-9{fill:#f79421;}</style></defs><title>assign different layouts-groups</title><g class="cls-1"><g id="Layer_1" data-name="Layer 1"><path class="cls-2" d="M90.87,58.5a1.6,1.6,0,0,1-.3,0l-.29-.09a1,1,0,0,1-.26-.15,1.88,1.88,0,0,1-.24-.18A1.58,1.58,0,0,1,89.33,57a1.6,1.6,0,0,1,.45-1.09l.24-.18a1.3,1.3,0,0,1,.26-.14,1.25,1.25,0,0,1,.29-.1,1.64,1.64,0,0,1,1.39.42,1.57,1.57,0,0,1,0,2.18A1.52,1.52,0,0,1,90.87,58.5Z" transform="translate(-11.7 -6.83)"/><path class="cls-2" d="M101.35,57a1.54,1.54,0,0,1,1.53-1.54h0A1.54,1.54,0,0,1,104.42,57h0a1.53,1.53,0,0,1-1.54,1.52h0A1.53,1.53,0,0,1,101.35,57Z" transform="translate(-11.7 -6.83)"/><path class="cls-2" d="M114.9,58.5a1.55,1.55,0,0,1-1.09-.45,1.58,1.58,0,0,1-.45-1.09A1.54,1.54,0,0,1,116,55.87a1.55,1.55,0,0,1,.45,1.09,1.54,1.54,0,0,1-.45,1.09A1.48,1.48,0,0,1,114.9,58.5Z" transform="translate(-11.7 -6.83)"/><path class="cls-3" d="M89.2,35.74a1.52,1.52,0,0,1-1.1-.46,1.55,1.55,0,0,1,0-2.2l10.43-10.4a1.57,1.57,0,0,1,2.21,2.22L90.31,35.29A1.59,1.59,0,0,1,89.2,35.74Z" transform="translate(-11.7 -6.83)"/><path class="cls-3" d="M99.55,96a1.56,1.56,0,0,1-1.11-.46L88,85.19A1.56,1.56,0,0,1,90.22,83l10.43,10.39a1.56,1.56,0,0,1,0,2.21A1.52,1.52,0,0,1,99.55,96Z" transform="translate(-11.7 -6.83)"/><path class="cls-3" d="M39.13,35.74A1.59,1.59,0,0,1,38,35.29L27.59,24.9a1.57,1.57,0,0,1,2.21-2.22l10.43,10.4a1.55,1.55,0,0,1,0,2.2A1.52,1.52,0,0,1,39.13,35.74Z" transform="translate(-11.7 -6.83)"/><path class="cls-3" d="M28.78,96a1.52,1.52,0,0,1-1.1-.46,1.56,1.56,0,0,1,0-2.21L38.11,83a1.56,1.56,0,0,1,2.21,2.21L29.89,95.58A1.56,1.56,0,0,1,28.78,96Z" transform="translate(-11.7 -6.83)"/><path class="cls-3" d="M64.25,35.74a1.56,1.56,0,0,1-1.56-1.56V21.82a1.57,1.57,0,1,1,3.13,0V34.18A1.56,1.56,0,0,1,64.25,35.74Z" transform="translate(-11.7 -6.83)"/><path class="cls-3" d="M64.25,98.36a1.56,1.56,0,0,1-1.56-1.56V84.44a1.57,1.57,0,1,1,3.13,0V96.8A1.56,1.56,0,0,1,64.25,98.36Z" transform="translate(-11.7 -6.83)"/><path class="cls-3" d="M101.69,60.93H89.33a1.57,1.57,0,1,1,0-3.13h12.36a1.57,1.57,0,0,1,0,3.13Z" transform="translate(-11.7 -6.83)"/><path class="cls-3" d="M39.07,60.93H26.71a1.57,1.57,0,1,1,0-3.13H39.07a1.57,1.57,0,0,1,0,3.13Z" transform="translate(-11.7 -6.83)"/><path class="cls-4" d="M64.29,8a7.09,7.09,0,1,0,7.08,7.08A7.08,7.08,0,0,0,64.29,8Z" transform="translate(-11.7 -6.83)"/><g class="cls-5"><path class="cls-4" d="M64.29,8V22.13A7.08,7.08,0,0,0,64.29,8Z" transform="translate(-11.7 -6.83)"/></g><path class="cls-4" d="M64.25,95.64a7.09,7.09,0,1,0,7.08,7.08A7.08,7.08,0,0,0,64.25,95.64Z" transform="translate(-11.7 -6.83)"/><g class="cls-5"><path class="cls-4" d="M64.25,95.64v14.17a7.09,7.09,0,0,0,0-14.17Z" transform="translate(-11.7 -6.83)"/></g><path class="cls-4" d="M13.36,58.87a7.09,7.09,0,1,0,7.08-7.08A7.08,7.08,0,0,0,13.36,58.87Z" transform="translate(-11.7 -6.83)"/><g class="cls-5"><path class="cls-4" d="M13.36,58.87H27.52a7.08,7.08,0,0,0-14.16,0Z" transform="translate(-11.7 -6.83)"/></g><path class="cls-4" d="M101,58.91a7.09,7.09,0,1,0,7.08-7.08A7.08,7.08,0,0,0,101,58.91Z" transform="translate(-11.7 -6.83)"/><g class="cls-5"><path class="cls-4" d="M101,58.91h14.16a7.08,7.08,0,0,0-14.16,0Z" transform="translate(-11.7 -6.83)"/></g><rect class="cls-6" x="87.15" width="17.48" height="17.48"/><rect class="cls-6" x="0.81" y="85.49" width="17.48" height="17.48"/><rect class="cls-6" x="86.01" y="85.49" width="17.48" height="17.48"/><g class="cls-5"><polygon class="cls-7" points="104.63 17.48 87.15 0 104.63 0 104.63 17.48"/></g><g class="cls-5"><polygon class="cls-7" points="18.29 102.97 0.81 85.49 18.29 85.49 18.29 102.97"/></g><g class="cls-5"><polygon class="cls-7" points="103.5 102.97 86.02 85.49 103.5 85.49 103.5 102.97"/></g><rect class="cls-8" x="24.87" y="24.74" width="55.46" height="55.46"/><g class="cls-5"><polygon class="cls-9" points="80.29 80.26 24.83 24.8 80.29 24.8 80.29 80.26"/></g><rect class="cls-6" width="17.48" height="17.48"/><g class="cls-5"><polygon class="cls-7" points="17.48 17.48 0 0 17.48 0 17.48 17.48"/></g><path class="cls-2" d="M63.9,65h0a1.56,1.56,0,0,1-1.34-.76l-3.87-6.49a1.56,1.56,0,0,1,2.69-1.6l2.52,4.24,4.66-7.81a1.56,1.56,0,0,1,2.69,1.6l-6,10.06A1.56,1.56,0,0,1,63.9,65Z" transform="translate(-11.7 -6.83)"/><path class="cls-2" d="M77.56,73.94H51.4a1.56,1.56,0,0,1-1.57-1.56V46.22a1.57,1.57,0,0,1,1.57-1.57H77.56a1.56,1.56,0,0,1,1.56,1.57V72.38A1.56,1.56,0,0,1,77.56,73.94ZM53,70.82H76v-23H53Z" transform="translate(-11.7 -6.83)"/></g></g></svg>