<svg xmlns="http://www.w3.org/2000/svg" viewBox="0 0 100.31 105.43"><defs><style>.cls-1{isolation:isolate;}.cls-2{fill:#ccc;}.cls-3{opacity:0.2;mix-blend-mode:multiply;}.cls-4{fill:#989898;}.cls-5{fill:#fbb03b;}.cls-6{fill:#f15947;}.cls-7{fill:#fff;}.cls-8{fill:#404d66;}.cls-9{fill:#f26527;}</style></defs><title>audio playlist-radio</title><g class="cls-1"><g id="Layer_1" data-name="Layer 1"><path class="cls-2" d="M104.27,5.22V93.9h-63v5.22c0,6.37-6,11.53-13.47,11.53h0c-.44,0-.87,0-1.31-.06-6.82-.56-12.16-5.48-12.16-11.47v-85h0V5.22" transform="translate(-14.31 -5.22)"/><g class="cls-3"><rect class="cls-4" x="44.98" width="44.98" height="88.68"/></g><path class="cls-5" d="M114.62,93.9H41.25v5.22c0,6.37-6,11.53-13.47,11.53h73.37c7.44,0,13.47-5.16,13.47-11.53h0V93.9Z" transform="translate(-14.31 -5.22)"/><rect class="cls-5" width="89.96" height="11.22"/><g class="cls-3"><rect class="cls-6" x="44.91" width="45.05" height="11.22"/></g><path class="cls-7" d="M23,12.46l-.33,0a1.76,1.76,0,0,1-.3-.1,1.25,1.25,0,0,1-.28-.15,1,1,0,0,1-.24-.21,1.63,1.63,0,0,1-.49-1.13,1.66,1.66,0,0,1,.49-1.16,1,1,0,0,1,.24-.2,1.84,1.84,0,0,1,.28-.15l.3-.1a1.72,1.72,0,0,1,.64,0,2.64,2.64,0,0,1,.3.1,1.84,1.84,0,0,1,.28.15,1.22,1.22,0,0,1,.25.2,1.61,1.61,0,0,1,.48,1.16A1.57,1.57,0,0,1,24.15,12,1.62,1.62,0,0,1,23,12.46Z" transform="translate(-14.31 -5.22)"/><path class="cls-7" d="M34.44,10.84A1.63,1.63,0,0,1,36.06,9.2h0a1.64,1.64,0,0,1,1.63,1.64h0a1.63,1.63,0,0,1-1.63,1.61h0A1.62,1.62,0,0,1,34.44,10.84Z" transform="translate(-14.31 -5.22)"/><path class="cls-7" d="M49.12,12.46a1.63,1.63,0,0,1-.31,0,1.6,1.6,0,0,1-.31-.1,1.91,1.91,0,0,1-.28-.15A2.19,2.19,0,0,1,48,12a1.65,1.65,0,0,1-.47-1.14,1.84,1.84,0,0,1,0-.33,1.18,1.18,0,0,1,.1-.3.76.76,0,0,1,.15-.28A1.18,1.18,0,0,1,48,9.68a2.19,2.19,0,0,1,.25-.2c.09-.06.19-.1.28-.15l.31-.1a2.29,2.29,0,0,1,.64,0l.3.1.27.15a1.22,1.22,0,0,1,.25.2,1.69,1.69,0,0,1,.2.25,1.87,1.87,0,0,1,.16.28,1.67,1.67,0,0,1,.08.3,1.84,1.84,0,0,1,0,.33A1.63,1.63,0,0,1,50.27,12,1.66,1.66,0,0,1,49.12,12.46Z" transform="translate(-14.31 -5.22)"/><rect class="cls-8" x="9.64" y="21.1" width="71.23" height="55.54"/><g class="cls-3"><polygon class="cls-8" points="81.07 76.64 9.85 21.1 81.07 21.1 81.07 76.64"/></g><path class="cls-7" d="M91.27,41a1.44,1.44,0,0,1-.59-.11,1.5,1.5,0,0,1-.5-.33,1.54,1.54,0,0,1-.45-1.09,1.5,1.5,0,0,1,0-.29,1.4,1.4,0,0,1,.09-.29A1.3,1.3,0,0,1,90,38.6a2.33,2.33,0,0,1,.19-.23,1.37,1.37,0,0,1,.23-.19,1.38,1.38,0,0,1,.27-.14,1,1,0,0,1,.28-.1,1.61,1.61,0,0,1,1.39.43,1.53,1.53,0,0,1,.45,1.07,1.58,1.58,0,0,1-.45,1.09,1.61,1.61,0,0,1-.5.33A1.46,1.46,0,0,1,91.27,41Z" transform="translate(-14.31 -5.22)"/><path class="cls-7" d="M89.74,60.28a1.53,1.53,0,0,1,1.52-1.53h0a1.55,1.55,0,0,1,1.54,1.53h0a1.54,1.54,0,0,1-1.54,1.53h0A1.52,1.52,0,0,1,89.74,60.28Zm0-10.41a1.52,1.52,0,0,1,1.52-1.53h0a1.54,1.54,0,0,1,1.54,1.53h0a1.55,1.55,0,0,1-1.54,1.53h0A1.53,1.53,0,0,1,89.74,49.87Z" transform="translate(-14.31 -5.22)"/><path class="cls-7" d="M91.26,72.24a1.57,1.57,0,0,1-1.08-.45,1.52,1.52,0,0,1-.44-1.08,1.56,1.56,0,0,1,0-.31,1.52,1.52,0,0,1,.09-.28,1.38,1.38,0,0,1,.14-.27c.06-.08.13-.15.19-.22a1.59,1.59,0,0,1,2.17,0,1.92,1.92,0,0,1,.18.22,1.38,1.38,0,0,1,.14.27.76.76,0,0,1,.09.28,1.56,1.56,0,0,1-.41,1.39A1.58,1.58,0,0,1,91.26,72.24Z" transform="translate(-14.31 -5.22)"/><path class="cls-7" d="M27.68,41a1.44,1.44,0,0,1-.59-.11,1.37,1.37,0,0,1-.49-.33,1.52,1.52,0,0,1,0-2.16,1,1,0,0,1,.22-.19,1.74,1.74,0,0,1,.27-.14,1,1,0,0,1,.28-.1,2,2,0,0,1,.6,0,.91.91,0,0,1,.29.1,1.3,1.3,0,0,1,.26.14,1.12,1.12,0,0,1,.24.19,1,1,0,0,1,.18.23,1.3,1.3,0,0,1,.14.26,1,1,0,0,1,.1.29,1.5,1.5,0,0,1,0,.29,1.56,1.56,0,0,1-.45,1.09,1.5,1.5,0,0,1-.5.33A1.43,1.43,0,0,1,27.68,41Z" transform="translate(-14.31 -5.22)"/><path class="cls-7" d="M26.15,60.28a1.53,1.53,0,0,1,1.53-1.53h0a1.54,1.54,0,0,1,1.53,1.53h0a1.54,1.54,0,0,1-1.53,1.53h0A1.52,1.52,0,0,1,26.15,60.28Zm0-10.41a1.52,1.52,0,0,1,1.53-1.53h0a1.54,1.54,0,0,1,1.53,1.53h0a1.54,1.54,0,0,1-1.53,1.53h0A1.53,1.53,0,0,1,26.15,49.87Z" transform="translate(-14.31 -5.22)"/><path class="cls-7" d="M27.68,72.24a1.45,1.45,0,0,1-.59-.13,1.34,1.34,0,0,1-.49-.32,1.49,1.49,0,0,1-.45-1.08,1.55,1.55,0,0,1,0-.31,1.47,1.47,0,0,1,.08-.28,1.43,1.43,0,0,1,.15-.27,1.3,1.3,0,0,1,.19-.22,2.09,2.09,0,0,1,.22-.2l.27-.14a1.47,1.47,0,0,1,.28-.08,1.54,1.54,0,0,1,1.39.42,1.24,1.24,0,0,1,.18.22,1.38,1.38,0,0,1,.14.27,1,1,0,0,1,.1.28,1.55,1.55,0,0,1,0,.31,1.57,1.57,0,0,1-.45,1.08A1.59,1.59,0,0,1,27.68,72.24Z" transform="translate(-14.31 -5.22)"/><path class="cls-9" d="M73.71,34.29v0L52.85,38.57a.33.33,0,0,0-.28.34V65.2a7,7,0,0,0-6,.52c-3.05,1.59-4.68,4.5-3.64,6.51s4.37,2.35,7.42.76c2.54-1.32,4.21-3.58,4.2-5.44V44.3a.31.31,0,0,1,.25-.31l18.59-3.77a.31.31,0,0,1,.37.3v19.4a7,7,0,0,0-6,.52C64.61,62,63,64.93,64,66.94s4.37,2.35,7.42.76c2.54-1.32,4.09-3.57,3.93-5.44h0V34.4a.35.35,0,0,0-.41-.35Z" transform="translate(-14.31 -5.22)"/><path class="cls-8" d="M41.54,57.29c7.72,0,7.73-12,0-12s-7.74,12,0,12Z" transform="translate(-14.31 -5.22)"/></g></g></svg>