<svg id="Layer_1" data-name="Layer 1" xmlns="http://www.w3.org/2000/svg" viewBox="0 0 111.95 102.51"><defs><style>.cls-1{fill:#33afbd;}.cls-2{fill:#4bb4c6;}.cls-3{fill:#e3e2df;}.cls-4{fill:#eeedee;}.cls-5{fill:#fff;}.cls-6{fill:#e1754d;}.cls-7{fill:#f47f57;}.cls-8{fill:#f26527;}.cls-9{fill:#f5854e;fill-rule:evenodd;}</style></defs><title>auto resize</title><path class="cls-1" d="M116.2,7.19H11.93a4,4,0,0,0-3.84,4V84.81a4,4,0,0,0,3.84,4H116.2a4,4,0,0,0,3.84-4V11.23A4,4,0,0,0,116.2,7.19Z" transform="translate(-8.09 -7.19)"/><path class="cls-2" d="M64.06,7.19H11.93a4,4,0,0,0-3.84,4V84.81a4,4,0,0,0,3.84,4H64.06Z" transform="translate(-8.09 -7.19)"/><path class="cls-3" d="M115.07,76.64c0,.19-.2.34-.45.34H13.5c-.24,0-.45-.15-.45-.34V13.7c0-.18.21-.34.45-.34H114.62a.41.41,0,0,1,.45.34Z" transform="translate(-8.09 -7.19)"/><path class="cls-4" d="M114.94,76.88a.53.53,0,0,1-.32.1H13.5a.4.4,0,0,1-.44-.34V13.7a.31.31,0,0,1,.13-.24C13.27,13.4,115,76.82,114.94,76.88Z" transform="translate(-8.09 -7.19)"/><rect class="cls-1" x="42.97" y="81.65" width="24.99" height="13.67"/><rect class="cls-2" x="42.97" y="81.65" width="13.01" height="13.67"/><path class="cls-1" d="M88,102.51H39.12a.12.12,0,0,0-.13.11v7a.12.12,0,0,0,.13.11H88a.13.13,0,0,0,.14-.11v-7A.13.13,0,0,0,88,102.51Z" transform="translate(-8.09 -7.19)"/><path class="cls-2" d="M64.06,102.51H39.12a.12.12,0,0,0-.13.11v7a.12.12,0,0,0,.13.11H64.06Z" transform="translate(-8.09 -7.19)"/><path class="cls-5" d="M112.05,82.18a2.12,2.12,0,1,1-2.12-2.12A2.12,2.12,0,0,1,112.05,82.18Z" transform="translate(-8.09 -7.19)"/><path class="cls-6" d="M111.48,82.18a1.55,1.55,0,1,1-1.55-1.56A1.55,1.55,0,0,1,111.48,82.18Z" transform="translate(-8.09 -7.19)"/><path class="cls-7" d="M109.93,83.73a1.56,1.56,0,0,1,0-3.11Z" transform="translate(-8.09 -7.19)"/><rect class="cls-8" x="30.35" y="12.45" width="51.05" height="51.05" rx="11.27"/><path class="cls-9" d="M78.54,19.61H63.75V70.66H78.54A11.3,11.3,0,0,0,89.81,59.4V30.87A11.3,11.3,0,0,0,78.54,19.61Z" transform="translate(-8.09 -7.19)"/><path class="cls-5" d="M76.79,37.51l-6.22,6.22h0a.53.53,0,0,1-.75,0,.55.55,0,0,1-.15-.28,5.66,5.66,0,0,0-4-4l.13-.51-.13.51a.53.53,0,0,1-.38-.65.58.58,0,0,1,.15-.25l6.21-6.21-3.51-3.51h0a.53.53,0,0,1,0-.75.55.55,0,0,1,.38-.15H80.68a.51.51,0,0,1,.37.16.53.53,0,0,1,.16.38v4.07h0v8.1a.53.53,0,0,1-.53.53A.55.55,0,0,1,80.3,41Z" transform="translate(-8.09 -7.19)"/><path class="cls-5" d="M57.89,43.73l-6.22-6.22L48.16,41a.56.56,0,0,1-.38.15.53.53,0,0,1-.53-.53V28.47a.53.53,0,0,1,.16-.38.51.51,0,0,1,.37-.16H60a.55.55,0,0,1,.38.15.54.54,0,0,1,0,.75h0l-3.51,3.51L63,38.56a.58.58,0,0,1,.15.25.53.53,0,0,1-.38.65L62.67,39l.14.51a5.58,5.58,0,0,0-2.56,1.47,5.52,5.52,0,0,0-1.46,2.52.55.55,0,0,1-.15.28.53.53,0,0,1-.75,0Z" transform="translate(-8.09 -7.19)"/><path class="cls-5" d="M70.57,46.09l6.22,6.22,3.51-3.5a.51.51,0,0,1,.38-.16.53.53,0,0,1,.53.53V61.36a.49.49,0,0,1-.16.37.51.51,0,0,1-.37.16H68.5a.54.54,0,0,1-.38-.91h0l3.51-3.51-6.21-6.21a.58.58,0,0,1-.15-.25.54.54,0,0,1,.38-.65l.13.52-.13-.51a5.69,5.69,0,0,0,2.56-1.48,5.56,5.56,0,0,0,1.46-2.52.55.55,0,0,1,.15-.28.53.53,0,0,1,.75,0Z" transform="translate(-8.09 -7.19)"/><path class="cls-5" d="M51.67,52.31l6.22-6.22h0a.53.53,0,0,1,.75,0,.55.55,0,0,1,.15.28,5.47,5.47,0,0,0,1.46,2.52,5.69,5.69,0,0,0,2.56,1.48l-.14.51.14-.52a.54.54,0,0,1,.38.65.58.58,0,0,1-.15.25l-6.21,6.21L60.34,61h0a.54.54,0,0,1,0,.75.52.52,0,0,1-.38.16H47.78a.51.51,0,0,1-.37-.16.49.49,0,0,1-.16-.37V49.18a.53.53,0,0,1,.91-.37Z" transform="translate(-8.09 -7.19)"/></svg>