<svg xmlns="http://www.w3.org/2000/svg" viewBox="0 0 103.33 102.93"><defs><style>.cls-1{isolation:isolate;}.cls-2{fill:#fff;}.cls-3{fill:#f26527;}.cls-4{fill:#fae480;}.cls-5{opacity:0.2;mix-blend-mode:multiply;}.cls-6{fill:#f4773b;}.cls-7{fill:#88cb96;}</style></defs><title>colour image background</title><g class="cls-1"><g id="Layer_1" data-name="Layer 1"><path class="cls-2" d="M30.33,16.46a1.55,1.55,0,0,1-.29,0,1.47,1.47,0,0,1-.28-.08,1,1,0,0,1-.26-.15.91.91,0,0,1-.23-.17,1.53,1.53,0,0,1-.44-1.08,1.51,1.51,0,0,1,.44-1,2,2,0,0,1,.23-.18,1.3,1.3,0,0,1,.26-.14,1.52,1.52,0,0,1,.28-.09,1.57,1.57,0,0,1,1.36.41,1.55,1.55,0,0,1,.43,1A1.58,1.58,0,0,1,31.4,16,1.52,1.52,0,0,1,30.33,16.46Z" transform="translate(-13.06 -7.7)"/><path class="cls-2" d="M40.58,15a1.5,1.5,0,0,1,1.5-1.5h0a1.5,1.5,0,0,1,1.5,1.5h0a1.49,1.49,0,0,1-1.5,1.48h0A1.49,1.49,0,0,1,40.58,15Z" transform="translate(-13.06 -7.7)"/><path class="cls-2" d="M53.83,16.46a1.51,1.51,0,0,1-1.06-2.57,1.56,1.56,0,0,1,2.12,0,1.51,1.51,0,0,1,.44,1A1.53,1.53,0,0,1,54.89,16,1.48,1.48,0,0,1,53.83,16.46Z" transform="translate(-13.06 -7.7)"/><path class="cls-3" d="M116.39,110.62l-.25-90.43A12.42,12.42,0,0,0,103.72,7.87H24.61A11.55,11.55,0,0,1,35.91,17l.25,2.39v91.19" transform="translate(-13.06 -7.7)"/><path class="cls-4" d="M35.91,17a11.55,11.55,0,0,0-11.3-9.17c-.21,0-.41,0-.62,0A11.54,11.54,0,0,0,13.06,19.43V41.86h23.1V19.43A11.08,11.08,0,0,0,35.91,17Z" transform="translate(-13.06 -7.7)"/><g class="cls-5"><path class="cls-4" d="M36.16,19.43A11.08,11.08,0,0,0,35.91,17a11.55,11.55,0,0,0-11.3-9.17v34H36.16Z" transform="translate(-13.06 -7.7)"/></g><path class="cls-6" d="M103.37,7.7H65.65A11.54,11.54,0,0,1,77,16.86l.25,2.39v91.19H116L115.79,20A12.42,12.42,0,0,0,103.37,7.7Z" transform="translate(-13.06 -7.7)"/><polygon class="cls-7" points="84.49 63.84 76.49 51.6 69.47 62.36 77.39 76.09 92.48 76.09 84.49 63.84"/><path class="cls-4" d="M82.53,34.6A6.13,6.13,0,0,0,79.45,46a6.19,6.19,0,0,0,3.08.82,6.13,6.13,0,0,0,0-12.25Z" transform="translate(-13.06 -7.7)"/><g class="cls-5"><path class="cls-4" d="M82.53,34.6V46.85a6.13,6.13,0,0,0,0-12.25Z" transform="translate(-13.06 -7.7)"/></g><polygon class="cls-7" points="69.47 62.36 66.73 57.62 56.07 39.16 45.41 57.62 34.75 76.09 56.07 76.09 60.5 76.09 76.49 76.09 77.39 76.09 69.47 62.36"/><g class="cls-5"><polygon class="cls-7" points="69.47 62.59 66.73 57.85 56.07 39.39 45.41 57.85 34.75 76.32 56.07 76.32 60.5 76.32 76.49 76.32 77.39 76.32 69.47 62.59"/></g></g></g></svg>