<svg xmlns="http://www.w3.org/2000/svg" viewBox="0 0 100.31 105.76"><defs><style>.cls-1{isolation:isolate;}.cls-2{fill:#ccc;}.cls-3{opacity:0.2;}.cls-12,.cls-3{mix-blend-mode:multiply;}.cls-4{fill:#989898;}.cls-5{fill:#fae480;}.cls-6{fill:#f15947;}.cls-7{fill:#fff;}.cls-8{fill:#404d66;}.cls-9{fill:#163240;}.cls-10{fill:#f26527;}.cls-11{fill:#b4b4b4;}.cls-12{opacity:0.51;}.cls-13{fill:#e3e3e3;}.cls-14{fill:#fbb03b;}.cls-15{fill:#4fc6da;}</style></defs><title>durations for media items</title><g class="cls-1"><g id="Layer_1" data-name="Layer 1"><path class="cls-2" d="M104.6,6V94.72h-63v5.22c0,6.37-6,11.53-13.48,11.53h0c-.44,0-.87,0-1.3,0-6.83-.57-12.17-5.49-12.17-11.48V15h0V6" transform="translate(-14.64 -5.71)"/><g class="cls-3"><rect class="cls-4" x="44.98" y="0.33" width="44.98" height="88.68"/></g><path class="cls-5" d="M115,94.72H41.59v5.22c0,6.37-6,11.53-13.48,11.53h73.37c7.44,0,13.47-5.16,13.47-11.53h0V94.72Z" transform="translate(-14.64 -5.71)"/><rect class="cls-5" y="0.33" width="89.96" height="11.22"/><g class="cls-3"><rect class="cls-6" x="44.91" y="0.33" width="45.05" height="11.22"/></g><path class="cls-7" d="M23.34,13.28l-.33,0a1.18,1.18,0,0,1-.3-.1.94.94,0,0,1-.28-.15,1.5,1.5,0,0,1-.24-.2,1.59,1.59,0,0,1,0-2.3.75.75,0,0,1,.24-.19,1.28,1.28,0,0,1,.28-.16,1.71,1.71,0,0,1,.3-.09,1.38,1.38,0,0,1,.64,0,1.49,1.49,0,0,1,.3.09,1.64,1.64,0,0,1,.29.16,1.06,1.06,0,0,1,.24.19,1.62,1.62,0,0,1,0,2.3A1.66,1.66,0,0,1,23.34,13.28Z" transform="translate(-14.64 -5.71)"/><path class="cls-7" d="M34.77,11.66A1.64,1.64,0,0,1,36.39,10h0A1.64,1.64,0,0,1,38,11.66h0a1.62,1.62,0,0,1-1.63,1.61h0A1.62,1.62,0,0,1,34.77,11.66Z" transform="translate(-14.64 -5.71)"/><path class="cls-7" d="M49.45,13.28l-.31,0a1.12,1.12,0,0,1-.31-.1,1.28,1.28,0,0,1-.28-.15c-.08-.05-.17-.13-.25-.19a1.69,1.69,0,0,1-.47-1.15,1.84,1.84,0,0,1,0-.33A1.32,1.32,0,0,1,48,11a.85.85,0,0,1,.15-.28,1.5,1.5,0,0,1,.19-.25,1.38,1.38,0,0,1,.25-.19,2,2,0,0,1,.28-.16,1.58,1.58,0,0,1,.31-.09,1.72,1.72,0,0,1,.64,0l.3.09a1.48,1.48,0,0,1,.27.16.92.92,0,0,1,.25.19,2.52,2.52,0,0,1,.21.25L51,11a1.92,1.92,0,0,1,.08.3,1.86,1.86,0,0,1,0,.33,1.62,1.62,0,0,1-1.63,1.62Z" transform="translate(-14.64 -5.71)"/><rect class="cls-8" x="9.64" y="24.02" width="71.23" height="55.54"/><g class="cls-3"><polygon class="cls-9" points="81.07 79.56 9.85 24.02 81.07 24.02 81.07 79.56"/></g><path class="cls-7" d="M91.6,44.38a1.47,1.47,0,0,1-.59-.11,1.67,1.67,0,0,1-.5-.33,1.55,1.55,0,0,1-.45-1.09,1.69,1.69,0,0,1,0-.3,1.52,1.52,0,0,1,.09-.28,1.22,1.22,0,0,1,.15-.27,1.32,1.32,0,0,1,.18-.22,1.37,1.37,0,0,1,.23-.19,1,1,0,0,1,.27-.15,1.52,1.52,0,0,1,.28-.09,1.59,1.59,0,0,1,1.39.43,1.53,1.53,0,0,1,.45,1.07,1.6,1.6,0,0,1-.45,1.09,1.81,1.81,0,0,1-.5.33A1.46,1.46,0,0,1,91.6,44.38Z" transform="translate(-14.64 -5.71)"/><path class="cls-7" d="M90.07,63.69a1.52,1.52,0,0,1,1.52-1.53h0a1.54,1.54,0,0,1,1.54,1.53h0a1.55,1.55,0,0,1-1.54,1.53h0A1.53,1.53,0,0,1,90.07,63.69Zm0-10.42a1.52,1.52,0,0,1,1.52-1.52h0a1.54,1.54,0,0,1,1.54,1.52h0a1.54,1.54,0,0,1-1.54,1.53h0A1.52,1.52,0,0,1,90.07,53.27Z" transform="translate(-14.64 -5.71)"/><path class="cls-7" d="M91.59,75.64a1.53,1.53,0,0,1-1.08-.45,1.49,1.49,0,0,1-.44-1.08,1.51,1.51,0,0,1,0-.3,1.61,1.61,0,0,1,.09-.29,1.16,1.16,0,0,1,.15-.26c0-.08.12-.15.18-.23a1.59,1.59,0,0,1,2.17,0c.06.08.13.15.18.23s.1.17.15.26a1,1,0,0,1,.08.29,1.52,1.52,0,0,1-1.5,1.83Z" transform="translate(-14.64 -5.71)"/><path class="cls-7" d="M28,44.38a1.47,1.47,0,0,1-.59-.11,1.63,1.63,0,0,1-.49-.33,1.52,1.52,0,0,1,0-2.16,1,1,0,0,1,.22-.19,1.49,1.49,0,0,1,.27-.15,1.52,1.52,0,0,1,.28-.09,2.08,2.08,0,0,1,.61,0,1.31,1.31,0,0,1,.28.09,1.22,1.22,0,0,1,.27.15,1.37,1.37,0,0,1,.23.19,1,1,0,0,1,.18.22,1.82,1.82,0,0,1,.15.27,1.52,1.52,0,0,1,.09.28,1.69,1.69,0,0,1,0,.3,1.54,1.54,0,0,1-.45,1.09,1.67,1.67,0,0,1-.5.33A1.43,1.43,0,0,1,28,44.38Z" transform="translate(-14.64 -5.71)"/><path class="cls-7" d="M26.48,63.69A1.52,1.52,0,0,1,28,62.16h0a1.53,1.53,0,0,1,1.53,1.53h0A1.54,1.54,0,0,1,28,65.22h0A1.53,1.53,0,0,1,26.48,63.69Zm0-10.42A1.52,1.52,0,0,1,28,51.75h0a1.53,1.53,0,0,1,1.53,1.52h0A1.53,1.53,0,0,1,28,54.8h0A1.52,1.52,0,0,1,26.48,53.27Z" transform="translate(-14.64 -5.71)"/><path class="cls-7" d="M28,75.64a1.48,1.48,0,0,1-.59-.12,1.33,1.33,0,0,1-.49-.33,1.46,1.46,0,0,1-.45-1.08,1.53,1.53,0,0,1,0-.3,1.57,1.57,0,0,1,.08-.29,1.74,1.74,0,0,1,.15-.26,1.92,1.92,0,0,1,.19-.23l.22-.19.27-.14a1.47,1.47,0,0,1,.28-.08,1.54,1.54,0,0,1,1.39.41,1.81,1.81,0,0,1,.18.23,1.74,1.74,0,0,1,.15.26,1.61,1.61,0,0,1,.09.29,1.53,1.53,0,0,1,0,.3,1.5,1.5,0,0,1-.45,1.08A1.55,1.55,0,0,1,28,75.64Z" transform="translate(-14.64 -5.71)"/><path class="cls-8" d="M41.87,60.69c7.72,0,7.73-12,0-12s-7.74,12,0,12Z" transform="translate(-14.64 -5.71)"/><path class="cls-10" d="M96.12,5.71a18.34,18.34,0,1,0,18.34,18.34A18.34,18.34,0,0,0,96.12,5.71Z" transform="translate(-14.64 -5.71)"/><g class="cls-3"><path class="cls-10" d="M96.12,5.71V42.39a18.34,18.34,0,0,0,0-36.68Z" transform="translate(-14.64 -5.71)"/></g><polygon class="cls-7" points="92.64 18.11 82.76 12.41 72.88 6.7 72.88 18.11 72.88 29.52 82.76 23.81 92.64 18.11"/><g class="cls-3"><polygon class="cls-11" points="92.8 18.19 73.05 18.19 73.05 29.6 82.92 23.89 92.8 18.19"/></g><path class="cls-8" d="M48.25,48.63a.65.65,0,0,1-.93,0l-1.85-1.84a.67.67,0,0,1,0-.93.65.65,0,0,1,.93,0l1.85,1.84A.67.67,0,0,1,48.25,48.63Z" transform="translate(-14.64 -5.71)"/><path class="cls-8" d="M70.92,44.68h2.67a2.09,2.09,0,0,1,2.09,2.09v0a2.09,2.09,0,0,1-2.09,2.09H70.92a0,0,0,0,1,0,0V44.68a0,0,0,0,1,0,0Z" transform="translate(-26.25 59.82) rotate(-45)"/><g class="cls-12"><path class="cls-8" d="M71.61,48.45l1.49,1.49,2.65-2.65a1,1,0,0,0,0-1.44L75,45.08Z" transform="translate(-14.64 -5.71)"/></g><path class="cls-10" d="M72,72.41A17.27,17.27,0,1,1,72,48,17.29,17.29,0,0,1,72,72.41Z" transform="translate(-14.64 -5.71)"/><g class="cls-3"><path class="cls-6" d="M47.6,48l0,0L72,72.43l0,0A17.27,17.27,0,0,0,47.6,48Z" transform="translate(-14.64 -5.71)"/></g><path class="cls-13" d="M70.48,70.89a15.19,15.19,0,1,1,0-21.47A15.21,15.21,0,0,1,70.48,70.89Z" transform="translate(-14.64 -5.71)"/><g class="cls-3"><path class="cls-13" d="M49,49.42h0L70.46,70.91l0,0A15.19,15.19,0,1,0,49,49.42Z" transform="translate(-14.64 -5.71)"/></g><path class="cls-8" d="M61.19,58.71a2,2,0,1,1-2.79,0A2,2,0,0,1,61.19,58.71Z" transform="translate(-14.64 -5.71)"/><g class="cls-3"><path class="cls-8" d="M61.19,58.71a2,2,0,1,1-2.79,0A2,2,0,0,1,61.19,58.71Z" transform="translate(-14.64 -5.71)"/></g><path class="cls-8" d="M58.83,59.21a.65.65,0,0,1-.93,0l-1-1a.66.66,0,1,1,.93-.93l1,1A.67.67,0,0,1,58.83,59.21Z" transform="translate(-14.64 -5.71)"/><path class="cls-8" d="M62.65,63a.65.65,0,0,1-.93,0l-1-1a.66.66,0,0,1,.93-.93l1,1A.65.65,0,0,1,62.65,63Z" transform="translate(-14.64 -5.71)"/><path class="cls-13" d="M59.33,60.57a.66.66,0,0,1,0-.94h0a.67.67,0,0,1,.93,0h0a.68.68,0,0,1,0,.94h0A.67.67,0,0,1,59.33,60.57Z" transform="translate(-14.64 -5.71)"/><path class="cls-8" d="M51.61,51.36l-1,1a.66.66,0,0,1-.94-.93l1-1a.65.65,0,0,1,.93,0A.67.67,0,0,1,51.61,51.36Z" transform="translate(-14.64 -5.71)"/><path class="cls-8" d="M69.83,69.26l-1,.95a.65.65,0,0,1-.93,0,.67.67,0,0,1,0-.93l1-1a.66.66,0,0,1,.94.93Z" transform="translate(-14.64 -5.71)"/><path class="cls-8" d="M51.76,70.37a.65.65,0,0,1-.93,0l-.95-1a.66.66,0,1,1,.93-.93l.95,1A.65.65,0,0,1,51.76,70.37Z" transform="translate(-14.64 -5.71)"/><path class="cls-8" d="M69.67,52.15a.65.65,0,0,1-.93,0l-.95-.95a.66.66,0,1,1,.93-.93l1,.95A.65.65,0,0,1,69.67,52.15Z" transform="translate(-14.64 -5.71)"/><path class="cls-10" d="M48.68,42.13a1.39,1.39,0,0,1,0,2l-5,5a1.39,1.39,0,0,1-2,0h0a1.39,1.39,0,0,1,0-2l5-5" transform="translate(-14.64 -5.71)"/><polygon class="cls-14" points="37.43 46.73 40.66 48.81 43.89 50.88 42.74 52.03 41.59 53.18 39.51 49.95 37.43 46.73"/><polygon class="cls-15" points="52.85 62.15 50.78 58.92 48.7 55.69 47.55 56.84 46.4 57.99 49.63 60.07 52.85 62.15"/><g class="cls-3"><polygon class="cls-6" points="37.43 46.73 40.66 48.81 43.89 50.88 42.74 52.03 37.43 46.73"/></g><g class="cls-3"><polygon class="cls-15" points="52.85 62.15 50.78 58.92 48.7 55.69 47.55 56.84 52.85 62.15"/></g></g></g></svg>