<svg xmlns="http://www.w3.org/2000/svg" viewBox="0 0 111.95 102.51"><defs><style>.cls-1{isolation:isolate;}.cls-2{fill:#33afbd;}.cls-3{fill:#4bb4c6;}.cls-4{fill:#e3e2df;}.cls-5{fill:#eeedee;}.cls-6{fill:#fff;}.cls-7{fill:#e1754d;}.cls-8{fill:#f47f57;}.cls-9{fill:#365471;}.cls-10{fill:#39597b;}.cls-11{fill:#f26527;}.cls-12{opacity:0.2;mix-blend-mode:multiply;}</style></defs><title>monitor on-off</title><g class="cls-1"><g id="Layer_1" data-name="Layer 1"><path class="cls-2" d="M116.6,7.52H12.33a4,4,0,0,0-3.84,4V85.13a4,4,0,0,0,3.84,4H116.6a4,4,0,0,0,3.84-4V11.56A4,4,0,0,0,116.6,7.52Z" transform="translate(-8.49 -7.52)"/><path class="cls-3" d="M64.47,7.52H12.33a4,4,0,0,0-3.84,4V85.13a4,4,0,0,0,3.84,4H64.47Z" transform="translate(-8.49 -7.52)"/><path class="cls-4" d="M115.48,77c0,.18-.21.33-.46.33H13.91c-.25,0-.45-.15-.45-.33V14c0-.19.2-.34.45-.34H115c.25,0,.46.15.46.34Z" transform="translate(-8.49 -7.52)"/><path class="cls-5" d="M115.35,77.2a.59.59,0,0,1-.33.1H13.91c-.25,0-.45-.15-.45-.33V14a.29.29,0,0,1,.13-.24C13.67,13.73,115.43,77.14,115.35,77.2Z" transform="translate(-8.49 -7.52)"/><rect class="cls-2" x="42.97" y="81.65" width="24.99" height="13.67"/><rect class="cls-3" x="42.97" y="81.65" width="13.01" height="13.67"/><path class="cls-2" d="M88.39,102.84H39.52a.12.12,0,0,0-.13.11v7a.12.12,0,0,0,.13.11H88.39a.12.12,0,0,0,.13-.11v-7A.12.12,0,0,0,88.39,102.84Z" transform="translate(-8.49 -7.52)"/><path class="cls-3" d="M64.47,102.84H39.52a.12.12,0,0,0-.13.11v7a.12.12,0,0,0,.13.11H64.47Z" transform="translate(-8.49 -7.52)"/><path class="cls-6" d="M112.45,82.5a2.12,2.12,0,1,1-2.12-2.12A2.12,2.12,0,0,1,112.45,82.5Z" transform="translate(-8.49 -7.52)"/><path class="cls-7" d="M111.88,82.5A1.55,1.55,0,1,1,110.33,81,1.54,1.54,0,0,1,111.88,82.5Z" transform="translate(-8.49 -7.52)"/><path class="cls-8" d="M110.33,84.05a1.55,1.55,0,0,1,0-3.1Z" transform="translate(-8.49 -7.52)"/><path class="cls-9" d="M88.94,59.56a.11.11,0,0,0,.11.11h8.43a.1.1,0,0,0,.1-.11V43a.1.1,0,0,0-.1-.11H89.05a.11.11,0,0,0-.11.11Z" transform="translate(-8.49 -7.52)"/><path class="cls-10" d="M74.61,59.53c0,.08,0,.14.1.14h8.44s.1-.06.1-.14V38.6c0-.08,0-.14-.1-.14H74.71s-.1.06-.1.14Z" transform="translate(-8.49 -7.52)"/><path class="cls-9" d="M60.15,59.48c0,.1,0,.19.1.19h8.43c.06,0,.11-.09.11-.19V30.24c0-.1-.05-.19-.11-.19H60.25c-.06,0-.1.09-.1.19Z" transform="translate(-8.49 -7.52)"/><path class="cls-10" d="M45.93,59.45c0,.12,0,.22.1.22h8.44c.05,0,.1-.1.1-.22V25.31c0-.12,0-.22-.1-.22H46c-.06,0-.1.1-.1.22Z" transform="translate(-8.49 -7.52)"/><path class="cls-9" d="M31.35,59.43c0,.13,0,.24.1.24h8.44s.1-.11.1-.24V23.09c0-.13-.05-.23-.1-.23H31.45c-.05,0-.1.1-.1.23Z" transform="translate(-8.49 -7.52)"/><path class="cls-11" d="M64.49,39.67A18.33,18.33,0,1,0,82.83,58,18.34,18.34,0,0,0,64.49,39.67Z" transform="translate(-8.49 -7.52)"/><g class="cls-12"><path class="cls-11" d="M64.49,39.67V76.35a18.34,18.34,0,1,0,0-36.68Z" transform="translate(-8.49 -7.52)"/></g><path class="cls-6" d="M77.09,56.86A12.7,12.7,0,0,0,71.83,48l-2.11,3a9,9,0,0,1,3.68,5.89,8.78,8.78,0,0,1,.12,1.45,9,9,0,1,1-18,0,8.78,8.78,0,0,1,.12-1.45A9,9,0,0,1,59.32,51l-2.11-3A12.69,12.69,0,0,0,52,56.86a11.64,11.64,0,0,0-.09,1.45,12.65,12.65,0,1,0,25.3,0A13.94,13.94,0,0,0,77.09,56.86Z" transform="translate(-8.49 -7.52)"/><polygon class="cls-6" points="54.15 37.29 54.15 47.1 54.15 50.91 58.43 50.91 58.43 47.1 58.43 37.29 54.15 37.29"/></g></g></svg>