<svg xmlns="http://www.w3.org/2000/svg" viewBox="0 0 103.75 100.16"><defs><style>.cls-1{isolation:isolate;}.cls-2{fill:#e3e3e3;}.cls-3,.cls-5{opacity:0.2;}.cls-3{mix-blend-mode:multiply;}.cls-4{fill:#404d66;}.cls-5{mix-blend-mode:screen;}.cls-6{fill:#f26527;}.cls-7{fill:#4fc6da;}.cls-8{fill:#fae480;}.cls-9{fill:#fff;}</style></defs><title>purchase licenses</title><g class="cls-1"><g id="Layer_1" data-name="Layer 1"><rect class="cls-2" x="13.09" y="24.29" width="77.8" height="67.47"/><g class="cls-3"><rect class="cls-2" x="51.88" y="24.29" width="39.01" height="67.47"/></g><path class="cls-4" d="M106.66,26.32H96.77v6.82h6.59v67.48H110V29.73A3.35,3.35,0,0,0,106.66,26.32Z" transform="translate(-12.59 -8.86)"/><path class="cls-4" d="M32.38,26.32H22.27A3.35,3.35,0,0,0,19,29.73v70.89h6.6V33.14h6.81V26.32Z" transform="translate(-12.59 -8.86)"/><path class="cls-4" d="M1,91.76H102.76a1,1,0,0,1,1,1v2.37a5,5,0,0,1-5,5H5a5,5,0,0,1-5-5V92.76a1,1,0,0,1,1-1Z"/><g class="cls-5"><path class="cls-4" d="M1,91.76H102.76a1,1,0,0,1,1,1v2.37a5,5,0,0,1-5,5H5a5,5,0,0,1-5-5V92.76a1,1,0,0,1,1-1Z"/></g><path class="cls-6" d="M32.42,8.86V47.59c0,.1,0,.19,0,.28.09,13.34,7.29,25.63,19.31,32.93l12.88,7.81L77.49,80.8c12-7.3,19.22-19.6,19.32-32.95,0-.09,0-.17,0-.26V8.86Z" transform="translate(-12.59 -8.86)"/><g class="cls-3"><path class="cls-7" d="M64.62,88.61,77.49,80.8c12-7.3,19.22-19.6,19.32-32.95,0-.09,0-.17,0-.26V8.86H64.51Z" transform="translate(-12.59 -8.86)"/></g><path class="cls-8" d="M64.51,26.43A16.61,16.61,0,1,0,81.12,43,16.61,16.61,0,0,0,64.51,26.43Z" transform="translate(-12.59 -8.86)"/><g class="cls-3"><path class="cls-8" d="M64.51,26.43V59.65a16.61,16.61,0,0,0,0-33.22Z" transform="translate(-12.59 -8.86)"/></g><path class="cls-4" d="M63.78,54.35h-.07a1.47,1.47,0,0,1-1.33-1l-4.1-11.94a1.48,1.48,0,1,1,2.79-1L64,48.83,70.48,34a1.48,1.48,0,0,1,2.71,1.19L65.13,53.47A1.48,1.48,0,0,1,63.78,54.35Z" transform="translate(-12.59 -8.86)"/><path class="cls-9" d="M64.57,65.44A1.59,1.59,0,0,1,63,63.85h0a1.58,1.58,0,0,1,1.57-1.58h0a1.59,1.59,0,0,1,1.58,1.59h0a1.58,1.58,0,0,1-1.58,1.58Zm11-4.61a1.57,1.57,0,0,1,.35-2.19h0a1.58,1.58,0,0,1,2.21.34h0a1.6,1.6,0,0,1-.36,2.21h0a1.55,1.55,0,0,1-.91.3h0A1.61,1.61,0,0,1,75.53,60.83Zm-24.1.3a1.57,1.57,0,0,1-.35-2.2h0a1.58,1.58,0,0,1,2.21-.34h0a1.56,1.56,0,0,1,.33,2.19h0a1.53,1.53,0,0,1-1.27.65h0A1.51,1.51,0,0,1,51.43,61.13ZM83.91,51a1.59,1.59,0,0,1-1-2h0a1.58,1.58,0,0,1,2-1h0a1.59,1.59,0,0,1,1,2h0a1.6,1.6,0,0,1-1.51,1.08h0A1.64,1.64,0,0,1,83.91,51Zm-40.6-1.09h0a1.57,1.57,0,0,1,1-2h0a1.58,1.58,0,0,1,2,1h0a1.59,1.59,0,0,1-1,2h0a1.59,1.59,0,0,1-.48.07h0A1.59,1.59,0,0,1,43.31,49.94ZM82.93,37.15a1.58,1.58,0,0,1,1-2h0a1.59,1.59,0,0,1,2,1h0a1.58,1.58,0,0,1-1,2h0a1.66,1.66,0,0,1-.49.07h0A1.58,1.58,0,0,1,82.93,37.15Zm-38.59.93a1.55,1.55,0,0,1-1-2h0a1.58,1.58,0,0,1,2-1h0a1.57,1.57,0,0,1,1,2h0a1.57,1.57,0,0,1-1.5,1.1h0A1.32,1.32,0,0,1,44.34,38.08ZM76,27.52a1.56,1.56,0,0,1-.34-2.2h0A1.56,1.56,0,0,1,77.85,25h0a1.58,1.58,0,0,1,.33,2.2h0a1.59,1.59,0,0,1-1.27.65h0A1.6,1.6,0,0,1,76,27.52Zm-24.87-.4a1.58,1.58,0,0,1,.35-2.2h0a1.59,1.59,0,0,1,2.21.35h0a1.58,1.58,0,0,1-.35,2.2h0a1.54,1.54,0,0,1-.92.31h0A1.61,1.61,0,0,1,51.11,27.12ZM64.69,23.8h-.07A1.57,1.57,0,0,1,63,22.23h0a1.57,1.57,0,0,1,1.58-1.58h.08a1.6,1.6,0,0,1,1.58,1.59h0A1.57,1.57,0,0,1,64.7,23.8h0Z" transform="translate(-12.59 -8.86)"/></g></g></svg>