<svg xmlns="http://www.w3.org/2000/svg" viewBox="0 0 111.95 102.51"><defs><style>.cls-1{isolation:isolate;}.cls-2{fill:#365471;}.cls-3{fill:#404d66;}.cls-4{fill:#e3e2df;}.cls-5{fill:#eeedee;}.cls-6{fill:#fff;}.cls-7{fill:#e1754d;}.cls-8{fill:#f47f57;}.cls-9{fill:#f26527;}.cls-10{fill:#fae480;}.cls-10,.cls-11,.cls-12{stroke:#204c59;stroke-miterlimit:10;}.cls-11{fill:#88cb96;}.cls-12{fill:#4fc6da;}.cls-13{opacity:0.2;mix-blend-mode:multiply;}.cls-14{fill:#e3e3e3;}.cls-15{fill:none;}.cls-16{fill:#ffde17;opacity:0.36;}.cls-17{fill:#fbb040;}</style></defs><title>regions different content</title><g class="cls-1"><g id="Layer_1" data-name="Layer 1"><path class="cls-2" d="M116.66,7H12.39a3.94,3.94,0,0,0-3.84,4V84.64a4,4,0,0,0,3.84,4H116.66a4,4,0,0,0,3.84-4V11.06A3.94,3.94,0,0,0,116.66,7Z" transform="translate(-8.55 -7.03)"/><path class="cls-3" d="M64.52,7H12.39a3.94,3.94,0,0,0-3.84,4V84.64a4,4,0,0,0,3.84,4H64.52Z" transform="translate(-8.55 -7.03)"/><path class="cls-4" d="M115.53,76.47c0,.19-.2.34-.45.34H14c-.24,0-.45-.15-.45-.34V13.54c0-.19.21-.34.45-.34H115.08c.25,0,.45.15.45.34Z" transform="translate(-8.55 -7.03)"/><path class="cls-5" d="M115.4,76.71a.53.53,0,0,1-.32.1H14c-.24,0-.45-.15-.45-.34V13.54a.28.28,0,0,1,.14-.24C13.73,13.24,115.48,76.65,115.4,76.71Z" transform="translate(-8.55 -7.03)"/><rect class="cls-2" x="42.97" y="81.65" width="24.99" height="13.67"/><rect class="cls-3" x="42.97" y="81.65" width="13.01" height="13.67"/><path class="cls-2" d="M88.44,102.35H39.58c-.07,0-.14.05-.14.1v7c0,.06.07.1.14.1H88.44c.08,0,.14,0,.14-.1v-7S88.52,102.35,88.44,102.35Z" transform="translate(-8.55 -7.03)"/><path class="cls-3" d="M64.52,102.35H39.58c-.07,0-.14.05-.14.1v7c0,.06.07.1.14.1H64.52Z" transform="translate(-8.55 -7.03)"/><path class="cls-6" d="M112.51,82a2.12,2.12,0,1,1-2.12-2.12A2.12,2.12,0,0,1,112.51,82Z" transform="translate(-8.55 -7.03)"/><path class="cls-7" d="M111.94,82a1.55,1.55,0,1,1-1.55-1.55A1.54,1.54,0,0,1,111.94,82Z" transform="translate(-8.55 -7.03)"/><path class="cls-8" d="M110.39,83.56a1.55,1.55,0,0,1,0-3.1Z" transform="translate(-8.55 -7.03)"/><rect class="cls-9" x="4.91" y="6.16" width="79.46" height="50.14"/><rect class="cls-9" x="4.91" y="59.59" width="102.27" height="11.14"/><rect class="cls-9" x="87.72" y="6.18" width="19.45" height="50.12"/><polygon class="cls-10" points="31.6 37.68 20.15 31.07 8.7 24.46 8.7 37.68 8.7 50.9 20.15 44.29 31.6 37.68"/><circle class="cls-11" cx="38.94" cy="47.3" r="3.8"/><path class="cls-11" d="M43.69,40.41v5.06A12.67,12.67,0,0,1,56.34,58.12H61.4A17.74,17.74,0,0,0,43.69,40.41Z" transform="translate(-8.55 -7.03)"/><path class="cls-11" d="M43.69,31.55v5.07A21.53,21.53,0,0,1,65.2,58.12h5A26.59,26.59,0,0,0,43.69,31.55Z" transform="translate(-8.55 -7.03)"/><path class="cls-12" d="M107.64,47.13A7.46,7.46,0,0,0,108,45c0-3.77-2.73-6.82-6.09-6.82a5.39,5.39,0,0,0-1.07.11s0-.08,0-.11c0-4.35-3.15-7.87-7-7.87a7.1,7.1,0,0,0-6.58,5.15A6.32,6.32,0,0,0,84,34.57c-3.88,0-7,3.52-7,7.87a8.47,8.47,0,0,0,1.39,4.69h-.68a4.86,4.86,0,0,0-4.56,5.12,4.86,4.86,0,0,0,4.56,5.11h30a5.15,5.15,0,0,0,0-10.23Z" transform="translate(-8.55 -7.03)"/><g class="cls-13"><path class="cls-14" d="M107.64,47.13A7.46,7.46,0,0,0,108,45c0-3.77-2.73-6.82-6.09-6.82a5.39,5.39,0,0,0-1.07.11s0-.08,0-.11c0-4.22-3-7.65-6.68-7.85v27h13.51a5.15,5.15,0,0,0,0-10.23Z" transform="translate(-8.55 -7.03)"/></g><path class="cls-15" d="M106.4,57.09c-.25-6.85-4.52-12.57-10.24-14.26,2.4,2.65,4,8,4.14,14.26Z" transform="translate(-8.55 -7.03)"/><path class="cls-15" d="M86,57.09h6V42.37C88.85,42.91,86.17,49.37,86,57.09Z" transform="translate(-8.55 -7.03)"/><path class="cls-15" d="M89,42.9c-5.62,1.76-9.79,7.42-10,14.19h6C85,50.84,86.59,45.56,89,42.9Z" transform="translate(-8.55 -7.03)"/><path class="cls-15" d="M93.24,42.39v14.7h5.91C99,49.48,96.41,43.09,93.24,42.39Z" transform="translate(-8.55 -7.03)"/><polygon class="cls-16" points="9.27 37.62 30.45 37.62 9.27 49.89 9.27 37.62"/><path class="cls-17" d="M40.75,49.27" transform="translate(-8.55 -7.03)"/></g></g></svg>