<svg xmlns="http://www.w3.org/2000/svg" xmlns:xlink="http://www.w3.org/1999/xlink" viewBox="0 0 96.3 104.08"><defs><style>.cls-1{isolation:isolate;}.cls-2{fill:#e3e3e3;}.cls-3{opacity:0.2;mix-blend-mode:multiply;}.cls-4{fill:#f26527;}.cls-5{fill:#4fc6da;}.cls-6{fill:url(#Blue_Sky);}.cls-7{fill:url(#Blue_Sky-2);}.cls-8{fill:url(#Blue_Sky-3);}</style><linearGradient id="Blue_Sky" x1="25.83" y1="62.1" x2="50.32" y2="62.1" gradientUnits="userSpaceOnUse"><stop offset="0" stop-color="#61c9dd"/><stop offset="1" stop-color="#61c9dd"/></linearGradient><linearGradient id="Blue_Sky-2" x1="38.43" y1="62.1" x2="62.92" y2="62.1" xlink:href="#Blue_Sky"/><linearGradient id="Blue_Sky-3" x1="50.6" y1="62.1" x2="75.09" y2="62.1" xlink:href="#Blue_Sky"/></defs><title>seamless playback transitions</title><g class="cls-1"><g id="Layer_1" data-name="Layer 1"><path class="cls-2" d="M98,96.22c-18.71,18.71-49,18.84-67.59.28S12,47.62,30.7,28.91s49-18.84,67.59-.28S116.72,77.51,98,96.22Z" transform="translate(-15.92 -6.25)"/><g class="cls-3"><path class="cls-2" d="M30.7,28.91l0,.05L98,96.26l0,0c18.71-18.71,18.84-49,.28-67.59S49.42,10.2,30.7,28.91Z" transform="translate(-15.92 -6.25)"/></g><g class="cls-3"><path class="cls-4" d="M64.07,110.2a48.15,48.15,0,0,0,48.16-48.05H98.4a34.32,34.32,0,0,1-68.64.24H15.93A48.15,48.15,0,0,0,64.07,110.2Z" transform="translate(-15.92 -6.25)"/></g><path class="cls-4" d="M112.23,62.15H98.4A34.34,34.34,0,1,1,81.62,32.73l-9,3.32,4.77,13,24.84-9.11A6.89,6.89,0,0,0,106.3,31L97.17,6.25,84.19,11l3.4,9.24a48,48,0,1,0,24.64,41.9Z" transform="translate(-15.92 -6.25)"/><polygon class="cls-5" points="50.32 55.03 38.08 47.96 25.83 40.89 25.83 55.03 25.83 69.17 38.08 62.1 50.32 55.03"/><polygon class="cls-6" points="50.32 55.03 25.83 55.03 25.83 69.17 38.08 62.1 50.32 55.03"/><polygon class="cls-5" points="62.92 55.03 50.67 47.96 38.43 40.89 38.43 55.03 38.43 69.17 50.67 62.1 62.92 55.03"/><polygon class="cls-7" points="62.92 55.03 38.43 55.03 38.43 69.17 50.67 62.1 62.92 55.03"/><polygon class="cls-5" points="75.09 55.03 62.84 47.96 50.6 40.89 50.6 55.03 50.6 69.17 62.84 62.1 75.09 55.03"/><polygon class="cls-8" points="75.09 55.03 50.6 55.03 50.6 69.17 62.84 62.1 75.09 55.03"/></g></g></svg>