<svg id="Layer_1" data-name="Layer 1" xmlns="http://www.w3.org/2000/svg" viewBox="0 0 122.31 103.31"><defs><style>.cls-1{fill:#365471;}.cls-2{fill:#39597b;}.cls-3{fill:#e3e2df;}.cls-4{fill:#eeedee;}.cls-5{fill:#010101;}.cls-6{fill:#f89f71;}.cls-7{fill:#f26527;}.cls-8{fill:#fbb03b;}</style></defs><title>touch transitions</title><rect class="cls-1" width="122.31" height="84.83" rx="4.19"/><path class="cls-2" d="M63.83,91.55h-57a4.2,4.2,0,0,1-4.19-4.19V10.92a4.2,4.2,0,0,1,4.19-4.2h57Z" transform="translate(-2.68 -6.72)"/><path class="cls-3" d="M119.57,78.87c0,.2-.23.35-.5.35H8.59c-.27,0-.49-.15-.49-.35V13.49c0-.2.22-.35.49-.35H119.07c.27,0,.5.15.5.35Z" transform="translate(-2.68 -6.72)"/><path class="cls-4" d="M119.44,79.11a.6.6,0,0,1-.37.11H8.59c-.27,0-.49-.15-.49-.35V13.49a.34.34,0,0,1,.14-.25S119.52,79,119.44,79.11Z" transform="translate(-2.68 -6.72)"/><polygon class="cls-3" points="67.61 1.91 55.45 1.91 54.62 1.95 54.62 3.96 54.71 4.75 66.87 4.75 67.69 4.7 67.69 2.69 67.61 1.91"/><path class="cls-3" d="M66.88,84.77a3.11,3.11,0,1,1-3.11-3.11A3.1,3.1,0,0,1,66.88,84.77Z" transform="translate(-2.68 -6.72)"/><path class="cls-4" d="M63.77,87.87a3.11,3.11,0,1,1,0-6.21Z" transform="translate(-2.68 -6.72)"/><path class="cls-5" d="M102.35,58.57v.88a.47.47,0,0,0,0-.21C102.36,59.14,102.36,58.9,102.35,58.57Z" transform="translate(-2.68 -6.72)"/><path class="cls-5" d="M118.26,70.79v0Z" transform="translate(-2.68 -6.72)"/><path class="cls-6" d="M88.87,47.56V34.2a3.63,3.63,0,1,0-7.25,0V47.54C82.2,45.92,86.54,44.43,88.87,47.56Z" transform="translate(-2.68 -6.72)"/><path class="cls-6" d="M94.53,53a3.4,3.4,0,0,1,3.39,3.4v-8.5a3.4,3.4,0,0,0-6.79,0v8.5A3.4,3.4,0,0,1,94.53,53Z" transform="translate(-2.68 -6.72)"/><path class="cls-6" d="M103.77,57.34a3.4,3.4,0,0,1,3.4,3.39V52.24a3.4,3.4,0,0,0-6.8,0s-.07,9.42,0,12.15c0-2.07,0-3.66,0-3.66A3.4,3.4,0,0,1,103.77,57.34Z" transform="translate(-2.68 -6.72)"/><path class="cls-6" d="M112.86,53.14a3.4,3.4,0,0,0-3.39,3.4V65a3.4,3.4,0,0,1,6.79,0V56.54A3.4,3.4,0,0,0,112.86,53.14Z" transform="translate(-2.68 -6.72)"/><path class="cls-7" d="M116.26,60a3.4,3.4,0,0,0-6.79,0v1.06s-2.21.26-2.3-.76c0-.37,0-2.32,0-4.6a3.4,3.4,0,0,0-6.8,0s0,1.59,0,3.66c0,.33,0,.56,0,.67a.49.49,0,0,1,0,.21s-2.42.16-2.43-.21h0c0-.34,0-4.54,0-8.71a3.4,3.4,0,1,0-6.79,0v8.9l-2.26.65V38.56c-2.33-3.13-6.67-1.64-7.25,0V68.26c-1-2.76-2.69-4-3.66-5.13a23.71,23.71,0,0,0-1.88-3c-1.53-1.8-6.11-4.64-9.17-2.26-.71.55.69,3.94,2.51,7.59,2.36,4.75,5.41,10,5.41,10,.35,1.16,3.15,17.18,14,20.62v7.31h20.6V95.7a11.56,11.56,0,0,0,6.79-10.52V60Z" transform="translate(-2.68 -6.72)"/><rect class="cls-8" x="84.02" y="96.64" width="24.17" height="6.67" rx="2.83"/></svg>