<?xml version="1.0" encoding="utf-8"?>
<!-- Generator: Adobe Illustrator 24.0.1, SVG Export Plug-In . SVG Version: 6.00 Build 0)  -->
<svg version="1.1" id="Layer_1" xmlns="http://www.w3.org/2000/svg" xmlns:xlink="http://www.w3.org/1999/xlink" x="0px" y="0px"
	 viewBox="0 0 117 114" style="enable-background:new 0 0 117 114;" xml:space="preserve">
<style type="text/css">
	.st0{fill:#312C29;}
	.st1{fill:#FB6520;}
</style>
<g>
	<g>
		<path class="st0" d="M107.1,87.3H12.3c-2.7,0-4.9-2.2-4.9-4.9V9.8c0-2.7,2.2-4.9,4.9-4.9h94.8c2.7,0,4.9,2.2,4.9,4.9v72.6
			C112,85.1,109.8,87.3,107.1,87.3z M12.3,7.9c-1,0-1.9,0.8-1.9,1.9v72.6c0,1,0.8,1.9,1.9,1.9h94.8c1,0,1.9-0.8,1.9-1.9V9.8
			c0-1-0.8-1.9-1.9-1.9H12.3z M103.8,80.6H15.7c-0.8,0-1.5-0.7-1.5-1.5V13.2c0-0.8,0.7-1.5,1.5-1.5h88.1c0.8,0,1.5,0.7,1.5,1.5v65.9
			C105.3,79.9,104.6,80.6,103.8,80.6z M17.2,77.6h85.1V14.7H17.2V77.6z"/>
	</g>
</g>
<g>
	<path class="st0" d="M67.6,99.7H51.3c-0.8,0-1.5-0.7-1.5-1.5V85.8c0-0.8,0.7-1.5,1.5-1.5h16.3c0.8,0,1.5,0.7,1.5,1.5v12.4
		C69.1,99,68.5,99.7,67.6,99.7z"/>
	<g id="XMLID_93_">
		<g>
			<rect x="52.8" y="87.3" class="st1" width="13.3" height="9.4"/>
		</g>
		<g>
		</g>
	</g>
</g>
<path class="st0" d="M33.4,108.3c-0.8,0-1.5-0.7-1.5-1.5c0-5.6,4.5-10.1,10.1-10.1H77c5.6,0,10.1,4.5,10.1,10.1
	c0,0.8-0.7,1.5-1.5,1.5"/>
<g id="XMLID_94_">
	<g>
		<path class="st1" d="M83.9,105.3H35c0.7-3.2,3.5-5.6,6.9-5.6H77C80.4,99.7,83.2,102.1,83.9,105.3z"/>
	</g>
	<g>
	</g>
</g>
<g>
	<path class="st0" d="M59.6,69.6c-0.7,0-1.3-0.5-1.5-1.1l-5.2-21.4l-4.7,11.8c-0.2,0.6-0.8,0.9-1.4,0.9c-0.6,0-1.2-0.4-1.4-1
		l-4.5-12.1l-4.9,15c-0.2,0.6-0.8,1-1.4,1l0,0c-0.6,0-1.2-0.4-1.4-1L28,46.2L23.8,55c-0.2,0.5-0.8,0.8-1.3,0.8
		c-0.6,0-1.1-0.3-1.4-0.8l-6.6-12.2c-0.4-0.7-0.1-1.6,0.6-2c0.7-0.4,1.6-0.1,2,0.6l5.2,9.6l4.6-9.5c0.3-0.6,0.8-0.9,1.5-0.8
		c0.6,0,1.1,0.4,1.3,1l4.8,14.7l4.8-14.7c0.2-0.6,0.8-1,1.4-1c0.7,0,1.2,0.4,1.4,1l4.7,12.5l5-12.5c0.2-0.6,0.8-1,1.5-0.9
		c0.6,0,1.2,0.5,1.3,1.1l4.8,19.9l4.7-19.9c0.2-0.7,0.7-1.1,1.4-1.2c0.7,0,1.3,0.4,1.5,1l4.6,14.2L77,36c0.2-0.7,0.8-1.1,1.5-1.1
		c0,0,0,0,0,0c0.7,0,1.3,0.5,1.4,1.1l4.4,18.3l4.5-22.4c0.1-0.6,0.7-1.1,1.3-1.2c0.6-0.1,1.3,0.3,1.5,0.9L98.3,46l4.1-6
		c0.5-0.7,1.4-0.9,2.1-0.4c0.7,0.5,0.9,1.4,0.4,2.1l-5.6,8.2c-0.3,0.4-0.8,0.7-1.4,0.6c-0.5,0-1-0.4-1.2-0.9L90.9,37l-5,24.5
		c-0.1,0.7-0.7,1.2-1.4,1.2c-0.7,0.1-1.3-0.5-1.5-1.1l-4.6-19l-5,19.1c-0.2,0.6-0.7,1.1-1.4,1.1c-0.7,0-1.3-0.4-1.5-1l-4.6-14
		l-4.9,20.8C60.9,69.1,60.3,69.6,59.6,69.6C59.6,69.6,59.6,69.6,59.6,69.6z"/>
</g>
<g>
	<path class="st0" d="M28.3,43.4c-2.1,0-3.8-1.7-3.8-3.8c0-2.1,1.7-3.8,3.8-3.8c2.1,0,3.8,1.7,3.8,3.8
		C32.1,41.7,30.4,43.4,28.3,43.4z M28.3,38.9c-0.4,0-0.8,0.4-0.8,0.8c0,0.4,0.4,0.8,0.8,0.8c0.4,0,0.8-0.4,0.8-0.8
		C29.1,39.2,28.8,38.9,28.3,38.9z"/>
</g>
<g>
	<path class="st0" d="M46.6,64.3c-2.1,0-3.8-1.7-3.8-3.8c0-2.1,1.7-3.8,3.8-3.8c2.1,0,3.8,1.7,3.8,3.8
		C50.4,62.6,48.7,64.3,46.6,64.3z M46.6,59.7c-0.4,0-0.8,0.4-0.8,0.8c0,0.4,0.4,0.8,0.8,0.8c0.4,0,0.8-0.4,0.8-0.8
		C47.4,60.1,47,59.7,46.6,59.7z"/>
</g>
<g>
	<path class="st0" d="M65.6,43.5c-2.2,0-4-1.8-4-4c0-2.2,1.8-4,4-4c2.2,0,4,1.8,4,4C69.7,41.7,67.9,43.5,65.6,43.5z M65.6,38.5
		c-0.6,0-1,0.5-1,1c0,0.6,0.5,1,1,1c0.6,0,1-0.5,1-1C66.7,38.9,66.2,38.5,65.6,38.5z"/>
</g>
<g>
	<path class="st0" d="M84.6,68.2c-2.2,0-4-1.8-4-4c0-2.2,1.8-4,4-4c2.2,0,4,1.8,4,4C88.6,66.4,86.8,68.2,84.6,68.2z M84.6,63.1
		c-0.6,0-1,0.5-1,1c0,0.6,0.5,1,1,1c0.6,0,1-0.5,1-1C85.6,63.6,85.1,63.1,84.6,63.1z"/>
</g>
</svg>
