<?xml version="1.0" encoding="utf-8"?>
<!-- Generator: Adobe Illustrator 24.0.1, SVG Export Plug-In . SVG Version: 6.00 Build 0)  -->
<svg version="1.1"
	 id="svg8" inkscape:version="0.92.4 (5da689c313, 2019-01-14)" sodipodi:docname="A.svg" xmlns:cc="http://creativecommons.org/ns#" xmlns:dc="http://purl.org/dc/elements/1.1/" xmlns:inkscape="http://www.inkscape.org/namespaces/inkscape" xmlns:rdf="http://www.w3.org/1999/02/22-rdf-syntax-ns#" xmlns:sodipodi="http://sodipodi.sourceforge.net/DTD/sodipodi-0.dtd" xmlns:svg="http://www.w3.org/2000/svg"
	 xmlns="http://www.w3.org/2000/svg" xmlns:xlink="http://www.w3.org/1999/xlink" x="0px" y="0px" viewBox="0 0 500 390.3"
	 style="enable-background:new 0 0 500 390.3;" xml:space="preserve">
<style type="text/css">
	.st0{fill:#32DE84;}
</style>
<sodipodi:namedview  bordercolor="#666666" borderopacity="1.0" fit-margin-bottom="0" fit-margin-left="0" fit-margin-right="0" fit-margin-top="0" id="base" inkscape:current-layer="layer1" inkscape:cx="1292.0825" inkscape:cy="333.20379" inkscape:document-units="px" inkscape:pageopacity="0.0" inkscape:pageshadow="2" inkscape:window-height="1017" inkscape:window-maximized="1" inkscape:window-width="1920" inkscape:window-x="1912" inkscape:window-y="-8" inkscape:zoom="0.175" pagecolor="#ffffff" showgrid="false" units="px">
	<inkscape:grid  id="grid823" originx="-66.971031" originy="195.86492" type="xygrid"></inkscape:grid>
</sodipodi:namedview>
<g id="layer1" transform="translate(-66.970994,-261.91674)" inkscape:groupmode="layer" inkscape:label="Layer 1">
	<path id="path80319" inkscape:connector-curvature="0" class="st0" d="M439.1,395.3l41.4-71.8c2.3-4,0.9-9.1-3-11.5
		c-4-2.3-9.1-1-11.4,3l-42,72.7c-32-14.6-68.1-22.8-106.8-22.8c-38.8,0-74.8,8.2-106.8,22.8l-42-72.7c-2.3-4-7.4-5.4-11.5-3
		c-4,2.3-5.4,7.4-3,11.5l41.4,71.8C123.9,434,75.6,506.3,67.6,590.9H567C559,506.3,510.6,434,439.1,395.3z M202.6,520.8
		c-11.6,0-20.9-9.4-20.9-20.9c0-11.6,9.4-20.9,20.9-20.9c11.6,0,20.9,9.4,20.9,20.9C223.6,511.4,214.2,520.8,202.6,520.8z
		 M431.9,520.8c-11.6,0-20.9-9.4-20.9-20.9c0-11.6,9.4-20.9,20.9-20.9c11.6,0,20.9,9.4,20.9,20.9
		C452.9,511.4,443.5,520.8,431.9,520.8z"/>
</g>
</svg>
