<?xml version="1.0" encoding="utf-8"?>
<!-- Generator: Adobe Illustrator 24.0.1, SVG Export Plug-In . SVG Version: 6.00 Build 0)  -->
<svg version="1.1" id="Layer_1" xmlns="http://www.w3.org/2000/svg" xmlns:xlink="http://www.w3.org/1999/xlink" x="0px" y="0px"
	 viewBox="0 0 117 114" style="enable-background:new 0 0 117 114;" xml:space="preserve">
<style type="text/css">
	.st0{fill:#312C29;}
	.st1{fill:#FFFFFF;}
	.st2{fill:#FB6520;stroke:#312C29;stroke-width:2;stroke-miterlimit:10;}
</style>
<g>
	<g>
		<g>
			<path class="st0" d="M106.4,86.8H11.5c-2.4,0-4.4-2.1-4.4-4.6V10.8c0-2.6,2-4.6,4.4-4.6h94.9c2.4,0,4.4,2.1,4.4,4.6v71.3
				C110.8,84.7,108.8,86.8,106.4,86.8z M11.5,9.1c-0.8,0-1.4,0.7-1.4,1.6v71.3c0,0.9,0.6,1.6,1.4,1.6h94.9c0.8,0,1.4-0.7,1.4-1.6
				V10.8c0-0.9-0.6-1.6-1.4-1.6H11.5z M103.5,80.5H14.4c-0.8,0-1.5-0.7-1.5-1.5v-65c0-0.8,0.7-1.5,1.5-1.5h89.1
				c0.8,0,1.5,0.7,1.5,0.5v65C105,79.8,104.3,80.5,103.5,80.5z M15.9,77.5H102v-62H15.9V77.5z"/>
		</g>
	</g>
</g>
<g>
	<path class="st0" d="M80,108.6H37c-0.8,0-1.5-0.7-1.5-1.5V101c0-0.8,0.7-1.5,1.5-1.5c4.6,0,8.3-3.7,8.3-8.3v-6
		c0-0.8,0.7-1.5,1.5-1.5h22.6c0.8,0,1.5,0.7,1.5,1.5v5.1c0,5.1,4.1,9.2,9.2,9.2c0.8,0,1.5,0.7,1.5,1.5v6.1
		C81.5,107.9,80.8,108.6,80,108.6z"/>
	<g id="XMLID_86_">
		<g>
			<path class="st1" d="M78.5,102.4v3.2h-40v-3.2c5.5-0.7,9.8-5.5,9.8-11.2v-4.5h19.6v3.5C67.8,96.5,72.5,101.7,78.5,102.4z"/>
		</g>
		<g>
		</g>
	</g>
</g>
<rect x="21.2" y="60" class="st2" width="60.6" height="9.3"/>
<rect x="21.3" y="24.6" class="st2" width="60.6" height="31.7"/>
<rect x="68.5" y="42.2" transform="matrix(-1.836970e-16 1 -1 -1.836970e-16 137.8023 -43.8856)" class="st2" width="44.7" height="9.6"/>
</svg>
