<?xml version="1.0" encoding="utf-8"?>
<!-- Generator: Adobe Illustrator 24.0.1, SVG Export Plug-In . SVG Version: 6.00 Build 0)  -->
<svg version="1.1" id="Capa_1" xmlns="http://www.w3.org/2000/svg" xmlns:xlink="http://www.w3.org/1999/xlink" x="0px" y="0px"
	 viewBox="0 0 129 130" style="enable-background:new 0 0 129 130;" xml:space="preserve">
<style type="text/css">
	.st0{fill:#312C29;}
	.st1{fill:#FB6520;}
	.st2{fill:#FFFFFF;stroke:#312C29;stroke-width:2.75;stroke-miterlimit:10;}
</style>
<path class="st0" d="M23.8,76.5c-1.1,0-1.9,0.9-1.9,1.9c0,1.1,0.9,1.9,1.9,1.9c1.1,0,1.9-0.9,1.9-1.9C25.7,77.3,24.9,76.5,23.8,76.5
	z"/>
<path class="st0" d="M103.3,83.2L85,89.5c0.1-0.5,0.1-0.9,0.1-1.4c0-4.3-3.5-7.8-7.8-7.8H64.8c-0.3,0-0.7-0.1-1-0.2l-10.3-5.8
	c-2-1.1-4.3-1.7-6.7-1.7H33.2c-0.8-2.3-3-3.9-5.5-3.9H16c-1.1,0-1.9,0.9-1.9,1.9v34.9c0,1.1,0.9,1.9,1.9,1.9h11.6
	c2.5,0,4.6-1.6,5.4-3.7c2.2,0.3,4.7,0.9,6.3,1.9l10.1,6.1c3.8,2.3,8.2,3.5,12.7,3.5c3.6,0,7-0.7,10.2-2.2l36.2-15.9
	c4-1.6,6-6.4,3.7-10.7C110.8,83.3,106.8,81.9,103.3,83.2z M29.6,101.7c0,1.1-0.9,1.9-1.9,1.9H18V72.6h9.7c1.1,0,1.9,0.9,1.9,1.9
	V101.7z M107.3,93.5C107.3,93.5,107.3,93.5,107.3,93.5c-0.1,0-36.3,16-36.3,16c-2.7,1.2-5.6,1.9-8.6,1.9c-3.8,0-7.5-1-10.7-3
	l-10.1-6.1c-2.2-1.3-5.3-2.1-7.9-2.4V76.5h13.4c1.7,0,3.3,0.4,4.8,1.2l10.3,5.8c0.9,0.5,1.9,0.7,2.9,0.7h12.6c2.1,0,3.9,1.7,3.9,3.9
	c0,2.1-1.7,3.9-3.9,3.9H57.6c-1.1,0-1.9,0.9-1.9,1.9c0,1.1,0.9,1.9,1.9,1.9h19.7c1.3,0,2.5-0.3,3.6-0.9c0,0,23.6-8.1,23.6-8.1
	c1.7-0.6,3.7,0,4.5,1.4C110.2,90.4,109.3,92.7,107.3,93.5z"/>
<g>
	<path class="st0" d="M82.7,76.6c-1.8,0-3.6-0.2-5.4-0.5c-0.4-0.1-0.7-0.3-1-0.6c-0.2-0.3-0.3-0.7-0.3-1.1L77,69
		c-1.8-0.4-3.5-1-5.1-1.9l-2.7,4.7c-0.2,0.3-0.5,0.6-0.9,0.7c-0.4,0.1-0.8,0-1.1-0.1c-3.1-1.8-5.9-4.1-8.3-6.9
		c-0.5-0.6-0.5-1.6,0.2-2.1l4.1-3.5c-1.1-1.5-2-3-2.7-4.7L55.3,57c-0.8,0.3-1.6-0.1-1.9-0.9c-1.2-3.4-1.9-7-1.9-10.6
		c0-0.4,0.2-0.8,0.4-1.1c0.3-0.3,0.7-0.4,1.1-0.4l5.4,0c0.1-1.8,0.4-3.6,1-5.4l-5.1-1.8c-0.4-0.1-0.7-0.4-0.8-0.8
		c-0.2-0.4-0.2-0.8-0.1-1.1c1.2-3.4,3-6.6,5.4-9.4c0.5-0.6,1.5-0.7,2.1-0.2l4.1,3.5c1.2-1.3,2.6-2.5,4.2-3.5l-2.7-4.7
		c-0.4-0.7-0.2-1.6,0.5-2.1c3.2-1.8,6.6-3.1,10.2-3.7c0.4-0.1,0.8,0,1.1,0.2c0.3,0.2,0.5,0.6,0.6,1l0.9,5.3c1.9-0.2,3.6-0.2,5.5,0
		l0.9-5.3c0.1-0.8,0.9-1.4,1.7-1.2c3.6,0.6,7,1.9,10.2,3.7c0.3,0.2,0.6,0.5,0.7,0.9c0.1,0.4,0.1,0.8-0.1,1.1L96,25.2
		c1.5,1,2.9,2.2,4.2,3.5l4.1-3.5c0.6-0.5,1.6-0.5,2.1,0.2c2.4,2.8,4.2,5.9,5.4,9.3c0.3,0.8-0.1,1.6-0.9,1.9l-5.1,1.9
		c0.5,1.8,0.9,3.6,1,5.4l5.4-0.1c0.4,0,0.8,0.2,1.1,0.4c0.3,0.3,0.4,0.7,0.4,1.1c0,3.8-0.6,7.3-1.9,10.7c-0.3,0.8-1.1,1.2-1.9,0.9
		l-5.1-1.9c-0.7,1.7-1.6,3.3-2.7,4.7l4.1,3.5c0.3,0.3,0.5,0.6,0.5,1c0,0.4-0.1,0.8-0.3,1.1c-2.3,2.8-5.1,5.1-8.3,6.9
		c-0.7,0.4-1.6,0.2-2-0.5l-2.7-4.7c-1.6,0.8-3.3,1.4-5.1,1.9l0.9,5.3c0.1,0.4,0,0.8-0.2,1.1c-0.2,0.3-0.6,0.5-1,0.6
		C86.3,76.4,84.5,76.6,82.7,76.6z"/>
	<g id="XMLID_101_">
		<g>
			<path class="st1" d="M105.5,46.9l5.3,0c-0.1,2.3-0.5,4.6-1.2,6.8l-5-1.8c-0.8-0.3-1.6,0.1-1.9,0.9c-0.9,2.4-2.1,4.5-3.7,6.4
				c-0.3,0.3-0.4,0.7-0.3,1.1c0,0.4,0.2,0.8,0.5,1l4.1,3.4c-1.6,1.7-3.3,3.1-5.2,4.4l-2.7-4.6c-0.2-0.3-0.5-0.6-0.9-0.7
				c-0.4-0.1-0.8,0-1.1,0.2c-2.1,1.2-4.5,2.1-6.9,2.5c-0.8,0.1-1.4,0.9-1.2,1.7l0.9,5.3c-2.3,0.3-4.5,0.3-6.8,0l0.9-5.2
				c0.1-0.8-0.4-1.6-1.2-1.7c-2.4-0.4-4.8-1.3-6.9-2.5c-0.3-0.2-0.8-0.3-1.1-0.2c-0.4,0.1-0.7,0.4-0.9,0.7L67.3,69
				c-1.9-1.2-3.6-2.7-5.2-4.4l4.1-3.4c0.3-0.3,0.5-0.6,0.5-1c0-0.4-0.1-0.8-0.3-1.1c-1.6-1.9-2.8-4-3.7-6.4
				c-0.3-0.8-1.1-1.2-1.9-0.9l-5,1.8c-0.7-2.2-1.1-4.4-1.2-6.7l5.3,0c0.8,0,1.5-0.7,1.5-1.5c0-2.4,0.4-4.9,1.3-7.2
				c0.1-0.4,0.1-0.8-0.1-1.2c-0.2-0.4-0.5-0.6-0.8-0.8l-5-1.8c0.9-2.1,2-4.1,3.4-5.9l4.1,3.4c0.6,0.5,1.6,0.5,2.1-0.2
				c1.6-1.9,3.5-3.5,5.7-4.8c0.7-0.4,0.9-1.3,0.5-2l-2.7-4.6c2-1,4.2-1.8,6.4-2.3l0.9,5.2c0.1,0.4,0.3,0.7,0.6,1
				c0.3,0.2,0.7,0.3,1.1,0.2c2.6-0.5,4.7-0.5,7.4,0c0.4,0.1,0.8,0,1.1-0.3c0.3-0.2,0.6-0.6,0.6-1l0.9-5.3c2.2,0.5,4.4,1.3,6.4,2.3
				l-2.7,4.6c-0.4,0.7-0.2,1.6,0.6,2c2.2,1.3,4.1,2.8,5.7,4.7c0.5,0.6,1.5,0.7,2.1,0.2l4.1-3.4c1.4,1.8,2.5,3.8,3.4,5.9l-5,1.8
				c-0.4,0.1-0.7,0.4-0.8,0.8c-0.2,0.4-0.2,0.8,0,1.1c0.9,2.4,1.3,4.9,1.3,7.3c0,0.4,0.2,0.8,0.4,1.1S105,46.9,105.5,46.9
				L105.5,46.9z"/>
		</g>
		<g>
		</g>
	</g>
</g>
<circle class="st2" cx="82.7" cy="45.6" r="13.8"/>
</svg>
