<?xml version="1.0" encoding="utf-8"?>
<!-- Generator: Adobe Illustrator 24.0.1, SVG Export Plug-In . SVG Version: 6.00 Build 0)  -->
<svg version="1.1" id="Capa_1" xmlns="http://www.w3.org/2000/svg" xmlns:xlink="http://www.w3.org/1999/xlink" x="0px" y="0px"
	 viewBox="0 0 129 130" style="enable-background:new 0 0 129 130;" xml:space="preserve">
<style type="text/css">
	.st0{fill:#312C29;}
	.st1{fill:#FB6520;stroke:#312C29;stroke-width:2.75;stroke-miterlimit:10;}
	.st2{fill:#FFFFFF;}
</style>
<g>
	<g>
		<path class="st0" d="M86.8,66.1c-1.3-0.8-2.7-1.2-4.1-1.2c0.8-3.1-0.3-6.4-2.9-8.2c-1.3-0.8-2.7-1.2-4.1-1.2
			c0.8-3.1-0.3-6.4-2.9-8.2c-1.1-0.7-2.4-1.1-3.6-1.2l7-10.5c2.4-3.5,1.5-8.2-1.9-10.5c-3.4-2.3-8.1-1.2-10.4,2.3l-25,37.4l-5.5-10
			c-0.8-1.5-2-2.8-3.4-3.8c-3.2-2.2-7.7-1.2-10,2.2c-1.1,1.6-1.5,3.6-1.2,5.5l6,34c1.4,7.7,5.6,14.3,12,18.5c11,7.4,26.2,4,33.9-7.4
			l18.2-27.2C91,73,90.2,68.3,86.8,66.1z M67.4,101.7c-6.5,9.7-19.4,12.5-28.7,6.3c-5.5-3.7-9.2-9.4-10.4-16.1l-6-34
			c-0.2-0.9,0-1.8,0.6-2.6c1.1-1.6,3.2-2.1,4.7-1c0.9,0.6,1.7,1.5,2.3,2.5l7,12.7c0.3,0.6,0.9,0.9,1.5,0.9c0.6,0,1.3-0.3,1.6-0.9
			l26.7-40c1.2-1.8,3.5-2.3,5.2-1.1s2.1,3.5,0.9,5.3L52.6,64c-0.6,0.9-0.4,2.1,0.5,2.6c0.8,0.6,2,0.3,2.6-0.6l9.6-14.4
			c1.2-1.8,3.5-2.3,5.2-1.1c1.7,1.1,2.1,3.5,0.9,5.3l-9.6,14.4c-0.6,0.9-0.4,2.1,0.5,2.6c0.8,0.6,2,0.3,2.6-0.6L72.4,61
			c1.2-1.8,3.5-2.3,5.2-1.1c1.7,1.1,2.1,3.5,0.9,5.3L71,76.4c-0.6,0.9-0.4,2.1,0.5,2.6c0.8,0.6,2,0.3,2.6-0.6l5.3-8
			c1.2-1.8,3.5-2.3,5.2-1.1c1.7,1.1,2.1,3.5,0.9,5.3L67.4,101.7z"/>
	</g>
</g>
<circle class="st1" cx="91" cy="92.1" r="21.7"/>
<g>
	<path class="st0" d="M82.7,79.3l3.9,25.9c0.2,1.1,1.6,1.3,2.1,0.3L93.4,95l11.5,0.7c1.1,0.1,1.6-1.3,0.7-2L84.4,78.3
		C83.6,77.7,82.5,78.3,82.7,79.3z"/>
	<g id="XMLID_100_">
		<g>
			<path class="st2" d="M101.3,93.2l-8.5-0.5c-0.5,0-0.9,0.2-1.1,0.7l-3.5,7.8l-2.9-19.6L101.3,93.2z"/>
		</g>
		<g>
		</g>
	</g>
</g>
<g>
	<g>
		<path class="st0" d="M19.3,28.8c3.8,2.6,7.7,5.1,11.5,7.7c1.6,1.1,3.1-1.5,1.5-2.6c-3.8-2.6-7.7-5.1-11.5-7.7
			C19.2,25.2,17.7,27.8,19.3,28.8L19.3,28.8z"/>
	</g>
</g>
<g>
	<g>
		<path class="st0" d="M39,33.2c-1.8-6.7-3.6-13.4-5.4-20.1c-0.5-1.9-3.4-1.1-2.9,0.8c1.8,6.7,3.6,13.4,5.4,20.1
			C36.7,35.8,39.5,35,39,33.2L39,33.2z"/>
	</g>
</g>
<g>
	<g>
		<path class="st0" d="M48.5,18.6c-2,4.2-4,8.4-6.1,12.5c-0.8,1.7,1.7,3.3,2.6,1.5c2-4.2,4-8.4,6.1-12.5
			C51.9,18.4,49.3,16.9,48.5,18.6L48.5,18.6z"/>
	</g>
</g>
</svg>
