<?xml version="1.0" encoding="utf-8"?>
<!-- Generator: Adobe Illustrator 24.0.1, SVG Export Plug-In . SVG Version: 6.00 Build 0)  -->
<svg version="1.1"
	 id="svg8" inkscape:version="0.92.4 (5da689c313, 2019-01-14)" sodipodi:docname="A.svg" xmlns:cc="http://creativecommons.org/ns#" xmlns:dc="http://purl.org/dc/elements/1.1/" xmlns:inkscape="http://www.inkscape.org/namespaces/inkscape" xmlns:rdf="http://www.w3.org/1999/02/22-rdf-syntax-ns#" xmlns:sodipodi="http://sodipodi.sourceforge.net/DTD/sodipodi-0.dtd" xmlns:svg="http://www.w3.org/2000/svg"
	 xmlns="http://www.w3.org/2000/svg" xmlns:xlink="http://www.w3.org/1999/xlink" x="0px" y="0px" viewBox="0 0 500 390.3"
	 style="enable-background:new 0 0 500 390.3;" xml:space="preserve">
<style type="text/css">
	.st0{fill:#5A6870;}
	.st1{fill:#7C7B7B;}
	.st2{fill:#C2064C;}
	.st3{fill:url(#path6199_1_);}
	.st4{fill:url(#path6214_1_);}
	.st5{fill:url(#path6229_1_);}
	.st6{fill:#646E78;}
	.st7{fill:#8599A2;}
	.st8{fill:#8F9CA3;}
	.st9{fill:url(#polygon6248_1_);}
	.st10{fill:url(#polygon6261_1_);}
	.st11{fill:#B4BDC3;}
	.st12{fill:none;}
	.st13{fill:url(#path6272_1_);}
	.st14{fill:#525E62;}
	.st15{fill:#919EA6;}
	.st16{fill:url(#path6285_1_);}
	.st17{fill:url(#path6292_1_);}
	.st18{fill:url(#polygon6316_1_);}
	.st19{fill:url(#path6333_1_);}
	.st20{fill:url(#path6348_1_);}
	.st21{fill:#FFFFFF;}
</style>
<sodipodi:namedview  bordercolor="#666666" borderopacity="1.0" fit-margin-bottom="0" fit-margin-left="0" fit-margin-right="0" fit-margin-top="0" id="base" inkscape:current-layer="layer1" inkscape:cx="1292.0825" inkscape:cy="333.20379" inkscape:document-units="px" inkscape:pageopacity="0.0" inkscape:pageshadow="2" inkscape:window-height="1017" inkscape:window-maximized="1" inkscape:window-width="1920" inkscape:window-x="1912" inkscape:window-y="-8" inkscape:zoom="0.175" pagecolor="#ffffff" showgrid="false" units="px">
	<inkscape:grid  id="grid823" originx="-66.971031" originy="195.86492" type="xygrid"></inkscape:grid>
</sodipodi:namedview>
<g id="g6170">
	<g id="g6168">
		<path id="polygon6164" class="st0" d="M167.2,214.8h-30.7v-51.6h-14.8v64.2h45.5L167.2,214.8z"/>
		<path id="path6166" class="st0" d="M199.9,202.9h12.1v11.2c-2.3,0.9-6.6,1.7-10.7,1.7c-13.4,0-17.8-6.8-17.8-20.5
			c0-13.1,4.3-20.9,17.6-20.9c7.4,0,11.7,2.3,15.1,6.8l9.2-8.5c-5.6-8.1-15.5-10.5-24.6-10.5c-20.8,0-31.7,11.4-31.7,32.9
			c0,21.5,9.8,33.2,31.6,33.2c10,0,19.7-2.6,25-6.3v-31.2h-25.7L199.9,202.9L199.9,202.9z"/>
	</g>
</g>
<g id="g6182">
	<path id="path6172" class="st1" d="M301.6,183.6h1.7l-13.7,42.9h-2.2L274,185.2h-0.2l-13.4,41.3h-2.3l-13.4-43h1.7l12.8,41.3h0.2
		l13.3-41.3h2.6l13.2,41.3h0.2L301.6,183.6z"/>
	<path id="path6174" class="st1" d="M306.4,205.3c0.2,11.5,4.8,20.5,17,20.5c8.9,0,15.4-4.9,16.8-14.2h1.7
		c-1.2,9.8-8.5,15.9-18.3,15.9c-13.3,0.2-18.8-9.7-18.8-22.5c0-14.3,9.1-22.5,18.8-22.5c13.4,0,19.3,11,18.8,22.8H306.4z
		 M340.6,203.7c0.1-10.6-5.9-19.5-17-19.5c-9.3,0-16.8,7.4-17.3,19.5H340.6z"/>
	<path id="path6176" class="st1" d="M351.8,212.9c2.2,7.3,7.7,13,16.3,13c11.1,0,16.7-9.7,16.7-20.7c0-10-4.8-20.9-16.7-20.9
		c-10.5,0-17.4,7.6-17.4,20.9v0.4H349v-38.7h1.7v28.8h0.2c2-7.8,8.1-13,17.2-13c11.8,0,18.3,10.6,18.3,22.5c0,13-6.9,22.4-18.3,22.4
		c-8.8,0-15.9-6.1-18-14.7h0.1"/>
	<path id="path6178" class="st2" d="M421.2,165.4c19.7,0,30.4,14.3,30.4,31.2s-10.6,31.2-30.4,31.2s-30.4-14.3-30.4-31.2
		C390.8,179.7,401.4,165.4,421.2,165.4z M421.2,226.3c17.7,0,28.3-12.4,28.5-29.6c-0.2-17.2-10.8-29.6-28.5-29.6
		s-28.3,12.4-28.5,29.6C392.8,213.8,403.5,226.3,421.2,226.3z"/>
	<path id="path6180" class="st2" d="M496.8,183.6c-0.4-12.2-8.9-16.4-20-16.4c-8.7,0-19.2,3-19.2,13.7c0,10.8,10.6,12,21.2,14.5
		c11.4,2.8,20.9,4.2,20.9,16.7c0,11.3-11.2,16-21.7,16c-13.9,0-24.2-6.2-24-21.3h1.7c0,14.3,9.2,19.6,22.2,19.6
		c9.7,0,20-4.2,20-14.5c0-12-12-13-21.5-15.3c-10-2.3-20.6-4-20.6-15.7c0-11.8,11.1-15.4,20.9-15.4c12,0,21,4.8,21.7,18.1H496.8
		L496.8,183.6z"/>
</g>
<g id="g6364">
	
		<radialGradient id="path6199_1_" cx="-521.6708" cy="177.9988" r="1.0891" gradientTransform="matrix(47.5359 0 0 -47.5359 24845.9707 8655.1318)" gradientUnits="userSpaceOnUse">
		<stop  offset="0" style="stop-color:#C22043"/>
		<stop  offset="0.5" style="stop-color:#C22043"/>
		<stop  offset="0.744" style="stop-color:#C02042"/>
		<stop  offset="0.846" style="stop-color:#B91F3F"/>
		<stop  offset="0.922" style="stop-color:#AE1E3A"/>
		<stop  offset="0.984" style="stop-color:#A01C33"/>
		<stop  offset="1" style="stop-color:#9B1B31"/>
	</radialGradient>
	<path id="path6199" class="st3" d="M49.8,145.6c-27.3,0-49.5,22.2-49.5,49.6s22.2,49.6,49.5,49.6s49.4-22,49.7-49.2v-0.8
		C99.3,167.5,77.2,145.6,49.8,145.6z"/>
	
		<linearGradient id="path6214_1_" gradientUnits="userSpaceOnUse" x1="145.2591" y1="-21.5513" x2="162.8312" y2="26.728" gradientTransform="matrix(1.4886 0 0 1.4886 -186.6355 184.0668)">
		<stop  offset="0" style="stop-color:#F18996"/>
		<stop  offset="0.236" style="stop-color:#DD5F70"/>
		<stop  offset="0.472" style="stop-color:#CE3D55"/>
		<stop  offset="0.668" style="stop-color:#C52848"/>
		<stop  offset="0.801" style="stop-color:#C22043"/>
		<stop  offset="1" style="stop-color:#C22043"/>
	</linearGradient>
	<path id="path6214" class="st4" d="M16.3,161.6C-0.3,178.2-2,203.4,12.6,218c14.6,14.6,39.8,12.9,56.4-3.7s18.3-41.9,3.7-56.5
		c-6.6-6.6-15.5-9.8-24.8-9.8C36.9,148,25.3,152.6,16.3,161.6"/>
	
		<linearGradient id="path6229_1_" gradientUnits="userSpaceOnUse" x1="136.6422" y1="-9.6134" x2="176.9686" y2="30.7131" gradientTransform="matrix(1.4886 0 0 1.4886 -186.6355 184.0668)">
		<stop  offset="0" style="stop-color:#CE435D"/>
		<stop  offset="0.116" style="stop-color:#BA354F"/>
		<stop  offset="0.271" style="stop-color:#A82944"/>
		<stop  offset="0.447" style="stop-color:#9B203C"/>
		<stop  offset="0.658" style="stop-color:#941B37"/>
		<stop  offset="1" style="stop-color:#921936"/>
	</linearGradient>
	<path id="path6229" class="st5" d="M47.3,217.4l1.2-0.7v-41.9l-0.3-0.5l0.3-0.1v-0.1h0.2l3.7-1.3l0.6,1.1c0,0,0.1,0.1,0.1,0.3
		l-0.1,38.2h9l0.7,1.1c0.1,0.1,0.1,0.2,0.1,0.5v3.9c0,0.2-0.2,0.3-0.2,0.3H48.9c-0.3,0-0.6-0.2-0.7-0.2L47.3,217.4z M92.1,192.8
		H61.4v4.9l0.7,1c0,0,0.1,0.1,0.2,0.1H88c-1.3,19.4-17.7,34.6-37.3,34.6c-10,0-19.3-3.9-26.4-10.9c-6.9-7-10.8-16.3-10.8-26.3
		c0-9.9,3.7-19.4,10.7-26.4c7.1-7,16-10.7,26.7-10.9h2.3c0.2,0,0.2,0,0.2-0.3v-4c0-0.3-0.1-0.4-0.1-0.4l-0.9-1.1l-2,0.3l-1,0.3
		c-23.3,0-40.8,19.5-40.8,42.7c0,11.2,4.4,21.8,12.4,29.7c8,8,18.5,12,29.8,12c11.4,0,22-4.3,30-12.2s12.4-18.5,12.4-29.7v-2.4
		L92.1,192.8z M34.7,173.4c-3.7,0-6.7,3-6.7,6.6c0,3.6,3,6.6,6.7,6.6s6.7-3,6.7-6.6C41.4,176.4,38.4,173.4,34.7,173.4z"/>
	<path id="polygon6231" class="st6" d="M62.2,217.4l-1-1H48.4l-1,1H62.2z"/>
	<path id="polygon6233" class="st7" d="M52.5,212.5l-1.2,1h10l1-1H52.5z"/>
	<path id="polygon6235" class="st8" d="M48.3,173.7h3.1l1.1-0.9h-5.2L48.3,173.7z"/>
	
		<linearGradient id="polygon6248_1_" gradientUnits="userSpaceOnUse" x1="159.8877" y1="6.076" x2="160.6299" y2="6.076" gradientTransform="matrix(1.4886 0 0 1.4886 -186.6355 184.0668)">
		<stop  offset="0" style="stop-color:#B4BDC3"/>
		<stop  offset="5.500000e-02" style="stop-color:#A9B3B9"/>
		<stop  offset="0.506" style="stop-color:#646A71"/>
		<stop  offset="0.833" style="stop-color:#3F464E"/>
		<stop  offset="1" style="stop-color:#343B42"/>
	</linearGradient>
	<path id="polygon6248" class="st9" d="M52.5,172.9l-1.1,0.9l0.1,39.6l1-0.9V172.9z"/>
	
		<linearGradient id="polygon6261_1_" gradientUnits="userSpaceOnUse" x1="166.514" y1="20.7375" x2="167.1681" y2="20.7375" gradientTransform="matrix(1.4886 0 0 1.4886 -186.6355 184.0668)">
		<stop  offset="0" style="stop-color:#B4BBC2"/>
		<stop  offset="0.159" style="stop-color:#959CA2"/>
		<stop  offset="0.56" style="stop-color:#565D62"/>
		<stop  offset="0.851" style="stop-color:#363D42"/>
		<stop  offset="1" style="stop-color:#2B3337"/>
	</linearGradient>
	<path id="polygon6261" class="st10" d="M62.2,217.4v-4.9l-1,1v3L62.2,217.4z"/>
	<path id="polygon6263" class="st11" d="M48.4,216.4l-0.1-42.7l-1-0.9v44.5L48.4,216.4z"/>
	<path id="path6265" class="st12" d="M28.6,179.3c0,3.1,2.5,5.5,5.6,5.5s5.5-2.4,5.5-5.5s-2.5-5.5-5.5-5.5
		C31,173.8,28.6,176.2,28.6,179.3z"/>
	
		<linearGradient id="path6272_1_" gradientUnits="userSpaceOnUse" x1="-504.6066" y1="213.5127" x2="-503.8486" y2="213.5127" gradientTransform="matrix(12.0616 12.0616 12.0616 -12.0616 3540.5608 8836.4385)">
		<stop  offset="0" style="stop-color:#ACBCC3"/>
		<stop  offset="1" style="stop-color:#272B31"/>
	</linearGradient>
	<path id="path6272" class="st13" d="M27.6,179.3c0,3.5,2.9,6.4,6.4,6.4s6.4-2.9,6.4-6.4c0-3.5-2.9-6.4-6.4-6.4
		S27.6,175.8,27.6,179.3z M39.6,179.3c0,3.1-2.5,5.5-5.5,5.5c-3.1,0-5.6-2.4-5.6-5.5s2.5-5.5,5.6-5.5
		C37.1,173.8,39.6,176.2,39.6,179.3z"/>
	<path id="polygon6274" class="st14" d="M61.2,197.7h25.7l0.6-0.6l0.5-0.4l-25.8-0.1L61.2,197.7z"/>
	<path id="polygon6278" class="st15" d="M91.9,192.7l-30.8,0.1l1,1h28.8L91.9,192.7z"/>
	
		<linearGradient id="path6285_1_" gradientUnits="userSpaceOnUse" x1="-532.8735" y1="177.0817" x2="-532.1155" y2="177.0817" gradientTransform="matrix(79.0515 79.0515 79.0515 -79.0515 28142.0371 56291.8867)">
		<stop  offset="0" style="stop-color:#B4BDC3"/>
		<stop  offset="1" style="stop-color:#3F464E"/>
	</linearGradient>
	<path id="path6285" class="st16" d="M91.9,195.2v-2.4l-1,1v1.4c0,11-4.3,21.3-12,29.1c-7.7,7.7-18,12-29.1,12c-11,0-21.3-4.3-29-12
		c-7.8-7.8-12.1-18.1-12.1-29.1c0-22.6,18.4-41.1,41-41.1h1.6l1-1h-2.5c-23.2,0-42,18.8-42,42c0,11.2,4.3,21.8,12.3,29.7
		c7.9,8,18.4,12.3,29.7,12.3s21.8-4.3,29.7-12.3C87.5,216.9,91.9,206.4,91.9,195.2z"/>
	
		<linearGradient id="path6292_1_" gradientUnits="userSpaceOnUse" x1="-546.9807" y1="169.174" x2="-546.2217" y2="169.174" gradientTransform="matrix(-100.3388 0 0 100.3388 -54795.543 -16779.5508)">
		<stop  offset="0" style="stop-color:#B4BDC3"/>
		<stop  offset="1" style="stop-color:#49535B"/>
	</linearGradient>
	<path id="path6292" class="st17" d="M51.4,157.1h-2.1c-9.9,0.2-19.2,4.1-26.3,11.1c-7.2,7.2-11.2,16.8-11.2,27
		c0,10.1,3.9,19.7,11.1,26.9c7.1,7.1,16.4,11,26.4,11.2h1c19.7-0.2,36.2-15.8,37.5-35.5v-1l-0.5,0.5l-0.5,0.6
		c-1.4,19.4-17.6,34.6-37,34.6c-9.9,0-19.2-3.9-26.3-10.9s-10.9-16.3-10.9-26.3S16.6,176,23.6,169c7-7,16.3-10.9,26.3-10.9h2.5
		L51.4,157.1z"/>
	<path id="polygon6303" class="st11" d="M61.2,197.7l1-1v-2.9l-1-1V197.7z"/>
	
		<linearGradient id="polygon6316_1_" gradientUnits="userSpaceOnUse" x1="159.9223" y1="-19.1354" x2="160.5645" y2="-19.1354" gradientTransform="matrix(1.4886 0 0 1.4886 -186.6355 184.0668)">
		<stop  offset="0" style="stop-color:#B4BBC2"/>
		<stop  offset="0.159" style="stop-color:#959CA2"/>
		<stop  offset="0.56" style="stop-color:#565D62"/>
		<stop  offset="0.851" style="stop-color:#363D42"/>
		<stop  offset="1" style="stop-color:#2B3337"/>
	</linearGradient>
	<path id="polygon6316" class="st18" d="M52.4,153.1l-1,0.9v3.1l1,1V153.1z"/>
	
		<radialGradient id="path6333_1_" cx="277.7363" cy="-480.8674" r="61.1711" gradientTransform="matrix(1.0377 0 0 1.0377 -255.0847 676.5513)" gradientUnits="userSpaceOnUse">
		<stop  offset="0" style="stop-color:#FFFFFF"/>
		<stop  offset="0.35" style="stop-color:#FFFFFF"/>
		<stop  offset="0.498" style="stop-color:#FCFCFD"/>
		<stop  offset="0.65" style="stop-color:#F1F4F6"/>
		<stop  offset="0.804" style="stop-color:#E0E6E9"/>
		<stop  offset="0.96" style="stop-color:#C7D2D8"/>
		<stop  offset="1" style="stop-color:#C0CDD3"/>
	</radialGradient>
	<path id="path6333" class="st19" d="M47.9,173.4v43.5h13.9V213h-9.9v-39.6H47.9z M49.3,153.6c-22.6,0.2-41,18.8-41,41.6
		c0,11.1,4.3,21.5,12.2,29.4c7.8,7.8,18.3,12.2,29.3,12.2c11.1,0,21.6-4.3,29.4-12.2c7.8-7.8,12.2-18.3,12.2-29.4v-1.9H61.7v3.8
		h25.7v0.6c-1.4,19.6-17.6,35.1-37.5,35.1c-10.1,0-19.5-3.9-26.6-11c-7.1-7.1-11-16.5-11-26.6s3.9-19.5,11-26.6
		c7.2-7.1,16.6-11,26.6-11h2v-3.9C51.9,153.6,49.3,153.6,49.3,153.6z"/>
	
		<radialGradient id="path6348_1_" cx="276.2306" cy="-481.2921" r="8.93" gradientTransform="matrix(1.0377 0 0 1.0377 -255.0847 676.5513)" gradientUnits="userSpaceOnUse">
		<stop  offset="0" style="stop-color:#FFFFFF"/>
		<stop  offset="0.35" style="stop-color:#FFFFFF"/>
		<stop  offset="0.521" style="stop-color:#FCFDFD"/>
		<stop  offset="0.698" style="stop-color:#F2F5F6"/>
		<stop  offset="0.878" style="stop-color:#E0E7EB"/>
		<stop  offset="1" style="stop-color:#D0DBE0"/>
	</radialGradient>
	<path id="path6348" class="st20" d="M28.1,179.3c0,3.3,2.7,6,6,6c3.3,0,6-2.7,6-6c0-3.3-2.7-6-6-6S28.1,176,28.1,179.3"/>
	<g id="g6362">
		<path id="path6350" class="st21" d="M35.1,174.5c1.4,0,2.6,0.5,3.6,1.3c-1-1.4-2.8-2.3-4.7-2.3c-3.3,0-6,2.7-6,6
			c0,1.9,0.9,3.5,2.3,4.7c-0.8-1-1.2-2.3-1.2-3.5C29.1,177.1,31.8,174.5,35.1,174.5"/>
		<path id="path6352" class="st21" d="M51.8,153.6h-2c-22.9,0-41.5,18.6-41.5,41.6c0,11.1,4.3,21.5,12.2,29.4l0.7,0.7
			c-7.4-7.7-11.4-17.9-11.4-28.6C9.8,173.7,26,154.8,51.8,153.6"/>
		<path id="path6354" class="st21" d="M51.8,213c0,0,2.8,0.8,9.8,0.8V213H51.8z"/>
		<path id="path6356" class="st21" d="M51.8,174.6v-1.2h-3.9v43.5c0,0,1.2-6.6,1.2-42.3H51.8z"/>
		<path id="path6358" class="st21" d="M91.4,193.2H61.7v3.9h1v-2.7C88.6,194.4,91.4,193.2,91.4,193.2"/>
		<path id="path6360" class="st21" d="M87.4,197.1v0.6c-1.3,19.6-17.6,35.1-37.5,35.1c-10.1,0-19.5-3.9-26.6-11
			c-4.7-4.6-7.9-10.3-9.6-16.4c4.4,16.2,19.2,27.9,36.9,27.9c18.9,0,36.3-14.8,37.4-36.2H87.4z"/>
	</g>
</g>
</svg>
