<?xml version="1.0" encoding="utf-8"?>
<!-- Generator: Adobe Illustrator 24.0.1, SVG Export Plug-In . SVG Version: 6.00 Build 0)  -->
<svg version="1.1" id="Layer_1" xmlns="http://www.w3.org/2000/svg" xmlns:xlink="http://www.w3.org/1999/xlink" x="0px" y="0px"
	 viewBox="0 0 162.4 139.2" style="enable-background:new 0 0 162.4 139.2;" xml:space="preserve">
<style type="text/css">
	.st0{fill:#010101;}
	.st1{font-family:'MicrosoftSansSerif';}
	.st2{font-size:14px;}
	.st3{fill:#312C29;}
	.st4{fill:#F26527;}
</style>
<text transform="matrix(1 0 0 1 44.2778 135.2964)" class="st0 st1 st2">OUTDOOR</text>
<g>
	<path class="st3" d="M85.6,100.4H75.4c-0.8,0-1.5-0.7-1.5-1.5v-18c0-0.8,0.7-1.5,1.5-1.5h10.3c0.8,0,1.5,0.7,1.5,1.5v18
		C87.1,99.8,86.5,100.4,85.6,100.4z"/>
	<g id="XMLID_84_">
		<g>
			<rect x="76.9" y="82.4" class="st4" width="7.3" height="15"/>
		</g>
		<g>
		</g>
	</g>
</g>
<g>
	<path class="st3" d="M97.5,108.2H62.6c-0.8,0-1.5-0.7-1.5-1.5v-7.8c0-0.8,0.7-1.5,1.5-1.5h34.8c0.8,0,1.5,0.7,1.5,1.5v7.8
		C99,107.5,98.3,108.2,97.5,108.2z"/>
	<g id="XMLID_87_">
		<g>
			<rect x="64.1" y="100.4" class="st4" width="31.8" height="4.8"/>
		</g>
		<g>
		</g>
	</g>
</g>
<g>
	<path class="st3" d="M131.4,82.4H30.6c-0.8,0-1.5-0.7-1.5-1.5V12.4c0-0.8,0.7-1.5,1.5-1.5h15c0.8,0,1.5,0.7,1.5,1.5v2.7h13.6v-2.7
		c0-0.8,0.7-1.5,1.5-1.5h36.6c0.8,0,1.5,0.7,1.5,1.5V15h13.6v-2.7c0-0.8,0.7-1.5,1.5-1.5h16c0.8,0,1.5,0.7,1.5,1.5v68.6
		C132.9,81.8,132.2,82.4,131.4,82.4z M32.1,79.4h97.7V13.9h-13v2.7c0,0.8-0.7,1.5-1.5,1.5H98.8c-0.8,0-1.5-0.7-1.5-1.5v-2.7H63.7
		v2.7c0,0.8-0.7,1.5-1.5,1.5H45.6c-0.8,0-1.5-0.7-1.5-1.5v-2.7h-12V79.4z"/>
</g>
<g>
	<path class="st3" d="M62.2,18.1H45.6c-0.8,0-1.5-0.7-1.5-1.5V7.3c0-0.8,0.7-1.5,1.5-1.5h16.6c0.8,0,1.5,0.7,1.5,1.5v9.3
		C63.7,17.4,63,18.1,62.2,18.1z"/>
	<g id="XMLID_89_">
		<g>
			<rect x="47.1" y="8.8" class="st4" width="13.6" height="6.3"/>
		</g>
		<g>
		</g>
	</g>
</g>
<g>
	<path class="st3" d="M115.4,18H98.8c-0.8,0-1.5-0.7-1.5-1.5V7.2c0-0.8,0.7-1.5,1.5-1.5h16.6c0.8,0,1.5,0.7,1.5,1.5v9.3
		C116.9,17.4,116.2,18,115.4,18z"/>
	<g id="XMLID_88_">
		<g>
			<rect x="100.3" y="8.7" class="st4" width="13.6" height="6.3"/>
		</g>
		<g>
		</g>
	</g>
</g>
</svg>
