<?xml version="1.0" encoding="utf-8"?>
<!-- Generator: Adobe Illustrator 24.0.1, SVG Export Plug-In . SVG Version: 6.00 Build 0)  -->
<svg version="1.1" id="Capa_1" xmlns="http://www.w3.org/2000/svg" xmlns:xlink="http://www.w3.org/1999/xlink" x="0px" y="0px"
	 viewBox="0 0 129 130" style="enable-background:new 0 0 129 130;" xml:space="preserve">
<style type="text/css">
	.st0{fill:#312C29;}
	.st1{fill:#FB6520;}
	.st2{fill:#FFFFFF;}
</style>
<path id="Shape_7_" class="st0" d="M90.4,26.4L65.2,15.1c-0.4-0.2-0.9-0.2-1.3,0L38.6,26.4c-0.6,0.3-1,0.9-1,1.6v27
	c0,6.1,2.9,11.8,7.7,15.3l17.4,12.9c1.1,0.8,2.5,0.8,3.6,0l17.4-12.9c4.8-3.6,7.7-9.3,7.7-15.3v-27C91.4,27.3,91,26.6,90.4,26.4z"/>
<g id="XMLID_98_">
	<g>
		<path class="st1" d="M88,29.1v25.9c0,5-2.3,9.6-6.3,12.5L64.5,80.2L47.2,67.5c-3.9-2.9-6.3-7.6-6.3-12.5V29.1l23.5-10.5L88,29.1z"
			/>
	</g>
	<g>
	</g>
</g>
<path id="Shape_8_" class="st0" d="M63.8,22.9l-18.5,8.3c-0.6,0.3-1,0.9-1,1.6v22.5c0,3.9,1.8,7.5,4.9,9.7l14.3,10.6
	c0.6,0.4,1.4,0.4,2,0L79.8,65c3.1-2.3,4.9-5.9,4.9-9.7V32.8c0-0.7-0.4-1.3-1-1.6l-18.5-8.3C64.7,22.7,64.2,22.7,63.8,22.9z"/>
<g id="XMLID_99_">
	<g>
		<path class="st2" d="M81.3,33.9v21.4c0,2.8-1.3,5.3-3.5,7l-13.3,9.8l-13.3-9.8c-2.2-1.6-3.5-4.2-3.5-7V33.9l16.8-7.5L81.3,33.9z"
			/>
	</g>
	<g>
	</g>
</g>
<g id="Page-1">
	<g id="_x30_33---Insurance">
		<path id="Shape_2_" class="st0" d="M28,72l-3.6-8.7c-0.8-1.8-2.4-3-4.3-3.2c-1.9-0.2-3.8,0.6-4.9,2.2c-1.1,1.6-1.4,3.7-0.6,5.5
			l6.6,14.8c0.9,2,2.1,3.8,3.6,5.4l10.4,10.6c-0.6,0.6-0.9,1.5-0.9,2.3v13.8c0,1.9,1.5,3.4,3.4,3.4h18.5c1.9,0,3.4-1.5,3.4-3.4
			v-13.8c0-1.9-1.5-3.4-3.4-3.4v-3.2c0.1-4.1-1.2-8-3.7-11.3c-1.4-1.9-3.4-3.4-5.6-4.2c-3.5-1.5-6.8-3.7-9.6-6.3
			C34.5,70.3,30.8,70.1,28,72z M56.1,114.7H37.6v-13.8h18.5V114.7z M49.8,85.2c2,2.6,3,5.8,2.9,9.1v3.2H38.8L27.2,85.5
			c-1.2-1.3-2.2-2.7-3-4.4l-6.6-14.8c-0.3-0.6-0.2-1.4,0.1-2c0.4-0.6,1-0.9,1.7-0.9c0.8,0,1.5,0.5,1.8,1.2l3.8,9
			c1,2.4,2.4,4.6,4.2,6.4l7.7,7.9c0.4,0.4,1,0.6,1.6,0.5c0.6-0.2,1-0.6,1.2-1.2c0.2-0.6,0-1.2-0.5-1.7l-7.7-7.9
			c-0.8-0.8-1.5-1.7-2.1-2.6c1.6-1.3,3.9-1.2,5.4,0.1c3.1,3,6.8,5.3,10.7,6.9C47.3,82.7,48.7,83.8,49.8,85.2z"/>
		<path id="Shape_3_" class="st0" d="M51,106.1h-1.7c-0.9,0-1.7,0.8-1.7,1.7c0,0.9,0.8,1.7,1.7,1.7H51c0.9,0,1.7-0.8,1.7-1.7
			C52.7,106.8,52,106.1,51,106.1z"/>
		<path id="Shape_4_" class="st0" d="M107.8,82.6l6.6-14.8c0.8-1.8,0.6-3.9-0.5-5.5s-3-2.5-4.9-2.2s-3.6,1.5-4.3,3.3L101,72
			c-2.8-1.9-6.6-1.7-9.2,0.5c-2.8,2.7-6.1,4.8-9.6,6.3c-2.2,0.8-4.2,2.3-5.6,4.2c-2.4,3.2-3.7,7.2-3.7,11.3v3.2
			c-1.9,0-3.4,1.5-3.4,3.4v13.8c0,1.9,1.5,3.4,3.4,3.4h18.5c1.9,0,3.4-1.5,3.4-3.4v-13.8c0-0.9-0.3-1.7-0.9-2.3L104.2,88
			C105.7,86.4,106.9,84.6,107.8,82.6z M91.4,114.7H72.9v-13.8h18.5V114.7z M90.1,97.5H76.2v-3.2c-0.1-3.3,1-6.5,2.9-9.1
			c1-1.4,2.4-2.5,4-3.1c4-1.6,7.6-4,10.7-6.9c1.6-1.3,3.8-1.4,5.5-0.1c-0.6,0.9-1.3,1.8-2.1,2.6l-7.7,7.9c-0.6,0.7-0.6,1.7,0,2.4
			s1.7,0.7,2.4,0l7.7-7.9c1.8-1.8,3.2-4,4.2-6.4l3.8-9c0.3-0.8,1-1.2,1.8-1.2c0.7,0,1.3,0.4,1.7,0.9c0.4,0.6,0.4,1.3,0.1,2
			l-6.6,14.8c-0.7,1.6-1.7,3.1-3,4.4L90.1,97.5z"/>
		<path id="Shape_5_" class="st0" d="M79.6,106.1h-1.7c-0.9,0-1.7,0.8-1.7,1.7c0,0.9,0.8,1.7,1.7,1.7h1.7c0.9,0,1.7-0.8,1.7-1.7
			C81.3,106.8,80.5,106.1,79.6,106.1z"/>
		<path id="Shape_6_" class="st0" d="M55.4,51.4c-0.7-0.6-1.8-0.4-2.4,0.3c-0.6,0.8-0.4,1.8,0.3,2.4l6.7,5.2c0.3,0.2,0.6,0.3,1,0.3
			c0.1,0,0.2,0,0.3,0c0.5-0.1,0.9-0.3,1.1-0.7L76,38.2c0.3-0.5,0.4-1.2,0.1-1.7c-0.3-0.6-0.8-0.9-1.4-1c-0.6,0-1.2,0.3-1.5,0.8
			L60.7,55.5L55.4,51.4z"/>
	</g>
</g>
</svg>
