<?xml version="1.0" encoding="utf-8"?>
<!-- Generator: Adobe Illustrator 24.0.1, SVG Export Plug-In . SVG Version: 6.00 Build 0)  -->
<svg version="1.1" id="Layer_1" xmlns="http://www.w3.org/2000/svg" xmlns:xlink="http://www.w3.org/1999/xlink" x="0px" y="0px"
	 viewBox="0 0 117 114" style="enable-background:new 0 0 117 114;" xml:space="preserve">
<style type="text/css">
	.st0{fill:#312C29;}
	.st1{fill:#FB6520;}
	.st2{fill:#FFFFFF;}
</style>
<g>
	<path class="st0" d="M52.2,61.8c-0.8-0.3-1.5-1-1.9-1.7c-0.2,0-0.3,0-0.5,0c-0.6,0-1.1-0.1-1.6-0.3l1.3,2.3
		c0.5,0.9,1.6,1.2,2.5,0.7c0.2-0.1,0.3-0.2,0.4-0.3C52.3,62.3,52.2,62.1,52.2,61.8z"/>
</g>
<g>
	<path class="st0" d="M39.9,67.2c-1.8,0.2-3.6,0.3-5.5,0.1c-1-0.1-1.8-0.9-1.7-2l0.3-5.1c-1.6-0.2-3.2-0.6-4.8-1.1l-2,4.7
		c-0.2,0.4-0.6,0.8-1,1c-0.5,0.2-1,0.2-1.4,0c-3.4-1.5-6.4-3.5-9.1-6c-0.7-0.7-0.8-1.9-0.1-2.6l3.5-3.7C17,51.3,16,50,15.1,48.5
		l-4.6,2.3c-0.9,0.5-2,0.1-2.5-0.8C6.4,46.7,5.4,43.2,5,39.5c-0.1-1,0.6-1.9,1.6-2l5-0.6c-0.1-1.6,0-3.3,0.3-4.9l-5-1.2
		c-1-0.2-1.6-1.2-1.4-2.2c0.9-3.6,2.3-7,4.4-10c0.3-0.4,0.7-0.7,1.2-0.8c0.5-0.1,1,0,1.4,0.3l4.3,2.8c1-1.3,2.1-2.5,3.4-3.6
		l-3.1-4.1c-0.3-0.4-0.4-0.9-0.3-1.4c0.1-0.5,0.3-0.9,0.7-1.2c3-2.2,6.3-3.9,9.8-4.9c0.5-0.1,1-0.1,1.4,0.1c0.4,0.2,0.8,0.6,0.9,1.1
		l1.5,4.9c1.6-0.4,3.2-0.6,4.9-0.6l0.3-5.1c0.1-1,0.9-1.8,1.9-1.7c3.7,0.2,7.3,1.1,10.7,2.5c0.4,0.2,0.8,0.6,1,1
		c0.2,0.5,0.2,1,0,1.4l-2,4.7c1.5,0.8,2.8,1.7,4.1,2.7l3.5-3.7c0.7-0.7,1.9-0.8,2.6-0.1c2.7,2.5,4.9,5.5,6.5,8.8
		c0.5,0.9,0.1,2-0.8,2.5l-4.6,2.3c0.6,1.5,1.1,3.1,1.4,4.7l5-0.6c0.5,0,1,0.1,1.4,0.4c0.4,0.3,0.6,0.8,0.7,1.2
		c0.4,3.8,0.2,7.5-0.7,11c-0.1,0.5-0.4,0.9-0.8,1.1c-0.4,0.3-0.9,0.3-1.4,0.2l-5-1.2c-0.5,1.6-1.2,3.1-2,4.5l4.3,2.8
		c0.8,0.6,1.1,1.7,0.5,2.6c-2,3.1-4.6,5.7-7.5,7.9c-0.8,0.6-2,0.4-2.6-0.4l-3-4.1c-1.4,0.9-2.9,1.6-4.4,2.2l1.4,4.9
		c0.3,1-0.3,2-1.2,2.3C43.5,66.7,41.7,67,39.9,67.2z"/>
	<g id="XMLID_95_">
		<g>
			<path class="st1" d="M59.2,35.1l4.9-0.6c0.1,2,0,4.1-0.4,6.1l-4.8-1.2c-1-0.2-2,0.4-2.2,1.4c-0.6,2.4-1.6,4.7-2.9,6.7
				c-0.6,0.9-0.3,2,0.5,2.6l4.1,2.7c-1.2,1.6-2.6,3.1-4.1,4.4l-3-4c-0.3-0.4-0.7-0.7-1.2-0.7c-0.5-0.1-1,0-1.4,0.3
				c-2,1.5-4.2,2.5-6.5,3.2c-1,0.3-1.5,1.3-1.2,2.3l1.4,4.8c-1.9,0.4-4,0.7-6,0.7l0.3-5c0.1-1-0.7-1.9-1.7-1.9
				c-2.5-0.2-4.8-0.7-7.1-1.7c-0.4-0.2-1-0.2-1.4,0c-0.5,0.2-0.8,0.5-1,1l-2,4.6c-1.8-0.9-3.5-2-5-3.3l3.4-3.6
				c0.3-0.4,0.5-0.8,0.5-1.3s-0.2-1-0.6-1.3c-1.8-1.7-3.2-3.6-4.3-5.9c-0.5-0.9-1.6-1.3-2.5-0.8l-4.5,2.2c-0.8-1.8-1.3-3.8-1.7-5.8
				l4.9-0.6c1-0.1,1.7-1,1.6-2c0,0,0-0.1,0-0.1c-0.3-2.4-0.1-4.8,0.5-7.2c0.1-0.5,0-1-0.2-1.4c-0.3-0.4-0.7-0.7-1.1-0.8l-4.9-1.2
				c0.6-1.9,1.4-3.8,2.4-5.5l4.1,2.7c0.9,0.6,2,0.3,2.6-0.5c1.3-2,3-3.8,5-5.3c0.8-0.6,1-1.8,0.4-2.6l-3-4c1.7-1.1,3.5-2,5.4-2.7
				l1.4,4.8c0.1,0.5,0.5,0.9,0.9,1.1c0.4,0.2,0.9,0.3,1.4,0.1c2.5-0.8,4.6-1,7.2-0.8c0.5,0,1-0.1,1.3-0.5s0.6-0.8,0.6-1.3l0.3-5
				c2,0.2,4,0.7,5.9,1.4l-2,4.6c-0.4,0.9,0,2,1,2.4c2.3,1,4.3,2.3,6.1,4c0.7,0.7,1.9,0.7,2.6-0.1l3.4-3.6c1.4,1.5,2.6,3.1,3.6,4.8
				L55.9,24c-0.4,0.2-0.8,0.6-0.9,1.1s-0.1,1,0.1,1.4c1.1,2.2,1.8,4.6,2.1,7c0.1,0.5,0.3,0.9,0.7,1.2S58.7,35.2,59.2,35.1z"/>
		</g>
		<g>
		</g>
	</g>
</g>
<path d="M63.3,67.7"/>
<path d="M46.6,54"/>
<path class="st0" d="M48.5,61.2l17.1,17.2l7.9,7.9c-0.2,1.2-0.4,2.3-0.4,3.5c-0.1,9.9,7.9,18,17.9,18.1c1.5,0,3-0.2,4.5-0.5
	c0.8-0.2,1.3-1,1.1-1.8c-0.1-0.3-0.2-0.5-0.4-0.7l-9.3-9.4l2.5-7.4l7.4-2.5l9.3,9.4c0.6,0.6,1.5,0.6,2.1,0c0.2-0.2,0.3-0.4,0.4-0.7
	c2.5-9.6-3.3-19.4-12.9-21.9c-1.5-0.4-3-0.6-4.5-0.6c-1.2,0-2.4,0.1-3.5,0.4l-32.8-33c0.2-1.2,0.4-2.3,0.4-3.5c0-10-8-18.1-18-18.1
	c-10,0-18.1,8-18.1,18s8,18.1,18,18.1c1.2,0,2.4-0.1,3.5-0.4L48.5,61.2z"/>
<g id="XMLID_96_">
	<g>
		<path class="st2" d="M105.7,86.2c0.4,1.5,0.5,3.1,0.4,4.6l-7.9-7.9c-0.4-0.4-1-0.6-1.5-0.4l-9,3c-0.4,0.2-0.8,0.5-0.9,0.9l-3,9
			c-0.2,0.5,0,1.1,0.4,1.5l7.9,8c-0.3,0-0.6,0-0.8,0c-8.3,0-15-6.7-15-14.9c0-1.3,0.2-2.5,0.5-3.8c0.1-0.5,0-1.1-0.4-1.4l-34-34.2
			c-0.4-0.4-0.9-0.5-1.4-0.4c-8.1,2-16.3-2.9-18.4-11c-2-8.1,2.9-16.3,11-18.4c8.1-2,16.3,2.9,18.4,11c0.6,2.5,0.6,5,0,7.5
			c-0.1,0.5,0,1.1,0.4,1.4l34,34.2c0.4,0.4,0.9,0.5,1.4,0.4C95.5,73.3,103.7,78.2,105.7,86.2z"/>
	</g>
	<g>
	</g>
</g>
<path class="st0" d="M45.4,41.5c0.5-0.3,0.7-0.8,0.7-1.3l0-9c0-0.5-0.3-1-0.7-1.3L38,25.3c-0.5-0.3-1.1-0.3-1.5,0l-7.5,4.5
	c-0.5,0.3-0.7,0.8-0.7,1.3l0,9c0,0.5,0.3,1,0.7,1.3l7.5,4.5c0.5,0.3,1.1,0.3,1.5,0L45.4,41.5z M31.1,39.3l0-7.3l6-3.6l6,3.6l0,7.3
	l-6,3.6L31.1,39.3z"/>
<path class="st0" d="M79.5,80.4l-33-33.2l2.1-2.1l33,33.2L79.5,80.4z"/>
<path class="st0" d="M45.4,41.5c0.5-0.3,0.7-0.8,0.7-1.3l0-9c0-0.5-0.3-1-0.7-1.3L38,25.3c-0.5-0.3-1.1-0.3-1.5,0l-7.5,4.5
	c-0.5,0.3-0.7,0.8-0.7,1.3l0,9c0,0.5,0.3,1,0.7,1.3l7.5,4.5c0.5,0.3,1.1,0.3,1.5,0L45.4,41.5z"/>
<g id="XMLID_97_">
	<g>
		<polygon class="st1" points="43.2,32 43.2,39.3 37.1,42.9 31.1,39.3 31.2,32 37.2,28.4 		"/>
	</g>
	<g>
	</g>
</g>
</svg>
