<?xml version="1.0" encoding="utf-8"?>
<!-- Generator: Adobe Illustrator 24.0.1, SVG Export Plug-In . SVG Version: 6.00 Build 0)  -->
<svg version="1.1" id="Layer_1" xmlns="http://www.w3.org/2000/svg" xmlns:xlink="http://www.w3.org/1999/xlink" x="0px" y="0px"
	 viewBox="0 0 117 114" style="enable-background:new 0 0 117 114;" xml:space="preserve">
<style type="text/css">
	.st0{fill:#312C29;}
	.st1{fill:#FB6520;stroke:#312C29;stroke-width:2;stroke-miterlimit:10;}
</style>
<g>
	<path class="st0" d="M110.2,23.1H10c-0.8,0-1.5-0.7-1.5-1.5V6.3c0-0.8,0.7-1.5,1.5-1.5h100.2c0.8,0,1.5,0.7,1.5,1.5v15.3
		C111.7,22.5,111,23.1,110.2,23.1z M11.5,20.1h97.2V7.8H11.5V20.1z"/>
</g>
<g>
	<path class="st0" d="M110.2,108.4H10c-0.8,0-1.5-0.7-1.5-1.5V21.6c0-0.8,0.7-1.5,1.5-1.5h100.2c0.8,0,1.5,0.7,1.5,1.5v85.2
		C111.7,107.7,111,108.4,110.2,108.4z M11.5,105.4h97.2V23.1H11.5V105.4z"/>
</g>
<g>
	<g>
		<path class="st0" d="M17.1,16.2c-0.1,0-0.2,0-0.3,0c-0.1,0-0.2,0-0.3-0.1c-0.1,0-0.2-0.1-0.3-0.1c-0.1-0.1-0.1-0.1-0.2-0.2
			c-0.1-0.1-0.1-0.1-0.2-0.2c0-0.1-0.1-0.2-0.1-0.3c0-0.1-0.1-0.2-0.1-0.3c0-0.1,0-0.2,0-0.3c0-0.1,0-0.2,0-0.3c0-0.1,0-0.2,0.1-0.3
			c0-0.1,0.1-0.2,0.1-0.3c0.1-0.1,0.1-0.2,0.2-0.2c0.3-0.4,0.9-0.5,1.4-0.4c0.1,0,0.2,0.1,0.3,0.1c0.1,0,0.2,0.1,0.3,0.1
			c0.1,0.1,0.2,0.1,0.2,0.2c0.3,0.3,0.4,0.7,0.4,1.1c0,0.4-0.2,0.8-0.4,1.1c-0.1,0.1-0.1,0.1-0.2,0.2c-0.1,0-0.2,0.1-0.3,0.1
			c-0.1,0-0.2,0.1-0.3,0.1C17.3,16.2,17.2,16.2,17.1,16.2z"/>
	</g>
	<g>
		<path class="st0" d="M27.8,14.7c0-0.8,0.7-1.5,1.5-1.5l0,0c0.8,0,1.5,0.7,1.5,1.5l0,0c0,0.8-0.7,1.5-1.5,1.5l0,0
			C28.5,16.2,27.8,15.6,27.8,14.7z"/>
	</g>
	<g>
		<path class="st0" d="M41.5,16.2c-0.1,0-0.2,0-0.3,0c-0.1,0-0.2,0-0.3-0.1c-0.1,0-0.2-0.1-0.3-0.1c-0.1-0.1-0.2-0.1-0.2-0.2
			c-0.3-0.3-0.4-0.7-0.4-1.1c0-0.1,0-0.2,0-0.3c0-0.1,0-0.2,0.1-0.3c0-0.1,0.1-0.2,0.1-0.3c0.1-0.1,0.1-0.2,0.2-0.2
			c0.1-0.1,0.1-0.1,0.2-0.2c0.1-0.1,0.2-0.1,0.3-0.1c0.1,0,0.2-0.1,0.3-0.1c0.5-0.1,1,0.1,1.4,0.4c0.1,0.1,0.1,0.1,0.2,0.2
			c0,0.1,0.1,0.2,0.1,0.3c0,0.1,0.1,0.2,0.1,0.3c0,0.1,0,0.2,0,0.3c0,0.4-0.2,0.8-0.4,1.1C42.2,16.1,41.9,16.2,41.5,16.2z"/>
	</g>
</g>
<g>
	<path class="st0" d="M54.2,100.3c-0.8-0.1-1.4-0.9-1.2-1.7l0,0c0.1-0.8,0.9-1.4,1.7-1.2l0,0c0.8,0.1,1.4,0.9,1.2,1.7l0,0
		c-0.1,0.7-0.8,1.3-1.5,1.3l0,0C54.4,100.3,54.3,100.3,54.2,100.3z M64.9,99.1c-0.2-0.8,0.4-1.6,1.2-1.7l0,0
		c0.8-0.2,1.6,0.4,1.7,1.2l0,0c0.1,0.8-0.4,1.6-1.2,1.7l0,0c-0.1,0-0.2,0-0.3,0l0,0C65.6,100.3,65,99.8,64.9,99.1z M42.6,96.1
		c-0.7-0.4-1-1.3-0.5-2l0,0c0.4-0.7,1.3-1,2-0.6l0,0c0.7,0.4,1,1.3,0.5,2.1l0,0c-0.3,0.5-0.8,0.8-1.3,0.8l0,0
		C43.1,96.3,42.8,96.2,42.6,96.1z M76.2,95.5c-0.4-0.7-0.2-1.6,0.5-2l0,0c0.7-0.4,1.6-0.2,2,0.5l0,0c0.4,0.7,0.2,1.6-0.5,2l0,0
		c-0.2,0.1-0.5,0.2-0.8,0.2l0,0C77,96.2,76.5,96,76.2,95.5z M33.1,88.1c-0.5-0.6-0.5-1.6,0.2-2.1l0,0c0.6-0.5,1.6-0.4,2.1,0.2l0,0
		c0.5,0.6,0.5,1.6-0.2,2.1l0,0c-0.3,0.2-0.6,0.4-1,0.4l0,0C33.8,88.6,33.4,88.5,33.1,88.1z M85.7,88.2c-0.6-0.5-0.7-1.5-0.2-2.1l0,0
		c0.5-0.6,1.5-0.7,2.1-0.2l0,0c0.6,0.5,0.7,1.5,0.2,2.1l0,0c-0.3,0.4-0.7,0.5-1.1,0.5l0,0C86.3,88.6,85.9,88.5,85.7,88.2z
		 M26.8,77.4c-0.3-0.8,0.1-1.6,0.9-1.9l0,0c0.8-0.3,1.6,0.1,1.9,0.9l0,0c0.3,0.8-0.1,1.6-0.9,1.9l0,0c-0.2,0.1-0.3,0.1-0.5,0.1l0,0
		C27.6,78.4,27.1,78,26.8,77.4z M92,78.2c-0.8-0.3-1.2-1.1-0.9-1.9l0,0c0.3-0.8,1.1-1.2,1.9-0.9l0,0c0.8,0.3,1.2,1.1,0.9,1.9l0,0
		c0,0,0,0,0,0l0,0c-0.2,0.6-0.8,1-1.4,1l0,0C92.4,78.3,92.2,78.3,92,78.2z M24.7,65.2c0-0.8,0.7-1.5,1.5-1.5l0,0
		c0.8,0,1.5,0.7,1.5,1.5l0,0c0,0.8-0.7,1.5-1.5,1.5l0,0C25.3,66.7,24.7,66,24.7,65.2z M93.1,65.1C93.1,65.1,93.1,65.1,93.1,65.1
		L93.1,65.1c0-0.1,0-0.1,0-0.1l0,0c0-0.8,0.7-1.5,1.5-1.5l0,0c0.8,0,1.5,0.7,1.5,1.5l0,0c0,0,0,0.1,0,0.1l0,0c0,0,0,0,0,0.1l0,0
		c0,0.8-0.7,1.5-1.5,1.5l0,0C93.8,66.6,93.1,65.9,93.1,65.1z M27.7,54.9c-0.8-0.3-1.2-1.1-0.9-1.9l0,0c0.3-0.8,1.1-1.2,1.9-0.9l0,0
		c0.8,0.3,1.2,1.1,0.9,1.9l0,0c-0.2,0.6-0.8,1-1.4,1l0,0C28,55,27.8,54.9,27.7,54.9z M91.1,53.8c-0.3-0.8,0.1-1.6,0.9-1.9l0,0
		c0.8-0.3,1.6,0.1,1.9,0.9l0,0l0,0l0,0c0.3,0.8-0.1,1.6-0.9,1.9l0,0c-0.2,0.1-0.4,0.1-0.5,0.1l0,0C91.9,54.8,91.3,54.4,91.1,53.8z
		 M33.2,44.3c-0.6-0.5-0.7-1.5-0.2-2.1l0,0c0.5-0.6,1.5-0.7,2.1-0.2l0,0c0.6,0.5,0.7,1.5,0.2,2.1l0,0c-0.3,0.4-0.7,0.5-1.1,0.5l0,0
		C33.8,44.7,33.4,44.5,33.2,44.3z M85.4,44c-0.5-0.6-0.5-1.6,0.2-2.1l0,0c0.6-0.5,1.6-0.5,2.1,0.2l0,0c0.5,0.6,0.5,1.6-0.2,2.1l0,0
		c-0.3,0.2-0.6,0.4-1,0.4l0,0C86.1,44.5,85.7,44.3,85.4,44z M41.9,36.2c-0.4-0.7-0.2-1.6,0.6-2.1l0,0c0,0,0,0,0,0l0,0
		c0.7-0.4,1.6-0.2,2.1,0.5l0,0c0.4,0.7,0.2,1.6-0.5,2.1l0,0c-0.2,0.1-0.5,0.2-0.8,0.2l0,0C42.7,37,42.2,36.7,41.9,36.2z M76.7,36.7
		c-0.7-0.4-1-1.3-0.6-2l0,0c0.4-0.7,1.3-1,2.1-0.6l0,0c0.7,0.4,1,1.3,0.5,2.1l0,0c-0.3,0.5-0.8,0.8-1.3,0.8l0,0
		C77.2,36.9,76.9,36.8,76.7,36.7z M52.9,31.7c-0.1-0.8,0.4-1.6,1.2-1.7l0,0c0.8-0.1,1.6,0.4,1.7,1.2l0,0c0.1,0.8-0.4,1.6-1.2,1.7
		l0,0c-0.1,0-0.2,0-0.3,0l0,0C53.6,32.9,53,32.4,52.9,31.7z M66,32.8c-0.8-0.2-1.4-0.9-1.2-1.7l0,0c0.1-0.8,0.9-1.4,1.7-1.2l0,0
		c0.8,0.1,1.4,0.9,1.2,1.7l0,0c-0.1,0.7-0.8,1.2-1.5,1.2l0,0C66.1,32.9,66.1,32.9,66,32.8z"/>
</g>
<circle class="st1" cx="60.1" cy="65.1" r="23.6"/>
<path class="st0" d="M68.4,57l-9.9,14.2l-7-6.1c-0.8-0.6-1.9-0.5-2.5,0.2c-0.6,0.8-0.5,1.9,0.2,2.5l8.5,7c0.3,0.3,0.7,0.4,1.1,0.4
	c0.1,0,0.2,0,0.2,0c0.5-0.1,0.9-0.3,1.2-0.7l11-15.8c0.6-0.8,0.4-1.9-0.4-2.5C70.1,55.7,69,55.9,68.4,57z"/>
</svg>
