<svg xmlns="http://www.w3.org/2000/svg" viewBox="0 0 111.95 102.51"><defs><style>.cls-1{isolation:isolate;}.cls-2{fill:#010101;}.cls-3{fill:#365471;}.cls-4{fill:#404d66;}.cls-5{fill:#e3e2df;}.cls-6{fill:#eeedee;}.cls-11,.cls-7{fill:#fff;}.cls-8{fill:#e1754d;}.cls-9{fill:#f47f57;}.cls-10{fill:#f26527;}.cls-11{stroke:#204c59;stroke-miterlimit:10;}.cls-12{fill:#88cb96;}.cls-13{opacity:0.2;mix-blend-mode:multiply;}</style></defs><title>preview layout</title><g class="cls-1"><g id="Layer_1" data-name="Layer 1"><path class="cls-2" d="M118.26,70.79v0Z" transform="translate(-8.32 -7.45)"/><path class="cls-3" d="M116.43,7.45H12.16a4,4,0,0,0-3.84,4V85.07a4,4,0,0,0,3.84,4H116.43a4,4,0,0,0,3.84-4V11.49A4,4,0,0,0,116.43,7.45Z" transform="translate(-8.32 -7.45)"/><path class="cls-4" d="M64.29,7.45H12.16a4,4,0,0,0-3.84,4V85.07a4,4,0,0,0,3.84,4H64.29Z" transform="translate(-8.32 -7.45)"/><path class="cls-5" d="M115.3,76.9c0,.19-.2.34-.45.34H13.73c-.24,0-.45-.15-.45-.34V14c0-.18.21-.33.45-.33H114.85c.25,0,.45.15.45.33Z" transform="translate(-8.32 -7.45)"/><path class="cls-6" d="M115.17,77.14a.53.53,0,0,1-.32.1H13.73c-.24,0-.45-.15-.45-.34V14a.31.31,0,0,1,.14-.24C13.5,13.66,115.25,77.08,115.17,77.14Z" transform="translate(-8.32 -7.45)"/><rect class="cls-3" x="42.97" y="81.65" width="24.99" height="13.67"/><rect class="cls-4" x="42.97" y="81.65" width="13.01" height="13.67"/><path class="cls-3" d="M88.21,102.77H39.35a.12.12,0,0,0-.13.11v7a.12.12,0,0,0,.13.11H88.21a.13.13,0,0,0,.14-.11v-7A.13.13,0,0,0,88.21,102.77Z" transform="translate(-8.32 -7.45)"/><path class="cls-4" d="M64.29,102.77H39.35a.12.12,0,0,0-.13.11v7a.12.12,0,0,0,.13.11H64.29Z" transform="translate(-8.32 -7.45)"/><path class="cls-7" d="M112.28,82.44a2.12,2.12,0,1,1-2.12-2.12A2.11,2.11,0,0,1,112.28,82.44Z" transform="translate(-8.32 -7.45)"/><path class="cls-8" d="M111.71,82.44a1.55,1.55,0,1,1-1.55-1.56A1.55,1.55,0,0,1,111.71,82.44Z" transform="translate(-8.32 -7.45)"/><path class="cls-9" d="M110.16,84a1.56,1.56,0,0,1,0-3.11Z" transform="translate(-8.32 -7.45)"/><rect class="cls-10" x="4.91" y="6.16" width="79.46" height="50.14"/><rect class="cls-10" x="4.91" y="59.59" width="102.27" height="11.14"/><rect class="cls-10" x="87.72" y="6.18" width="19.45" height="50.12"/><path class="cls-11" d="M104.71,45.94S86.89,68.8,64.92,68.8s-39.8-22.86-39.8-22.86,17.82-22.86,39.8-22.86S104.71,45.94,104.71,45.94Z" transform="translate(-8.32 -7.45)"/><path class="cls-12" d="M51.91,32.94a18.39,18.39,0,0,0,26,26,17.47,17.47,0,0,0,2-2.3,18.39,18.39,0,0,0-28-23.71Z" transform="translate(-8.32 -7.45)"/><g class="cls-13"><path class="cls-12" d="M77.92,32.94a18.3,18.3,0,0,0-13-5.38V64.32a18.33,18.33,0,0,0,13-5.37,17.47,17.47,0,0,0,2-2.3A18.41,18.41,0,0,0,77.92,32.94Z" transform="translate(-8.32 -7.45)"/></g><circle class="cls-4" cx="64.91" cy="45.94" r="9.78" transform="translate(3.07 97.31) rotate(-82.98)"/><g class="cls-13"><path class="cls-4" d="M64.91,36.16h0V55.73h0a9.79,9.79,0,1,0,0-19.57Z" transform="translate(-8.32 -7.45)"/></g><path class="cls-7" d="M58.89,41.83a2.28,2.28,0,1,1-2.28-2.28A2.28,2.28,0,0,1,58.89,41.83Z" transform="translate(-8.32 -7.45)"/></g></g></svg>