<svg xmlns="http://www.w3.org/2000/svg" viewBox="0 0 102.82 102.82"><defs><style>.cls-1{isolation:isolate;}.cls-2{fill:#404d66;}.cls-3{opacity:0.2;mix-blend-mode:multiply;}.cls-4{fill:#f26527;}.cls-5{fill:#f15947;}.cls-6{fill:#e3e3e3;}.cls-7{fill:#fbb03b;}.cls-8{fill:#4fc6da;}</style></defs><title>schedule layouts</title><g class="cls-1"><g id="Layer_1" data-name="Layer 1"><path class="cls-2" d="M32.2,27.67a1.9,1.9,0,0,1-2.68,0l-5.3-5.3A1.89,1.89,0,0,1,26.9,19.7L32.2,25A1.88,1.88,0,0,1,32.2,27.67Z" transform="translate(-12.31 -7.78)"/><path class="cls-2" d="M97.42,16.3h10.77a2.93,2.93,0,0,1,2.93,2.93v6.18a2.93,2.93,0,0,1-2.93,2.93H97.42a0,0,0,0,1,0,0v-12a0,0,0,0,1,0,0Z" transform="translate(2.45 72.49) rotate(-45)"/><g class="cls-3"><path class="cls-2" d="M99.4,27.14l4.29,4.28,7.61-7.61a2.93,2.93,0,0,0,0-4.15l-2.21-2.21Z" transform="translate(-12.31 -7.78)"/></g><path class="cls-4" d="M100.6,96.07a49.69,49.69,0,1,1,0-70.27A49.73,49.73,0,0,1,100.6,96.07Z" transform="translate(-12.31 -7.78)"/><g class="cls-3"><path class="cls-5" d="M30.33,25.8l0,0,70.28,70.28,0-.05A49.69,49.69,0,1,0,30.33,25.8Z" transform="translate(-12.31 -7.78)"/></g><path class="cls-6" d="M96.14,91.7a43.69,43.69,0,1,1,0-61.78A43.73,43.73,0,0,1,96.14,91.7Z" transform="translate(-12.31 -7.78)"/><g class="cls-3"><path class="cls-6" d="M34.36,29.92s0,0,0,0L96.1,91.74s0,0,0,0A43.69,43.69,0,0,0,34.36,29.92Z" transform="translate(-12.31 -7.78)"/></g><path class="cls-2" d="M69.42,56.64a5.67,5.67,0,1,1-8,0A5.66,5.66,0,0,1,69.42,56.64Z" transform="translate(-12.31 -7.78)"/><g class="cls-3"><path class="cls-2" d="M69.42,56.64a5.67,5.67,0,1,1-8,0A5.68,5.68,0,0,1,69.42,56.64Z" transform="translate(-12.31 -7.78)"/></g><path class="cls-2" d="M62.63,58.09a1.88,1.88,0,0,1-2.67,0l-2.85-2.85a1.89,1.89,0,0,1,2.68-2.67l2.84,2.84A1.9,1.9,0,0,1,62.63,58.09Z" transform="translate(-12.31 -7.78)"/><path class="cls-2" d="M73.63,69.08a1.9,1.9,0,0,1-2.68,0L68.1,66.24a1.9,1.9,0,0,1,2.68-2.68l2.85,2.85A1.9,1.9,0,0,1,73.63,69.08Z" transform="translate(-12.31 -7.78)"/><path class="cls-6" d="M64.07,62a1.88,1.88,0,0,1,0-2.67h0a1.9,1.9,0,0,1,2.68,0h0a1.88,1.88,0,0,1,0,2.67h0A1.9,1.9,0,0,1,64.07,62Z" transform="translate(-12.31 -7.78)"/><path class="cls-2" d="M41.87,35.5l-2.74,2.74a1.9,1.9,0,0,1-2.68-2.68l2.74-2.74a1.9,1.9,0,1,1,2.68,2.68Z" transform="translate(-12.31 -7.78)"/><path class="cls-2" d="M94.27,87l-2.74,2.74a1.89,1.89,0,1,1-2.68-2.67l2.74-2.74A1.89,1.89,0,1,1,94.27,87Z" transform="translate(-12.31 -7.78)"/><path class="cls-2" d="M42.32,90.19a1.9,1.9,0,0,1-2.68,0L36.9,87.45a1.89,1.89,0,0,1,2.68-2.67l2.74,2.74A1.88,1.88,0,0,1,42.32,90.19Z" transform="translate(-12.31 -7.78)"/><path class="cls-2" d="M93.82,37.79a1.9,1.9,0,0,1-2.68,0L88.4,35.05a1.9,1.9,0,0,1,2.68-2.68l2.74,2.74A1.9,1.9,0,0,1,93.82,37.79Z" transform="translate(-12.31 -7.78)"/><path class="cls-4" d="M33.45,14.6,19.13,28.92a4,4,0,0,1-5.65,0h0a4,4,0,0,1,0-5.64L27.81,9a4,4,0,0,1,5.64,0h0A4,4,0,0,1,33.45,14.6Z" transform="translate(-12.31 -7.78)"/><polygon class="cls-7" points="30.91 30.84 40.19 36.81 49.47 42.79 46.16 46.1 42.85 49.41 36.88 40.12 30.91 30.84"/><polygon class="cls-8" points="75.26 75.19 69.28 65.91 63.31 56.63 60 59.94 56.7 63.24 65.98 69.22 75.26 75.19"/><g class="cls-3"><polygon class="cls-5" points="30.91 30.84 40.19 36.81 49.47 42.79 46.16 46.1 30.91 30.84"/></g><g class="cls-3"><polygon class="cls-8" points="75.26 75.19 69.28 65.91 63.31 56.63 60 59.94 75.26 75.19"/></g></g></g></svg>