<?xml version="1.0" encoding="utf-8"?>
<!-- Generator: Adobe Illustrator 24.0.1, SVG Export Plug-In . SVG Version: 6.00 Build 0)  -->
<svg version="1.1" id="Layer_1" xmlns="http://www.w3.org/2000/svg" xmlns:xlink="http://www.w3.org/1999/xlink" x="0px" y="0px"
	 viewBox="0 0 162.4 139.2" style="enable-background:new 0 0 162.4 139.2;" xml:space="preserve">
<style type="text/css">
	.st0{fill:#010101;}
	.st1{font-family:'MicrosoftSansSerif';}
	.st2{font-size:14px;}
	.st3{fill:#312C29;}
	.st4{fill:#F26527;}
	.st5{fill:#FFFFFF;stroke:#312C29;stroke-width:2;stroke-miterlimit:10;}
</style>
<text transform="matrix(1 0 0 1 41.2078 127.5811)" class="st0 st1 st2">PROJECTOR</text>
<g>
	<path class="st3" d="M62.2,51.4c-9.8,0-17.9-8-17.9-17.9c0-9.8,8-17.9,17.9-17.9c9.8,0,17.9,8,17.9,17.9
		C80.1,43.4,72.1,51.4,62.2,51.4z M62.3,17.1c-9,0-16.4,7.4-16.4,16.4c0,9.1,7.4,16.4,16.4,16.4s16.4-7.4,16.4-16.4
		C78.7,24.4,71.3,17.1,62.3,17.1z"/>
</g>
<g>
	<path class="st3" d="M120.1,69.3H42.7c-7.3,0-13.2-5.9-13.2-13.2V34.8c0-7.3,5.9-13.2,13.2-13.2h1.7c0.5,0,1,0.3,1.3,0.8
		c0.3,0.5,0.3,1,0,1.5c-1.7,2.9-2.6,6.3-2.6,9.7c0,10.6,8.6,19.2,19.2,19.2c10.6,0,19.2-8.6,19.2-19.2c0-3.4-0.9-6.7-2.6-9.7
		c-0.3-0.5-0.3-1,0-1.5c0.3-0.5,0.8-0.8,1.3-0.8h40.1c7.3,0,13.2,5.9,13.2,13.2v21.3C133.3,63.4,127.4,69.3,120.1,69.3z M42,24.7
		c-5.3,0.4-9.4,4.8-9.4,10.1v21.3c0,5.6,4.6,10.2,10.2,10.2h77.4c5.6,0,10.2-4.6,10.2-10.2V34.8c0-5.6-4.6-10.2-10.2-10.2H82.5
		c1.2,2.8,1.9,5.9,1.9,8.9c0,12.2-9.9,22.2-22.2,22.2c-12.2,0-22.2-9.9-22.2-22.2C40.1,30.5,40.7,27.5,42,24.7z"/>
</g>
<g>
	<path class="st3" d="M62.2,55.7c-12.2,0-22.2-9.9-22.2-22.2c0-3.9,1.1-7.8,3.1-11.2c4-6.8,11.3-11,19.1-11c7.8,0,15.1,4.2,19.1,11
		l0,0c2,3.4,3.1,7.3,3.1,11.2C84.4,45.8,74.4,55.7,62.2,55.7z M62.2,14.4c-6.7,0-13.1,3.6-16.5,9.5c-1.7,2.9-2.6,6.3-2.6,9.7
		c0,10.6,8.6,19.2,19.2,19.2c10.6,0,19.2-8.6,19.2-19.2c0-3.4-0.9-6.7-2.6-9.7l0,0C75.3,18.1,69,14.4,62.2,14.4z"/>
</g>
<g>
	<path class="st3" d="M53.2,86.8c-4.5,0-8.1-3.6-8.1-8.1V67.8c0-0.8,0.7-1.5,1.5-1.5h13.2c0.8,0,1.5,0.7,1.5,1.5v10.9
		C61.3,83.1,57.7,86.8,53.2,86.8z M48.2,69.3v9.4c0,2.8,2.3,5.1,5.1,5.1c2.8,0,5.1-2.3,5.1-5.1v-9.4H48.2z"/>
</g>
<g>
	<path class="st3" d="M110.7,86.8c-4.5,0-8.1-3.6-8.1-8.1V67.8c0-0.8,0.7-1.5,1.5-1.5h13.2c0.8,0,1.5,0.7,1.5,1.5v10.9
		C118.7,83.1,115.1,86.8,110.7,86.8z M105.6,69.3v9.4c0,2.8,2.3,5.1,5.1,5.1s5.1-2.3,5.1-5.1v-9.4H105.6z"/>
</g>
<g>
	<path class="st3" d="M121.7,58.8H94.4c-0.8,0-1.5-0.7-1.5-1.5V33.6c0-0.8,0.7-1.5,1.5-1.5h27.4c0.8,0,1.5,0.7,1.5,1.5v23.7
		C123.2,58.2,122.6,58.8,121.7,58.8z"/>
	<g id="XMLID_90_">
		<g>
			<rect x="95.8" y="35.1" class="st4" width="24.4" height="20.7"/>
		</g>
		<g>
		</g>
	</g>
</g>
<g>
	<g>
		<path class="st3" d="M100.1,42.2c-0.4,0-0.8-0.2-1.1-0.4c-0.3-0.3-0.4-0.7-0.4-1.1c0-0.4,0.1-0.8,0.4-1.1c0.6-0.6,1.6-0.5,2.1,0
			c0.3,0.3,0.4,0.7,0.4,1.1c0,0.4-0.2,0.8-0.4,1.1C100.9,42,100.5,42.2,100.1,42.2z"/>
	</g>
	<g>
		<path class="st3" d="M106.4,40.7c0-0.8,0.7-1.5,1.5-1.5l0,0c0.8,0,1.5,0.7,1.5,1.5l0,0c0,0.8-0.7,1.5-1.5,1.5l0,0
			C107.1,42.2,106.4,41.5,106.4,40.7z"/>
	</g>
	<g>
		<path class="st3" d="M115.8,42.2c-0.4,0-0.8-0.2-1.1-0.4c-0.3-0.3-0.4-0.7-0.4-1.1c0-0.4,0.2-0.8,0.4-1.1c0.6-0.5,1.6-0.5,2.1,0
			c0.3,0.3,0.4,0.7,0.4,1.1c0,0.4-0.2,0.8-0.4,1.1C116.6,42,116.2,42.2,115.8,42.2z"/>
	</g>
</g>
<g>
	<g>
		<path class="st3" d="M100.1,51.4c-0.4,0-0.8-0.2-1.1-0.4c-0.3-0.3-0.4-0.7-0.4-1.1c0-0.4,0.2-0.8,0.4-1.1c0.5-0.6,1.5-0.6,2.1,0
			c0.3,0.3,0.4,0.7,0.4,1.1c0,0.4-0.2,0.8-0.4,1.1C100.9,51.3,100.5,51.4,100.1,51.4z"/>
	</g>
	<g>
		<path class="st3" d="M106.4,49.9c0-0.8,0.7-1.5,1.5-1.5l0,0c0.8,0,1.5,0.7,1.5,1.5l0,0c0,0.8-0.7,1.5-1.5,1.5l0,0
			C107.1,51.4,106.4,50.8,106.4,49.9z"/>
	</g>
	<g>
		<path class="st3" d="M115.8,51.4c-0.4,0-0.8-0.2-1.1-0.4c-0.3-0.3-0.4-0.7-0.4-1.1c0-0.4,0.2-0.8,0.4-1.1c0.6-0.6,1.6-0.6,2.1,0
			c0.3,0.3,0.4,0.7,0.4,1.1c0,0.4-0.2,0.8-0.4,1.1C116.6,51.3,116.2,51.4,115.8,51.4z"/>
	</g>
</g>
<circle class="st5" cx="55.9" cy="28.4" r="4"/>
</svg>
