<?xml version="1.0" encoding="utf-8"?>
<!-- Generator: Adobe Illustrator 24.0.1, SVG Export Plug-In . SVG Version: 6.00 Build 0)  -->
<svg version="1.1" id="Layer_1" xmlns="http://www.w3.org/2000/svg" xmlns:xlink="http://www.w3.org/1999/xlink" x="0px" y="0px"
	 viewBox="0 0 149 124" style="enable-background:new 0 0 149 124;" xml:space="preserve">
<style type="text/css">
	.st0{fill:#312C29;}
	.st1{fill:#FFFFFF;}
	.st2{fill:#FB6520;}
</style>
<g>
	<path class="st0" d="M32.3,11h79.8c7.3,0,13.2,5.9,13.2,13.2v89.7c0,0.4-0.2,0.8-0.4,1.1c-0.3,0.3-0.7,0.5-1.1,0.4l-82.5-0.5
		c-0.8,0-1.5-0.7-1.5-1.5V21.5c0-4.2-3.4-7.5-7.5-7.5c-0.8,0-1.5-0.7-1.5-1.5C30.8,11.6,31.4,11,32.3,11z"/>
	<g id="XMLID_37_">
		<g>
			<path class="st1" d="M122.3,24.1v88.2l-79.5-0.5V21.5c0-3-1.2-5.6-3.2-7.6h72.5C117.7,14,122.3,18.5,122.3,24.1z"/>
		</g>
		<g>
		</g>
	</g>
</g>
<g>
	<path class="st0" d="M32.3,11c5.8,0,10.5,4.7,10.5,10.5V46c0,0.8-0.7,1.5-1.5,1.5H23.2c-0.8,0-1.5-0.7-1.5-1.5V21.5
		C21.7,15.7,26.4,11,32.3,11z M39.8,44.5v-23c0-4.2-3.4-7.5-7.5-7.5c-4.2,0-7.5,3.4-7.5,7.5v23H39.8z"/>
</g>
<g>
	<path class="st0" d="M115.1,94.1H97.7c-0.6,0-1.2-0.3-1.5-0.9l-9.1-15.8c-0.3-0.6-0.3-1.3,0-1.8l8.1-12.4c0.6-1,2.3-1,2.9,0
		l9.2,14.1v0l9.2,14.1c0.3,0.5,0.4,1.2,0.1,1.8C116.3,93.7,115.7,94.1,115.1,94.1z"/>
	<g id="XMLID_40_">
		<g>
			<polygon class="st2" points="104.4,79.2 111.9,90.6 98.7,90.6 90.6,76.6 96.7,67.4 			"/>
		</g>
		<g>
		</g>
	</g>
</g>
<g>
	<g id="XMLID_39_">
		<g>
			<polygon class="st2" points="87.1,77.5 94.7,90.6 51.7,90.6 73.2,53.4 			"/>
			<path class="st0" d="M73.2,53.4L51.7,90.6h43.1l-7.6-13.2L73.2,53.4z M97.7,94.1h-49c-0.6,0-1.2-0.3-1.5-0.9
				c-0.3-0.5-0.3-1.2,0-1.7L71.7,49c0.3-0.5,0.9-0.9,1.5-0.9c0.6,0,1.2,0.3,1.5,0.9l24.5,42.5c0.3,0.5,0.3,1.2,0,1.7
				C98.9,93.8,98.3,94.1,97.7,94.1z"/>
		</g>
		<g>
		</g>
	</g>
</g>
<g>
	<path class="st0" d="M89,48.4c-4.9,0-8.9-4-8.9-8.9c0-4.9,4-8.9,8.9-8.9c4.9,0,8.9,4,8.9,8.9C97.9,44.4,93.9,48.4,89,48.4z"/>
	<g id="XMLID_38_">
		<g>
			<path class="st2" d="M89,34.1c3,0,5.4,2.4,5.4,5.4c0,3-2.4,5.4-5.4,5.4c-3,0-5.4-2.4-5.4-5.4C83.6,36.5,86,34.1,89,34.1z"/>
		</g>
		<g>
		</g>
	</g>
</g>
</svg>
