<?xml version="1.0" encoding="utf-8"?>
<!-- Generator: Adobe Illustrator 24.0.1, SVG Export Plug-In . SVG Version: 6.00 Build 0)  -->
<svg version="1.1" id="Layer_1" xmlns="http://www.w3.org/2000/svg" xmlns:xlink="http://www.w3.org/1999/xlink" x="0px" y="0px"
	 viewBox="0 0 149 124" style="enable-background:new 0 0 149 124;" xml:space="preserve">
<style type="text/css">
	.st0{fill:#312C29;}
	.st1{fill:#FB6520;}
</style>
<g>
	<path class="st0" d="M113.3,71V36.5V18.8c0-1-0.8-1.8-1.8-1.8h-8.9v-5.3c0-1-0.8-1.8-1.8-1.8H88.5c-1,0-1.8,0.8-1.8,1.8V17H47.8
		v-5.3c0-1-0.8-1.8-1.8-1.8H33.7c-1,0-1.8,0.8-1.8,1.8V17H23c-1,0-1.8,0.8-1.8,1.8v17.7v72.6c0,1,0.8,1.8,1.8,1.8h67.5
		c3.5,2.2,7.7,3.5,12.2,3.5c12.7,0,23-10.3,23-23C125.7,82.5,120.7,74.8,113.3,71z M90.3,13.5h8.9v5.3v5.3h-8.9v-5.3V13.5z
		 M35.4,13.5h8.9v5.3v5.3h-8.9v-5.3V13.5z M24.8,20.6h7.1v5.3c0,1,0.8,1.8,1.8,1.8h12.4c1,0,1.8-0.8,1.8-1.8v-5.3h38.9v5.3
		c0,1,0.8,1.8,1.8,1.8h12.4c1,0,1.8-0.8,1.8-1.8v-5.3h7.1v14.2h-85V20.6z M24.8,107.3v-69h85v31.2c-0.3-0.1-0.7-0.2-1.1-0.3
		c-0.3-0.1-0.7-0.2-1-0.3c-0.3-0.1-0.6-0.1-0.9-0.2c-0.4-0.1-0.9-0.1-1.3-0.2c-0.2,0-0.5-0.1-0.7-0.1c-0.7-0.1-1.4-0.1-2.1-0.1
		c-0.6,0-1.2,0-1.8,0.1v-1.9v-3.5V47.1H85h-3.5H69.1h-3.5H53.1h-3.5H33.7v15.9v3.5V79v3.5v15.9h15.9h3.5h12.4h3.5h11.7
		c0.1,0.2,0.1,0.3,0.2,0.5c0.1,0.4,0.3,0.9,0.5,1.3c0.1,0.2,0.2,0.5,0.3,0.7c0.2,0.4,0.4,0.9,0.6,1.3c0.1,0.2,0.2,0.4,0.3,0.6
		c0.3,0.5,0.5,0.9,0.8,1.4c0.1,0.2,0.2,0.3,0.3,0.5c0.3,0.4,0.6,0.9,1,1.3c0.1,0.2,0.3,0.3,0.4,0.5c0.3,0.3,0.5,0.6,0.8,0.9
		L24.8,107.3L24.8,107.3z M92.6,70.7c-0.2,0.1-0.4,0.2-0.6,0.3c-0.3,0.2-0.7,0.4-1,0.6c-0.3,0.2-0.6,0.3-0.8,0.5
		c-0.3,0.2-0.5,0.4-0.8,0.6c-0.3,0.2-0.6,0.4-0.9,0.7c-0.2,0.2-0.5,0.4-0.7,0.6c-0.3,0.3-0.6,0.5-0.9,0.8c-0.2,0.2-0.4,0.4-0.6,0.6
		c-0.3,0.3-0.6,0.7-0.9,1c-0.1,0.1-0.3,0.3-0.4,0.4V66.6h12.4V69c0,0-0.1,0-0.1,0C95.7,69.4,94.1,70,92.6,70.7z M80.7,84.6
		c-0.1,0.2-0.1,0.4-0.2,0.6c-0.1,0.5-0.3,1-0.4,1.6c-0.1,0.4-0.1,0.8-0.2,1.2c0,0.3-0.1,0.7-0.2,1c-0.1,0.8-0.1,1.5-0.1,2.3
		c0,0.6,0,1.3,0.1,1.9c0,0.1,0,0.2,0,0.4c0,0.3,0.1,0.6,0.1,0.8v0c0,0.1,0,0.3,0,0.4H69.1V82.5h12.4v0c0,0,0,0.1,0,0.1
		C81.1,83.3,80.9,84,80.7,84.6z M37.2,82.5h12.4v12.4H37.2V82.5z M37.2,66.6h12.4V79H37.2V66.6z M97.4,63.1H85V50.7h12.4V63.1z
		 M81.5,63.1H69.1V50.7h12.4V63.1z M81.5,79H69.1V66.6h12.4V79z M53.1,66.6h12.4V79H53.1V66.6z M65.5,63.1H53.1V50.7h12.4V63.1z
		 M49.6,63.1H37.2V50.7h12.4V63.1z M53.1,82.5h12.4v12.4H53.1V82.5z"/>
	<g id="XMLID_61_">
		<g>
			<path class="st1" d="M110.8,73.7c6.7,3.1,11.4,9.8,11.4,17.7c0,10.7-8.7,19.5-19.5,19.5c-4,0-7.7-1.2-10.8-3.3
				c-0.6-0.4-1.2-0.8-1.7-1.3c-0.2-0.2-0.4-0.3-0.6-0.5c-0.3-0.3-0.7-0.6-1-1c-0.2-0.2-0.4-0.4-0.6-0.7c-0.3-0.3-0.6-0.7-0.8-1
				c-0.2-0.2-0.3-0.4-0.5-0.7c-0.4-0.6-0.8-1.2-1.1-1.8c-0.1-0.1-0.1-0.3-0.2-0.4c-0.3-0.5-0.5-1-0.7-1.5c-0.1-0.2-0.2-0.5-0.3-0.7
				c-0.2-0.5-0.3-0.9-0.5-1.4c0-0.1-0.1-0.2-0.1-0.3c-0.2-0.8-0.3-1.6-0.4-2.3c0-0.1,0-0.1,0-0.2c-0.1-0.8-0.1-1.6-0.1-2.4
				c0-0.7,0-1.3,0.1-2c0-0.1,0-0.1,0-0.2c0.1-0.6,0.2-1.2,0.3-1.8c0-0.1,0-0.1,0.1-0.2c0.1-0.6,0.3-1.2,0.5-1.8
				c0-0.1,0.1-0.1,0.1-0.2c0.2-0.6,0.4-1.1,0.6-1.6c0.2-0.5,0.5-1,0.7-1.5l0.2-0.3c0.1-0.1,0.2-0.3,0.2-0.4c0.3-0.5,0.6-1,1-1.5
				c0.1-0.1,0.2-0.2,0.3-0.4c0.3-0.4,0.7-0.8,1-1.2c0.1-0.1,0.2-0.3,0.4-0.4c0.3-0.4,0.7-0.7,1.1-1.1c0.1-0.1,0.3-0.2,0.4-0.4
				c0.4-0.4,0.9-0.7,1.4-1.1c0.1,0,0.1-0.1,0.2-0.2c2.3-1.6,5-2.7,7.8-3.2l0,0c1.1-0.2,2.1-0.3,3.2-0.3c0.7,0,1.4,0,2.1,0.1
				c0.1,0,0.2,0,0.3,0c0.6,0.1,1.2,0.2,1.7,0.3c0.1,0,0.1,0,0.2,0.1c0.6,0.1,1.2,0.3,1.8,0.5c0,0,0.1,0,0.1,0
				C109.6,73.2,110.2,73.4,110.8,73.7z"/>
		</g>
		<g>
		</g>
	</g>
	<path class="st0" d="M111.9,81.5L102,95.7L95,90c-0.8-0.6-1.9-0.5-2.5,0.2c-0.6,0.8-0.5,1.9,0.2,2.5l8.5,7c0.3,0.3,0.7,0.4,1.1,0.4
		c0.1,0,0.2,0,0.2,0c0.5-0.1,0.9-0.3,1.2-0.7l11-15.8c0.6-0.8,0.4-1.9-0.4-2.5C113.5,80.5,112.4,80.7,111.9,81.5z"/>
</g>
</svg>
