<?xml version="1.0" encoding="utf-8"?>
<!-- Generator: Adobe Illustrator 24.0.1, SVG Export Plug-In . SVG Version: 6.00 Build 0)  -->
<svg version="1.1" id="Layer_1" xmlns="http://www.w3.org/2000/svg" xmlns:xlink="http://www.w3.org/1999/xlink" x="0px" y="0px"
	 viewBox="0 0 149 124" style="enable-background:new 0 0 149 124;" xml:space="preserve">
<style type="text/css">
	.st0{fill:#312C29;}
	.st1{fill:#FB6520;}
</style>
<g>
	<path class="st0" d="M123.1,28.2H22.9c-0.8,0-1.5-0.7-1.5-1.5V11.4c0-0.8,0.7-1.5,1.5-1.5h100.2c0.8,0,1.5,0.7,1.5,1.5v15.3
		C124.6,27.5,123.9,28.2,123.1,28.2z M24.4,25.2h97.2V12.9H24.4V25.2z"/>
</g>
<g>
	<path class="st0" d="M123.1,113.5H22.9c-0.8,0-1.5-0.7-1.5-1.5V26.7c0-0.8,0.7-1.5,1.5-1.5h100.2c0.8,0,1.5,0.7,1.5,1.5V112
		C124.6,112.8,123.9,113.5,123.1,113.5z M24.4,110.5h97.2V28.2H24.4V110.5z"/>
</g>
<g>
	<g>
		<path class="st0" d="M30,21.3c-0.1,0-0.2,0-0.3,0c-0.1,0-0.2,0-0.3-0.1c-0.1,0-0.2-0.1-0.3-0.1c-0.1-0.1-0.1-0.1-0.2-0.2
			c-0.1-0.1-0.1-0.1-0.2-0.2c0-0.1-0.1-0.2-0.1-0.3c0-0.1-0.1-0.2-0.1-0.3c0-0.1,0-0.2,0-0.3c0-0.1,0-0.2,0-0.3c0-0.1,0-0.2,0.1-0.3
			c0-0.1,0.1-0.2,0.1-0.3c0.1-0.1,0.1-0.2,0.2-0.2c0.3-0.4,0.9-0.5,1.4-0.4c0.1,0,0.2,0.1,0.3,0.1c0.1,0,0.2,0.1,0.3,0.1
			c0.1,0.1,0.2,0.1,0.2,0.2c0.3,0.3,0.4,0.7,0.4,1.1c0,0.4-0.2,0.8-0.4,1.1c-0.1,0.1-0.1,0.1-0.2,0.2c-0.1,0-0.2,0.1-0.3,0.1
			c-0.1,0-0.2,0.1-0.3,0.1C30.2,21.3,30.1,21.3,30,21.3z"/>
	</g>
	<g>
		<path class="st0" d="M40.7,19.8c0-0.8,0.7-1.5,1.5-1.5l0,0c0.8,0,1.5,0.7,1.5,1.5l0,0c0,0.8-0.7,1.5-1.5,1.5l0,0
			C41.3,21.3,40.7,20.6,40.7,19.8z"/>
	</g>
	<g>
		<path class="st0" d="M54.3,21.3c-0.1,0-0.2,0-0.3,0c-0.1,0-0.2,0-0.3-0.1c-0.1,0-0.2-0.1-0.3-0.1c-0.1-0.1-0.2-0.1-0.2-0.2
			c-0.3-0.3-0.4-0.7-0.4-1.1c0-0.1,0-0.2,0-0.3c0-0.1,0-0.2,0.1-0.3c0-0.1,0.1-0.2,0.1-0.3c0.1-0.1,0.1-0.2,0.2-0.2
			c0.1-0.1,0.1-0.1,0.2-0.2c0.1-0.1,0.2-0.1,0.3-0.1c0.1,0,0.2-0.1,0.3-0.1c0.5-0.1,1,0.1,1.4,0.4c0.1,0.1,0.1,0.1,0.2,0.2
			c0,0.1,0.1,0.2,0.1,0.3c0,0.1,0.1,0.2,0.1,0.3c0,0.1,0,0.2,0,0.3c0,0.4-0.2,0.8-0.4,1.1C55.1,21.2,54.7,21.3,54.3,21.3z"/>
	</g>
</g>
<g>
	<path class="st0" d="M72.9,72.5c-1.4,0-2.7-0.3-4-1c-3.9-2-6.5-6.7-6.5-12c0-7.1,4.7-12.9,10.5-12.9c5.8,0,10.5,5.8,10.5,12.9
		c0,5.3-2.5,10-6.5,12C75.6,72.2,74.3,72.5,72.9,72.5z"/>
	<g id="XMLID_17_">
		<g>
			<path class="st1" d="M80.4,59.5c0,4.1-1.9,7.8-4.8,9.3c-1.7,0.9-3.6,0.9-5.3,0c-2.9-1.5-4.8-5.2-4.8-9.3c0-5.5,3.4-9.9,7.5-9.9
				S80.4,54.1,80.4,59.5z"/>
		</g>
		<g>
		</g>
	</g>
</g>
<g>
	<path class="st0" d="M91.2,92.1H54.5c-0.8,0-1.5-0.7-1.5-1.5v-7.4c0-4.9,4-8.9,8.9-8.9h7.6c0.8,0,1.5,0.7,1.5,1.5v0.4
		c0,0.5,0.2,1,0.6,1.4c0.4,0.4,0.9,0.5,1.4,0.5c0.9-0.1,1.7-1,1.7-2v-0.2c0-0.8,0.7-1.5,1.5-1.5h7.6c4.9,0,8.9,4,8.9,8.9v7.4
		C92.7,91.4,92,92.1,91.2,92.1z"/>
	<g id="XMLID_18_">
		<g>
			<path class="st1" d="M89.7,83.1v5.9H56v-5.9c0-3.2,2.6-5.9,5.9-5.9h6.3c0.2,0.9,0.7,1.8,1.4,2.5c1,0.9,2.4,1.4,3.7,1.2
				c2-0.2,3.7-1.7,4.2-3.7h6.3C87.1,77.3,89.7,79.9,89.7,83.1z"/>
		</g>
		<g>
		</g>
	</g>
</g>
<g>
	<path class="st0" d="M72.9,81c-2.7,0-4.8-2.2-4.8-4.8v-6c0-0.5,0.3-1,0.7-1.3c0.4-0.3,1-0.3,1.5-0.1c1.7,0.9,3.6,0.9,5.3,0
		c0.5-0.2,1-0.2,1.5,0.1c0.4,0.3,0.7,0.8,0.7,1.3v6C77.7,78.8,75.5,81,72.9,81z"/>
	<g id="XMLID_19_">
		<g>
			<path class="st1" d="M74.7,72.3v3.8c0,1-0.8,1.8-1.8,1.8c-1,0-1.9-0.8-1.9-1.8v-3.8C72.2,72.6,73.5,72.6,74.7,72.3z"/>
		</g>
		<g>
		</g>
	</g>
</g>
<g>
	<path class="st0" d="M67.1,105.4c-0.8-0.1-1.4-0.9-1.2-1.7l0,0c0.1-0.8,0.9-1.4,1.7-1.2l0,0c0.8,0.1,1.4,0.9,1.2,1.7l0,0
		c-0.1,0.7-0.8,1.3-1.5,1.3l0,0C67.3,105.4,67.2,105.4,67.1,105.4z M77.8,104.1c-0.2-0.8,0.4-1.6,1.2-1.7l0,0
		c0.8-0.2,1.6,0.4,1.7,1.2l0,0c0.1,0.8-0.4,1.6-1.2,1.7l0,0c-0.1,0-0.2,0-0.3,0l0,0C78.5,105.4,77.9,104.9,77.8,104.1z M55.4,101.1
		c-0.7-0.4-1-1.3-0.5-2l0,0c0.4-0.7,1.3-1,2-0.6l0,0c0.7,0.4,1,1.3,0.5,2.1l0,0c-0.3,0.5-0.8,0.8-1.3,0.8l0,0
		C55.9,101.3,55.7,101.3,55.4,101.1z M89.1,100.6c-0.4-0.7-0.2-1.6,0.5-2l0,0c0.7-0.4,1.6-0.2,2,0.5l0,0c0.4,0.7,0.2,1.6-0.5,2l0,0
		c-0.2,0.1-0.5,0.2-0.8,0.2l0,0C89.9,101.3,89.4,101,89.1,100.6z M45.9,93.2c-0.5-0.6-0.5-1.6,0.2-2.1l0,0c0.6-0.5,1.6-0.4,2.1,0.2
		l0,0c0.5,0.6,0.5,1.6-0.2,2.1l0,0c-0.3,0.2-0.6,0.4-1,0.4l0,0C46.7,93.7,46.2,93.5,45.9,93.2z M98.5,93.3c-0.6-0.5-0.7-1.5-0.2-2.1
		l0,0c0.5-0.6,1.5-0.7,2.1-0.2l0,0c0.6,0.5,0.7,1.5,0.2,2.1l0,0c-0.3,0.4-0.7,0.5-1.1,0.5l0,0C99.2,93.7,98.8,93.5,98.5,93.3z
		 M39.7,82.4c-0.3-0.8,0.1-1.6,0.9-1.9l0,0c0.8-0.3,1.6,0.1,1.9,0.9l0,0c0.3,0.8-0.1,1.6-0.9,1.9l0,0c-0.2,0.1-0.3,0.1-0.5,0.1l0,0
		C40.5,83.4,39.9,83.1,39.7,82.4z M104.9,83.3c-0.8-0.3-1.2-1.1-0.9-1.9l0,0c0.3-0.8,1.1-1.2,1.9-0.9l0,0c0.8,0.3,1.2,1.1,0.9,1.9
		l0,0c0,0,0,0,0,0l0,0c-0.2,0.6-0.8,1-1.4,1l0,0C105.3,83.4,105.1,83.3,104.9,83.3z M37.5,70.2c0-0.8,0.7-1.5,1.5-1.5l0,0
		c0.8,0,1.5,0.7,1.5,1.5l0,0c0,0.8-0.7,1.5-1.5,1.5l0,0C38.2,71.7,37.5,71.1,37.5,70.2z M106,70.2C106,70.1,106,70.1,106,70.2
		L106,70.2c0-0.1,0-0.1,0-0.1l0,0c0-0.8,0.7-1.5,1.5-1.5l0,0c0.8,0,1.5,0.7,1.5,1.5l0,0c0,0,0,0.1,0,0.1l0,0c0,0,0,0,0,0.1l0,0
		c0,0.8-0.7,1.5-1.5,1.5l0,0C106.7,71.7,106,71,106,70.2z M40.6,59.9c-0.8-0.3-1.2-1.1-0.9-1.9l0,0c0.3-0.8,1.1-1.2,1.9-0.9l0,0
		c0.8,0.3,1.2,1.1,0.9,1.9l0,0c-0.2,0.6-0.8,1-1.4,1l0,0C40.9,60,40.7,60,40.6,59.9z M104,58.8c-0.3-0.8,0.1-1.6,0.9-1.9l0,0
		c0.8-0.3,1.6,0.1,1.9,0.9l0,0l0,0l0,0c0.3,0.8-0.1,1.6-0.9,1.9l0,0c-0.2,0.1-0.4,0.1-0.5,0.1l0,0C104.8,59.8,104.2,59.5,104,58.8z
		 M46,49.4c-0.6-0.5-0.7-1.5-0.2-2.1l0,0c0.5-0.6,1.5-0.7,2.1-0.2l0,0c0.6,0.5,0.7,1.5,0.2,2.1l0,0c-0.3,0.4-0.7,0.5-1.1,0.5l0,0
		C46.7,49.7,46.3,49.6,46,49.4z M98.3,49c-0.5-0.6-0.5-1.6,0.2-2.1l0,0c0.6-0.5,1.6-0.5,2.1,0.2l0,0c0.5,0.6,0.5,1.6-0.2,2.1l0,0
		c-0.3,0.2-0.6,0.4-1,0.4l0,0C99,49.6,98.6,49.4,98.3,49z M54.8,41.3c-0.4-0.7-0.2-1.6,0.6-2.1l0,0c0,0,0,0,0,0l0,0
		c0.7-0.4,1.6-0.2,2.1,0.5l0,0c0.4,0.7,0.2,1.6-0.5,2.1l0,0c-0.2,0.1-0.5,0.2-0.8,0.2l0,0C55.6,42.1,55.1,41.8,54.8,41.3z
		 M89.5,41.8c-0.7-0.4-1-1.3-0.6-2l0,0c0.4-0.7,1.3-1,2.1-0.6l0,0c0.7,0.4,1,1.3,0.5,2.1l0,0c-0.3,0.5-0.8,0.8-1.3,0.8l0,0
		C90,42,89.8,41.9,89.5,41.8z M65.7,36.7c-0.1-0.8,0.4-1.6,1.2-1.7l0,0c0.8-0.1,1.6,0.4,1.7,1.2l0,0c0.1,0.8-0.4,1.6-1.2,1.7l0,0
		c-0.1,0-0.2,0-0.3,0l0,0C66.5,38,65.9,37.5,65.7,36.7z M78.9,37.9c-0.8-0.2-1.4-0.9-1.2-1.7l0,0c0.1-0.8,0.9-1.4,1.7-1.2l0,0
		c0.8,0.1,1.4,0.9,1.2,1.7l0,0c-0.1,0.7-0.8,1.3-1.5,1.3l0,0C79,37.9,78.9,37.9,78.9,37.9z"/>
</g>
</svg>
