<?xml version="1.0" encoding="utf-8"?>
<!-- Generator: Adobe Illustrator 24.0.1, SVG Export Plug-In . SVG Version: 6.00 Build 0)  -->
<svg version="1.1" id="Layer_1" xmlns="http://www.w3.org/2000/svg" xmlns:xlink="http://www.w3.org/1999/xlink" x="0px" y="0px"
	 viewBox="0 0 149 124" style="enable-background:new 0 0 149 124;" xml:space="preserve">
<style type="text/css">
	.st0{fill:#312C29;}
	.st1{fill:#FFFFFF;}
	.st2{fill:#FFFFFF;stroke:#312C29;stroke-width:4;stroke-miterlimit:10;}
	.st3{fill:#FB6520;}
</style>
<g>
	<path class="st0" d="M116.8,112.4H30.2c-7,0-12.7-5.3-12.7-11.8c0-0.8,0.7-1.5,1.6-1.5h108.7c0.9,0,1.6,0.7,1.6,1.5
		C129.4,107.1,123.8,112.4,116.8,112.4z"/>
	<g id="XMLID_63_">
		<g>
			<path class="st1" d="M20.9,102.1h105.2c-0.8,4.2-4.6,7.3-9.3,7.3H30.2C25.5,109.4,21.6,106.3,20.9,102.1z"/>
		</g>
		<g>
		</g>
	</g>
</g>
<rect x="26.7" y="32.5" class="st2" width="93.2" height="66.3"/>
<path class="st0" d="M101.8,24.3h-1.3v-4.7c0-0.9-0.6-1.6-1.3-1.6h-33l-3.6-5.6c-0.3-0.4-0.7-0.6-1.1-0.6H47.9
	c-0.7,0-1.3,0.7-1.3,1.6v10.9h-1.3c-0.4,0-0.7,0.2-1,0.5c-0.3,0.3-0.4,0.7-0.4,1.2l2.7,37.3c0.1,0.8,0.6,1.4,1.3,1.4h51.1
	c0.7,0,1.3-0.6,1.3-1.4l2.7-37.3c0-0.4-0.1-0.9-0.4-1.2C102.5,24.5,102.1,24.3,101.8,24.3z M92.3,21.2v3.1H54.6v-3.1H92.3z"/>
<g id="XMLID_66_">
	<g>
		<rect x="95" y="21.2" class="st3" width="2.7" height="3.1"/>
	</g>
	<g>
	</g>
</g>
<g id="XMLID_65_">
	<g>
		<path class="st3" d="M49.3,15h11.4l2,3.1h-9.4c-0.7,0-1.3,0.7-1.3,1.6v4.7h-2.7V15z"/>
	</g>
	<g>
	</g>
</g>
<g id="XMLID_64_">
	<g>
		<polygon class="st3" points="100.3,27.4 97.8,61.6 49.2,61.6 46.7,27.4 		"/>
	</g>
	<g>
	</g>
</g>
</svg>
