<?xml version="1.0" encoding="utf-8"?>
<!-- Generator: Adobe Illustrator 24.0.1, SVG Export Plug-In . SVG Version: 6.00 Build 0)  -->
<svg version="1.1" id="Layer_1" xmlns="http://www.w3.org/2000/svg" xmlns:xlink="http://www.w3.org/1999/xlink" x="0px" y="0px"
	 viewBox="0 0 149 124" style="enable-background:new 0 0 149 124;" xml:space="preserve">
<style type="text/css">
	.st0{fill:#312C29;}
	.st1{fill:#FB6520;}
	.st2{fill:#312C29;stroke:#312C29;stroke-miterlimit:10;}
</style>
<g>
	<path class="st0" d="M124.3,114.5H22.7c-0.8,0-1.5-0.7-1.5-1.5V11.4c0-0.8,0.7-1.5,1.5-1.5h101.6c0.8,0,1.5,0.7,1.5,1.5V113
		C125.8,113.8,125.1,114.5,124.3,114.5z M24.2,111.5h98.6V12.9H24.2V111.5z"/>
</g>
<g>
	<path class="st0" d="M124.3,32.1H22.7c-0.8,0-1.5-0.7-1.5-1.5V11.4c0-0.8,0.7-1.5,1.5-1.5h101.6c0.8,0,1.5,0.7,1.5,1.5v19.2
		C125.8,31.5,125.1,32.1,124.3,32.1z"/>
	<g id="XMLID_69_">
		<g>
			<rect x="24.2" y="12.9" class="st1" width="98.6" height="16.2"/>
		</g>
		<g>
		</g>
	</g>
</g>
<g>
	<g>
		<path class="st0" d="M32,22.8c-0.1,0-0.2,0-0.3,0c-0.1,0-0.2-0.1-0.3-0.1c-0.1,0-0.2-0.1-0.3-0.1c-0.1-0.1-0.2-0.1-0.2-0.2
			c-0.3-0.3-0.4-0.7-0.4-1.1c0-0.1,0-0.2,0-0.3c0-0.1,0-0.2,0.1-0.3c0-0.1,0.1-0.2,0.1-0.3c0.1-0.1,0.1-0.2,0.2-0.2
			c0.1-0.1,0.1-0.1,0.2-0.2c0.1,0,0.2-0.1,0.3-0.1c0.1,0,0.2-0.1,0.3-0.1c0.2,0,0.4,0,0.6,0c0.1,0,0.2,0,0.3,0.1
			c0.1,0,0.2,0.1,0.3,0.1c0.1,0.1,0.2,0.1,0.2,0.2c0.1,0.1,0.1,0.1,0.2,0.2c0,0.1,0.1,0.2,0.1,0.3c0,0.1,0.1,0.2,0.1,0.3
			c0,0.1,0,0.2,0,0.3c0,0.4-0.2,0.8-0.4,1.1c-0.1,0.1-0.1,0.1-0.2,0.2c-0.1,0.1-0.2,0.1-0.3,0.1c-0.1,0-0.2,0.1-0.3,0.1
			C32.2,22.8,32.1,22.8,32,22.8z"/>
	</g>
	<g>
		<path class="st0" d="M39.6,21.3c0-0.8,0.7-1.5,1.5-1.5l0,0c0.8,0,1.5,0.7,1.5,1.5l0,0c0,0.8-0.7,1.5-1.5,1.5l0,0
			C40.2,22.8,39.6,22.2,39.6,21.3z"/>
	</g>
	<g>
		<path class="st0" d="M50.1,22.8c-0.4,0-0.8-0.2-1.1-0.4c-0.3-0.3-0.4-0.7-0.4-1.1c0-0.4,0.2-0.8,0.4-1.1c0.3-0.3,0.9-0.5,1.3-0.4
			c0.1,0,0.2,0,0.3,0.1c0.1,0,0.2,0.1,0.3,0.1c0.1,0.1,0.2,0.1,0.2,0.2c0.3,0.3,0.4,0.7,0.4,1.1c0,0.4-0.2,0.8-0.4,1.1
			c-0.1,0.1-0.1,0.1-0.2,0.2c-0.1,0.1-0.2,0.1-0.3,0.1c-0.1,0-0.2,0.1-0.3,0.1C50.3,22.8,50.2,22.8,50.1,22.8z"/>
	</g>
</g>
<g>
	<path class="st0" d="M46.8,62.8c-0.3,0-0.5-0.1-0.8-0.2c-0.5-0.3-0.8-0.8-0.8-1.3V45.3c0-0.5,0.3-1,0.8-1.3c0.5-0.3,1-0.3,1.5,0
		l13.8,8c0.5,0.3,0.8,0.8,0.8,1.3c0,0.5-0.3,1-0.8,1.3l-13.8,8C47.3,62.7,47.1,62.8,46.8,62.8z"/>
	<g id="XMLID_67_">
		<g>
			<polygon class="st0" points="57.6,53.3 48.3,58.7 48.3,47.9 			"/>
		</g>
		<g>
		</g>
	</g>
</g>
<g>
	<path class="st0" d="M91.5,63.6c-3.5,0-6.1-1.7-6.1-4.1c0-2.3,2.6-4.1,6.1-4.1s6.1,1.7,6.1,4.1C97.5,61.9,94.9,63.6,91.5,63.6z
		 M94.5,59.6L94.5,59.6L94.5,59.6z"/>
	<g id="XMLID_68_">
		<g>
			<path class="st0" d="M91.5,58.5c2,0,3,0.8,3.1,1.1c-0.1,0.3-1.1,1-3.1,1c-2,0-3-0.8-3.1-1C88.4,59.3,89.5,58.5,91.5,58.5z"/>
		</g>
		<g>
		</g>
	</g>
</g>
<g>
	<path class="st0" d="M103,55.5c-0.2,0-0.4,0-0.5-0.1c-1.6-0.6-4.6-2.7-4.2-6.2c0.3-2.6-1.6-3.2-2.2-3.2c-0.8-0.1-1.4-0.9-1.3-1.7
		s0.9-1.4,1.7-1.3c2.2,0.3,5.2,2.3,4.7,6.6c-0.2,2,2.1,3,2.3,3c0.8,0.3,1.2,1.2,0.9,1.9C104.2,55.1,103.6,55.5,103,55.5z"/>
</g>
<g>
	<path class="st0" d="M96,61.1c-0.8,0-1.5-0.7-1.5-1.5V44.5c0-0.8,0.7-1.5,1.5-1.5c0.8,0,1.5,0.7,1.5,1.5v15.1
		C97.5,60.4,96.9,61.1,96,61.1z"/>
</g>
<g>
	<path class="st0" d="M68.9,68.7H35.7c-0.8,0-1.5-0.7-1.5-1.5V39.4c0-0.8,0.7-1.5,1.5-1.5h33.2c0.8,0,1.5,0.7,1.5,1.5v27.8
		C70.4,68,69.7,68.7,68.9,68.7z M37.2,65.7h30.2V40.9H37.2V65.7z"/>
</g>
<g>
	<path class="st0" d="M110,68.7H76.8c-0.8,0-1.5-0.7-1.5-1.5V39.4c0-0.8,0.7-1.5,1.5-1.5H110c0.8,0,1.5,0.7,1.5,1.5v27.8
		C111.5,68.1,110.8,68.7,110,68.7z M78.3,65.7h30.2V40.9H78.3V65.7z"/>
</g>
<g>
	<path class="st0" d="M68.9,104.3H35.7c-0.8,0-1.5-0.7-1.5-1.5V75c0-0.8,0.7-1.5,1.5-1.5h33.2c0.8,0,1.5,0.7,1.5,1.5v27.8
		C70.4,103.6,69.7,104.3,68.9,104.3z M37.2,101.3h30.2V76.5H37.2V101.3z"/>
</g>
<g>
	<path class="st0" d="M110,104.3H76.8c-0.8,0-1.5-0.7-1.5-1.5V75c0-0.8,0.7-1.5,1.5-1.5H110c0.8,0,1.5,0.7,1.5,1.5v27.8
		C111.5,103.7,110.8,104.3,110,104.3z M78.3,101.3h30.2V76.5H78.3V101.3z"/>
</g>
<path class="st0" d="M54.6,95.9c0-2.6-1-5-2.8-6.9c-1.8-1.8-4.3-2.8-6.9-2.8c0,0,0,0,0,0c0,0,0,0,0,0c-0.3,0-0.5,0.2-0.5,0.5v2.9
	c0,0.3,0.2,0.5,0.5,0.5c3.2,0,5.9,2.6,5.9,5.9c0,0.2,0.1,0.4,0.3,0.4c0.1,0,0.1,0,0.2,0h0l2.9,0c0,0,0,0,0,0
	C54.4,96.3,54.6,96.1,54.6,95.9C54.6,95.9,54.6,95.9,54.6,95.9C54.6,95.9,54.6,95.9,54.6,95.9C54.6,95.9,54.6,95.9,54.6,95.9z"/>
<g id="XMLID_74_">
	<g>
		<path class="st0" d="M54.7,95.4l-2,0c-0.1-1.6-0.8-3.2-2-4.3c-1.2-1.2-2.7-1.9-4.3-2v-2c2.2,0.1,4.2,1,5.8,2.6
			C53.7,91.2,54.6,93.2,54.7,95.4z"/>
	</g>
	<g>
	</g>
</g>
<path class="st0" d="M46.5,92.2c-1.1,0-2,0.9-2,2c0,1.1,0.9,2,2,2c1.1,0,2-0.9,2-2C48.6,93.1,47.7,92.2,46.5,92.2z"/>
<g id="XMLID_73_">
	<g>
		<path class="st0" d="M46.5,93.1c0.6,0,1.1,0.5,1.1,1.1c0,0.6-0.5,1.1-1.1,1.1c-0.6,0-1.1-0.5-1.1-1.1
			C45.4,93.6,45.9,93.1,46.5,93.1z"/>
	</g>
	<g>
	</g>
</g>
<path class="st0" d="M60.1,95.8C60.1,95.8,60.1,95.8,60.1,95.8c0-2-0.4-4-1.2-5.9c-0.8-1.8-1.9-3.4-3.2-4.8c-1.4-1.4-3-2.5-4.8-3.2
	c-1.9-0.8-3.9-1.2-5.9-1.2c-0.3,0-0.5,0.2-0.5,0.5V84c0,0.3,0.2,0.5,0.5,0.5c1.5,0,3,0.3,4.4,0.9c1.4,0.6,2.6,1.4,3.6,2.4
	c1,1,1.9,2.3,2.4,3.6c0.6,1.4,0.9,2.9,0.9,4.4c0,0.2,0.1,0.3,0.2,0.4c0.1,0,0.1,0.1,0.2,0.1h0l2.8,0c0,0,0,0,0,0
	C59.9,96.3,60.1,96.1,60.1,95.8C60.1,95.8,60.1,95.8,60.1,95.8C60.1,95.8,60.1,95.8,60.1,95.8z"/>
<g id="XMLID_45_">
	<g>
		<path class="st0" d="M60.2,95.4l-2,0c-0.1-1.5-0.4-2.9-1-4.3c-0.6-1.5-1.5-2.8-2.6-3.9c-1.1-1.1-2.4-2-3.9-2.6
			c-1.4-0.6-2.8-0.9-4.3-1v-2c1.7,0.1,3.5,0.4,5.1,1.1c1.7,0.7,3.2,1.7,4.5,3c1.3,1.3,2.3,2.8,3,4.5C59.7,91.9,60.1,93.6,60.2,95.4z
			"/>
	</g>
	<g>
	</g>
</g>
<g>
	<path class="st2" d="M93.3,98.3c-2.7,0-4.9-4.1-4.9-9.4s2.2-9.4,4.9-9.4c0.3,0,0.5,0.2,0.5,0.5s-0.2,0.5-0.5,0.5
		c-2.1,0-3.9,3.8-3.9,8.4c0,4.6,1.8,8.4,3.9,8.4c0.3,0,0.5,0.2,0.5,0.5C93.8,98.1,93.6,98.3,93.3,98.3z"/>
</g>
<g>
	<path class="st2" d="M93.4,98.3c-0.3,0-0.5-0.2-0.5-0.5c0-0.3,0.2-0.5,0.5-0.5c2.1,0,3.9-3.8,3.9-8.4c0-4.6-1.8-8.4-3.9-8.4
		c-0.3,0-0.5-0.2-0.5-0.5s0.2-0.5,0.5-0.5c2.7,0,4.9,4.1,4.9,9.4S96.1,98.3,93.4,98.3z"/>
</g>
<g>
	<path class="st2" d="M93.4,98.3c-0.3,0-0.5-0.2-0.5-0.5V80c0-0.3,0.2-0.5,0.5-0.5c0.3,0,0.5,0.2,0.5,0.5v17.8
		C93.9,98.1,93.6,98.3,93.4,98.3z"/>
</g>
<g>
	<path class="st2" d="M102.3,89.4H84.5c-0.3,0-0.5-0.2-0.5-0.5c0-0.3,0.2-0.5,0.5-0.5h17.8c0.3,0,0.5,0.2,0.5,0.5
		C102.8,89.2,102.6,89.4,102.3,89.4z"/>
</g>
<g>
	<path class="st2" d="M93.4,98.3c-2.6,0-5.1-1.1-6.9-3c-1.7-1.8-2.6-4-2.6-6.5c0-5.2,4.2-9.4,9.4-9.4c5.2,0,9.4,4.2,9.4,9.4
		c0,0.6-0.1,1.1-0.2,1.7c-0.2,0.9-0.5,1.8-0.9,2.6c0,0,0,0,0,0c-0.4,0.8-0.9,1.4-1.5,2.1c-1.4,1.5-3.4,2.6-5.5,2.9
		C94.3,98.3,93.8,98.3,93.4,98.3z M93.4,80.5c-4.6,0-8.4,3.8-8.4,8.4c0,2.1,0.8,4.2,2.3,5.8c1.9,2,4.5,3,7.4,2.5
		c1.9-0.3,3.6-1.2,4.9-2.6c0.5-0.5,1-1.2,1.3-1.8c0,0,0,0,0,0c0.4-0.7,0.7-1.5,0.8-2.4c0.1-0.5,0.1-1,0.1-1.5
		C101.8,84.3,98,80.5,93.4,80.5z"/>
</g>
</svg>
