<?xml version="1.0" encoding="utf-8"?>
<!-- Generator: Adobe Illustrator 24.0.1, SVG Export Plug-In . SVG Version: 6.00 Build 0)  -->
<svg version="1.1" id="Layer_1" xmlns="http://www.w3.org/2000/svg" xmlns:xlink="http://www.w3.org/1999/xlink" x="0px" y="0px"
	 viewBox="0 0 149 124" style="enable-background:new 0 0 149 124;" xml:space="preserve">
<style type="text/css">
	.st0{fill:#312C29;}
	.st1{fill:#FB6520;}
	.st2{fill:#FFFFFF;stroke:#312C29;stroke-width:2;stroke-miterlimit:10;}
</style>
<g>
	<path class="st0" d="M73.5,89.2c-0.3,0-0.6-0.1-0.9-0.2l-13.4-7.4c-13-7.2-20.8-19.4-20.9-32.6c0-0.1,0-0.2,0-0.3V11.8
		c0-0.8,0.7-1.5,1.6-1.5H107c0.9,0,1.6,0.7,1.6,1.5l0,37.1c-0.1,13.3-7.9,25.5-20.9,32.7L74.4,89C74.1,89.2,73.8,89.2,73.5,89.2z"/>
	<g id="XMLID_77_">
		<g>
			<path class="st1" d="M105.3,13.3l0,35.4v0.2C105.2,61.1,98,72.3,86,79l-12.5,7L61,79c-12-6.7-19.2-17.9-19.3-30.1l0-35.6H105.3z"
				/>
		</g>
		<g>
		</g>
	</g>
</g>
<circle class="st2" cx="73.6" cy="44.8" r="18.2"/>
<g>
	<path class="st0" d="M71.6,55.4C71.5,55.4,71.5,55.4,71.6,55.4c-1,0-1.7-0.5-2-1.3l-4-10.7c-0.4-1,0.2-2,1.3-2.4
		c1.1-0.3,2.3,0.2,2.7,1.2l2.2,6l5.6-11.8c0.5-1,1.7-1.4,2.7-1s1.6,1.5,1.1,2.5l-7.8,16.4C73.2,55,72.4,55.4,71.6,55.4z"/>
</g>
<g>
	<path class="st0" d="M121.1,106h-6.9c-0.9,0-1.6-0.7-1.6-1.5V41.8h-5.2c-0.9,0-1.6-0.7-1.6-1.5v-6.5c0-0.8,0.7-1.5,1.6-1.5h10.3
		c2.8,0,5.1,2.1,5.1,4.7v67.5C122.7,105.3,122,106,121.1,106z M115.8,103h3.6V37c0-1-0.8-1.7-1.8-1.7h-8.7v3.5h5.2
		c0.9,0,1.6,0.7,1.6,1.5V103z"/>
</g>
<g>
	<path class="st0" d="M32.8,106h-6.9c-0.9,0-1.6-0.7-1.6-1.5V37c0-2.6,2.3-4.7,5.1-4.7h10.6c0.9,0,1.6,0.7,1.6,1.5v6.5
		c0,0.8-0.7,1.5-1.6,1.5h-5.5v62.7C34.4,105.3,33.7,106,32.8,106z M27.5,103h3.6V40.3c0-0.8,0.7-1.5,1.6-1.5h5.5v-3.5h-8.9
		c-1,0-1.8,0.8-1.8,1.7V103z"/>
</g>
<g>
	<path class="st0" d="M122.5,114h-98c-3.8,0-6.9-2.8-6.9-6.3v-2.3c0-1.3,1.2-2.4,2.7-2.4h106.5c1.5,0,2.7,1.1,2.7,2.4v2.3
		C129.4,111.2,126.3,114,122.5,114z M20.9,106v1.7c0,1.8,1.6,3.3,3.6,3.3h98c2,0,3.6-1.5,3.6-3.3V106H20.9z"/>
</g>
</svg>
