<?xml version="1.0" encoding="utf-8"?>
<!-- Generator: Adobe Illustrator 24.0.1, SVG Export Plug-In . SVG Version: 6.00 Build 0)  -->
<svg version="1.1" id="Layer_1" xmlns="http://www.w3.org/2000/svg" xmlns:xlink="http://www.w3.org/1999/xlink" x="0px" y="0px"
	 viewBox="0 0 149 124" style="enable-background:new 0 0 149 124;" xml:space="preserve">
<style type="text/css">
	.st0{fill:#312C29;}
	.st1{fill:#FFFFFF;}
	.st2{fill:#FB6520;}
</style>
<g>
	<path class="st0" d="M73.5,113.4c-0.3,0-0.5-0.1-0.8-0.2l-49-30.3c-0.4-0.3-0.7-0.8-0.7-1.3c0-0.5,0.3-1,0.7-1.3l14.9-9.2
		c0.5-0.3,1.1-0.3,1.6,0l33.3,20.6l33.3-20.6c0.5-0.3,1.1-0.3,1.6,0l14.9,9.2c0.4,0.3,0.7,0.8,0.7,1.3c0,0.5-0.3,1-0.7,1.3l-49,30.3
		C74,113.4,73.8,113.4,73.5,113.4z"/>
	<g id="XMLID_36_">
		<g>
			<path class="st1" d="M119.6,81.7l-46.1,28.5L27.4,81.7l12.1-7.5l33.3,20.6c0.5,0.3,1.1,0.3,1.6,0l33.3-20.6L119.6,81.7z"/>
		</g>
		<g>
		</g>
	</g>
</g>
<g>
	<path class="st0" d="M73.5,95c-0.3,0-0.5-0.1-0.8-0.2l-49-30.3c-0.4-0.3-0.7-0.8-0.7-1.3c0-0.5,0.3-1,0.7-1.3l14.9-9.2
		c0.5-0.3,1.1-0.3,1.6,0l33.3,20.6l33.3-20.6c0.5-0.3,1.1-0.3,1.6,0l14.9,9.2c0.4,0.3,0.7,0.8,0.7,1.3c0,0.5-0.3,1-0.7,1.3l-49,30.3
		C74,94.9,73.8,95,73.5,95z"/>
	<g id="XMLID_47_">
		<g>
			<path class="st2" d="M119.6,63.2L72.5,91.7L26.4,63.2l13.1-7.5l33.3,20.6c0.5,0.3,1.1,0.3,1.6,0l33.3-20.6L119.6,63.2z"/>
		</g>
		<g>
		</g>
	</g>
</g>
<g>
	<path class="st0" d="M73.5,76.5c-0.3,0-0.5-0.1-0.8-0.2L23.7,46c-0.4-0.3-0.7-0.8-0.7-1.3c0-0.5,0.3-1,0.7-1.3l49-30.3
		c0.5-0.3,1.1-0.3,1.6,0l49,30.3c0.4,0.3,0.7,0.8,0.7,1.3c0,0.5-0.3,1-0.7,1.3l-49,30.3C74,76.5,73.8,76.5,73.5,76.5z"/>
	<g id="XMLID_35_">
		<g>
			<polygon class="st1" points="119.6,44.8 73.5,73.3 27.4,44.8 73.5,16.2 			"/>
		</g>
		<g>
		</g>
	</g>
</g>
<g>
	<path class="st0" d="M81.4,47.8c-0.4,0-0.8-0.1-1.1-0.4l-4.9-4.9c-0.6-0.6-0.6-1.5,0-2.1l4.9-4.9c0.6-0.6,1.5-0.6,2.1,0
		c0.6,0.6,0.6,1.5,0,2.1l-3.9,3.9l3.9,3.9c0.6,0.6,0.6,1.5,0,2.1C82.1,47.6,81.8,47.8,81.4,47.8z"/>
</g>
<g>
	<path class="st0" d="M100.9,91.7c-0.4,0-0.8-0.2-1.1-0.4l-5-4.9c-0.6-0.6-0.6-1.5,0-2.1c0.6-0.6,1.5-0.6,2.1,0l3.9,3.9l3.9-3.9
		c0.6-0.6,1.5-0.6,2.1,0c0.6,0.6,0.6,1.5,0,2.1l-4.9,4.9C101.6,91.5,101.2,91.7,100.9,91.7z"/>
</g>
<g>
	<path class="st0" d="M102.1,40.5c-0.1,0-0.1-0.1-0.2-0.1c-0.4,0-0.7,0-1.1,0.1c-0.2,0-0.3,0.1-0.5,0.1c-0.4,0.1-0.8,0-1.1-0.1
		c-0.1,0.4-0.1,0.9-0.1,1.3v44c0,2,0.7,3.6,1.7,3.6c0.9,0,1.7-1.6,1.7-3.6v-44c0-0.2,0-0.4-0.1-0.6
		C102.3,40.9,102.2,40.7,102.1,40.5z"/>
</g>
<g>
	<path class="st0" d="M79.3,39.7l21.5-0.1c1,0,1.7,0.7,1.7,1.7c0,0.9-0.8,1.7-1.7,1.7L79.3,43c-1,0-1.7-0.7-1.7-1.7
		C77.6,40.5,78.3,39.7,79.3,39.7z"/>
</g>
</svg>
