<?xml version="1.0" encoding="utf-8"?>
<!-- Generator: Adobe Illustrator 24.0.1, SVG Export Plug-In . SVG Version: 6.00 Build 0)  -->
<svg version="1.1" id="Layer_1" xmlns="http://www.w3.org/2000/svg" xmlns:xlink="http://www.w3.org/1999/xlink" x="0px" y="0px"
	 viewBox="0 0 149 124" style="enable-background:new 0 0 149 124;" xml:space="preserve">
<style type="text/css">
	.st0{fill:#312C29;}
	.st1{fill:#FB6520;stroke:#312C29;stroke-width:2;stroke-miterlimit:10;}
</style>
<g>
	<path class="st0" d="M55.9,49.7c-0.4,0-0.8-0.1-1.1-0.4l-4-4c-0.6-0.6-0.6-1.6,0-2.2c0.6-0.6,1.6-0.6,2.2,0l4,4
		c0.6,0.6,0.6,1.6,0,2.2C56.7,49.6,56.3,49.7,55.9,49.7z"/>
</g>
<g>
	<path class="st0" d="M99.2,92.9c-0.4,0-0.8-0.1-1.1-0.4l-4-4c-0.6-0.6-0.6-1.6,0-2.2c0.6-0.6,1.6-0.6,2.2,0l4,4
		c0.6,0.6,0.6,1.6,0,2.2C99.9,92.8,99.5,92.9,99.2,92.9z"/>
</g>
<g>
	<path class="st0" d="M95.1,49.7c-0.4,0-0.8-0.1-1.1-0.4c-0.6-0.6-0.6-1.6,0-2.2l4-4c0.6-0.6,1.6-0.6,2.2,0c0.6,0.6,0.6,1.6,0,2.2
		l-4,4C95.9,49.6,95.5,49.7,95.1,49.7z"/>
</g>
<g>
	<path class="st0" d="M51.9,92.9c-0.4,0-0.8-0.1-1.1-0.4c-0.6-0.6-0.6-1.6,0-2.2l4-4c0.6-0.6,1.6-0.6,2.2,0c0.6,0.6,0.6,1.6,0,2.2
		l-4,4C52.7,92.8,52.3,92.9,51.9,92.9z"/>
</g>
<g>
	<path class="st0" d="M75.5,41.6c-0.8,0-1.5-0.7-1.5-1.5v-5.7c0-0.8,0.7-1.5,1.5-1.5c0.8,0,1.5,0.7,1.5,1.5v5.7
		C77.1,40.9,76.4,41.6,75.5,41.6z"/>
</g>
<g>
	<path class="st0" d="M75.5,102.7c-0.8,0-1.5-0.7-1.5-1.5v-5.7c0-0.8,0.7-1.5,1.5-1.5c0.8,0,1.5,0.7,1.5,1.5v5.7
		C77.1,102,76.4,102.7,75.5,102.7z"/>
</g>
<g>
	<path class="st0" d="M47.8,69.3h-5.7c-0.8,0-1.5-0.7-1.5-1.5c0-0.8,0.7-1.5,1.5-1.5h5.7c0.8,0,1.5,0.7,1.5,1.5
		C49.3,68.6,48.7,69.3,47.8,69.3z"/>
</g>
<g>
	<path class="st0" d="M108.9,69.3h-5.7c-0.8,0-1.5-0.7-1.5-1.5c0-0.8,0.7-1.5,1.5-1.5h5.7c0.8,0,1.5,0.7,1.5,1.5
		C110.5,68.6,109.8,69.3,108.9,69.3z"/>
</g>
<g>
	<path class="st0" d="M26.3,37.5c-1,0-2.1-0.4-2.8-1.2L20,32.8c-1.6-1.6-1.6-4.1,0-5.7l15.1-15.1c1.6-1.6,4.1-1.6,5.7,0l3.5,3.5
		c1.6,1.6,1.6,4.1,0,5.7L29.2,36.3C28.4,37.1,27.4,37.5,26.3,37.5z M37.9,14c-0.2,0-0.5,0.1-0.7,0.3L22.2,29.3c-0.4,0.4-0.4,1,0,1.4
		l3.5,3.5c0.4,0.4,1,0.4,1.4,0l15.1-15.1c0.4-0.4,0.4-1,0-1.4l-3.5-3.5C38.4,14.1,38.2,14,37.9,14z"/>
</g>
<g>
	<path class="st0" d="M40.6,39.8c-0.4,0-0.8-0.2-1.1-0.4l-7.8-7.8c-0.6-0.6-0.6-1.6,0-2.2l5.4-5.4c0.6-0.6,1.6-0.6,2.2,0l7.8,7.8
		c0.3,0.3,0.5,0.7,0.4,1.1c0,0.4-0.2,0.8-0.5,1.1c-1.1,0.9-2.1,1.8-2.9,2.7c-0.7,0.7-1.4,1.5-2.3,2.5C41.5,39.6,41.1,39.8,40.6,39.8
		C40.7,39.8,40.7,39.8,40.6,39.8z M35,30.5l5.6,5.6c0.5-0.5,0.9-1,1.3-1.4c0.6-0.6,1.2-1.2,1.9-1.8l-5.6-5.6L35,30.5z"/>
</g>
<g>
	<path class="st0" d="M75.1,114.6c-12,0-24-4.6-33.1-13.7c-17.2-17.2-18.3-45.2-2.4-63.6c0.9-1,1.7-1.9,2.4-2.7c1-1,2-1.9,3.2-2.9
		l0,0c18.4-15.4,46.2-14.1,63.1,2.9c18.3,18.3,18.3,48,0,66.3C99.1,110.1,87.1,114.6,75.1,114.6z M47,34.1c-1.1,0.9-2.1,1.8-2.9,2.7
		c-0.7,0.7-1.4,1.5-2.3,2.5C27,56.5,28,82.7,44.1,98.8c17.1,17.1,44.9,17.1,62,0c17.1-17.1,17.1-44.9,0-62
		C90.2,20.9,64.3,19.7,47,34.1L47,34.1z M75.1,106.4C75.1,106.4,75.1,106.4,75.1,106.4c-10.3,0-20-4-27.3-11.3
		c-15.1-15.1-15.1-39.6,0-54.7s39.6-15.1,54.7,0c7.3,7.3,11.3,17,11.3,27.3c0,10.3-4,20-11.3,27.3C95.1,102.4,85.4,106.4,75.1,106.4
		z M75.1,32.2c-9.1,0-18.2,3.5-25.2,10.4c-6.7,6.7-10.4,15.7-10.4,25.2c0,9.5,3.7,18.5,10.4,25.2c6.7,6.7,15.7,10.4,25.2,10.4
		c9.5,0,18.5-3.7,25.2-10.4c6.7-6.7,10.4-15.7,10.4-25.2c0-9.5-3.7-18.5-10.4-25.2C93.3,35.7,84.2,32.2,75.1,32.2z"/>
</g>
<g>
	<path class="st0" d="M75.4,74.3c-1.8,0-3.5-0.7-4.8-2c-2.6-2.6-2.6-7,0-9.6c2.6-2.6,7-2.6,9.6,0c2.6,2.6,2.6,7,0,9.6
		C78.9,73.6,77.2,74.3,75.4,74.3z M75.4,63.8c-1,0-1.9,0.4-2.6,1.1c-1.5,1.5-1.5,3.8,0,5.3c1.5,1.5,3.8,1.5,5.3,0
		c1.5-1.5,1.5-3.8,0-5.3C77.3,64.2,76.3,63.8,75.4,63.8z"/>
</g>
<g>
	<path class="st0" d="M74.9,68.7H56c-0.8,0-1.5-0.7-1.5-1.5c0-0.8,0.7-1.5,1.5-1.5h18.9c0.8,0,1.5,0.7,1.5,1.5
		C76.4,68,75.7,68.7,74.9,68.7z"/>
</g>
<circle class="st1" cx="104.7" cy="34.3" r="22.8"/>
<g>
	<g id="XMLID_60_">
		<g>
			<path class="st0" d="M114.7,32.6c0.4,0.2,0.7,0.7,0.7,1.2s-0.3,0.9-0.7,1.2L96.9,45.3c-0.2,0.1-0.5,0.2-0.7,0.2
				c-0.2,0-0.5-0.1-0.7-0.2c-0.4-0.2-0.7-0.7-0.7-1.2V23.5c0-0.5,0.3-1,0.7-1.2c0.4-0.2,1-0.2,1.4,0L114.7,32.6z M97.6,41.8
				l13.7-7.9l-13.7-7.9V41.8z"/>
			<polygon class="st0" points="111.2,33.8 97.6,41.8 97.6,25.9 			"/>
		</g>
		<g>
		</g>
	</g>
</g>
</svg>
