<?xml version="1.0" encoding="utf-8"?>
<!-- Generator: Adobe Illustrator 24.0.1, SVG Export Plug-In . SVG Version: 6.00 Build 0)  -->
<svg version="1.1" id="Layer_1" xmlns="http://www.w3.org/2000/svg" xmlns:xlink="http://www.w3.org/1999/xlink" x="0px" y="0px"
	 viewBox="0 0 149 124" style="enable-background:new 0 0 149 124;" xml:space="preserve">
<style type="text/css">
	.st0{fill:#312C29;}
	.st1{fill:#FFFFFF;}
	.st2{fill:#FB6520;stroke:#312C29;stroke-width:2;stroke-miterlimit:10;}
</style>
<g>
	<g>
		<g>
			<path class="st0" d="M119.9,91.6H25.1c-2.4,0-4.4-2.1-4.4-4.6V15.6c0-2.6,2-4.6,4.4-4.6h94.9c2.4,0,4.4,2.1,4.4,4.6v71.3
				C124.3,89.5,122.4,91.6,119.9,91.6z M25.1,14c-0.8,0-1.4,0.7-1.4,1.6v71.3c0,0.9,0.6,1.6,1.4,1.6h94.9c0.8,0,1.4-0.7,1.4-1.6
				V15.6c0-0.9-0.6-1.6-1.4-1.6H25.1z M117,85.3H28c-0.8,0-1.5-0.7-1.5-1.5v-65c0-0.8,0.7-1.5,1.5-1.5H117c0.8,0,1.5,0.7,1.5,0.5v65
				C118.5,84.6,117.9,85.3,117,85.3z M29.5,82.3h86.1v-62H29.5V82.3z"/>
		</g>
	</g>
</g>
<g>
	<path class="st0" d="M93.6,113.4h-43c-0.8,0-1.5-0.7-1.5-1.5v-6.1c0-0.8,0.7-1.5,1.5-1.5c4.6,0,8.3-3.7,8.3-8.3v-6
		c0-0.8,0.7-1.5,1.5-1.5h22.6c0.8,0,1.5,0.7,1.5,1.5v5.1c0,5.1,4.1,9.2,9.2,9.2c0.8,0,1.5,0.7,1.5,1.5v6.1
		C95.1,112.7,94.4,113.4,93.6,113.4z"/>
	<g id="XMLID_55_">
		<g>
			<path class="st1" d="M92.1,107.2v3.2H52v-3.2c5.5-0.7,9.8-5.5,9.8-11.2v-4.5h19.6v3.6C81.4,101.3,86.1,106.5,92.1,107.2z"/>
		</g>
		<g>
		</g>
	</g>
</g>
<g id="XMLID_54_">
	<g>
		<rect x="29.5" y="20.2" class="st1" width="86.1" height="62"/>
	</g>
	<g>
	</g>
</g>
<circle class="st2" cx="72" cy="51.4" r="25.9"/>
<g>
	<path class="st0" d="M72.1,70.9c-10.4,0-18.9-8.5-18.9-18.9c0-3.9,1.2-7.7,3.5-10.9c0.1-0.2,0.3-0.3,0.6-0.4c0.2,0,0.5,0,0.7,0.2
		l4.9,3.5c0.2,0.1,0.3,0.3,0.4,0.6c0,0.2,0,0.5-0.2,0.7c-1.3,1.9-2,4.1-2,6.4c0,6.1,5,11.1,11.1,11.1c6.1,0,11.1-5,11.1-11.1
		c0-2.3-0.7-4.5-2-6.4c-0.1-0.2-0.2-0.4-0.2-0.7c0-0.2,0.2-0.4,0.4-0.6l4.9-3.5c0.2-0.1,0.4-0.2,0.7-0.2c0.2,0,0.4,0.2,0.6,0.4
		C89.8,44.2,91,48,91,52C91,62.4,82.5,70.9,72.1,70.9z"/>
	<g id="XMLID_57_">
		<g>
			<path class="st1" d="M86.5,42.8c1.7,2.7,2.6,5.9,2.6,9.1c0,9.4-7.7,17.1-17.1,17.1c-9.4,0-17.1-7.7-17.1-17.1
				c0-3.3,0.9-6.4,2.6-9.1l3.5,2.5c-1.2,2-1.9,4.3-1.9,6.7c0,7.1,5.8,12.9,12.9,12.9c7.1,0,12.9-5.8,12.9-12.9
				c0-2.4-0.6-4.7-1.9-6.7L86.5,42.8z"/>
		</g>
		<g>
		</g>
	</g>
</g>
<g>
	<g id="XMLID_56_">
		<g>
			<rect x="69.9" y="37.3" class="st1" width="4.2" height="13.8"/>
			<path class="st0" d="M69.9,37.3V51h4.2V37.3H69.9z M76,36.4V52c0,0.5-0.4,0.9-0.9,0.9h-6c-0.5,0-0.9-0.4-0.9-0.9V36.4
				c0-0.5,0.4-0.9,0.9-0.9h6C75.6,35.5,76,35.9,76,36.4z"/>
		</g>
		<g>
		</g>
	</g>
</g>
</svg>
