<?xml version="1.0" encoding="utf-8"?>
<!-- Generator: Adobe Illustrator 24.0.1, SVG Export Plug-In . SVG Version: 6.00 Build 0)  -->
<svg version="1.1" id="Layer_1" xmlns="http://www.w3.org/2000/svg" xmlns:xlink="http://www.w3.org/1999/xlink" x="0px" y="0px"
	 viewBox="0 0 149 124" style="enable-background:new 0 0 149 124;" xml:space="preserve">
<style type="text/css">
	.st0{fill:#312C29;}
	.st1{fill:#FFFFFF;}
	.st2{fill:#FB6520;}
</style>
<g>
	<path class="st0" d="M113.5,113.7H32.5c-6.5,0-11.8-5.3-11.8-11.8c0-0.8,0.7-1.5,1.5-1.5h101.6c0.8,0,1.5,0.7,1.5,1.5
		C125.3,108.4,120,113.7,113.5,113.7z"/>
	<g id="XMLID_2_">
		<g>
			<path class="st1" d="M23.8,103.4h98.3c-0.7,4.2-4.3,7.3-8.7,7.3H32.5C28.2,110.7,24.5,107.6,23.8,103.4z"/>
		</g>
		<g>
		</g>
	</g>
</g>
<g>
	<g id="XMLID_4_">
		<g>
			<path class="st1" d="M31.1,37v62.9h-3V34c0-0.8,0.7-1.5,1.5-1.5h11.7v3h-8.7C31.8,35.5,31.1,36.1,31.1,37z"/>
			<path class="st0" d="M32.6,35.5h8.7v-3H29.6c-0.8,0-1.5,0.7-1.5,1.5v65.9h3V37C31.1,36.1,31.8,35.5,32.6,35.5z M44.3,31v6
				c0,0.8-0.7,1.5-1.5,1.5h-8.7v62.9c0,0.8-0.7,1.5-1.5,1.5h-6c-0.8,0-1.5-0.7-1.5-1.5V34c0-2.5,2-4.5,4.5-4.5h13.2
				C43.6,29.5,44.3,30.1,44.3,31z"/>
		</g>
		<g>
		</g>
	</g>
</g>
<g>
	<g id="XMLID_3_">
		<g>
			<path class="st1" d="M117.8,34v65.9h-3V37c0-0.8-0.7-1.5-1.5-1.5h-8.5v-3h11.5C117.1,32.5,117.8,33.1,117.8,34z"/>
			<path class="st0" d="M117.8,99.9V34c0-0.8-0.7-1.5-1.5-1.5h-11.5v3h8.5c0.8,0,1.5,0.7,1.5,1.5v62.9H117.8z M120.8,34v67.4
				c0,0.8-0.7,1.5-1.5,1.5h-6c-0.8,0-1.5-0.7-1.5-1.5V38.5h-8.5c-0.8,0-1.5-0.7-1.5-1.5v-6c0-0.8,0.7-1.5,1.5-1.5h13
				C118.8,29.5,120.8,31.5,120.8,34z"/>
		</g>
		<g>
		</g>
	</g>
</g>
<g>
	<g id="XMLID_5_">
		<g>
			<rect x="44.3" y="23.1" class="st1" width="57.5" height="69.3"/>
			<path class="st0" d="M44.3,92.4h57.5V23.1H44.3V92.4z M104.8,21.6v72.3c0,0.8-0.7,1.5-1.5,1.5H42.8c-0.8,0-1.5-0.7-1.5-1.5V21.6
				c0-0.8,0.7-1.5,1.5-1.5h60.5C104.1,20.1,104.8,20.7,104.8,21.6z"/>
		</g>
		<g>
		</g>
	</g>
</g>
<g>
	<path class="st0" d="M78.7,51.7H67.4c-0.8,0-1.5-0.7-1.5-1.5v-6.9c0-0.8,0.7-1.5,1.5-1.5h11.3c0.8,0,1.5,0.7,1.5,1.5v6.9
		C80.2,51,79.5,51.7,78.7,51.7z"/>
</g>
<g>
	<path class="st0" d="M78.7,78.2H67.4c-0.8,0-1.5-0.7-1.5-1.5v-6.9c0-0.8,0.7-1.5,1.5-1.5h11.3c0.8,0,1.5,0.7,1.5,1.5v6.9
		C80.2,77.5,79.5,78.2,78.7,78.2z"/>
</g>
<g>
	<g id="XMLID_1_">
		<g>
			<path class="st0" d="M91.2,64.1c0.2,0.7,0.1,1.5-0.3,2l-16.8,22c-0.3,0.4-0.7,0.6-1.1,0.6c-0.4,0-0.8-0.2-1.1-0.6l-16.8-22
				c-0.4-0.5-0.5-1.3-0.3-2c0.2-0.7,0.8-1.1,1.4-1.1h6.9V13.6h3v51.2c0,1-0.7,1.9-1.5,1.9h-5l13.3,17.4l13.3-17.4h-5
				c-0.8,0-1.5-0.8-1.5-1.9V63h3h6.9C90.4,63,90.9,63.4,91.2,64.1z"/>
			<path class="st2" d="M86.3,66.7L73.1,84.1L59.8,66.7h5c0.8,0,1.5-0.8,1.5-1.9V13.6h13.7V63v1.9c0,1,0.7,1.9,1.5,1.9H86.3z"/>
			<path class="st0" d="M82.9,11.7V63h-3V13.6H66.2h-3v-1.9c0-1,0.7-1.9,1.5-1.9h16.7C82.2,9.9,82.9,10.7,82.9,11.7z"/>
		</g>
		<g>
		</g>
	</g>
</g>
</svg>
