<?xml version="1.0" encoding="utf-8"?>
<!-- Generator: Adobe Illustrator 24.0.1, SVG Export Plug-In . SVG Version: 6.00 Build 0)  -->
<svg version="1.1" id="Layer_1" xmlns="http://www.w3.org/2000/svg" xmlns:xlink="http://www.w3.org/1999/xlink" x="0px" y="0px"
	 viewBox="0 0 143.6 128.5" style="enable-background:new 0 0 143.6 128.5;" xml:space="preserve">
<style type="text/css">
	.st0{fill:#E3E3E3;}
	.st1{fill:#88CB96;}
	.st2{opacity:0.2;}
	.st3{fill:#FFFFFF;}
	.st4{fill:#F26527;}
	.st5{fill:#404D66;}
</style>
<g>
	<g>
		<rect x="21" y="12.5" class="st0" width="103.6" height="103.6"/>
	</g>
	<g>
		<rect x="21" y="12.5" class="st1" width="103.4" height="12.6"/>
	</g>
	<g class="st2">
		<rect x="72" y="12.5" class="st0" width="52.6" height="103.6"/>
	</g>
	<g class="st2">
		<rect x="72" y="12.5" class="st1" width="52.4" height="12.6"/>
	</g>
	<g>
		<g>
			<g>
				<path class="st3" d="M30.1,20.7c-0.1,0-0.2,0-0.3,0c-0.1,0-0.2-0.1-0.3-0.1c-0.1,0-0.2-0.1-0.3-0.1c-0.1-0.1-0.2-0.1-0.2-0.2
					c-0.3-0.3-0.4-0.7-0.4-1.1c0-0.4,0.2-0.8,0.4-1.1c0.1-0.1,0.2-0.1,0.2-0.2c0.1-0.1,0.2-0.1,0.3-0.1c0.1,0,0.2-0.1,0.3-0.1
					c0.5-0.1,1,0.1,1.4,0.4c0.3,0.3,0.4,0.7,0.4,1.1c0,0.4-0.2,0.8-0.4,1.1C30.9,20.6,30.5,20.7,30.1,20.7z"/>
			</g>
		</g>
		<g>
			<g>
				<path class="st3" d="M40.5,19.2c0-0.8,0.7-1.5,1.5-1.5l0,0c0.8,0,1.5,0.7,1.5,1.5l0,0c0,0.8-0.7,1.5-1.5,1.5l0,0
					C41.2,20.7,40.5,20.1,40.5,19.2z"/>
			</g>
		</g>
		<g>
			<g>
				<path class="st3" d="M54,20.7c-0.4,0-0.8-0.2-1.1-0.4c-0.3-0.3-0.4-0.7-0.4-1.1c0-0.4,0.2-0.8,0.4-1.1c0.6-0.6,1.6-0.6,2.2,0
					c0.3,0.3,0.4,0.7,0.4,1.1c0,0.4-0.2,0.8-0.4,1.1C54.8,20.6,54.4,20.7,54,20.7z"/>
			</g>
		</g>
	</g>
</g>
<g>
	<g>
		<path class="st4" d="M95.7,66.1c0-2.9-0.5-5.6-1.5-8.2l6.7-2.5c-1.2-3.4-3.1-6.5-5.4-9.3l-5.5,4.6c-1.8-2.1-3.9-3.9-6.3-5.3
			l3.6-6.2c-3.1-1.8-6.5-3-10.1-3.6l-1.2,7c-1.3-0.2-2.7-0.4-4-0.4c-1.4,0-2.8,0.1-4.2,0.4l-1.3-7c-3.6,0.6-6.9,1.9-10.1,3.7
			l3.6,6.2c-2.4,1.4-4.5,3.2-6.3,5.3l-5.5-4.6c-2.3,2.8-4.1,5.9-5.3,9.3l6.7,2.4c-0.9,2.5-1.4,5.2-1.4,8.1c0,0,0,0,0,0l-7.1,0
			c0,3.6,0.6,7.2,1.9,10.5l6.7-2.5c1,2.6,2.4,5,4.1,7.1L48.4,86c2.3,2.8,5.1,5.1,8.2,6.9l3.6-6.2c2.4,1.4,5,2.3,7.7,2.8l-1.2,7
			c1.7,0.3,3.5,0.5,5.3,0.5c1.8,0,3.6-0.2,5.4-0.5l-1.2-7c2.8-0.5,5.4-1.5,7.7-2.8l3.6,6.2c3.1-1.8,5.9-4.1,8.2-6.9l-5.5-4.6
			c1.8-2.1,3.1-4.5,4.1-7.1l6.7,2.4c1.2-3.4,1.9-6.9,1.9-10.6V66L95.7,66.1z"/>
	</g>
</g>
<g class="st2">
	<path class="st5" d="M95.7,66.1c0-2.9-0.5-5.6-1.5-8.2l6.7-2.5c-1.2-3.4-3.1-6.5-5.4-9.3l-5.5,4.6c-1.8-2.1-3.9-3.9-6.3-5.3
		l3.6-6.2c-3.1-1.8-6.5-3-10.1-3.6l-1.2,7c-1.3-0.2-2.7-0.4-4-0.4V97c1.8,0,3.6-0.2,5.4-0.5l-1.2-7c2.8-0.5,5.4-1.5,7.7-2.8l3.6,6.2
		c3.1-1.8,5.9-4.1,8.2-6.9l-5.5-4.6c1.8-2.1,3.1-4.5,4.1-7.1l6.7,2.4c1.2-3.4,1.9-6.9,1.9-10.6V66L95.7,66.1z"/>
</g>
<g>
	<g>
		<path class="st3" d="M72,79.8c-7.4,0-13.4-6-13.4-13.4c0-0.9,0.7-1.6,1.6-1.6c0.9,0,1.6,0.7,1.6,1.6c0,5.6,4.6,10.2,10.2,10.2
			S82.2,72,82.2,66.4c0-5.6-4.6-10.2-10.2-10.2c-0.9,0-1.6-0.7-1.6-1.6c0-0.9,0.7-1.6,1.6-1.6c7.4,0,13.4,6,13.4,13.4
			C85.4,73.8,79.4,79.8,72,79.8z"/>
	</g>
</g>
<g>
	<g>
		<path class="st3" d="M70.4,66.4c0-0.9,0.7-1.6,1.6-1.6l0,0c0.9,0,1.6,0.7,1.6,1.6l0,0c0,0.9-0.7,1.6-1.6,1.6l0,0
			C71.1,68,70.4,67.3,70.4,66.4z"/>
	</g>
</g>
</svg>
