<?xml version="1.0" encoding="utf-8"?>
<!-- Generator: Adobe Illustrator 24.0.1, SVG Export Plug-In . SVG Version: 6.00 Build 0)  -->
<svg version="1.1" id="Layer_1" xmlns="http://www.w3.org/2000/svg" xmlns:xlink="http://www.w3.org/1999/xlink" x="0px" y="0px"
	 viewBox="0 0 143.6 128.5" style="enable-background:new 0 0 143.6 128.5;" xml:space="preserve">
<style type="text/css">
	.st0{fill:#4FC6DA;}
	.st1{fill:#425762;}
	.st2{fill:#3B4E57;}
	.st3{fill:#F4F0D4;}
	.st4{fill:#D4D5D6;}
	.st5{fill:#C8CACA;}
	.st6{fill:#BEBFC0;}
	.st7{fill:#E7E3C8;}
	.st8{fill:#F26527;}
	.st9{fill:#B4B5B6;}
	.st10{fill:#F15947;}
</style>
<g>
	<path class="st0" d="M126.7,103.2c0,2.3-1.7,4.2-3.7,4.2H21.4c-2.1,0-3.7-1.9-3.7-4.2V26.7c0-2.3,1.7-4.2,3.7-4.2h101.5
		c2.1,0,3.7,1.9,3.7,4.2V103.2z"/>
</g>
<path class="st1" d="M79.3,95.1c-0.7,0.7-2.1,0.8-3-0.1c-8.5-8.7-20.9-7.3-26.9-1.3c-4,4.1-5.2,11.6-8,15.5
	c-1.5,2.2-3.5,4.4-5.6,6.5c0,0-2.5,2.9-7.2,2.9c-5.7,0-11.4-5.6-11.4-11.4c0-4.5,2.9-7.2,2.9-7.2l0.1-0.1l0.1-0.1
	c2-2,4.1-3.9,6.3-5.4c4-2.9,10.4-5.1,14.4-9.1c6-6.1,7.3-18.6-1.2-27.2c-0.4-0.4-0.7-1.1-0.6-1.6c0-0.6,0.3-1.2,0.7-1.5l10.9-11
	l39.5,40C90.1,84.1,79.3,95.1,79.3,95.1z"/>
<path class="st2" d="M39.8,55.1c-0.3,0.3-0.6,0.9-0.7,1.5c0,0.6,0.2,1.2,0.6,1.6c8.5,8.6,7.3,21.1,1.2,27.2
	c-4,4.1-10.5,6.3-14.4,9.1c-2.1,1.5-4.2,3.4-6.3,5.4l-0.1,0.1l-0.1,0.1c1-1-2.9,2.2-2.9,7.2c0,2.9,2.2,6.4,4,8.3l48.3-50.2
	L53.2,46.6l-2.5-2.5C50.7,44.1,39.8,55.1,39.8,55.1z"/>
<path class="st3" d="M89,11.8l35.2,35.1c1.2,1.2,1.2,3,0,4.2l-23.4,23.4c-1.2,1.2-3,1.2-4.2,0L60.3,38.4c-1.2-1.2-1.2-3,0-4.2
	l24.5-22.4C85.9,10.6,87.8,10.6,89,11.8z"/>
<path class="st4" d="M60.1,34.5l42.3,38.3L87,87.4L45.6,49.2L60.1,34.5z"/>
<path class="st5" d="M60.1,34.5l21.4,19.3l-15,14.8L45.6,49.3C45.6,49.3,60.1,34.5,60.1,34.5z"/>
<path class="st6" d="M76.8,65.4c-1.4,1.4-1.4,3.5,0,4.8c1.4,1.4,3.5,1.4,4.8,0c1.4-1.4,1.4-3.5,0-4.8C80.3,64.1,78.1,64.1,76.8,65.4
	z M89.3,73c-1.4-1.4-3.5-1.4-4.8,0c-1.4,1.4-1.4,3.5,0,4.8c1.4,1.4,3.5,1.4,4.8,0C90.5,76.5,90.5,74.3,89.3,73z"/>
<path class="st7" d="M121.1,43.9c-0.6-0.6-1.5-0.6-2.1,0L100.8,62c-0.6,0.6-0.6,1.5,0,2.1s1.5,0.6,2.1,0L121.1,46
	C121.7,45.4,121.7,44.4,121.1,43.9z M116.1,38.8c-0.6-0.6-1.5-0.6-2.1,0L95.7,56.9c-0.6,0.6-0.6,1.5,0,2.1c0.6,0.6,1.5,0.6,2.1,0
	l18.2-18.2C116.6,40.3,116.6,39.4,116.1,38.8z M105.8,28.6c-0.6-0.6-1.5-0.6-2.1,0L85.5,46.7c-0.6,0.6-0.6,1.5,0,2.1
	c0.6,0.6,1.5,0.6,2.1,0l18.2-18.1C106.4,30.2,106.4,29.2,105.8,28.6z M100.8,23.6c-0.6-0.6-1.5-0.6-2.1,0L80.4,41.7
	c-0.6,0.6-0.6,1.5,0,2.1s1.5,0.6,2.1,0l18.2-18.1C101.4,25.1,101.4,24.2,100.8,23.6z M95.6,18.4c-0.6-0.6-1.5-0.6-2.1,0L75.3,36.6
	c-0.6,0.6-0.6,1.5,0,2.1c0.6,0.6,1.5,0.6,2.1,0l18.2-18.1C96.2,20,96.2,19,95.6,18.4z M91.5,14.4c-0.6-0.6-1.5-0.6-2.1,0L70.2,31.5
	c-0.6,0.6-0.6,1.5,0,2.1c0.6,0.6,1.5,0.6,2.1,0l18.2-18.2C91.1,14.9,92.1,14.9,91.5,14.4z"/>
<path class="st8" d="M124.2,46.8L89,11.7c-1.2-1.2-3-1.2-4.2,0l-2.6,2.6l15.1,14.9c1.3,2.4,0.9,5.3-1.4,7.3l-2,2.4
	c-1.4,1.2-1.4,3.2,0,4.4c1.4,1.2,3.6,1.1,4.7-0.2l-6.3,6.1c-1.3,1.2-1.3,3.1,0,4.3c1.3,1.2,3.2,1.2,4.5,0l2.9-2.9
	c-1.2,1.2-1.2,3.1,0,4.3c1.2,1.2,3,1.2,4.2,0l5.2-5.5c2.4-2.4,6.3-2.4,8.7,0l4,3.9l2.4-2.4C125.4,49.9,125.4,48,124.2,46.8
	L124.2,46.8z"/>
<path class="st9" d="M61.2,45.1c1.4,1.4,1.4,3.5,0,4.8c-1.4,1.4-3.5,1.4-4.8,0c-1.4-1.4-1.4-3.5,0-4.8
	C57.8,43.8,59.9,43.8,61.2,45.1z M68.8,52.7c1.4,1.4,1.4,3.5,0,4.8c-1.4,1.4-3.5,1.4-4.8,0c-1.4-1.4-1.4-3.5,0-4.8
	C65.4,51.4,67.6,51.4,68.8,52.7z"/>
<path class="st10" d="M95.9,36.5l-2,2.4c-1.4,1.2-1.4,3.1,0,4.4c1.3,1.1,3.3,1.1,4.5,0.1l1.9-1.9c-1.2,1.2-3.4,1.4-4.7,0.2
	c-1.4-1.2-1.4-3.1,0-4.4l2-2.4c2.2-1.9,2.5-5,1.4-7.3L83.9,12.8l-1.7,1.7l15.1,14.8C98.5,31.6,98.1,34.6,95.9,36.5z M94.1,51.9
	c-1.2-1.1-1.2-3-0.2-4.1l-1.5,1.4c-1.3,1.2-1.3,3.1,0,4.3c1.3,1.2,3.2,1.2,4.5,0l1.7-1.7C97.3,53.1,95.4,53.1,94.1,51.9z
	 M101.4,53.4c-1.2-1.2-1.2-3.1,0-4.3l-1.7,1.7c-1.2,1.2-1.2,3.1,0,4.3s3,1.2,4.2,0l1.4-1.4C104.1,54.6,102.5,54.4,101.4,53.4z
	 M123.4,51.8l-4-3.8c-2.4-2.4-6.3-2.4-8.6,0l-1.2,1.2c2.4-1.9,5.9-1.8,8.1,0.4l4,3.8l2.4-2.4L123.4,51.8z"/>
</svg>
