<?xml version="1.0" encoding="utf-8"?>
<!-- Generator: Adobe Illustrator 24.0.1, SVG Export Plug-In . SVG Version: 6.00 Build 0)  -->
<svg version="1.1" id="Layer_1" xmlns="http://www.w3.org/2000/svg" xmlns:xlink="http://www.w3.org/1999/xlink" x="0px" y="0px"
	 viewBox="0 0 143.6 128.5" style="enable-background:new 0 0 143.6 128.5;" xml:space="preserve">
<style type="text/css">
	.st0{fill:#FFFFFF;}
	.st1{fill:#F26527;}
	.st2{opacity:0.2;}
	.st3{fill:#F15947;}
	.st4{fill:#4FC6DA;}
</style>
<g>
	<g>
		<path class="st0" d="M89.8,67.2c-0.8,0-1.5-0.7-1.5-1.5V50.4c0-0.8,0.7-1.5,1.5-1.5s1.5,0.7,1.5,1.5v15.3
			C91.3,66.5,90.7,67.2,89.8,67.2z"/>
	</g>
</g>
<g>
	<g>
		<rect x="20.1" y="20.4" class="st1" width="104.8" height="70.2"/>
	</g>
	<g class="st2">
		<polygon class="st3" points="124.9,90.6 20.1,20.4 124.9,20.4 		"/>
	</g>
	<g>
		<g>
			<path class="st4" d="M128.7,97.1H16.4c-2.1,0-3.8-1.4-3.8-3.2V17.2c0-1.8,1.7-3.2,3.8-3.2h112.3c2.1,0,3.8,1.4,3.8,3.2v76.7
				C132.4,95.7,130.8,97.1,128.7,97.1z M20.1,90.6h104.8V20.4H20.1V90.6z"/>
		</g>
	</g>
	<g>
		<rect x="45.6" y="109.8" class="st4" width="51.9" height="6.1"/>
	</g>
	<g>
		<path class="st4" d="M90.2,109.8c-12.1,0-24.2,0-36.3,0c2.3-4.2,4.5-8.4,6.8-12.7c7.6,0,15.2,0,22.8,0
			C85.7,101.3,87.9,105.5,90.2,109.8z"/>
	</g>
	<g class="st2">
		<path class="st4" d="M90.2,109.8c-12.1,0-24.2,0-36.3,0c2.3-4.2,4.5-8.4,6.8-12.7c7.6,0,15.2,0,22.8,0
			C85.7,101.3,87.9,105.5,90.2,109.8z"/>
	</g>
</g>
<g>
	<g>
		<path class="st0" d="M73.2,81.6c-0.4,0-0.7-0.1-1-0.3L46.4,64.9c-0.4-0.3-0.7-0.7-0.7-1.2c0-0.5,0.3-0.9,0.7-1.2l25.7-16.4
			c0.6-0.4,1.5-0.4,2.1,0l25.7,16.4c0.4,0.3,0.7,0.7,0.7,1.2c0,0.5-0.3,0.9-0.7,1.2L74.2,81.3C73.9,81.5,73.6,81.6,73.2,81.6z
			 M50.4,63.7l22.8,14.5L96,63.7L73.2,49.2L50.4,63.7z"/>
	</g>
</g>
<g>
	<g>
		<path class="st0" d="M73.2,65.2c-0.4,0-0.7-0.1-1-0.3L46.4,48.5c-0.4-0.3-0.7-0.7-0.7-1.2s0.3-0.9,0.7-1.2l25.7-16.4
			c0.6-0.4,1.5-0.4,2.1,0l25.7,16.4c0.4,0.3,0.7,0.7,0.7,1.2s-0.3,0.9-0.7,1.2L74.2,64.9C73.9,65.1,73.6,65.2,73.2,65.2z M50.4,47.3
			l22.8,14.5L96,47.3L73.2,32.8L50.4,47.3z"/>
	</g>
</g>
<g>
	<g>
		<path class="st0" d="M73.2,47.3c-1,0-1.7-0.7-1.7-1.5V30.9c0-0.8,0.8-1.5,1.7-1.5s1.7,0.7,1.7,1.5v14.9
			C74.9,46.7,74.1,47.3,73.2,47.3z"/>
	</g>
</g>
<g>
	<g>
		<path class="st0" d="M98.9,64.1c-1,0-1.7-0.7-1.7-1.5V47.3c0-0.8,0.8-1.5,1.7-1.5s1.7,0.7,1.7,1.5v15.3
			C100.6,63.4,99.9,64.1,98.9,64.1z"/>
	</g>
</g>
<g>
	<g>
		<path class="st0" d="M73.2,81.6c-1,0-1.7-0.7-1.7-1.5V63.7c0-0.8,0.8-1.5,1.7-1.5s1.7,0.7,1.7,1.5v16.4
			C74.9,80.9,74.1,81.6,73.2,81.6z"/>
	</g>
</g>
<g>
	<g>
		<path class="st0" d="M47.5,65.2c-1,0-1.7-0.7-1.7-1.5V47.3c0-0.8,0.8-1.5,1.7-1.5s1.7,0.7,1.7,1.5v16.4
			C49.2,64.6,48.4,65.2,47.5,65.2z"/>
	</g>
</g>
<g>
	<g>
		<g>
			<path class="st0" d="M29.3,79.4c-0.5,0-0.9-0.2-1.2-0.4c-0.3-0.3-0.5-0.7-0.5-1.1c0-0.4,0.2-0.8,0.5-1.1c0.4-0.4,1-0.5,1.6-0.4
				c0.1,0,0.2,0.1,0.3,0.1c0.1,0,0.2,0.1,0.3,0.1c0.1,0.1,0.2,0.1,0.3,0.2c0.3,0.3,0.5,0.7,0.5,1.1c0,0.4-0.2,0.8-0.5,1.1
				c-0.1,0.1-0.2,0.1-0.3,0.2c-0.1,0-0.2,0.1-0.3,0.1c-0.1,0-0.2,0.1-0.3,0.1C29.5,79.4,29.4,79.4,29.3,79.4z"/>
		</g>
	</g>
	<g>
		<g>
			<path class="st0" d="M27.6,66.5c0-0.8,0.8-1.5,1.7-1.5l0,0c1,0,1.7,0.7,1.7,1.5l0,0c0,0.8-0.8,1.5-1.7,1.5l0,0
				C28.3,68,27.6,67.4,27.6,66.5z M27.6,55.2c0-0.8,0.8-1.5,1.7-1.5l0,0c1,0,1.7,0.7,1.7,1.5l0,0c0,0.8-0.8,1.5-1.7,1.5l0,0
				C28.3,56.7,27.6,56,27.6,55.2z M27.6,43.8c0-0.8,0.8-1.5,1.7-1.5l0,0c1,0,1.7,0.7,1.7,1.5l0,0c0,0.8-0.8,1.5-1.7,1.5l0,0
				C28.3,45.3,27.6,44.6,27.6,43.8z"/>
		</g>
	</g>
	<g>
		<g>
			<path class="st0" d="M29.3,33.9c-0.5,0-0.9-0.2-1.2-0.4c-0.1-0.1-0.2-0.1-0.2-0.2c-0.1-0.1-0.1-0.2-0.2-0.3
				c0-0.1-0.1-0.2-0.1-0.3c0-0.1,0-0.2,0-0.3c0-0.4,0.2-0.8,0.5-1.1c0.4-0.4,1-0.5,1.6-0.4c0.1,0,0.2,0,0.3,0.1
				c0.1,0,0.2,0.1,0.3,0.1c0.1,0.1,0.2,0.1,0.3,0.2c0.3,0.3,0.5,0.7,0.5,1.1c0,0.1,0,0.2,0,0.3c0,0.1,0,0.2-0.1,0.3
				c0,0.1-0.1,0.2-0.2,0.3c-0.1,0.1-0.1,0.2-0.2,0.2c-0.1,0.1-0.2,0.1-0.3,0.2c-0.1,0-0.2,0.1-0.3,0.1c-0.1,0-0.2,0.1-0.3,0.1
				C29.5,33.9,29.4,33.9,29.3,33.9z"/>
		</g>
	</g>
</g>
</svg>
